%TF.GenerationSoftware,KiCad,Pcbnew,9.0.5*%
%TF.CreationDate,2026-03-31T15:52:52-05:00*%
%TF.ProjectId,t-coil3,742d636f-696c-4332-9e6b-696361645f70,rev?*%
%TF.SameCoordinates,Original*%
%TF.FileFunction,Paste,Top*%
%TF.FilePolarity,Positive*%
%FSLAX46Y46*%
G04 Gerber Fmt 4.6, Leading zero omitted, Abs format (unit mm)*
G04 Created by KiCad (PCBNEW 9.0.5) date 2026-03-31 15:52:52*
%MOMM*%
%LPD*%
G01*
G04 APERTURE LIST*
G04 Aperture macros list*
%AMRoundRect*
0 Rectangle with rounded corners*
0 $1 Rounding radius*
0 $2 $3 $4 $5 $6 $7 $8 $9 X,Y pos of 4 corners*
0 Add a 4 corners polygon primitive as box body*
4,1,4,$2,$3,$4,$5,$6,$7,$8,$9,$2,$3,0*
0 Add four circle primitives for the rounded corners*
1,1,$1+$1,$2,$3*
1,1,$1+$1,$4,$5*
1,1,$1+$1,$6,$7*
1,1,$1+$1,$8,$9*
0 Add four rect primitives between the rounded corners*
20,1,$1+$1,$2,$3,$4,$5,0*
20,1,$1+$1,$4,$5,$6,$7,0*
20,1,$1+$1,$6,$7,$8,$9,0*
20,1,$1+$1,$8,$9,$2,$3,0*%
G04 Aperture macros list end*
%ADD10R,5.080000X2.290000*%
%ADD11R,5.080000X2.420000*%
%ADD12RoundRect,0.237500X0.237500X-0.300000X0.237500X0.300000X-0.237500X0.300000X-0.237500X-0.300000X0*%
%ADD13RoundRect,0.237500X-0.237500X0.300000X-0.237500X-0.300000X0.237500X-0.300000X0.237500X0.300000X0*%
%ADD14RoundRect,0.237500X-0.300000X-0.237500X0.300000X-0.237500X0.300000X0.237500X-0.300000X0.237500X0*%
G04 APERTURE END LIST*
D10*
%TO.C,J2*%
X213675966Y-58319000D03*
D11*
X213675966Y-62699000D03*
X213675966Y-53939000D03*
%TD*%
D12*
%TO.C,C2*%
X156323000Y-54631000D03*
X156323000Y-56356000D03*
%TD*%
D13*
%TO.C,C12*%
X76093000Y-107125000D03*
X76093000Y-108850000D03*
%TD*%
D10*
%TO.C,J7*%
X67361160Y-106268000D03*
D11*
X67361160Y-101888000D03*
X67361160Y-110648000D03*
%TD*%
D10*
%TO.C,J3*%
X67361160Y-74302000D03*
D11*
X67361160Y-69922000D03*
X67361160Y-78682000D03*
%TD*%
D14*
%TO.C,C11*%
X75286000Y-100614000D03*
X77011000Y-100614000D03*
%TD*%
D13*
%TO.C,C14*%
X204857000Y-107127000D03*
X204857000Y-108852000D03*
%TD*%
D10*
%TO.C,J10*%
X213675966Y-122251000D03*
D11*
X213675966Y-126631000D03*
X213675966Y-117871000D03*
%TD*%
D12*
%TO.C,C1*%
X124047000Y-56354500D03*
X124047000Y-54629500D03*
%TD*%
D13*
%TO.C,C15*%
X99275000Y-123841500D03*
X99275000Y-125566500D03*
%TD*%
D10*
%TO.C,J4*%
X213675966Y-74359000D03*
D11*
X213675966Y-78739000D03*
X213675966Y-69979000D03*
%TD*%
D10*
%TO.C,J11*%
X67361160Y-138234000D03*
D11*
X67361160Y-133854000D03*
X67361160Y-142614000D03*
%TD*%
D13*
%TO.C,C10*%
X181659000Y-91276000D03*
X181659000Y-93001000D03*
%TD*%
D10*
%TO.C,J6*%
X213675966Y-90285000D03*
D11*
X213675966Y-94665000D03*
X213675966Y-85905000D03*
%TD*%
D13*
%TO.C,C20*%
X181368000Y-123881000D03*
X181368000Y-125606000D03*
%TD*%
%TO.C,C17*%
X99334000Y-139390000D03*
X99334000Y-141115000D03*
%TD*%
%TO.C,C8*%
X99435000Y-91192000D03*
X99435000Y-92917000D03*
%TD*%
%TO.C,C3*%
X124096000Y-75140000D03*
X124096000Y-76865000D03*
%TD*%
D10*
%TO.C,J5*%
X67361160Y-90285000D03*
D11*
X67361160Y-85905000D03*
X67361160Y-94665000D03*
%TD*%
D14*
%TO.C,C13*%
X204121000Y-100583000D03*
X205846000Y-100583000D03*
%TD*%
D13*
%TO.C,C4*%
X156163000Y-75170000D03*
X156163000Y-76895000D03*
%TD*%
D14*
%TO.C,C5*%
X123265600Y-68733100D03*
X124990600Y-68733100D03*
%TD*%
D10*
%TO.C,J12*%
X213675966Y-138234000D03*
D11*
X213675966Y-142614000D03*
X213675966Y-133854000D03*
%TD*%
D10*
%TO.C,J1*%
X67361160Y-58319000D03*
D11*
X67361160Y-53939000D03*
X67361160Y-62699000D03*
%TD*%
D13*
%TO.C,C19*%
X181482000Y-139335000D03*
X181482000Y-141060000D03*
%TD*%
D14*
%TO.C,C6*%
X155352000Y-68651000D03*
X157077000Y-68651000D03*
%TD*%
%TO.C,C7*%
X98559000Y-84639000D03*
X100284000Y-84639000D03*
%TD*%
%TO.C,C9*%
X180885500Y-84611000D03*
X182610500Y-84611000D03*
%TD*%
%TO.C,C16*%
X98564000Y-132917000D03*
X100289000Y-132917000D03*
%TD*%
D10*
%TO.C,J8*%
X213675966Y-106268000D03*
D11*
X213675966Y-110648000D03*
X213675966Y-101888000D03*
%TD*%
D14*
%TO.C,C18*%
X180543000Y-132832000D03*
X182268000Y-132832000D03*
%TD*%
D10*
%TO.C,J9*%
X67361160Y-122251000D03*
D11*
X67361160Y-117871000D03*
X67361160Y-126631000D03*
%TD*%
M02*
