%TF.GenerationSoftware,KiCad,Pcbnew,9.0.5*%
%TF.CreationDate,2026-03-31T15:52:52-05:00*%
%TF.ProjectId,t-coil3,742d636f-696c-4332-9e6b-696361645f70,rev?*%
%TF.SameCoordinates,Original*%
%TF.FileFunction,Copper,L4,Bot*%
%TF.FilePolarity,Positive*%
%FSLAX46Y46*%
G04 Gerber Fmt 4.6, Leading zero omitted, Abs format (unit mm)*
G04 Created by KiCad (PCBNEW 9.0.5) date 2026-03-31 15:52:52*
%MOMM*%
%LPD*%
G01*
G04 APERTURE LIST*
%TA.AperFunction,SMDPad,CuDef*%
%ADD10R,5.080000X2.420000*%
%TD*%
%TA.AperFunction,SMDPad,CuDef*%
%ADD11R,0.950000X0.460000*%
%TD*%
%TA.AperFunction,ComponentPad*%
%ADD12C,0.970000*%
%TD*%
%TA.AperFunction,ViaPad*%
%ADD13C,0.600000*%
%TD*%
%TA.AperFunction,ViaPad*%
%ADD14C,0.457200*%
%TD*%
G04 APERTURE END LIST*
D10*
%TO.P,J2,2,Ext*%
%TO.N,GND*%
X213675966Y-62699000D03*
X213675966Y-53939000D03*
D11*
X210685966Y-62699000D03*
X210685966Y-53939000D03*
D12*
X210235966Y-62699000D03*
X210235966Y-53939000D03*
%TD*%
D10*
%TO.P,J7,2,Ext*%
%TO.N,GND*%
X67361160Y-101888000D03*
X67361160Y-110648000D03*
D11*
X70351160Y-101888000D03*
X70351160Y-110648000D03*
D12*
X70801160Y-101888000D03*
X70801160Y-110648000D03*
%TD*%
D10*
%TO.P,J3,2,Ext*%
%TO.N,GND*%
X67361160Y-69922000D03*
X67361160Y-78682000D03*
D11*
X70351160Y-69922000D03*
X70351160Y-78682000D03*
D12*
X70801160Y-69922000D03*
X70801160Y-78682000D03*
%TD*%
D10*
%TO.P,J10,2,Ext*%
%TO.N,GND*%
X213675966Y-126631000D03*
X213675966Y-117871000D03*
D11*
X210685966Y-126631000D03*
X210685966Y-117871000D03*
D12*
X210235966Y-126631000D03*
X210235966Y-117871000D03*
%TD*%
D10*
%TO.P,J4,2,Ext*%
%TO.N,GND*%
X213675966Y-78739000D03*
X213675966Y-69979000D03*
D11*
X210685966Y-78739000D03*
X210685966Y-69979000D03*
D12*
X210235966Y-78739000D03*
X210235966Y-69979000D03*
%TD*%
D10*
%TO.P,J11,2,Ext*%
%TO.N,GND*%
X67361160Y-133854000D03*
X67361160Y-142614000D03*
D11*
X70351160Y-133854000D03*
X70351160Y-142614000D03*
D12*
X70801160Y-133854000D03*
X70801160Y-142614000D03*
%TD*%
D10*
%TO.P,J6,2,Ext*%
%TO.N,GND*%
X213675966Y-94665000D03*
X213675966Y-85905000D03*
D11*
X210685966Y-94665000D03*
X210685966Y-85905000D03*
D12*
X210235966Y-94665000D03*
X210235966Y-85905000D03*
%TD*%
D10*
%TO.P,J5,2,Ext*%
%TO.N,GND*%
X67361160Y-85905000D03*
X67361160Y-94665000D03*
D11*
X70351160Y-85905000D03*
X70351160Y-94665000D03*
D12*
X70801160Y-85905000D03*
X70801160Y-94665000D03*
%TD*%
D10*
%TO.P,J12,2,Ext*%
%TO.N,GND*%
X213675966Y-142614000D03*
X213675966Y-133854000D03*
D11*
X210685966Y-142614000D03*
X210685966Y-133854000D03*
D12*
X210235966Y-142614000D03*
X210235966Y-133854000D03*
%TD*%
D10*
%TO.P,J1,2,Ext*%
%TO.N,GND*%
X67361160Y-53939000D03*
X67361160Y-62699000D03*
D11*
X70351160Y-53939000D03*
X70351160Y-62699000D03*
D12*
X70801160Y-53939000D03*
X70801160Y-62699000D03*
%TD*%
D10*
%TO.P,J8,2,Ext*%
%TO.N,GND*%
X213675966Y-110648000D03*
X213675966Y-101888000D03*
D11*
X210685966Y-110648000D03*
X210685966Y-101888000D03*
D12*
X210235966Y-110648000D03*
X210235966Y-101888000D03*
%TD*%
D10*
%TO.P,J9,2,Ext*%
%TO.N,GND*%
X67361160Y-117871000D03*
X67361160Y-126631000D03*
D11*
X70351160Y-117871000D03*
X70351160Y-126631000D03*
D12*
X70801160Y-117871000D03*
X70801160Y-126631000D03*
%TD*%
D13*
%TO.N,GND*%
X156166000Y-137574000D03*
X123754000Y-137538000D03*
X209894000Y-137548000D03*
X94064000Y-137514000D03*
X91064000Y-137514000D03*
X92564000Y-137514000D03*
X95564000Y-137514000D03*
X89564000Y-137514000D03*
X88064000Y-137514000D03*
X86564000Y-137514000D03*
X85064000Y-137514000D03*
X83564000Y-137514000D03*
X82064000Y-137514000D03*
X80564000Y-137514000D03*
X79064000Y-137514000D03*
X77564000Y-137514000D03*
X76064000Y-137514000D03*
X74564000Y-137514000D03*
X73064000Y-137514000D03*
X71564000Y-137514000D03*
X208431000Y-139302000D03*
X206931000Y-139302000D03*
X205431000Y-139302000D03*
X203931000Y-139302000D03*
X202431000Y-139302000D03*
X200931000Y-139302000D03*
X198767000Y-139354000D03*
X197267000Y-139354000D03*
X195767000Y-139354000D03*
X194267000Y-139354000D03*
X192767000Y-139354000D03*
X190431000Y-139302000D03*
X188931000Y-139302000D03*
X187431000Y-139302000D03*
X185931000Y-139302000D03*
X176931000Y-139302000D03*
X175431000Y-139302000D03*
X173931000Y-139302000D03*
X172431000Y-139302000D03*
X170931000Y-139302000D03*
X169431000Y-139302000D03*
X167931000Y-139302000D03*
X166431000Y-139302000D03*
X164931000Y-139302000D03*
X163431000Y-139302000D03*
X161931000Y-139302000D03*
X160431000Y-139302000D03*
X158931000Y-139302000D03*
X157431000Y-139302000D03*
X155931000Y-139302000D03*
X154431000Y-139302000D03*
X152931000Y-139302000D03*
X151431000Y-139302000D03*
X149931000Y-139302000D03*
X148431000Y-139302000D03*
X146931000Y-139302000D03*
X145431000Y-139302000D03*
X143931000Y-139302000D03*
X142431000Y-139302000D03*
X140931000Y-139302000D03*
X139431000Y-139302000D03*
X137931000Y-139302000D03*
X136431000Y-139302000D03*
X134931000Y-139302000D03*
X133431000Y-139302000D03*
X131931000Y-139302000D03*
X130431000Y-139302000D03*
X128931000Y-139302000D03*
X127431000Y-139302000D03*
X125931000Y-139302000D03*
X124431000Y-139302000D03*
X122931000Y-139302000D03*
X121431000Y-139302000D03*
X119931000Y-139302000D03*
X118431000Y-139302000D03*
X116931000Y-139302000D03*
X115431000Y-139302000D03*
X113931000Y-139302000D03*
X112431000Y-139302000D03*
X110931000Y-139302000D03*
X109431000Y-139302000D03*
X107931000Y-139302000D03*
X106431000Y-139302000D03*
X104931000Y-139302000D03*
X103431000Y-139302000D03*
X95351000Y-139322000D03*
X93851000Y-139322000D03*
X92351000Y-139322000D03*
X90851000Y-139322000D03*
X89351000Y-139322000D03*
X86931000Y-139302000D03*
X83931000Y-139302000D03*
X82431000Y-139302000D03*
X80931000Y-139302000D03*
X77931000Y-139302000D03*
X76431000Y-139302000D03*
X71931000Y-139302000D03*
X74931000Y-139302000D03*
X209931000Y-139302000D03*
X73431000Y-139302000D03*
X85431000Y-139302000D03*
X208394000Y-137548000D03*
X206894000Y-137548000D03*
X205394000Y-137548000D03*
X203894000Y-137548000D03*
X202394000Y-137548000D03*
X200894000Y-137548000D03*
X199394000Y-137548000D03*
X197894000Y-137548000D03*
X196394000Y-137548000D03*
X194894000Y-137548000D03*
X193394000Y-137548000D03*
X191894000Y-137548000D03*
X190394000Y-137548000D03*
X188894000Y-137548000D03*
X187394000Y-137548000D03*
X185894000Y-137548000D03*
X176894000Y-137548000D03*
X175394000Y-137548000D03*
X173894000Y-137548000D03*
X172394000Y-137548000D03*
X170894000Y-137548000D03*
X169394000Y-137548000D03*
X167894000Y-137548000D03*
X166394000Y-137548000D03*
X164894000Y-137548000D03*
X163394000Y-137548000D03*
X161894000Y-137548000D03*
X160394000Y-137548000D03*
X158894000Y-137548000D03*
X157394000Y-137548000D03*
X154997000Y-137559000D03*
X153497000Y-137559000D03*
X151997000Y-137559000D03*
X150497000Y-137559000D03*
X148997000Y-137559000D03*
X147497000Y-137559000D03*
X145997000Y-137559000D03*
X144497000Y-137559000D03*
X142997000Y-137559000D03*
X141497000Y-137559000D03*
X139997000Y-137559000D03*
X138497000Y-137559000D03*
X136997000Y-137559000D03*
X135497000Y-137559000D03*
X133997000Y-137559000D03*
X129497000Y-137559000D03*
X127997000Y-137559000D03*
X126497000Y-137559000D03*
X124997000Y-137559000D03*
X122564000Y-137514000D03*
X121064000Y-137514000D03*
X119564000Y-137514000D03*
X118064000Y-137514000D03*
X116564000Y-137514000D03*
X115064000Y-137514000D03*
X113564000Y-137514000D03*
X112064000Y-137514000D03*
X110564000Y-137514000D03*
X109064000Y-137514000D03*
X107564000Y-137514000D03*
X106064000Y-137514000D03*
X104564000Y-137514000D03*
X103064000Y-137514000D03*
X130997000Y-137559000D03*
X132497000Y-137559000D03*
X156151000Y-121403000D03*
X123737000Y-121357000D03*
X209909000Y-121353000D03*
X94079000Y-121319000D03*
X91079000Y-121319000D03*
X92579000Y-121319000D03*
X95579000Y-121319000D03*
X89579000Y-121319000D03*
X88079000Y-121319000D03*
X86579000Y-121319000D03*
X85079000Y-121319000D03*
X83579000Y-121319000D03*
X82079000Y-121319000D03*
X80579000Y-121319000D03*
X79079000Y-121319000D03*
X77579000Y-121319000D03*
X76079000Y-121319000D03*
X74579000Y-121319000D03*
X73079000Y-121319000D03*
X71579000Y-121319000D03*
X98579000Y-121319000D03*
X97079000Y-121319000D03*
X208446000Y-123107000D03*
X206946000Y-123107000D03*
X205446000Y-123107000D03*
X203946000Y-123107000D03*
X202446000Y-123107000D03*
X200946000Y-123107000D03*
X199004000Y-123167000D03*
X197504000Y-123167000D03*
X196004000Y-123167000D03*
X194504000Y-123167000D03*
X193004000Y-123167000D03*
X190446000Y-123107000D03*
X188946000Y-123107000D03*
X187446000Y-123107000D03*
X185946000Y-123107000D03*
X184446000Y-123107000D03*
X182946000Y-123107000D03*
X179946000Y-123107000D03*
X178446000Y-123107000D03*
X176946000Y-123107000D03*
X175446000Y-123107000D03*
X173946000Y-123107000D03*
X172446000Y-123107000D03*
X170946000Y-123107000D03*
X169446000Y-123107000D03*
X167946000Y-123107000D03*
X166446000Y-123107000D03*
X164946000Y-123107000D03*
X163446000Y-123107000D03*
X161946000Y-123107000D03*
X160446000Y-123107000D03*
X158946000Y-123107000D03*
X157446000Y-123107000D03*
X155946000Y-123107000D03*
X154446000Y-123107000D03*
X152946000Y-123107000D03*
X151446000Y-123107000D03*
X149946000Y-123107000D03*
X148446000Y-123107000D03*
X146946000Y-123107000D03*
X145446000Y-123107000D03*
X143946000Y-123107000D03*
X142446000Y-123107000D03*
X140946000Y-123107000D03*
X139446000Y-123107000D03*
X137946000Y-123107000D03*
X136446000Y-123107000D03*
X134946000Y-123107000D03*
X133446000Y-123107000D03*
X131946000Y-123107000D03*
X130446000Y-123107000D03*
X128946000Y-123107000D03*
X127446000Y-123107000D03*
X125946000Y-123107000D03*
X124446000Y-123107000D03*
X122946000Y-123107000D03*
X121446000Y-123107000D03*
X119946000Y-123107000D03*
X118446000Y-123107000D03*
X116946000Y-123107000D03*
X115446000Y-123107000D03*
X113946000Y-123107000D03*
X112446000Y-123107000D03*
X110946000Y-123107000D03*
X109446000Y-123107000D03*
X107946000Y-123107000D03*
X106446000Y-123107000D03*
X104946000Y-123107000D03*
X103446000Y-123107000D03*
X101946000Y-123107000D03*
X100446000Y-123107000D03*
X97973000Y-123142000D03*
X96473000Y-123142000D03*
X94973000Y-123142000D03*
X93473000Y-123142000D03*
X91973000Y-123142000D03*
X90473000Y-123142000D03*
X83826000Y-123131000D03*
X82326000Y-123131000D03*
X77946000Y-123107000D03*
X76446000Y-123107000D03*
X71946000Y-123107000D03*
X74946000Y-123107000D03*
X209946000Y-123107000D03*
X73446000Y-123107000D03*
X85326000Y-123131000D03*
X208409000Y-121353000D03*
X206909000Y-121353000D03*
X205409000Y-121353000D03*
X203909000Y-121353000D03*
X202409000Y-121353000D03*
X200909000Y-121353000D03*
X199409000Y-121353000D03*
X197909000Y-121353000D03*
X196409000Y-121353000D03*
X194909000Y-121353000D03*
X193409000Y-121353000D03*
X191909000Y-121353000D03*
X190409000Y-121353000D03*
X188909000Y-121353000D03*
X187409000Y-121353000D03*
X185909000Y-121353000D03*
X184409000Y-121353000D03*
X182909000Y-121353000D03*
X181409000Y-121353000D03*
X179909000Y-121353000D03*
X178409000Y-121353000D03*
X176909000Y-121353000D03*
X175409000Y-121353000D03*
X173909000Y-121353000D03*
X172409000Y-121353000D03*
X170909000Y-121353000D03*
X169409000Y-121353000D03*
X167909000Y-121353000D03*
X166409000Y-121353000D03*
X164909000Y-121353000D03*
X163409000Y-121353000D03*
X161909000Y-121353000D03*
X160409000Y-121353000D03*
X158909000Y-121353000D03*
X157409000Y-121353000D03*
X155012000Y-121364000D03*
X153512000Y-121364000D03*
X152012000Y-121364000D03*
X150512000Y-121364000D03*
X149012000Y-121364000D03*
X147512000Y-121364000D03*
X146012000Y-121364000D03*
X144512000Y-121364000D03*
X143012000Y-121364000D03*
X141512000Y-121364000D03*
X140012000Y-121364000D03*
X138512000Y-121364000D03*
X137012000Y-121364000D03*
X135512000Y-121364000D03*
X134012000Y-121364000D03*
X132512000Y-121364000D03*
X131012000Y-121364000D03*
X129512000Y-121364000D03*
X128012000Y-121364000D03*
X126512000Y-121364000D03*
X125012000Y-121364000D03*
X122579000Y-121319000D03*
X121079000Y-121319000D03*
X119579000Y-121319000D03*
X118079000Y-121319000D03*
X116579000Y-121319000D03*
X115079000Y-121319000D03*
X113579000Y-121319000D03*
X112079000Y-121319000D03*
X110579000Y-121319000D03*
X109079000Y-121319000D03*
X107579000Y-121319000D03*
X106079000Y-121319000D03*
X104579000Y-121319000D03*
X103079000Y-121319000D03*
X101579000Y-121319000D03*
X100079000Y-121319000D03*
X156149000Y-105286000D03*
X123776000Y-105313000D03*
X156234000Y-89445000D03*
X123822000Y-89409000D03*
X210202000Y-105285000D03*
X94104000Y-105253000D03*
X91104000Y-105253000D03*
X92604000Y-105253000D03*
X95604000Y-105253000D03*
X89604000Y-105253000D03*
X88104000Y-105253000D03*
X86604000Y-105253000D03*
X85104000Y-105253000D03*
X83604000Y-105253000D03*
X82104000Y-105253000D03*
X80604000Y-105253000D03*
X71604000Y-105253000D03*
X98604000Y-105253000D03*
X97104000Y-105253000D03*
X208471000Y-107041000D03*
X200971000Y-107041000D03*
X199471000Y-107041000D03*
X197971000Y-107041000D03*
X196471000Y-107041000D03*
X194971000Y-107041000D03*
X193471000Y-107041000D03*
X191971000Y-107041000D03*
X190471000Y-107041000D03*
X188971000Y-107041000D03*
X187471000Y-107041000D03*
X185971000Y-107041000D03*
X184471000Y-107041000D03*
X182971000Y-107041000D03*
X181471000Y-107041000D03*
X179971000Y-107041000D03*
X178471000Y-107041000D03*
X176971000Y-107041000D03*
X175471000Y-107041000D03*
X173971000Y-107041000D03*
X172471000Y-107041000D03*
X170971000Y-107041000D03*
X169471000Y-107041000D03*
X167971000Y-107041000D03*
X166471000Y-107041000D03*
X164971000Y-107041000D03*
X163471000Y-107041000D03*
X161971000Y-107041000D03*
X160471000Y-107041000D03*
X158971000Y-107041000D03*
X157471000Y-107041000D03*
X155971000Y-107041000D03*
X154471000Y-107041000D03*
X152971000Y-107041000D03*
X151471000Y-107041000D03*
X149971000Y-107041000D03*
X148471000Y-107041000D03*
X146971000Y-107041000D03*
X145471000Y-107041000D03*
X143971000Y-107041000D03*
X142471000Y-107041000D03*
X140971000Y-107041000D03*
X139471000Y-107041000D03*
X137971000Y-107041000D03*
X136471000Y-107041000D03*
X134971000Y-107041000D03*
X133471000Y-107041000D03*
X131971000Y-107041000D03*
X130471000Y-107041000D03*
X128971000Y-107041000D03*
X127471000Y-107041000D03*
X125971000Y-107041000D03*
X124471000Y-107041000D03*
X122971000Y-107041000D03*
X121471000Y-107041000D03*
X119971000Y-107041000D03*
X118471000Y-107041000D03*
X116971000Y-107041000D03*
X115471000Y-107041000D03*
X113971000Y-107041000D03*
X112471000Y-107041000D03*
X110971000Y-107041000D03*
X109471000Y-107041000D03*
X107971000Y-107041000D03*
X106471000Y-107041000D03*
X104971000Y-107041000D03*
X103471000Y-107041000D03*
X101971000Y-107041000D03*
X100471000Y-107041000D03*
X98971000Y-107041000D03*
X97471000Y-107041000D03*
X95971000Y-107041000D03*
X94471000Y-107041000D03*
X92971000Y-107041000D03*
X91471000Y-107041000D03*
X89971000Y-107041000D03*
X88471000Y-107041000D03*
X86971000Y-107041000D03*
X83971000Y-107041000D03*
X82471000Y-107041000D03*
X80971000Y-107041000D03*
X71971000Y-107041000D03*
X209971000Y-107041000D03*
X85471000Y-107041000D03*
X208702000Y-105285000D03*
X200934000Y-105287000D03*
X199434000Y-105287000D03*
X197934000Y-105287000D03*
X196434000Y-105287000D03*
X194934000Y-105287000D03*
X193434000Y-105287000D03*
X191934000Y-105287000D03*
X190434000Y-105287000D03*
X188934000Y-105287000D03*
X187434000Y-105287000D03*
X185934000Y-105287000D03*
X184434000Y-105287000D03*
X182934000Y-105287000D03*
X181434000Y-105287000D03*
X179934000Y-105287000D03*
X178434000Y-105287000D03*
X176934000Y-105287000D03*
X175434000Y-105287000D03*
X173934000Y-105287000D03*
X172434000Y-105287000D03*
X170934000Y-105287000D03*
X169434000Y-105287000D03*
X167934000Y-105287000D03*
X166434000Y-105287000D03*
X164934000Y-105287000D03*
X163434000Y-105287000D03*
X161934000Y-105287000D03*
X160434000Y-105287000D03*
X158934000Y-105287000D03*
X157434000Y-105287000D03*
X155037000Y-105298000D03*
X153537000Y-105298000D03*
X152037000Y-105298000D03*
X150537000Y-105298000D03*
X149037000Y-105298000D03*
X147537000Y-105298000D03*
X146037000Y-105298000D03*
X144537000Y-105298000D03*
X143037000Y-105298000D03*
X141537000Y-105298000D03*
X140037000Y-105298000D03*
X138537000Y-105298000D03*
X137037000Y-105298000D03*
X135537000Y-105298000D03*
X134037000Y-105298000D03*
X132537000Y-105298000D03*
X131037000Y-105298000D03*
X129537000Y-105298000D03*
X128037000Y-105298000D03*
X126537000Y-105298000D03*
X125037000Y-105298000D03*
X122604000Y-105253000D03*
X121104000Y-105253000D03*
X119604000Y-105253000D03*
X118104000Y-105253000D03*
X116604000Y-105253000D03*
X115104000Y-105253000D03*
X113604000Y-105253000D03*
X112104000Y-105253000D03*
X110604000Y-105253000D03*
X109104000Y-105253000D03*
X107604000Y-105253000D03*
X106104000Y-105253000D03*
X104604000Y-105253000D03*
X103104000Y-105253000D03*
X101604000Y-105253000D03*
X100104000Y-105253000D03*
X209962000Y-89419000D03*
X94132000Y-89385000D03*
X91132000Y-89385000D03*
X92632000Y-89385000D03*
X95632000Y-89385000D03*
X89632000Y-89385000D03*
X88132000Y-89385000D03*
X86632000Y-89385000D03*
X85132000Y-89385000D03*
X83632000Y-89385000D03*
X82132000Y-89385000D03*
X80632000Y-89385000D03*
X79132000Y-89385000D03*
X77632000Y-89385000D03*
X76132000Y-89385000D03*
X74632000Y-89385000D03*
X73132000Y-89385000D03*
X71632000Y-89385000D03*
X208499000Y-91173000D03*
X206999000Y-91173000D03*
X205499000Y-91173000D03*
X203999000Y-91173000D03*
X202499000Y-91173000D03*
X200999000Y-91173000D03*
X199499000Y-91173000D03*
X197999000Y-91173000D03*
X196499000Y-91173000D03*
X194999000Y-91173000D03*
X193499000Y-91173000D03*
X191999000Y-91173000D03*
X190499000Y-91173000D03*
X188999000Y-91173000D03*
X187499000Y-91173000D03*
X185999000Y-91173000D03*
X178499000Y-91173000D03*
X176999000Y-91173000D03*
X175499000Y-91173000D03*
X173999000Y-91173000D03*
X172499000Y-91173000D03*
X170999000Y-91173000D03*
X169499000Y-91173000D03*
X167999000Y-91173000D03*
X166499000Y-91173000D03*
X164999000Y-91173000D03*
X163499000Y-91173000D03*
X161999000Y-91173000D03*
X160499000Y-91173000D03*
X158999000Y-91173000D03*
X157499000Y-91173000D03*
X155999000Y-91173000D03*
X154499000Y-91173000D03*
X152999000Y-91173000D03*
X151499000Y-91173000D03*
X149999000Y-91173000D03*
X148499000Y-91173000D03*
X146999000Y-91173000D03*
X145499000Y-91173000D03*
X143999000Y-91173000D03*
X142499000Y-91173000D03*
X140999000Y-91173000D03*
X139499000Y-91173000D03*
X137999000Y-91173000D03*
X136499000Y-91173000D03*
X134999000Y-91173000D03*
X133499000Y-91173000D03*
X131999000Y-91173000D03*
X130499000Y-91173000D03*
X128999000Y-91173000D03*
X127499000Y-91173000D03*
X125999000Y-91173000D03*
X124499000Y-91173000D03*
X122999000Y-91173000D03*
X121499000Y-91173000D03*
X119999000Y-91173000D03*
X118499000Y-91173000D03*
X116999000Y-91173000D03*
X115499000Y-91173000D03*
X113999000Y-91173000D03*
X112499000Y-91173000D03*
X110999000Y-91173000D03*
X109499000Y-91173000D03*
X107999000Y-91173000D03*
X106499000Y-91173000D03*
X104999000Y-91173000D03*
X103499000Y-91173000D03*
X95999000Y-91173000D03*
X94499000Y-91173000D03*
X92999000Y-91173000D03*
X91499000Y-91173000D03*
X89999000Y-91173000D03*
X88499000Y-91173000D03*
X86999000Y-91173000D03*
X83999000Y-91173000D03*
X82499000Y-91173000D03*
X80999000Y-91173000D03*
X79499000Y-91173000D03*
X77999000Y-91173000D03*
X76499000Y-91173000D03*
X71999000Y-91173000D03*
X74999000Y-91173000D03*
X209999000Y-91173000D03*
X73499000Y-91173000D03*
X85499000Y-91173000D03*
X208462000Y-89419000D03*
X206962000Y-89419000D03*
X205462000Y-89419000D03*
X203962000Y-89419000D03*
X202462000Y-89419000D03*
X200962000Y-89419000D03*
X199462000Y-89419000D03*
X197962000Y-89419000D03*
X196462000Y-89419000D03*
X194962000Y-89419000D03*
X193462000Y-89419000D03*
X191962000Y-89419000D03*
X190462000Y-89419000D03*
X188962000Y-89419000D03*
X187462000Y-89419000D03*
X185962000Y-89419000D03*
X176962000Y-89419000D03*
X175462000Y-89419000D03*
X173962000Y-89419000D03*
X172462000Y-89419000D03*
X170962000Y-89419000D03*
X169462000Y-89419000D03*
X167962000Y-89419000D03*
X166462000Y-89419000D03*
X164962000Y-89419000D03*
X163462000Y-89419000D03*
X161962000Y-89419000D03*
X160462000Y-89419000D03*
X158962000Y-89419000D03*
X157462000Y-89419000D03*
X155065000Y-89430000D03*
X153565000Y-89430000D03*
X152065000Y-89430000D03*
X150565000Y-89430000D03*
X149065000Y-89430000D03*
X147565000Y-89430000D03*
X146065000Y-89430000D03*
X144565000Y-89430000D03*
X143065000Y-89430000D03*
X141565000Y-89430000D03*
X140065000Y-89430000D03*
X138565000Y-89430000D03*
X137065000Y-89430000D03*
X135565000Y-89430000D03*
X134065000Y-89430000D03*
X132565000Y-89430000D03*
X131065000Y-89430000D03*
X129565000Y-89430000D03*
X128065000Y-89430000D03*
X126565000Y-89430000D03*
X125065000Y-89430000D03*
X122632000Y-89385000D03*
X121132000Y-89385000D03*
X119632000Y-89385000D03*
X118132000Y-89385000D03*
X116632000Y-89385000D03*
X115132000Y-89385000D03*
X113632000Y-89385000D03*
X112132000Y-89385000D03*
X110632000Y-89385000D03*
X109132000Y-89385000D03*
X107632000Y-89385000D03*
X106132000Y-89385000D03*
X104632000Y-89385000D03*
X103132000Y-89385000D03*
X209859000Y-73486000D03*
X94029000Y-73452000D03*
X91029000Y-73452000D03*
X92529000Y-73452000D03*
X95529000Y-73452000D03*
X89529000Y-73452000D03*
X88029000Y-73452000D03*
X86529000Y-73452000D03*
X85029000Y-73452000D03*
X83529000Y-73452000D03*
X82029000Y-73452000D03*
X80529000Y-73452000D03*
X79029000Y-73452000D03*
X77529000Y-73452000D03*
X76029000Y-73452000D03*
X74529000Y-73452000D03*
X73029000Y-73452000D03*
X71529000Y-73452000D03*
X98529000Y-73452000D03*
X97029000Y-73452000D03*
X208396000Y-75240000D03*
X206896000Y-75240000D03*
X205396000Y-75240000D03*
X203896000Y-75240000D03*
X202396000Y-75240000D03*
X200896000Y-75240000D03*
X199396000Y-75240000D03*
X197896000Y-75240000D03*
X196396000Y-75240000D03*
X194896000Y-75240000D03*
X193396000Y-75240000D03*
X191896000Y-75240000D03*
X190396000Y-75240000D03*
X188896000Y-75240000D03*
X187396000Y-75240000D03*
X185896000Y-75240000D03*
X184396000Y-75240000D03*
X182896000Y-75240000D03*
X181396000Y-75240000D03*
X179896000Y-75240000D03*
X178396000Y-75240000D03*
X176896000Y-75240000D03*
X175396000Y-75240000D03*
X173896000Y-75240000D03*
X172396000Y-75240000D03*
X170896000Y-75240000D03*
X169396000Y-75240000D03*
X167896000Y-75240000D03*
X166396000Y-75240000D03*
X164896000Y-75240000D03*
X163396000Y-75240000D03*
X161896000Y-75240000D03*
X160396000Y-75240000D03*
X152896000Y-75240000D03*
X151396000Y-75240000D03*
X149896000Y-75240000D03*
X148396000Y-75240000D03*
X146896000Y-75240000D03*
X145396000Y-75240000D03*
X143896000Y-75240000D03*
X142396000Y-75240000D03*
X140896000Y-75240000D03*
X139396000Y-75240000D03*
X137896000Y-75240000D03*
X136396000Y-75240000D03*
X134896000Y-75240000D03*
X133396000Y-75240000D03*
X131896000Y-75240000D03*
X130396000Y-75240000D03*
X128896000Y-75240000D03*
X119896000Y-75240000D03*
X118396000Y-75240000D03*
X116896000Y-75240000D03*
X115396000Y-75240000D03*
X113896000Y-75240000D03*
X112396000Y-75240000D03*
X110896000Y-75240000D03*
X109396000Y-75240000D03*
X107896000Y-75240000D03*
X106396000Y-75240000D03*
X104896000Y-75240000D03*
X103396000Y-75240000D03*
X101896000Y-75240000D03*
X100396000Y-75240000D03*
X98896000Y-75240000D03*
X97396000Y-75240000D03*
X95896000Y-75240000D03*
X94396000Y-75240000D03*
X92896000Y-75240000D03*
X91396000Y-75240000D03*
X89896000Y-75240000D03*
X88396000Y-75240000D03*
X86896000Y-75240000D03*
X83896000Y-75240000D03*
X82396000Y-75240000D03*
X80896000Y-75240000D03*
X79396000Y-75240000D03*
X77896000Y-75240000D03*
X76396000Y-75240000D03*
X71896000Y-75240000D03*
X74896000Y-75240000D03*
X209896000Y-75240000D03*
X73396000Y-75240000D03*
X85396000Y-75240000D03*
X208359000Y-73486000D03*
X206859000Y-73486000D03*
X205359000Y-73486000D03*
X203859000Y-73486000D03*
X202359000Y-73486000D03*
X200859000Y-73486000D03*
X199359000Y-73486000D03*
X197859000Y-73486000D03*
X196359000Y-73486000D03*
X194859000Y-73486000D03*
X193359000Y-73486000D03*
X191859000Y-73486000D03*
X190359000Y-73486000D03*
X188859000Y-73486000D03*
X187359000Y-73486000D03*
X185859000Y-73486000D03*
X184359000Y-73486000D03*
X182859000Y-73486000D03*
X181359000Y-73486000D03*
X179859000Y-73486000D03*
X178359000Y-73486000D03*
X176859000Y-73486000D03*
X175359000Y-73486000D03*
X173859000Y-73486000D03*
X172359000Y-73486000D03*
X170859000Y-73486000D03*
X169359000Y-73486000D03*
X167859000Y-73486000D03*
X166359000Y-73486000D03*
X164859000Y-73486000D03*
X163359000Y-73486000D03*
X161859000Y-73486000D03*
X160359000Y-73486000D03*
X151962000Y-73497000D03*
X150462000Y-73497000D03*
X148962000Y-73497000D03*
X147462000Y-73497000D03*
X145962000Y-73497000D03*
X144462000Y-73497000D03*
X142962000Y-73497000D03*
X141462000Y-73497000D03*
X139962000Y-73497000D03*
X138462000Y-73497000D03*
X136962000Y-73497000D03*
X135462000Y-73497000D03*
X133962000Y-73497000D03*
X132462000Y-73497000D03*
X130962000Y-73497000D03*
X129462000Y-73497000D03*
X127962000Y-73497000D03*
X119529000Y-73452000D03*
X118029000Y-73452000D03*
X116529000Y-73452000D03*
X115029000Y-73452000D03*
X113529000Y-73452000D03*
X112029000Y-73452000D03*
X110529000Y-73452000D03*
X109029000Y-73452000D03*
X107529000Y-73452000D03*
X106029000Y-73452000D03*
X104529000Y-73452000D03*
X103029000Y-73452000D03*
X101529000Y-73452000D03*
X100029000Y-73452000D03*
X208469000Y-59303000D03*
X206969000Y-59303000D03*
X205469000Y-59303000D03*
X203969000Y-59303000D03*
X202469000Y-59303000D03*
X200969000Y-59303000D03*
X199469000Y-59303000D03*
X197969000Y-59303000D03*
X196469000Y-59303000D03*
X194969000Y-59303000D03*
X193469000Y-59303000D03*
X191969000Y-59303000D03*
X190469000Y-59303000D03*
X188969000Y-59303000D03*
X187469000Y-59303000D03*
X185969000Y-59303000D03*
X184469000Y-59303000D03*
X182969000Y-59303000D03*
X181469000Y-59303000D03*
X179969000Y-59303000D03*
X178469000Y-59303000D03*
X176969000Y-59303000D03*
X175469000Y-59303000D03*
X173969000Y-59303000D03*
X172469000Y-59303000D03*
X170969000Y-59303000D03*
X169469000Y-59303000D03*
X167969000Y-59303000D03*
X166469000Y-59303000D03*
X164969000Y-59303000D03*
X163469000Y-59303000D03*
X161969000Y-59303000D03*
X160469000Y-59303000D03*
X158969000Y-59303000D03*
X157469000Y-59303000D03*
X155969000Y-59303000D03*
X154469000Y-59303000D03*
X152969000Y-59303000D03*
X151469000Y-59303000D03*
X149969000Y-59303000D03*
X148469000Y-59303000D03*
X146969000Y-59303000D03*
X145469000Y-59303000D03*
X143969000Y-59303000D03*
X142469000Y-59303000D03*
X140969000Y-59303000D03*
X139469000Y-59303000D03*
X137969000Y-59303000D03*
X136469000Y-59303000D03*
X134969000Y-59303000D03*
X133469000Y-59303000D03*
X131969000Y-59303000D03*
X130469000Y-59303000D03*
X128969000Y-59303000D03*
X127469000Y-59303000D03*
X125969000Y-59303000D03*
X124469000Y-59303000D03*
X122969000Y-59303000D03*
X121469000Y-59303000D03*
X119969000Y-59303000D03*
X118469000Y-59303000D03*
X116969000Y-59303000D03*
X115469000Y-59303000D03*
X113969000Y-59303000D03*
X112469000Y-59303000D03*
X110969000Y-59303000D03*
X109469000Y-59303000D03*
X107969000Y-59303000D03*
X106469000Y-59303000D03*
X104969000Y-59303000D03*
X103469000Y-59303000D03*
X101969000Y-59303000D03*
X100469000Y-59303000D03*
X98969000Y-59303000D03*
X97469000Y-59303000D03*
X95969000Y-59303000D03*
X94469000Y-59303000D03*
X92969000Y-59303000D03*
X91469000Y-59303000D03*
X89969000Y-59303000D03*
X88469000Y-59303000D03*
X86969000Y-59303000D03*
X85469000Y-59303000D03*
X83969000Y-59303000D03*
X82469000Y-59303000D03*
X80969000Y-59303000D03*
X79469000Y-59303000D03*
X77969000Y-59303000D03*
X76469000Y-59303000D03*
X74969000Y-59303000D03*
X73469000Y-59303000D03*
X71969000Y-59303000D03*
X209969000Y-59303000D03*
X100102000Y-57515000D03*
X101602000Y-57515000D03*
X103102000Y-57515000D03*
X104602000Y-57515000D03*
X106102000Y-57515000D03*
X107602000Y-57515000D03*
X109102000Y-57515000D03*
X110602000Y-57515000D03*
X112102000Y-57515000D03*
X113602000Y-57515000D03*
X115102000Y-57515000D03*
X116602000Y-57515000D03*
X118102000Y-57515000D03*
X119602000Y-57515000D03*
X121102000Y-57515000D03*
X122602000Y-57515000D03*
X97102000Y-57515000D03*
X98602000Y-57515000D03*
X71602000Y-57515000D03*
X73102000Y-57515000D03*
X74602000Y-57515000D03*
X76102000Y-57515000D03*
X77602000Y-57515000D03*
X79102000Y-57515000D03*
X80602000Y-57515000D03*
X82102000Y-57515000D03*
X83602000Y-57515000D03*
X85102000Y-57515000D03*
X86602000Y-57515000D03*
X88102000Y-57515000D03*
X89602000Y-57515000D03*
X95602000Y-57515000D03*
X92602000Y-57515000D03*
X91102000Y-57515000D03*
X94102000Y-57515000D03*
X125035000Y-57560000D03*
X126535000Y-57560000D03*
X128035000Y-57560000D03*
X129535000Y-57560000D03*
X131035000Y-57560000D03*
X132535000Y-57560000D03*
X134035000Y-57560000D03*
X135535000Y-57560000D03*
X137035000Y-57560000D03*
X138535000Y-57560000D03*
X140035000Y-57560000D03*
X141535000Y-57560000D03*
X143035000Y-57560000D03*
X144535000Y-57560000D03*
X146035000Y-57560000D03*
X147535000Y-57560000D03*
X149035000Y-57560000D03*
X150535000Y-57560000D03*
X152035000Y-57560000D03*
X153535000Y-57560000D03*
X157432000Y-57549000D03*
X158932000Y-57549000D03*
X160432000Y-57549000D03*
X161932000Y-57549000D03*
X163432000Y-57549000D03*
X164932000Y-57549000D03*
X166432000Y-57549000D03*
X167932000Y-57549000D03*
X169432000Y-57549000D03*
X170932000Y-57549000D03*
X172432000Y-57549000D03*
X173932000Y-57549000D03*
X175432000Y-57549000D03*
X176932000Y-57549000D03*
X178432000Y-57549000D03*
X179932000Y-57549000D03*
X181432000Y-57549000D03*
X182932000Y-57549000D03*
X184432000Y-57549000D03*
X185932000Y-57549000D03*
X187432000Y-57549000D03*
X188932000Y-57549000D03*
X190432000Y-57549000D03*
X191932000Y-57549000D03*
X193432000Y-57549000D03*
X194932000Y-57549000D03*
X196432000Y-57549000D03*
X197932000Y-57549000D03*
X199432000Y-57549000D03*
X200932000Y-57549000D03*
X202432000Y-57549000D03*
X203932000Y-57549000D03*
X205432000Y-57549000D03*
X206932000Y-57549000D03*
X208432000Y-57549000D03*
X209932000Y-57549000D03*
X125218000Y-54613000D03*
X206160000Y-108849000D03*
X157492000Y-76861000D03*
X182899000Y-141049000D03*
X100578000Y-125579000D03*
X100818000Y-92895000D03*
X157482000Y-54608000D03*
X125266000Y-76870000D03*
X183066000Y-92975000D03*
X77372000Y-108844000D03*
X100800000Y-141072000D03*
X182756000Y-125603000D03*
D14*
%TO.N,Net-(J3-In)*%
X154959400Y-73880500D03*
X154959400Y-72387400D03*
X124718000Y-70509300D03*
X157416400Y-73880500D03*
X123569000Y-71069500D03*
X157416400Y-72387400D03*
X155676000Y-71090000D03*
X122852400Y-73860000D03*
X125309400Y-72366900D03*
X156825000Y-70529800D03*
X125309400Y-73860000D03*
X122852400Y-72366900D03*
%TO.N,Net-(J5-In)*%
X100640400Y-89859500D03*
X100049000Y-86508800D03*
X181131000Y-87038500D03*
X98183400Y-89859500D03*
X180414400Y-89829000D03*
X182280000Y-86478300D03*
X182871400Y-88335900D03*
X98900000Y-87069000D03*
X182871400Y-89829000D03*
X100640400Y-88366400D03*
X180414400Y-88335900D03*
X98183400Y-88366400D03*
%TO.N,Net-(J7-In)*%
X203651400Y-104323400D03*
X77311400Y-105792500D03*
X77311400Y-104299400D03*
X74854400Y-105792500D03*
X203651400Y-105816500D03*
X206108400Y-104323400D03*
X75571000Y-103002000D03*
X206108400Y-105816500D03*
X74854400Y-104299400D03*
X205517000Y-102465800D03*
X76720000Y-102441800D03*
X204368000Y-103026000D03*
D13*
%TO.N,Net-(J10-In)*%
X79936000Y-123915000D03*
X191930000Y-123965000D03*
X199821000Y-123965000D03*
X87827000Y-123915000D03*
D14*
%TO.N,Net-(J11-In)*%
X98090400Y-138070500D03*
X99956000Y-134719800D03*
D13*
X191736000Y-140127000D03*
X87831000Y-140197000D03*
D14*
X182699400Y-138035500D03*
X100547400Y-136577400D03*
X98090400Y-136577400D03*
D13*
X199627000Y-140127000D03*
D14*
X182108000Y-134684800D03*
D13*
X79940000Y-140197000D03*
D14*
X98807000Y-135280000D03*
X180242400Y-136542400D03*
X180959000Y-135245000D03*
X100547400Y-138070500D03*
X180242400Y-138035500D03*
X182699400Y-136542400D03*
D13*
%TO.N,GND*%
X155035000Y-57560000D03*
X88973000Y-123142000D03*
X86826000Y-123131000D03*
X80826000Y-123131000D03*
%TD*%
%TA.AperFunction,Conductor*%
%TO.N,GND*%
G36*
X215615221Y-50838591D02*
G01*
X215682196Y-50858493D01*
X215727779Y-50911445D01*
X215738799Y-50964760D01*
X215718805Y-52107170D01*
X215697950Y-52173855D01*
X215644354Y-52218678D01*
X215594824Y-52229000D01*
X213925966Y-52229000D01*
X213925966Y-55649000D01*
X215530630Y-55649000D01*
X215597669Y-55668685D01*
X215643424Y-55721489D01*
X215654611Y-55775170D01*
X215565495Y-60867170D01*
X215544640Y-60933855D01*
X215491044Y-60978678D01*
X215441514Y-60989000D01*
X213925966Y-60989000D01*
X213925966Y-64409000D01*
X215377320Y-64409000D01*
X215444359Y-64428685D01*
X215490114Y-64481489D01*
X215501300Y-64535169D01*
X215439091Y-68089828D01*
X215438087Y-68147170D01*
X215417232Y-68213855D01*
X215363636Y-68258678D01*
X215314106Y-68269000D01*
X213925966Y-68269000D01*
X213925966Y-71689000D01*
X215249911Y-71689000D01*
X215316950Y-71708685D01*
X215362705Y-71761489D01*
X215373892Y-71815170D01*
X215284776Y-76907170D01*
X215263921Y-76973855D01*
X215210325Y-77018678D01*
X215160795Y-77029000D01*
X213925966Y-77029000D01*
X213925966Y-80449000D01*
X215096601Y-80449000D01*
X215163640Y-80468685D01*
X215209395Y-80521489D01*
X215220582Y-80575170D01*
X215159363Y-84073170D01*
X215138508Y-84139855D01*
X215084912Y-84184678D01*
X215035382Y-84195000D01*
X213925966Y-84195000D01*
X213925966Y-87615000D01*
X214971188Y-87615000D01*
X215038227Y-87634685D01*
X215083982Y-87687489D01*
X215095169Y-87741170D01*
X215006052Y-92833170D01*
X214985197Y-92899855D01*
X214931601Y-92944678D01*
X214882071Y-92955000D01*
X213925966Y-92955000D01*
X213925966Y-96375000D01*
X214817877Y-96375000D01*
X214884916Y-96394685D01*
X214930671Y-96447489D01*
X214941858Y-96501170D01*
X214879641Y-100056170D01*
X214858786Y-100122855D01*
X214805190Y-100167678D01*
X214755660Y-100178000D01*
X213925966Y-100178000D01*
X213925966Y-103598000D01*
X214691466Y-103598000D01*
X214758505Y-103617685D01*
X214804260Y-103670489D01*
X214815447Y-103724170D01*
X214726331Y-108816170D01*
X214705476Y-108882855D01*
X214651880Y-108927678D01*
X214602350Y-108938000D01*
X213925966Y-108938000D01*
X213925966Y-112358000D01*
X214538156Y-112358000D01*
X214605195Y-112377685D01*
X214650950Y-112430489D01*
X214662137Y-112484170D01*
X214599920Y-116039170D01*
X214579065Y-116105855D01*
X214525469Y-116150678D01*
X214475939Y-116161000D01*
X213925966Y-116161000D01*
X213925966Y-119581000D01*
X214411745Y-119581000D01*
X214478784Y-119600685D01*
X214524539Y-119653489D01*
X214535726Y-119707170D01*
X214446610Y-124799170D01*
X214425755Y-124865855D01*
X214372159Y-124910678D01*
X214322629Y-124921000D01*
X213925966Y-124921000D01*
X213925966Y-128341000D01*
X214258435Y-128341000D01*
X214325474Y-128360685D01*
X214371229Y-128413489D01*
X214382416Y-128467170D01*
X214320199Y-132022170D01*
X214299344Y-132088855D01*
X214245748Y-132133678D01*
X214196218Y-132144000D01*
X213925966Y-132144000D01*
X213925966Y-135564000D01*
X214132024Y-135564000D01*
X214199063Y-135583685D01*
X214244818Y-135636489D01*
X214256004Y-135690168D01*
X214168199Y-140707292D01*
X214166889Y-140782170D01*
X214146034Y-140848855D01*
X214092438Y-140893678D01*
X214042908Y-140904000D01*
X213925966Y-140904000D01*
X213925966Y-144324000D01*
X213978714Y-144324000D01*
X214045753Y-144343685D01*
X214091508Y-144396489D01*
X214102694Y-144450167D01*
X214075632Y-145996470D01*
X214031127Y-148539416D01*
X214010272Y-148606101D01*
X213956676Y-148650924D01*
X213907397Y-148661246D01*
X66887432Y-148958752D01*
X66820353Y-148939203D01*
X66774491Y-148886492D01*
X66763194Y-148836584D01*
X66698510Y-144449826D01*
X66717204Y-144382506D01*
X66769328Y-144335977D01*
X66822497Y-144324000D01*
X67111160Y-144324000D01*
X67611160Y-144324000D01*
X69948988Y-144324000D01*
X69949004Y-144323999D01*
X70008532Y-144317598D01*
X70008539Y-144317596D01*
X70143246Y-144267354D01*
X70143253Y-144267350D01*
X70258347Y-144181190D01*
X70258350Y-144181187D01*
X70344510Y-144066093D01*
X70344514Y-144066086D01*
X70394756Y-143931379D01*
X70394758Y-143931372D01*
X70401159Y-143871844D01*
X70401160Y-143871827D01*
X70401160Y-143689826D01*
X70420845Y-143622787D01*
X70473649Y-143577032D01*
X70542807Y-143567088D01*
X70549352Y-143568209D01*
X70704143Y-143599000D01*
X70898176Y-143599000D01*
X70898178Y-143598999D01*
X71088466Y-143561148D01*
X71088478Y-143561145D01*
X71267725Y-143486899D01*
X71299364Y-143465758D01*
X70712064Y-142878458D01*
X70678579Y-142817135D01*
X70678923Y-142812318D01*
X70755410Y-142844000D01*
X70846910Y-142844000D01*
X70931445Y-142808985D01*
X70996145Y-142744285D01*
X71031160Y-142659750D01*
X71031160Y-142613999D01*
X71154714Y-142613999D01*
X71154714Y-142614000D01*
X71652918Y-143112204D01*
X71674059Y-143080565D01*
X71748305Y-142901318D01*
X71748308Y-142901306D01*
X71786159Y-142711018D01*
X71786160Y-142711016D01*
X71786160Y-142516983D01*
X71786159Y-142516981D01*
X209250966Y-142516981D01*
X209250966Y-142711018D01*
X209288817Y-142901306D01*
X209288819Y-142901314D01*
X209363068Y-143080568D01*
X209363072Y-143080575D01*
X209384206Y-143112204D01*
X209384207Y-143112205D01*
X209882412Y-142614000D01*
X209384206Y-142115794D01*
X209363070Y-142147426D01*
X209363069Y-142147428D01*
X209288819Y-142326685D01*
X209288817Y-142326693D01*
X209250966Y-142516981D01*
X71786159Y-142516981D01*
X71748308Y-142326693D01*
X71748305Y-142326681D01*
X71674058Y-142147431D01*
X71652918Y-142115794D01*
X71154714Y-142613999D01*
X71031160Y-142613999D01*
X71031160Y-142568250D01*
X70996145Y-142483715D01*
X70931445Y-142419015D01*
X70846910Y-142384000D01*
X70755410Y-142384000D01*
X70682098Y-142414366D01*
X70683563Y-142393889D01*
X70712064Y-142349542D01*
X71299365Y-141762240D01*
X209737760Y-141762240D01*
X210325062Y-142349542D01*
X210358547Y-142410865D01*
X210358202Y-142415681D01*
X210281716Y-142384000D01*
X210190216Y-142384000D01*
X210105681Y-142419015D01*
X210040981Y-142483715D01*
X210005966Y-142568250D01*
X210005966Y-142659750D01*
X210040981Y-142744285D01*
X210105681Y-142808985D01*
X210190216Y-142844000D01*
X210281716Y-142844000D01*
X210355026Y-142813634D01*
X210353562Y-142834110D01*
X210325061Y-142878457D01*
X209737760Y-143465758D01*
X209737760Y-143465759D01*
X209769397Y-143486898D01*
X209948647Y-143561145D01*
X209948659Y-143561148D01*
X210138947Y-143598999D01*
X210138950Y-143599000D01*
X210332982Y-143599000D01*
X210487774Y-143568209D01*
X210557366Y-143574436D01*
X210612543Y-143617299D01*
X210635788Y-143683188D01*
X210635966Y-143689826D01*
X210635966Y-143871844D01*
X210642367Y-143931372D01*
X210642369Y-143931379D01*
X210692611Y-144066086D01*
X210692615Y-144066093D01*
X210778775Y-144181187D01*
X210778778Y-144181190D01*
X210893872Y-144267350D01*
X210893879Y-144267354D01*
X211028586Y-144317596D01*
X211028593Y-144317598D01*
X211088121Y-144323999D01*
X211088138Y-144324000D01*
X213425966Y-144324000D01*
X213425966Y-140904000D01*
X211088121Y-140904000D01*
X211028593Y-140910401D01*
X211028586Y-140910403D01*
X210893879Y-140960645D01*
X210893872Y-140960649D01*
X210778778Y-141046809D01*
X210778775Y-141046812D01*
X210692615Y-141161906D01*
X210692611Y-141161913D01*
X210642369Y-141296620D01*
X210642367Y-141296627D01*
X210635966Y-141356155D01*
X210635966Y-141538173D01*
X210616281Y-141605212D01*
X210563477Y-141650967D01*
X210494319Y-141660911D01*
X210487775Y-141659790D01*
X210332983Y-141629000D01*
X210138949Y-141629000D01*
X209948659Y-141666851D01*
X209948651Y-141666853D01*
X209769394Y-141741103D01*
X209769392Y-141741104D01*
X209737760Y-141762240D01*
X71299365Y-141762240D01*
X71267735Y-141741106D01*
X71267728Y-141741102D01*
X71088474Y-141666853D01*
X71088466Y-141666851D01*
X70898177Y-141629000D01*
X70704143Y-141629000D01*
X70549351Y-141659790D01*
X70479760Y-141653563D01*
X70424582Y-141610700D01*
X70401338Y-141544810D01*
X70401160Y-141538173D01*
X70401160Y-141356172D01*
X70401159Y-141356155D01*
X70394758Y-141296627D01*
X70394756Y-141296620D01*
X70344514Y-141161913D01*
X70344510Y-141161906D01*
X70258350Y-141046812D01*
X70258347Y-141046809D01*
X70143253Y-140960649D01*
X70143246Y-140960645D01*
X70008539Y-140910403D01*
X70008532Y-140910401D01*
X69949004Y-140904000D01*
X67611160Y-140904000D01*
X67611160Y-144324000D01*
X67111160Y-144324000D01*
X67111160Y-140904000D01*
X66768412Y-140904000D01*
X66701373Y-140884315D01*
X66655618Y-140831511D01*
X66644425Y-140781828D01*
X66634639Y-140118153D01*
X79139500Y-140118153D01*
X79139500Y-140275846D01*
X79170261Y-140430489D01*
X79170264Y-140430501D01*
X79230602Y-140576172D01*
X79230609Y-140576185D01*
X79318210Y-140707288D01*
X79318213Y-140707292D01*
X79429707Y-140818786D01*
X79429711Y-140818789D01*
X79560814Y-140906390D01*
X79560827Y-140906397D01*
X79691795Y-140960645D01*
X79706503Y-140966737D01*
X79861153Y-140997499D01*
X79861156Y-140997500D01*
X79861158Y-140997500D01*
X80018844Y-140997500D01*
X80018845Y-140997499D01*
X80173497Y-140966737D01*
X80286166Y-140920067D01*
X80319172Y-140906397D01*
X80319172Y-140906396D01*
X80319179Y-140906394D01*
X80450289Y-140818789D01*
X80561789Y-140707289D01*
X80649394Y-140576179D01*
X80709737Y-140430497D01*
X80740500Y-140275842D01*
X80740500Y-140118158D01*
X80740500Y-140118155D01*
X80740499Y-140118153D01*
X87030500Y-140118153D01*
X87030500Y-140275846D01*
X87061261Y-140430489D01*
X87061264Y-140430501D01*
X87121602Y-140576172D01*
X87121609Y-140576185D01*
X87209210Y-140707288D01*
X87209213Y-140707292D01*
X87320707Y-140818786D01*
X87320711Y-140818789D01*
X87451814Y-140906390D01*
X87451827Y-140906397D01*
X87582795Y-140960645D01*
X87597503Y-140966737D01*
X87752153Y-140997499D01*
X87752156Y-140997500D01*
X87752158Y-140997500D01*
X87909844Y-140997500D01*
X87909845Y-140997499D01*
X88064497Y-140966737D01*
X88177166Y-140920067D01*
X88210172Y-140906397D01*
X88210172Y-140906396D01*
X88210179Y-140906394D01*
X88341289Y-140818789D01*
X88452789Y-140707289D01*
X88540394Y-140576179D01*
X88600737Y-140430497D01*
X88631500Y-140275842D01*
X88631500Y-140118158D01*
X88631500Y-140118155D01*
X88631499Y-140118153D01*
X88621177Y-140066257D01*
X88617576Y-140048153D01*
X190935500Y-140048153D01*
X190935500Y-140205846D01*
X190966261Y-140360489D01*
X190966264Y-140360501D01*
X191026602Y-140506172D01*
X191026609Y-140506185D01*
X191114210Y-140637288D01*
X191114213Y-140637292D01*
X191225707Y-140748786D01*
X191225711Y-140748789D01*
X191356814Y-140836390D01*
X191356827Y-140836397D01*
X191472513Y-140884315D01*
X191502503Y-140896737D01*
X191657153Y-140927499D01*
X191657156Y-140927500D01*
X191657158Y-140927500D01*
X191814844Y-140927500D01*
X191814845Y-140927499D01*
X191969497Y-140896737D01*
X192115179Y-140836394D01*
X192246289Y-140748789D01*
X192357789Y-140637289D01*
X192445394Y-140506179D01*
X192505737Y-140360497D01*
X192536500Y-140205842D01*
X192536500Y-140048158D01*
X192536500Y-140048155D01*
X192536499Y-140048153D01*
X198826500Y-140048153D01*
X198826500Y-140205846D01*
X198857261Y-140360489D01*
X198857264Y-140360501D01*
X198917602Y-140506172D01*
X198917609Y-140506185D01*
X199005210Y-140637288D01*
X199005213Y-140637292D01*
X199116707Y-140748786D01*
X199116711Y-140748789D01*
X199247814Y-140836390D01*
X199247827Y-140836397D01*
X199363513Y-140884315D01*
X199393503Y-140896737D01*
X199548153Y-140927499D01*
X199548156Y-140927500D01*
X199548158Y-140927500D01*
X199705844Y-140927500D01*
X199705845Y-140927499D01*
X199860497Y-140896737D01*
X200006179Y-140836394D01*
X200137289Y-140748789D01*
X200248789Y-140637289D01*
X200336394Y-140506179D01*
X200396737Y-140360497D01*
X200427500Y-140205842D01*
X200427500Y-140048158D01*
X200427500Y-140048155D01*
X200427499Y-140048153D01*
X200396738Y-139893510D01*
X200396737Y-139893503D01*
X200396735Y-139893498D01*
X200336397Y-139747827D01*
X200336390Y-139747814D01*
X200248789Y-139616711D01*
X200248786Y-139616707D01*
X200137292Y-139505213D01*
X200137288Y-139505210D01*
X200006185Y-139417609D01*
X200006172Y-139417602D01*
X199860501Y-139357264D01*
X199860489Y-139357261D01*
X199705845Y-139326500D01*
X199705842Y-139326500D01*
X199548158Y-139326500D01*
X199548155Y-139326500D01*
X199393510Y-139357261D01*
X199393498Y-139357264D01*
X199247827Y-139417602D01*
X199247814Y-139417609D01*
X199116711Y-139505210D01*
X199116707Y-139505213D01*
X199005213Y-139616707D01*
X199005210Y-139616711D01*
X198917609Y-139747814D01*
X198917602Y-139747827D01*
X198857264Y-139893498D01*
X198857261Y-139893510D01*
X198826500Y-140048153D01*
X192536499Y-140048153D01*
X192505738Y-139893510D01*
X192505737Y-139893503D01*
X192505735Y-139893498D01*
X192445397Y-139747827D01*
X192445390Y-139747814D01*
X192357789Y-139616711D01*
X192357786Y-139616707D01*
X192246292Y-139505213D01*
X192246288Y-139505210D01*
X192115185Y-139417609D01*
X192115172Y-139417602D01*
X191969501Y-139357264D01*
X191969489Y-139357261D01*
X191814845Y-139326500D01*
X191814842Y-139326500D01*
X191657158Y-139326500D01*
X191657155Y-139326500D01*
X191502510Y-139357261D01*
X191502498Y-139357264D01*
X191356827Y-139417602D01*
X191356814Y-139417609D01*
X191225711Y-139505210D01*
X191225707Y-139505213D01*
X191114213Y-139616707D01*
X191114210Y-139616711D01*
X191026609Y-139747814D01*
X191026602Y-139747827D01*
X190966264Y-139893498D01*
X190966261Y-139893510D01*
X190935500Y-140048153D01*
X88617576Y-140048153D01*
X88600738Y-139963508D01*
X88600737Y-139963507D01*
X88600737Y-139963503D01*
X88571745Y-139893510D01*
X88540397Y-139817827D01*
X88540390Y-139817814D01*
X88452789Y-139686711D01*
X88452786Y-139686707D01*
X88341292Y-139575213D01*
X88341288Y-139575210D01*
X88210185Y-139487609D01*
X88210172Y-139487602D01*
X88064501Y-139427264D01*
X88064489Y-139427261D01*
X87909845Y-139396500D01*
X87909842Y-139396500D01*
X87752158Y-139396500D01*
X87752155Y-139396500D01*
X87597510Y-139427261D01*
X87597498Y-139427264D01*
X87451827Y-139487602D01*
X87451814Y-139487609D01*
X87320711Y-139575210D01*
X87320707Y-139575213D01*
X87209213Y-139686707D01*
X87209210Y-139686711D01*
X87121609Y-139817814D01*
X87121602Y-139817827D01*
X87061264Y-139963498D01*
X87061261Y-139963510D01*
X87030500Y-140118153D01*
X80740499Y-140118153D01*
X80709738Y-139963510D01*
X80709738Y-139963508D01*
X80709737Y-139963503D01*
X80680745Y-139893510D01*
X80649397Y-139817827D01*
X80649390Y-139817814D01*
X80561789Y-139686711D01*
X80561786Y-139686707D01*
X80450292Y-139575213D01*
X80450288Y-139575210D01*
X80319185Y-139487609D01*
X80319172Y-139487602D01*
X80173501Y-139427264D01*
X80173489Y-139427261D01*
X80018845Y-139396500D01*
X80018842Y-139396500D01*
X79861158Y-139396500D01*
X79861155Y-139396500D01*
X79706510Y-139427261D01*
X79706498Y-139427264D01*
X79560827Y-139487602D01*
X79560814Y-139487609D01*
X79429711Y-139575210D01*
X79429707Y-139575213D01*
X79318213Y-139686707D01*
X79318210Y-139686711D01*
X79230609Y-139817814D01*
X79230602Y-139817827D01*
X79170264Y-139963498D01*
X79170261Y-139963510D01*
X79139500Y-140118153D01*
X66634639Y-140118153D01*
X66634576Y-140113894D01*
X66613233Y-138666500D01*
X96830000Y-138666500D01*
X97632417Y-138666500D01*
X97699456Y-138686185D01*
X97701262Y-138687367D01*
X97745042Y-138716620D01*
X97877729Y-138771581D01*
X98018585Y-138799599D01*
X98018588Y-138799600D01*
X98018590Y-138799600D01*
X98162212Y-138799600D01*
X98162213Y-138799599D01*
X98303071Y-138771581D01*
X98435758Y-138716620D01*
X98479492Y-138687397D01*
X98546169Y-138666520D01*
X98548383Y-138666500D01*
X100089417Y-138666500D01*
X100156456Y-138686185D01*
X100158262Y-138687367D01*
X100202042Y-138716620D01*
X100334729Y-138771581D01*
X100475585Y-138799599D01*
X100475588Y-138799600D01*
X100475590Y-138799600D01*
X100619212Y-138799600D01*
X100619213Y-138799599D01*
X100760071Y-138771581D01*
X100892758Y-138716620D01*
X100936492Y-138687397D01*
X101003169Y-138666520D01*
X101005383Y-138666500D01*
X101830000Y-138666500D01*
X101830000Y-138631500D01*
X178982000Y-138631500D01*
X179784417Y-138631500D01*
X179851456Y-138651185D01*
X179853262Y-138652367D01*
X179897042Y-138681620D01*
X180029729Y-138736581D01*
X180170585Y-138764599D01*
X180170588Y-138764600D01*
X180170590Y-138764600D01*
X180314212Y-138764600D01*
X180314213Y-138764599D01*
X180455071Y-138736581D01*
X180587758Y-138681620D01*
X180631492Y-138652397D01*
X180698169Y-138631520D01*
X180700383Y-138631500D01*
X182241417Y-138631500D01*
X182308456Y-138651185D01*
X182310262Y-138652367D01*
X182354042Y-138681620D01*
X182486729Y-138736581D01*
X182627585Y-138764599D01*
X182627588Y-138764600D01*
X182627590Y-138764600D01*
X182771212Y-138764600D01*
X182771213Y-138764599D01*
X182912071Y-138736581D01*
X183044758Y-138681620D01*
X183088492Y-138652397D01*
X183155169Y-138631520D01*
X183157383Y-138631500D01*
X183982000Y-138631500D01*
X183982000Y-133756981D01*
X209250966Y-133756981D01*
X209250966Y-133951018D01*
X209288817Y-134141306D01*
X209288819Y-134141314D01*
X209363068Y-134320568D01*
X209363072Y-134320575D01*
X209384206Y-134352204D01*
X209384207Y-134352205D01*
X209882412Y-133854000D01*
X209384206Y-133355794D01*
X209363070Y-133387426D01*
X209363069Y-133387428D01*
X209288819Y-133566685D01*
X209288817Y-133566693D01*
X209250966Y-133756981D01*
X183982000Y-133756981D01*
X183982000Y-133631500D01*
X178982000Y-133631500D01*
X178982000Y-138631500D01*
X101830000Y-138631500D01*
X101830000Y-133666500D01*
X96830000Y-133666500D01*
X96830000Y-138666500D01*
X66613233Y-138666500D01*
X66603118Y-137980532D01*
X66569340Y-135689825D01*
X66588034Y-135622506D01*
X66640158Y-135575977D01*
X66693327Y-135564000D01*
X67111160Y-135564000D01*
X67611160Y-135564000D01*
X69948988Y-135564000D01*
X69949004Y-135563999D01*
X70008532Y-135557598D01*
X70008539Y-135557596D01*
X70143246Y-135507354D01*
X70143253Y-135507350D01*
X70258347Y-135421190D01*
X70258350Y-135421187D01*
X70344510Y-135306093D01*
X70344514Y-135306086D01*
X70394756Y-135171379D01*
X70394758Y-135171372D01*
X70401159Y-135111844D01*
X70401160Y-135111827D01*
X70401160Y-134929826D01*
X70420845Y-134862787D01*
X70473649Y-134817032D01*
X70542807Y-134807088D01*
X70549352Y-134808209D01*
X70704143Y-134839000D01*
X70898176Y-134839000D01*
X70898178Y-134838999D01*
X71088466Y-134801148D01*
X71088478Y-134801145D01*
X71267725Y-134726899D01*
X71299364Y-134705758D01*
X70712064Y-134118458D01*
X70678579Y-134057135D01*
X70678923Y-134052318D01*
X70755410Y-134084000D01*
X70846910Y-134084000D01*
X70931445Y-134048985D01*
X70996145Y-133984285D01*
X71031160Y-133899750D01*
X71031160Y-133853999D01*
X71154714Y-133853999D01*
X71154714Y-133854000D01*
X71652918Y-134352204D01*
X71674059Y-134320565D01*
X71748305Y-134141318D01*
X71748308Y-134141306D01*
X71786159Y-133951018D01*
X71786160Y-133951016D01*
X71786160Y-133756983D01*
X71786159Y-133756981D01*
X71762757Y-133639329D01*
X71748308Y-133566693D01*
X71748305Y-133566681D01*
X71674058Y-133387431D01*
X71652918Y-133355794D01*
X71154714Y-133853999D01*
X71031160Y-133853999D01*
X71031160Y-133808250D01*
X70996145Y-133723715D01*
X70931445Y-133659015D01*
X70846910Y-133624000D01*
X70755410Y-133624000D01*
X70682098Y-133654366D01*
X70683563Y-133633889D01*
X70712064Y-133589542D01*
X71299365Y-133002240D01*
X209737760Y-133002240D01*
X210325062Y-133589542D01*
X210358547Y-133650865D01*
X210358202Y-133655681D01*
X210281716Y-133624000D01*
X210190216Y-133624000D01*
X210105681Y-133659015D01*
X210040981Y-133723715D01*
X210005966Y-133808250D01*
X210005966Y-133899750D01*
X210040981Y-133984285D01*
X210105681Y-134048985D01*
X210190216Y-134084000D01*
X210281716Y-134084000D01*
X210355026Y-134053634D01*
X210353562Y-134074110D01*
X210325061Y-134118457D01*
X209737760Y-134705758D01*
X209737760Y-134705759D01*
X209769397Y-134726898D01*
X209948647Y-134801145D01*
X209948659Y-134801148D01*
X210138947Y-134838999D01*
X210138950Y-134839000D01*
X210332982Y-134839000D01*
X210487774Y-134808209D01*
X210557366Y-134814436D01*
X210612543Y-134857299D01*
X210635788Y-134923188D01*
X210635966Y-134929826D01*
X210635966Y-135111844D01*
X210642367Y-135171372D01*
X210642369Y-135171379D01*
X210692611Y-135306086D01*
X210692615Y-135306093D01*
X210778775Y-135421187D01*
X210778778Y-135421190D01*
X210893872Y-135507350D01*
X210893879Y-135507354D01*
X211028586Y-135557596D01*
X211028593Y-135557598D01*
X211088121Y-135563999D01*
X211088138Y-135564000D01*
X213425966Y-135564000D01*
X213425966Y-132144000D01*
X211088121Y-132144000D01*
X211028593Y-132150401D01*
X211028586Y-132150403D01*
X210893879Y-132200645D01*
X210893872Y-132200649D01*
X210778778Y-132286809D01*
X210778775Y-132286812D01*
X210692615Y-132401906D01*
X210692611Y-132401913D01*
X210642369Y-132536620D01*
X210642367Y-132536627D01*
X210635966Y-132596155D01*
X210635966Y-132778173D01*
X210616281Y-132845212D01*
X210563477Y-132890967D01*
X210494319Y-132900911D01*
X210487775Y-132899790D01*
X210332983Y-132869000D01*
X210138949Y-132869000D01*
X209948659Y-132906851D01*
X209948651Y-132906853D01*
X209769394Y-132981103D01*
X209769392Y-132981104D01*
X209737760Y-133002240D01*
X71299365Y-133002240D01*
X71267735Y-132981106D01*
X71267728Y-132981102D01*
X71088474Y-132906853D01*
X71088466Y-132906851D01*
X70898177Y-132869000D01*
X70704143Y-132869000D01*
X70549351Y-132899790D01*
X70479760Y-132893563D01*
X70424582Y-132850700D01*
X70401338Y-132784810D01*
X70401160Y-132778173D01*
X70401160Y-132596172D01*
X70401159Y-132596155D01*
X70394758Y-132536627D01*
X70394756Y-132536620D01*
X70344514Y-132401913D01*
X70344510Y-132401906D01*
X70258350Y-132286812D01*
X70258347Y-132286809D01*
X70143253Y-132200649D01*
X70143246Y-132200645D01*
X70008539Y-132150403D01*
X70008532Y-132150401D01*
X69949004Y-132144000D01*
X67611160Y-132144000D01*
X67611160Y-135564000D01*
X67111160Y-135564000D01*
X67111160Y-132144000D01*
X66639242Y-132144000D01*
X66572203Y-132124315D01*
X66526448Y-132071511D01*
X66515255Y-132021828D01*
X66494357Y-130604647D01*
X66462834Y-128466825D01*
X66481528Y-128399506D01*
X66533652Y-128352977D01*
X66586821Y-128341000D01*
X67111160Y-128341000D01*
X67611160Y-128341000D01*
X69948988Y-128341000D01*
X69949004Y-128340999D01*
X70008532Y-128334598D01*
X70008539Y-128334596D01*
X70143246Y-128284354D01*
X70143253Y-128284350D01*
X70258347Y-128198190D01*
X70258350Y-128198187D01*
X70344510Y-128083093D01*
X70344514Y-128083086D01*
X70394756Y-127948379D01*
X70394758Y-127948372D01*
X70401159Y-127888844D01*
X70401160Y-127888827D01*
X70401160Y-127706826D01*
X70420845Y-127639787D01*
X70473649Y-127594032D01*
X70542807Y-127584088D01*
X70549352Y-127585209D01*
X70704143Y-127616000D01*
X70898176Y-127616000D01*
X70898178Y-127615999D01*
X71088466Y-127578148D01*
X71088478Y-127578145D01*
X71267725Y-127503899D01*
X71299364Y-127482758D01*
X70712064Y-126895458D01*
X70678579Y-126834135D01*
X70678923Y-126829318D01*
X70755410Y-126861000D01*
X70846910Y-126861000D01*
X70931445Y-126825985D01*
X70996145Y-126761285D01*
X71031160Y-126676750D01*
X71031160Y-126630999D01*
X71154714Y-126630999D01*
X71154714Y-126631000D01*
X71652918Y-127129204D01*
X71674059Y-127097565D01*
X71748305Y-126918318D01*
X71748308Y-126918306D01*
X71786159Y-126728018D01*
X71786160Y-126728016D01*
X71786160Y-126533983D01*
X71786159Y-126533981D01*
X209250966Y-126533981D01*
X209250966Y-126728018D01*
X209288817Y-126918306D01*
X209288819Y-126918314D01*
X209363068Y-127097568D01*
X209363072Y-127097575D01*
X209384206Y-127129204D01*
X209384207Y-127129205D01*
X209882412Y-126631000D01*
X209384206Y-126132794D01*
X209363070Y-126164426D01*
X209363069Y-126164428D01*
X209288819Y-126343685D01*
X209288817Y-126343693D01*
X209250966Y-126533981D01*
X71786159Y-126533981D01*
X71748308Y-126343693D01*
X71748305Y-126343681D01*
X71674058Y-126164431D01*
X71652918Y-126132794D01*
X71154714Y-126630999D01*
X71031160Y-126630999D01*
X71031160Y-126585250D01*
X70996145Y-126500715D01*
X70931445Y-126436015D01*
X70846910Y-126401000D01*
X70755410Y-126401000D01*
X70682098Y-126431366D01*
X70683563Y-126410889D01*
X70712064Y-126366542D01*
X71299365Y-125779240D01*
X209737760Y-125779240D01*
X210325062Y-126366542D01*
X210358547Y-126427865D01*
X210358202Y-126432681D01*
X210281716Y-126401000D01*
X210190216Y-126401000D01*
X210105681Y-126436015D01*
X210040981Y-126500715D01*
X210005966Y-126585250D01*
X210005966Y-126676750D01*
X210040981Y-126761285D01*
X210105681Y-126825985D01*
X210190216Y-126861000D01*
X210281716Y-126861000D01*
X210355026Y-126830634D01*
X210353562Y-126851110D01*
X210325061Y-126895457D01*
X209737760Y-127482758D01*
X209737760Y-127482759D01*
X209769397Y-127503898D01*
X209948647Y-127578145D01*
X209948659Y-127578148D01*
X210138947Y-127615999D01*
X210138950Y-127616000D01*
X210332982Y-127616000D01*
X210487774Y-127585209D01*
X210557366Y-127591436D01*
X210612543Y-127634299D01*
X210635788Y-127700188D01*
X210635966Y-127706826D01*
X210635966Y-127888844D01*
X210642367Y-127948372D01*
X210642369Y-127948379D01*
X210692611Y-128083086D01*
X210692615Y-128083093D01*
X210778775Y-128198187D01*
X210778778Y-128198190D01*
X210893872Y-128284350D01*
X210893879Y-128284354D01*
X211028586Y-128334596D01*
X211028593Y-128334598D01*
X211088121Y-128340999D01*
X211088138Y-128341000D01*
X213425966Y-128341000D01*
X213425966Y-124921000D01*
X211088121Y-124921000D01*
X211028593Y-124927401D01*
X211028586Y-124927403D01*
X210893879Y-124977645D01*
X210893872Y-124977649D01*
X210778778Y-125063809D01*
X210778775Y-125063812D01*
X210692615Y-125178906D01*
X210692611Y-125178913D01*
X210642369Y-125313620D01*
X210642367Y-125313627D01*
X210635966Y-125373155D01*
X210635966Y-125555173D01*
X210616281Y-125622212D01*
X210563477Y-125667967D01*
X210494319Y-125677911D01*
X210487775Y-125676790D01*
X210332983Y-125646000D01*
X210138949Y-125646000D01*
X209948659Y-125683851D01*
X209948651Y-125683853D01*
X209769394Y-125758103D01*
X209769392Y-125758104D01*
X209737760Y-125779240D01*
X71299365Y-125779240D01*
X71267735Y-125758106D01*
X71267728Y-125758102D01*
X71088474Y-125683853D01*
X71088466Y-125683851D01*
X70898177Y-125646000D01*
X70704143Y-125646000D01*
X70549351Y-125676790D01*
X70479760Y-125670563D01*
X70424582Y-125627700D01*
X70401338Y-125561810D01*
X70401160Y-125555173D01*
X70401160Y-125373172D01*
X70401159Y-125373155D01*
X70394758Y-125313627D01*
X70394756Y-125313620D01*
X70344514Y-125178913D01*
X70344510Y-125178906D01*
X70258350Y-125063812D01*
X70258347Y-125063809D01*
X70143253Y-124977649D01*
X70143246Y-124977645D01*
X70008539Y-124927403D01*
X70008532Y-124927401D01*
X69949004Y-124921000D01*
X67611160Y-124921000D01*
X67611160Y-128341000D01*
X67111160Y-128341000D01*
X67111160Y-124921000D01*
X66532736Y-124921000D01*
X66465697Y-124901315D01*
X66419942Y-124848511D01*
X66408749Y-124798828D01*
X66394554Y-123836153D01*
X79135500Y-123836153D01*
X79135500Y-123993846D01*
X79166261Y-124148489D01*
X79166264Y-124148501D01*
X79226602Y-124294172D01*
X79226609Y-124294185D01*
X79314210Y-124425288D01*
X79314213Y-124425292D01*
X79425707Y-124536786D01*
X79425711Y-124536789D01*
X79556814Y-124624390D01*
X79556827Y-124624397D01*
X79702498Y-124684735D01*
X79702503Y-124684737D01*
X79857153Y-124715499D01*
X79857156Y-124715500D01*
X79857158Y-124715500D01*
X80014844Y-124715500D01*
X80014845Y-124715499D01*
X80169497Y-124684737D01*
X80315179Y-124624394D01*
X80446289Y-124536789D01*
X80557789Y-124425289D01*
X80645394Y-124294179D01*
X80705737Y-124148497D01*
X80736500Y-123993842D01*
X80736500Y-123836158D01*
X80736500Y-123836155D01*
X80736499Y-123836153D01*
X87026500Y-123836153D01*
X87026500Y-123993846D01*
X87057261Y-124148489D01*
X87057264Y-124148501D01*
X87117602Y-124294172D01*
X87117609Y-124294185D01*
X87205210Y-124425288D01*
X87205213Y-124425292D01*
X87316707Y-124536786D01*
X87316711Y-124536789D01*
X87447814Y-124624390D01*
X87447827Y-124624397D01*
X87593498Y-124684735D01*
X87593503Y-124684737D01*
X87748153Y-124715499D01*
X87748156Y-124715500D01*
X87748158Y-124715500D01*
X87905844Y-124715500D01*
X87905845Y-124715499D01*
X88060497Y-124684737D01*
X88206179Y-124624394D01*
X88337289Y-124536789D01*
X88448789Y-124425289D01*
X88536394Y-124294179D01*
X88596737Y-124148497D01*
X88627500Y-123993842D01*
X88627500Y-123886153D01*
X191129500Y-123886153D01*
X191129500Y-124043846D01*
X191160261Y-124198489D01*
X191160264Y-124198501D01*
X191220602Y-124344172D01*
X191220609Y-124344185D01*
X191308210Y-124475288D01*
X191308213Y-124475292D01*
X191419707Y-124586786D01*
X191419711Y-124586789D01*
X191550814Y-124674390D01*
X191550827Y-124674397D01*
X191650060Y-124715500D01*
X191696503Y-124734737D01*
X191851153Y-124765499D01*
X191851156Y-124765500D01*
X191851158Y-124765500D01*
X192008844Y-124765500D01*
X192008845Y-124765499D01*
X192163497Y-124734737D01*
X192309179Y-124674394D01*
X192440289Y-124586789D01*
X192551789Y-124475289D01*
X192639394Y-124344179D01*
X192699737Y-124198497D01*
X192730500Y-124043842D01*
X192730500Y-123886158D01*
X192730500Y-123886155D01*
X192730499Y-123886153D01*
X199020500Y-123886153D01*
X199020500Y-124043846D01*
X199051261Y-124198489D01*
X199051264Y-124198501D01*
X199111602Y-124344172D01*
X199111609Y-124344185D01*
X199199210Y-124475288D01*
X199199213Y-124475292D01*
X199310707Y-124586786D01*
X199310711Y-124586789D01*
X199441814Y-124674390D01*
X199441827Y-124674397D01*
X199541060Y-124715500D01*
X199587503Y-124734737D01*
X199742153Y-124765499D01*
X199742156Y-124765500D01*
X199742158Y-124765500D01*
X199899844Y-124765500D01*
X199899845Y-124765499D01*
X200054497Y-124734737D01*
X200200179Y-124674394D01*
X200331289Y-124586789D01*
X200442789Y-124475289D01*
X200530394Y-124344179D01*
X200590737Y-124198497D01*
X200621500Y-124043842D01*
X200621500Y-123886158D01*
X200621500Y-123886155D01*
X200621499Y-123886153D01*
X200590738Y-123731510D01*
X200590737Y-123731503D01*
X200590735Y-123731498D01*
X200530397Y-123585827D01*
X200530390Y-123585814D01*
X200442789Y-123454711D01*
X200442786Y-123454707D01*
X200331292Y-123343213D01*
X200331288Y-123343210D01*
X200200185Y-123255609D01*
X200200172Y-123255602D01*
X200054501Y-123195264D01*
X200054489Y-123195261D01*
X199899845Y-123164500D01*
X199899842Y-123164500D01*
X199742158Y-123164500D01*
X199742155Y-123164500D01*
X199587510Y-123195261D01*
X199587498Y-123195264D01*
X199441827Y-123255602D01*
X199441814Y-123255609D01*
X199310711Y-123343210D01*
X199310707Y-123343213D01*
X199199213Y-123454707D01*
X199199210Y-123454711D01*
X199111609Y-123585814D01*
X199111602Y-123585827D01*
X199051264Y-123731498D01*
X199051261Y-123731510D01*
X199020500Y-123886153D01*
X192730499Y-123886153D01*
X192699738Y-123731510D01*
X192699737Y-123731503D01*
X192699735Y-123731498D01*
X192639397Y-123585827D01*
X192639390Y-123585814D01*
X192551789Y-123454711D01*
X192551786Y-123454707D01*
X192440292Y-123343213D01*
X192440288Y-123343210D01*
X192309185Y-123255609D01*
X192309172Y-123255602D01*
X192163501Y-123195264D01*
X192163489Y-123195261D01*
X192008845Y-123164500D01*
X192008842Y-123164500D01*
X191851158Y-123164500D01*
X191851155Y-123164500D01*
X191696510Y-123195261D01*
X191696498Y-123195264D01*
X191550827Y-123255602D01*
X191550814Y-123255609D01*
X191419711Y-123343210D01*
X191419707Y-123343213D01*
X191308213Y-123454707D01*
X191308210Y-123454711D01*
X191220609Y-123585814D01*
X191220602Y-123585827D01*
X191160264Y-123731498D01*
X191160261Y-123731510D01*
X191129500Y-123886153D01*
X88627500Y-123886153D01*
X88627500Y-123836158D01*
X88627500Y-123836155D01*
X88627499Y-123836153D01*
X88606684Y-123731510D01*
X88596737Y-123681503D01*
X88557102Y-123585814D01*
X88536397Y-123535827D01*
X88536390Y-123535814D01*
X88448789Y-123404711D01*
X88448786Y-123404707D01*
X88337292Y-123293213D01*
X88337288Y-123293210D01*
X88206185Y-123205609D01*
X88206172Y-123205602D01*
X88060501Y-123145264D01*
X88060489Y-123145261D01*
X87905845Y-123114500D01*
X87905842Y-123114500D01*
X87748158Y-123114500D01*
X87748155Y-123114500D01*
X87593510Y-123145261D01*
X87593498Y-123145264D01*
X87447827Y-123205602D01*
X87447814Y-123205609D01*
X87316711Y-123293210D01*
X87316707Y-123293213D01*
X87205213Y-123404707D01*
X87205210Y-123404711D01*
X87117609Y-123535814D01*
X87117602Y-123535827D01*
X87057264Y-123681498D01*
X87057261Y-123681510D01*
X87026500Y-123836153D01*
X80736499Y-123836153D01*
X80715684Y-123731510D01*
X80705737Y-123681503D01*
X80666102Y-123585814D01*
X80645397Y-123535827D01*
X80645390Y-123535814D01*
X80557789Y-123404711D01*
X80557786Y-123404707D01*
X80446292Y-123293213D01*
X80446288Y-123293210D01*
X80315185Y-123205609D01*
X80315172Y-123205602D01*
X80169501Y-123145264D01*
X80169489Y-123145261D01*
X80014845Y-123114500D01*
X80014842Y-123114500D01*
X79857158Y-123114500D01*
X79857155Y-123114500D01*
X79702510Y-123145261D01*
X79702498Y-123145264D01*
X79556827Y-123205602D01*
X79556814Y-123205609D01*
X79425711Y-123293210D01*
X79425707Y-123293213D01*
X79314213Y-123404707D01*
X79314210Y-123404711D01*
X79226609Y-123535814D01*
X79226602Y-123535827D01*
X79166264Y-123681498D01*
X79166261Y-123681510D01*
X79135500Y-123836153D01*
X66394554Y-123836153D01*
X66394491Y-123831894D01*
X66333665Y-119706828D01*
X66352359Y-119639506D01*
X66404483Y-119592977D01*
X66457652Y-119581000D01*
X67111160Y-119581000D01*
X67611160Y-119581000D01*
X69948988Y-119581000D01*
X69949004Y-119580999D01*
X70008532Y-119574598D01*
X70008539Y-119574596D01*
X70143246Y-119524354D01*
X70143253Y-119524350D01*
X70258347Y-119438190D01*
X70258350Y-119438187D01*
X70344510Y-119323093D01*
X70344514Y-119323086D01*
X70394756Y-119188379D01*
X70394758Y-119188372D01*
X70401159Y-119128844D01*
X70401160Y-119128827D01*
X70401160Y-118946826D01*
X70420845Y-118879787D01*
X70473649Y-118834032D01*
X70542807Y-118824088D01*
X70549352Y-118825209D01*
X70704143Y-118856000D01*
X70898176Y-118856000D01*
X70898178Y-118855999D01*
X71088466Y-118818148D01*
X71088478Y-118818145D01*
X71267725Y-118743899D01*
X71299364Y-118722758D01*
X70712064Y-118135458D01*
X70678579Y-118074135D01*
X70678923Y-118069318D01*
X70755410Y-118101000D01*
X70846910Y-118101000D01*
X70931445Y-118065985D01*
X70996145Y-118001285D01*
X71031160Y-117916750D01*
X71031160Y-117870999D01*
X71154714Y-117870999D01*
X71154714Y-117871000D01*
X71652918Y-118369204D01*
X71674059Y-118337565D01*
X71748305Y-118158318D01*
X71748308Y-118158306D01*
X71786159Y-117968018D01*
X71786160Y-117968016D01*
X71786160Y-117773983D01*
X71786159Y-117773981D01*
X209250966Y-117773981D01*
X209250966Y-117968018D01*
X209288817Y-118158306D01*
X209288819Y-118158314D01*
X209363068Y-118337568D01*
X209363072Y-118337575D01*
X209384206Y-118369204D01*
X209384207Y-118369205D01*
X209882412Y-117871000D01*
X209384206Y-117372794D01*
X209363070Y-117404426D01*
X209363069Y-117404428D01*
X209288819Y-117583685D01*
X209288817Y-117583693D01*
X209250966Y-117773981D01*
X71786159Y-117773981D01*
X71748308Y-117583693D01*
X71748305Y-117583681D01*
X71674058Y-117404431D01*
X71652918Y-117372794D01*
X71154714Y-117870999D01*
X71031160Y-117870999D01*
X71031160Y-117825250D01*
X70996145Y-117740715D01*
X70931445Y-117676015D01*
X70846910Y-117641000D01*
X70755410Y-117641000D01*
X70682098Y-117671366D01*
X70683563Y-117650889D01*
X70712064Y-117606542D01*
X71299365Y-117019240D01*
X209737760Y-117019240D01*
X210325062Y-117606542D01*
X210358547Y-117667865D01*
X210358202Y-117672681D01*
X210281716Y-117641000D01*
X210190216Y-117641000D01*
X210105681Y-117676015D01*
X210040981Y-117740715D01*
X210005966Y-117825250D01*
X210005966Y-117916750D01*
X210040981Y-118001285D01*
X210105681Y-118065985D01*
X210190216Y-118101000D01*
X210281716Y-118101000D01*
X210355026Y-118070634D01*
X210353562Y-118091110D01*
X210325061Y-118135457D01*
X209737760Y-118722758D01*
X209737760Y-118722759D01*
X209769397Y-118743898D01*
X209948647Y-118818145D01*
X209948659Y-118818148D01*
X210138947Y-118855999D01*
X210138950Y-118856000D01*
X210332982Y-118856000D01*
X210487774Y-118825209D01*
X210557366Y-118831436D01*
X210612543Y-118874299D01*
X210635788Y-118940188D01*
X210635966Y-118946826D01*
X210635966Y-119128844D01*
X210642367Y-119188372D01*
X210642369Y-119188379D01*
X210692611Y-119323086D01*
X210692615Y-119323093D01*
X210778775Y-119438187D01*
X210778778Y-119438190D01*
X210893872Y-119524350D01*
X210893879Y-119524354D01*
X211028586Y-119574596D01*
X211028593Y-119574598D01*
X211088121Y-119580999D01*
X211088138Y-119581000D01*
X213425966Y-119581000D01*
X213425966Y-116161000D01*
X211088121Y-116161000D01*
X211028593Y-116167401D01*
X211028586Y-116167403D01*
X210893879Y-116217645D01*
X210893872Y-116217649D01*
X210778778Y-116303809D01*
X210778775Y-116303812D01*
X210692615Y-116418906D01*
X210692611Y-116418913D01*
X210642369Y-116553620D01*
X210642367Y-116553627D01*
X210635966Y-116613155D01*
X210635966Y-116795173D01*
X210616281Y-116862212D01*
X210563477Y-116907967D01*
X210494319Y-116917911D01*
X210487775Y-116916790D01*
X210332983Y-116886000D01*
X210138949Y-116886000D01*
X209948659Y-116923851D01*
X209948651Y-116923853D01*
X209769394Y-116998103D01*
X209769392Y-116998104D01*
X209737760Y-117019240D01*
X71299365Y-117019240D01*
X71267735Y-116998106D01*
X71267728Y-116998102D01*
X71088474Y-116923853D01*
X71088466Y-116923851D01*
X70898177Y-116886000D01*
X70704143Y-116886000D01*
X70549351Y-116916790D01*
X70479760Y-116910563D01*
X70424582Y-116867700D01*
X70401338Y-116801810D01*
X70401160Y-116795173D01*
X70401160Y-116613172D01*
X70401159Y-116613155D01*
X70394758Y-116553627D01*
X70394756Y-116553620D01*
X70344514Y-116418913D01*
X70344510Y-116418906D01*
X70258350Y-116303812D01*
X70258347Y-116303809D01*
X70143253Y-116217649D01*
X70143246Y-116217645D01*
X70008539Y-116167403D01*
X70008532Y-116167401D01*
X69949004Y-116161000D01*
X67611160Y-116161000D01*
X67611160Y-119581000D01*
X67111160Y-119581000D01*
X67111160Y-116161000D01*
X66403566Y-116161000D01*
X66336527Y-116141315D01*
X66290772Y-116088511D01*
X66279579Y-116038828D01*
X66269079Y-115326783D01*
X66227158Y-112483825D01*
X66245852Y-112416506D01*
X66297976Y-112369977D01*
X66351145Y-112358000D01*
X67111160Y-112358000D01*
X67611160Y-112358000D01*
X69948988Y-112358000D01*
X69949004Y-112357999D01*
X70008532Y-112351598D01*
X70008539Y-112351596D01*
X70143246Y-112301354D01*
X70143253Y-112301350D01*
X70258347Y-112215190D01*
X70258350Y-112215187D01*
X70344510Y-112100093D01*
X70344514Y-112100086D01*
X70394756Y-111965379D01*
X70394758Y-111965372D01*
X70401159Y-111905844D01*
X70401160Y-111905827D01*
X70401160Y-111723826D01*
X70420845Y-111656787D01*
X70473649Y-111611032D01*
X70542807Y-111601088D01*
X70549352Y-111602209D01*
X70704143Y-111633000D01*
X70898176Y-111633000D01*
X70898178Y-111632999D01*
X71088466Y-111595148D01*
X71088478Y-111595145D01*
X71267725Y-111520899D01*
X71299364Y-111499758D01*
X70712064Y-110912458D01*
X70678579Y-110851135D01*
X70678923Y-110846318D01*
X70755410Y-110878000D01*
X70846910Y-110878000D01*
X70931445Y-110842985D01*
X70996145Y-110778285D01*
X71031160Y-110693750D01*
X71031160Y-110647999D01*
X71154714Y-110647999D01*
X71154714Y-110648000D01*
X71652918Y-111146204D01*
X71674059Y-111114565D01*
X71748305Y-110935318D01*
X71748308Y-110935306D01*
X71786159Y-110745018D01*
X71786160Y-110745016D01*
X71786160Y-110550983D01*
X71786159Y-110550981D01*
X209250966Y-110550981D01*
X209250966Y-110745018D01*
X209288817Y-110935306D01*
X209288819Y-110935314D01*
X209363068Y-111114568D01*
X209363072Y-111114575D01*
X209384206Y-111146204D01*
X209384207Y-111146205D01*
X209882412Y-110648000D01*
X209384206Y-110149794D01*
X209363070Y-110181426D01*
X209363069Y-110181428D01*
X209288819Y-110360685D01*
X209288817Y-110360693D01*
X209250966Y-110550981D01*
X71786159Y-110550981D01*
X71748308Y-110360693D01*
X71748305Y-110360681D01*
X71674058Y-110181431D01*
X71652918Y-110149794D01*
X71154714Y-110647999D01*
X71031160Y-110647999D01*
X71031160Y-110602250D01*
X70996145Y-110517715D01*
X70931445Y-110453015D01*
X70846910Y-110418000D01*
X70755410Y-110418000D01*
X70682098Y-110448366D01*
X70683563Y-110427889D01*
X70712064Y-110383542D01*
X71299365Y-109796240D01*
X209737760Y-109796240D01*
X210325062Y-110383542D01*
X210358547Y-110444865D01*
X210358202Y-110449681D01*
X210281716Y-110418000D01*
X210190216Y-110418000D01*
X210105681Y-110453015D01*
X210040981Y-110517715D01*
X210005966Y-110602250D01*
X210005966Y-110693750D01*
X210040981Y-110778285D01*
X210105681Y-110842985D01*
X210190216Y-110878000D01*
X210281716Y-110878000D01*
X210355026Y-110847634D01*
X210353562Y-110868110D01*
X210325061Y-110912457D01*
X209737760Y-111499758D01*
X209737760Y-111499759D01*
X209769397Y-111520898D01*
X209948647Y-111595145D01*
X209948659Y-111595148D01*
X210138947Y-111632999D01*
X210138950Y-111633000D01*
X210332982Y-111633000D01*
X210487774Y-111602209D01*
X210557366Y-111608436D01*
X210612543Y-111651299D01*
X210635788Y-111717188D01*
X210635966Y-111723826D01*
X210635966Y-111905844D01*
X210642367Y-111965372D01*
X210642369Y-111965379D01*
X210692611Y-112100086D01*
X210692615Y-112100093D01*
X210778775Y-112215187D01*
X210778778Y-112215190D01*
X210893872Y-112301350D01*
X210893879Y-112301354D01*
X211028586Y-112351596D01*
X211028593Y-112351598D01*
X211088121Y-112357999D01*
X211088138Y-112358000D01*
X213425966Y-112358000D01*
X213425966Y-108938000D01*
X211088121Y-108938000D01*
X211028593Y-108944401D01*
X211028586Y-108944403D01*
X210893879Y-108994645D01*
X210893872Y-108994649D01*
X210778778Y-109080809D01*
X210778775Y-109080812D01*
X210692615Y-109195906D01*
X210692611Y-109195913D01*
X210642369Y-109330620D01*
X210642367Y-109330627D01*
X210635966Y-109390155D01*
X210635966Y-109572173D01*
X210616281Y-109639212D01*
X210563477Y-109684967D01*
X210494319Y-109694911D01*
X210487775Y-109693790D01*
X210332983Y-109663000D01*
X210138949Y-109663000D01*
X209948659Y-109700851D01*
X209948651Y-109700853D01*
X209769394Y-109775103D01*
X209769392Y-109775104D01*
X209737760Y-109796240D01*
X71299365Y-109796240D01*
X71267735Y-109775106D01*
X71267728Y-109775102D01*
X71088474Y-109700853D01*
X71088466Y-109700851D01*
X70898177Y-109663000D01*
X70704143Y-109663000D01*
X70549351Y-109693790D01*
X70479760Y-109687563D01*
X70424582Y-109644700D01*
X70401338Y-109578810D01*
X70401160Y-109572173D01*
X70401160Y-109390172D01*
X70401159Y-109390155D01*
X70394758Y-109330627D01*
X70394756Y-109330620D01*
X70344514Y-109195913D01*
X70344510Y-109195906D01*
X70258350Y-109080812D01*
X70258347Y-109080809D01*
X70143253Y-108994649D01*
X70143246Y-108994645D01*
X70008539Y-108944403D01*
X70008532Y-108944401D01*
X69949004Y-108938000D01*
X67611160Y-108938000D01*
X67611160Y-112358000D01*
X67111160Y-112358000D01*
X67111160Y-108938000D01*
X66297060Y-108938000D01*
X66230021Y-108918315D01*
X66184266Y-108865511D01*
X66173073Y-108815828D01*
X66137281Y-106388500D01*
X73594000Y-106388500D01*
X74396417Y-106388500D01*
X74463456Y-106408185D01*
X74465262Y-106409367D01*
X74509042Y-106438620D01*
X74641729Y-106493581D01*
X74762380Y-106517580D01*
X74782585Y-106521599D01*
X74782588Y-106521600D01*
X74782590Y-106521600D01*
X74926212Y-106521600D01*
X74926213Y-106521599D01*
X75067071Y-106493581D01*
X75199758Y-106438620D01*
X75243492Y-106409397D01*
X75310169Y-106388520D01*
X75312383Y-106388500D01*
X76853417Y-106388500D01*
X76920456Y-106408185D01*
X76922262Y-106409367D01*
X76966042Y-106438620D01*
X77098729Y-106493581D01*
X77219380Y-106517580D01*
X77239585Y-106521599D01*
X77239588Y-106521600D01*
X77239590Y-106521600D01*
X77383212Y-106521600D01*
X77383213Y-106521599D01*
X77524071Y-106493581D01*
X77656758Y-106438620D01*
X77695848Y-106412500D01*
X202391000Y-106412500D01*
X203193417Y-106412500D01*
X203260456Y-106432185D01*
X203262262Y-106433367D01*
X203306042Y-106462620D01*
X203438729Y-106517581D01*
X203579585Y-106545599D01*
X203579588Y-106545600D01*
X203579590Y-106545600D01*
X203723212Y-106545600D01*
X203723213Y-106545599D01*
X203864071Y-106517581D01*
X203996758Y-106462620D01*
X204040492Y-106433397D01*
X204107169Y-106412520D01*
X204109383Y-106412500D01*
X205650417Y-106412500D01*
X205717456Y-106432185D01*
X205719262Y-106433367D01*
X205763042Y-106462620D01*
X205895729Y-106517581D01*
X206036585Y-106545599D01*
X206036588Y-106545600D01*
X206036590Y-106545600D01*
X206180212Y-106545600D01*
X206180213Y-106545599D01*
X206321071Y-106517581D01*
X206453758Y-106462620D01*
X206497492Y-106433397D01*
X206564169Y-106412520D01*
X206566383Y-106412500D01*
X207391000Y-106412500D01*
X207391000Y-101790981D01*
X209250966Y-101790981D01*
X209250966Y-101985018D01*
X209288817Y-102175306D01*
X209288819Y-102175314D01*
X209363068Y-102354568D01*
X209363072Y-102354575D01*
X209384206Y-102386204D01*
X209384207Y-102386205D01*
X209882412Y-101888000D01*
X209384206Y-101389794D01*
X209363070Y-101421426D01*
X209363069Y-101421428D01*
X209288819Y-101600685D01*
X209288817Y-101600693D01*
X209250966Y-101790981D01*
X207391000Y-101790981D01*
X207391000Y-101412500D01*
X202391000Y-101412500D01*
X202391000Y-106412500D01*
X77695848Y-106412500D01*
X77700492Y-106409397D01*
X77767169Y-106388520D01*
X77769383Y-106388500D01*
X78594000Y-106388500D01*
X78594000Y-101388500D01*
X73594000Y-101388500D01*
X73594000Y-106388500D01*
X66137281Y-106388500D01*
X66097989Y-103723828D01*
X66116683Y-103656506D01*
X66168807Y-103609977D01*
X66221976Y-103598000D01*
X67111160Y-103598000D01*
X67611160Y-103598000D01*
X69948988Y-103598000D01*
X69949004Y-103597999D01*
X70008532Y-103591598D01*
X70008539Y-103591596D01*
X70143246Y-103541354D01*
X70143253Y-103541350D01*
X70258347Y-103455190D01*
X70258350Y-103455187D01*
X70344510Y-103340093D01*
X70344514Y-103340086D01*
X70394756Y-103205379D01*
X70394758Y-103205372D01*
X70401159Y-103145844D01*
X70401160Y-103145827D01*
X70401160Y-102963826D01*
X70420845Y-102896787D01*
X70473649Y-102851032D01*
X70542807Y-102841088D01*
X70549352Y-102842209D01*
X70704143Y-102873000D01*
X70898176Y-102873000D01*
X70898178Y-102872999D01*
X71088466Y-102835148D01*
X71088478Y-102835145D01*
X71267725Y-102760899D01*
X71299364Y-102739758D01*
X70712064Y-102152458D01*
X70678579Y-102091135D01*
X70678923Y-102086318D01*
X70755410Y-102118000D01*
X70846910Y-102118000D01*
X70931445Y-102082985D01*
X70996145Y-102018285D01*
X71031160Y-101933750D01*
X71031160Y-101887999D01*
X71154714Y-101887999D01*
X71154714Y-101888000D01*
X71652918Y-102386204D01*
X71674059Y-102354565D01*
X71748305Y-102175318D01*
X71748308Y-102175306D01*
X71786159Y-101985018D01*
X71786160Y-101985016D01*
X71786160Y-101790983D01*
X71786159Y-101790981D01*
X71748308Y-101600693D01*
X71748305Y-101600681D01*
X71674057Y-101421431D01*
X71663766Y-101406028D01*
X71663765Y-101406025D01*
X71652920Y-101389794D01*
X71652918Y-101389794D01*
X71154714Y-101887999D01*
X71031160Y-101887999D01*
X71031160Y-101842250D01*
X70996145Y-101757715D01*
X70931445Y-101693015D01*
X70846910Y-101658000D01*
X70755410Y-101658000D01*
X70682098Y-101688366D01*
X70683563Y-101667889D01*
X70712064Y-101623542D01*
X71299365Y-101036240D01*
X209737760Y-101036240D01*
X210325062Y-101623542D01*
X210358547Y-101684865D01*
X210358202Y-101689681D01*
X210281716Y-101658000D01*
X210190216Y-101658000D01*
X210105681Y-101693015D01*
X210040981Y-101757715D01*
X210005966Y-101842250D01*
X210005966Y-101933750D01*
X210040981Y-102018285D01*
X210105681Y-102082985D01*
X210190216Y-102118000D01*
X210281716Y-102118000D01*
X210355026Y-102087634D01*
X210353562Y-102108110D01*
X210325061Y-102152457D01*
X209737760Y-102739758D01*
X209737760Y-102739759D01*
X209769397Y-102760898D01*
X209948647Y-102835145D01*
X209948659Y-102835148D01*
X210138947Y-102872999D01*
X210138950Y-102873000D01*
X210332982Y-102873000D01*
X210487774Y-102842209D01*
X210557366Y-102848436D01*
X210612543Y-102891299D01*
X210635788Y-102957188D01*
X210635966Y-102963826D01*
X210635966Y-103145844D01*
X210642367Y-103205372D01*
X210642369Y-103205379D01*
X210692611Y-103340086D01*
X210692615Y-103340093D01*
X210778775Y-103455187D01*
X210778778Y-103455190D01*
X210893872Y-103541350D01*
X210893879Y-103541354D01*
X211028586Y-103591596D01*
X211028593Y-103591598D01*
X211088121Y-103597999D01*
X211088138Y-103598000D01*
X213425966Y-103598000D01*
X213425966Y-100178000D01*
X211088121Y-100178000D01*
X211028593Y-100184401D01*
X211028586Y-100184403D01*
X210893879Y-100234645D01*
X210893872Y-100234649D01*
X210778778Y-100320809D01*
X210778775Y-100320812D01*
X210692615Y-100435906D01*
X210692611Y-100435913D01*
X210642369Y-100570620D01*
X210642367Y-100570627D01*
X210635966Y-100630155D01*
X210635966Y-100812173D01*
X210616281Y-100879212D01*
X210563477Y-100924967D01*
X210494319Y-100934911D01*
X210487775Y-100933790D01*
X210332983Y-100903000D01*
X210138949Y-100903000D01*
X209948659Y-100940851D01*
X209948651Y-100940853D01*
X209769394Y-101015103D01*
X209769392Y-101015104D01*
X209737760Y-101036240D01*
X71299365Y-101036240D01*
X71267735Y-101015106D01*
X71267728Y-101015102D01*
X71088474Y-100940853D01*
X71088466Y-100940851D01*
X70898177Y-100903000D01*
X70704143Y-100903000D01*
X70549351Y-100933790D01*
X70479760Y-100927563D01*
X70424582Y-100884700D01*
X70401338Y-100818810D01*
X70401160Y-100812173D01*
X70401160Y-100630172D01*
X70401159Y-100630155D01*
X70394758Y-100570627D01*
X70394756Y-100570620D01*
X70344514Y-100435913D01*
X70344510Y-100435906D01*
X70258350Y-100320812D01*
X70258347Y-100320809D01*
X70143253Y-100234649D01*
X70143246Y-100234645D01*
X70008539Y-100184403D01*
X70008532Y-100184401D01*
X69949004Y-100178000D01*
X67611160Y-100178000D01*
X67611160Y-103598000D01*
X67111160Y-103598000D01*
X67111160Y-100178000D01*
X66167890Y-100178000D01*
X66100851Y-100158315D01*
X66055096Y-100105511D01*
X66043903Y-100055828D01*
X65991483Y-96500828D01*
X66010177Y-96433506D01*
X66062301Y-96386977D01*
X66115470Y-96375000D01*
X67111160Y-96375000D01*
X67611160Y-96375000D01*
X69948988Y-96375000D01*
X69949004Y-96374999D01*
X70008532Y-96368598D01*
X70008539Y-96368596D01*
X70143246Y-96318354D01*
X70143253Y-96318350D01*
X70258347Y-96232190D01*
X70258350Y-96232187D01*
X70344510Y-96117093D01*
X70344514Y-96117086D01*
X70394756Y-95982379D01*
X70394758Y-95982372D01*
X70401159Y-95922844D01*
X70401160Y-95922827D01*
X70401160Y-95740826D01*
X70420845Y-95673787D01*
X70473649Y-95628032D01*
X70542807Y-95618088D01*
X70549352Y-95619209D01*
X70704143Y-95650000D01*
X70898176Y-95650000D01*
X70898178Y-95649999D01*
X71088466Y-95612148D01*
X71088478Y-95612145D01*
X71267725Y-95537899D01*
X71299364Y-95516758D01*
X70712064Y-94929458D01*
X70678579Y-94868135D01*
X70678923Y-94863318D01*
X70755410Y-94895000D01*
X70846910Y-94895000D01*
X70931445Y-94859985D01*
X70996145Y-94795285D01*
X71031160Y-94710750D01*
X71031160Y-94664999D01*
X71154714Y-94664999D01*
X71154714Y-94665000D01*
X71652918Y-95163204D01*
X71674059Y-95131565D01*
X71748305Y-94952318D01*
X71748308Y-94952306D01*
X71786159Y-94762018D01*
X71786160Y-94762016D01*
X71786160Y-94567983D01*
X71786159Y-94567981D01*
X209250966Y-94567981D01*
X209250966Y-94762018D01*
X209288817Y-94952306D01*
X209288819Y-94952314D01*
X209363068Y-95131568D01*
X209363072Y-95131575D01*
X209384206Y-95163204D01*
X209384207Y-95163205D01*
X209882412Y-94665000D01*
X209384206Y-94166794D01*
X209363070Y-94198426D01*
X209363069Y-94198428D01*
X209288819Y-94377685D01*
X209288817Y-94377693D01*
X209250966Y-94567981D01*
X71786159Y-94567981D01*
X71748308Y-94377693D01*
X71748305Y-94377681D01*
X71674058Y-94198431D01*
X71652918Y-94166794D01*
X71154714Y-94664999D01*
X71031160Y-94664999D01*
X71031160Y-94619250D01*
X70996145Y-94534715D01*
X70931445Y-94470015D01*
X70846910Y-94435000D01*
X70755410Y-94435000D01*
X70682098Y-94465366D01*
X70683563Y-94444889D01*
X70712064Y-94400542D01*
X71299365Y-93813240D01*
X209737760Y-93813240D01*
X210325062Y-94400542D01*
X210358547Y-94461865D01*
X210358202Y-94466681D01*
X210281716Y-94435000D01*
X210190216Y-94435000D01*
X210105681Y-94470015D01*
X210040981Y-94534715D01*
X210005966Y-94619250D01*
X210005966Y-94710750D01*
X210040981Y-94795285D01*
X210105681Y-94859985D01*
X210190216Y-94895000D01*
X210281716Y-94895000D01*
X210355026Y-94864634D01*
X210353562Y-94885110D01*
X210325061Y-94929457D01*
X209737760Y-95516758D01*
X209737760Y-95516759D01*
X209769397Y-95537898D01*
X209948647Y-95612145D01*
X209948659Y-95612148D01*
X210138947Y-95649999D01*
X210138950Y-95650000D01*
X210332982Y-95650000D01*
X210487774Y-95619209D01*
X210557366Y-95625436D01*
X210612543Y-95668299D01*
X210635788Y-95734188D01*
X210635966Y-95740826D01*
X210635966Y-95922844D01*
X210642367Y-95982372D01*
X210642369Y-95982379D01*
X210692611Y-96117086D01*
X210692615Y-96117093D01*
X210778775Y-96232187D01*
X210778778Y-96232190D01*
X210893872Y-96318350D01*
X210893879Y-96318354D01*
X211028586Y-96368596D01*
X211028593Y-96368598D01*
X211088121Y-96374999D01*
X211088138Y-96375000D01*
X213425966Y-96375000D01*
X213425966Y-92955000D01*
X211088121Y-92955000D01*
X211028593Y-92961401D01*
X211028586Y-92961403D01*
X210893879Y-93011645D01*
X210893872Y-93011649D01*
X210778778Y-93097809D01*
X210778775Y-93097812D01*
X210692615Y-93212906D01*
X210692611Y-93212913D01*
X210642369Y-93347620D01*
X210642367Y-93347627D01*
X210635966Y-93407155D01*
X210635966Y-93589173D01*
X210616281Y-93656212D01*
X210563477Y-93701967D01*
X210494319Y-93711911D01*
X210487775Y-93710790D01*
X210332983Y-93680000D01*
X210138949Y-93680000D01*
X209948659Y-93717851D01*
X209948651Y-93717853D01*
X209769394Y-93792103D01*
X209769392Y-93792104D01*
X209737760Y-93813240D01*
X71299365Y-93813240D01*
X71267735Y-93792106D01*
X71267728Y-93792102D01*
X71088474Y-93717853D01*
X71088466Y-93717851D01*
X70898177Y-93680000D01*
X70704143Y-93680000D01*
X70549351Y-93710790D01*
X70479760Y-93704563D01*
X70424582Y-93661700D01*
X70401338Y-93595810D01*
X70401160Y-93589173D01*
X70401160Y-93407172D01*
X70401159Y-93407155D01*
X70394758Y-93347627D01*
X70394756Y-93347620D01*
X70344514Y-93212913D01*
X70344510Y-93212906D01*
X70258350Y-93097812D01*
X70258347Y-93097809D01*
X70143253Y-93011649D01*
X70143246Y-93011645D01*
X70008539Y-92961403D01*
X70008532Y-92961401D01*
X69949004Y-92955000D01*
X67611160Y-92955000D01*
X67611160Y-96375000D01*
X67111160Y-96375000D01*
X67111160Y-92955000D01*
X66061384Y-92955000D01*
X65994345Y-92935315D01*
X65948590Y-92882511D01*
X65937397Y-92832828D01*
X65902650Y-90476398D01*
X65902342Y-90455500D01*
X96923000Y-90455500D01*
X97725417Y-90455500D01*
X97792456Y-90475185D01*
X97794262Y-90476367D01*
X97838042Y-90505620D01*
X97970729Y-90560581D01*
X98111585Y-90588599D01*
X98111588Y-90588600D01*
X98111590Y-90588600D01*
X98255212Y-90588600D01*
X98255213Y-90588599D01*
X98396071Y-90560581D01*
X98528758Y-90505620D01*
X98572492Y-90476397D01*
X98639169Y-90455520D01*
X98641383Y-90455500D01*
X100182417Y-90455500D01*
X100249456Y-90475185D01*
X100251262Y-90476367D01*
X100295042Y-90505620D01*
X100427729Y-90560581D01*
X100568585Y-90588599D01*
X100568588Y-90588600D01*
X100568590Y-90588600D01*
X100712212Y-90588600D01*
X100712213Y-90588599D01*
X100853071Y-90560581D01*
X100985758Y-90505620D01*
X101029492Y-90476397D01*
X101096169Y-90455520D01*
X101098383Y-90455500D01*
X101923000Y-90455500D01*
X101923000Y-90425000D01*
X179154000Y-90425000D01*
X179956417Y-90425000D01*
X180023456Y-90444685D01*
X180025262Y-90445867D01*
X180069042Y-90475120D01*
X180201729Y-90530081D01*
X180342585Y-90558099D01*
X180342588Y-90558100D01*
X180342590Y-90558100D01*
X180486212Y-90558100D01*
X180486213Y-90558099D01*
X180627071Y-90530081D01*
X180759758Y-90475120D01*
X180803492Y-90445897D01*
X180870169Y-90425020D01*
X180872383Y-90425000D01*
X182413417Y-90425000D01*
X182480456Y-90444685D01*
X182482262Y-90445867D01*
X182526042Y-90475120D01*
X182658729Y-90530081D01*
X182799585Y-90558099D01*
X182799588Y-90558100D01*
X182799590Y-90558100D01*
X182943212Y-90558100D01*
X182943213Y-90558099D01*
X183084071Y-90530081D01*
X183216758Y-90475120D01*
X183260492Y-90445897D01*
X183327169Y-90425020D01*
X183329383Y-90425000D01*
X184154000Y-90425000D01*
X184154000Y-85807981D01*
X209250966Y-85807981D01*
X209250966Y-86002018D01*
X209288817Y-86192306D01*
X209288819Y-86192314D01*
X209363068Y-86371568D01*
X209363072Y-86371575D01*
X209384206Y-86403204D01*
X209384207Y-86403205D01*
X209882412Y-85905000D01*
X209384206Y-85406794D01*
X209363070Y-85438426D01*
X209363069Y-85438428D01*
X209288819Y-85617685D01*
X209288817Y-85617693D01*
X209250966Y-85807981D01*
X184154000Y-85807981D01*
X184154000Y-85425000D01*
X179154000Y-85425000D01*
X179154000Y-90425000D01*
X101923000Y-90425000D01*
X101923000Y-85455500D01*
X96923000Y-85455500D01*
X96923000Y-90455500D01*
X65902342Y-90455500D01*
X65862313Y-87740826D01*
X65881007Y-87673506D01*
X65933131Y-87626977D01*
X65986300Y-87615000D01*
X67111160Y-87615000D01*
X67611160Y-87615000D01*
X69948988Y-87615000D01*
X69949004Y-87614999D01*
X70008532Y-87608598D01*
X70008539Y-87608596D01*
X70143246Y-87558354D01*
X70143253Y-87558350D01*
X70258347Y-87472190D01*
X70258350Y-87472187D01*
X70344510Y-87357093D01*
X70344514Y-87357086D01*
X70394756Y-87222379D01*
X70394758Y-87222372D01*
X70401159Y-87162844D01*
X70401160Y-87162827D01*
X70401160Y-86980826D01*
X70420845Y-86913787D01*
X70473649Y-86868032D01*
X70542807Y-86858088D01*
X70549352Y-86859209D01*
X70704143Y-86890000D01*
X70898176Y-86890000D01*
X70898178Y-86889999D01*
X71088466Y-86852148D01*
X71088478Y-86852145D01*
X71267725Y-86777899D01*
X71299364Y-86756758D01*
X70712064Y-86169458D01*
X70678579Y-86108135D01*
X70678923Y-86103318D01*
X70755410Y-86135000D01*
X70846910Y-86135000D01*
X70931445Y-86099985D01*
X70996145Y-86035285D01*
X71031160Y-85950750D01*
X71031160Y-85904999D01*
X71154714Y-85904999D01*
X71154714Y-85905000D01*
X71652918Y-86403204D01*
X71674059Y-86371565D01*
X71748305Y-86192318D01*
X71748308Y-86192306D01*
X71786159Y-86002018D01*
X71786160Y-86002016D01*
X71786160Y-85807983D01*
X71786159Y-85807981D01*
X71748308Y-85617693D01*
X71748306Y-85617685D01*
X71679508Y-85451591D01*
X71679507Y-85451590D01*
X71679507Y-85451588D01*
X71674057Y-85438430D01*
X71652918Y-85406794D01*
X71154714Y-85904999D01*
X71031160Y-85904999D01*
X71031160Y-85859250D01*
X70996145Y-85774715D01*
X70931445Y-85710015D01*
X70846910Y-85675000D01*
X70755410Y-85675000D01*
X70682098Y-85705366D01*
X70683563Y-85684889D01*
X70712064Y-85640542D01*
X71299365Y-85053240D01*
X209737760Y-85053240D01*
X210325062Y-85640542D01*
X210358547Y-85701865D01*
X210358202Y-85706681D01*
X210281716Y-85675000D01*
X210190216Y-85675000D01*
X210105681Y-85710015D01*
X210040981Y-85774715D01*
X210005966Y-85859250D01*
X210005966Y-85950750D01*
X210040981Y-86035285D01*
X210105681Y-86099985D01*
X210190216Y-86135000D01*
X210281716Y-86135000D01*
X210355026Y-86104634D01*
X210353562Y-86125110D01*
X210325061Y-86169457D01*
X209737760Y-86756758D01*
X209737760Y-86756759D01*
X209769397Y-86777898D01*
X209948647Y-86852145D01*
X209948659Y-86852148D01*
X210138947Y-86889999D01*
X210138950Y-86890000D01*
X210332982Y-86890000D01*
X210487774Y-86859209D01*
X210557366Y-86865436D01*
X210612543Y-86908299D01*
X210635788Y-86974188D01*
X210635966Y-86980826D01*
X210635966Y-87162844D01*
X210642367Y-87222372D01*
X210642369Y-87222379D01*
X210692611Y-87357086D01*
X210692615Y-87357093D01*
X210778775Y-87472187D01*
X210778778Y-87472190D01*
X210893872Y-87558350D01*
X210893879Y-87558354D01*
X211028586Y-87608596D01*
X211028593Y-87608598D01*
X211088121Y-87614999D01*
X211088138Y-87615000D01*
X213425966Y-87615000D01*
X213425966Y-84195000D01*
X211088121Y-84195000D01*
X211028593Y-84201401D01*
X211028586Y-84201403D01*
X210893879Y-84251645D01*
X210893872Y-84251649D01*
X210778778Y-84337809D01*
X210778775Y-84337812D01*
X210692615Y-84452906D01*
X210692611Y-84452913D01*
X210642369Y-84587620D01*
X210642367Y-84587627D01*
X210635966Y-84647155D01*
X210635966Y-84829173D01*
X210616281Y-84896212D01*
X210563477Y-84941967D01*
X210494319Y-84951911D01*
X210487775Y-84950790D01*
X210332983Y-84920000D01*
X210138949Y-84920000D01*
X209948659Y-84957851D01*
X209948651Y-84957853D01*
X209769394Y-85032103D01*
X209769392Y-85032104D01*
X209737760Y-85053240D01*
X71299365Y-85053240D01*
X71267735Y-85032106D01*
X71267728Y-85032102D01*
X71088474Y-84957853D01*
X71088466Y-84957851D01*
X70898177Y-84920000D01*
X70704143Y-84920000D01*
X70549351Y-84950790D01*
X70479760Y-84944563D01*
X70424582Y-84901700D01*
X70401338Y-84835810D01*
X70401160Y-84829173D01*
X70401160Y-84647172D01*
X70401159Y-84647155D01*
X70394758Y-84587627D01*
X70394756Y-84587620D01*
X70344514Y-84452913D01*
X70344510Y-84452906D01*
X70258350Y-84337812D01*
X70258347Y-84337809D01*
X70143253Y-84251649D01*
X70143246Y-84251645D01*
X70008539Y-84201403D01*
X70008532Y-84201401D01*
X69949004Y-84195000D01*
X67611160Y-84195000D01*
X67611160Y-87615000D01*
X67111160Y-87615000D01*
X67111160Y-84195000D01*
X65932215Y-84195000D01*
X65865176Y-84175315D01*
X65819421Y-84122511D01*
X65808228Y-84072828D01*
X65755807Y-80517828D01*
X65774501Y-80450506D01*
X65826625Y-80403977D01*
X65879794Y-80392000D01*
X67111160Y-80392000D01*
X67611160Y-80392000D01*
X69948988Y-80392000D01*
X69949004Y-80391999D01*
X70008532Y-80385598D01*
X70008539Y-80385596D01*
X70143246Y-80335354D01*
X70143253Y-80335350D01*
X70258347Y-80249190D01*
X70258350Y-80249187D01*
X70344510Y-80134093D01*
X70344514Y-80134086D01*
X70394756Y-79999379D01*
X70394758Y-79999372D01*
X70401159Y-79939844D01*
X70401160Y-79939827D01*
X70401160Y-79757826D01*
X70420845Y-79690787D01*
X70473649Y-79645032D01*
X70542807Y-79635088D01*
X70549352Y-79636209D01*
X70704143Y-79667000D01*
X70898176Y-79667000D01*
X70898178Y-79666999D01*
X71088466Y-79629148D01*
X71088478Y-79629145D01*
X71267725Y-79554899D01*
X71299364Y-79533758D01*
X70712064Y-78946458D01*
X70678579Y-78885135D01*
X70678923Y-78880318D01*
X70755410Y-78912000D01*
X70846910Y-78912000D01*
X70931445Y-78876985D01*
X70996145Y-78812285D01*
X71031160Y-78727750D01*
X71031160Y-78681999D01*
X71154714Y-78681999D01*
X71154714Y-78682000D01*
X71652918Y-79180204D01*
X71674059Y-79148565D01*
X71748305Y-78969318D01*
X71748308Y-78969306D01*
X71786159Y-78779018D01*
X71786160Y-78779016D01*
X71786160Y-78641981D01*
X209250966Y-78641981D01*
X209250966Y-78836018D01*
X209288817Y-79026306D01*
X209288819Y-79026314D01*
X209363068Y-79205568D01*
X209363072Y-79205575D01*
X209384206Y-79237204D01*
X209384207Y-79237205D01*
X209882412Y-78739000D01*
X209384206Y-78240794D01*
X209363070Y-78272426D01*
X209363069Y-78272428D01*
X209288819Y-78451685D01*
X209288817Y-78451693D01*
X209250966Y-78641981D01*
X71786160Y-78641981D01*
X71786160Y-78584983D01*
X71786159Y-78584981D01*
X71748308Y-78394693D01*
X71748305Y-78394681D01*
X71674058Y-78215431D01*
X71652918Y-78183794D01*
X71154714Y-78681999D01*
X71031160Y-78681999D01*
X71031160Y-78636250D01*
X70996145Y-78551715D01*
X70931445Y-78487015D01*
X70846910Y-78452000D01*
X70755410Y-78452000D01*
X70682098Y-78482366D01*
X70683563Y-78461889D01*
X70712064Y-78417542D01*
X71242366Y-77887240D01*
X209737760Y-77887240D01*
X210325062Y-78474542D01*
X210358547Y-78535865D01*
X210358202Y-78540681D01*
X210281716Y-78509000D01*
X210190216Y-78509000D01*
X210105681Y-78544015D01*
X210040981Y-78608715D01*
X210005966Y-78693250D01*
X210005966Y-78784750D01*
X210040981Y-78869285D01*
X210105681Y-78933985D01*
X210190216Y-78969000D01*
X210281716Y-78969000D01*
X210355026Y-78938634D01*
X210353562Y-78959110D01*
X210325061Y-79003457D01*
X209737760Y-79590758D01*
X209737760Y-79590759D01*
X209769397Y-79611898D01*
X209948647Y-79686145D01*
X209948659Y-79686148D01*
X210138947Y-79723999D01*
X210138950Y-79724000D01*
X210332982Y-79724000D01*
X210487774Y-79693209D01*
X210557366Y-79699436D01*
X210612543Y-79742299D01*
X210635788Y-79808188D01*
X210635966Y-79814826D01*
X210635966Y-79996844D01*
X210642367Y-80056372D01*
X210642369Y-80056379D01*
X210692611Y-80191086D01*
X210692615Y-80191093D01*
X210778775Y-80306187D01*
X210778778Y-80306190D01*
X210893872Y-80392350D01*
X210893879Y-80392354D01*
X211028586Y-80442596D01*
X211028593Y-80442598D01*
X211088121Y-80448999D01*
X211088138Y-80449000D01*
X213425966Y-80449000D01*
X213425966Y-77029000D01*
X211088121Y-77029000D01*
X211028593Y-77035401D01*
X211028586Y-77035403D01*
X210893879Y-77085645D01*
X210893872Y-77085649D01*
X210778778Y-77171809D01*
X210778775Y-77171812D01*
X210692615Y-77286906D01*
X210692611Y-77286913D01*
X210642369Y-77421620D01*
X210642367Y-77421627D01*
X210635966Y-77481155D01*
X210635966Y-77663173D01*
X210616281Y-77730212D01*
X210563477Y-77775967D01*
X210494319Y-77785911D01*
X210487775Y-77784790D01*
X210332983Y-77754000D01*
X210138949Y-77754000D01*
X209948659Y-77791851D01*
X209948651Y-77791853D01*
X209769394Y-77866103D01*
X209769392Y-77866104D01*
X209737760Y-77887240D01*
X71242366Y-77887240D01*
X71283837Y-77845769D01*
X71299365Y-77830240D01*
X71267735Y-77809106D01*
X71267728Y-77809102D01*
X71088474Y-77734853D01*
X71088466Y-77734851D01*
X70898177Y-77697000D01*
X70704143Y-77697000D01*
X70549351Y-77727790D01*
X70479760Y-77721563D01*
X70424582Y-77678700D01*
X70401338Y-77612810D01*
X70401160Y-77606173D01*
X70401160Y-77424172D01*
X70401159Y-77424155D01*
X70394758Y-77364627D01*
X70394756Y-77364620D01*
X70344514Y-77229913D01*
X70344510Y-77229906D01*
X70258350Y-77114812D01*
X70258347Y-77114809D01*
X70143253Y-77028649D01*
X70143246Y-77028645D01*
X70008539Y-76978403D01*
X70008532Y-76978401D01*
X69949004Y-76972000D01*
X67611160Y-76972000D01*
X67611160Y-80392000D01*
X67111160Y-80392000D01*
X67111160Y-76972000D01*
X65825709Y-76972000D01*
X65758670Y-76952315D01*
X65712915Y-76899511D01*
X65701722Y-76849828D01*
X65666424Y-74456000D01*
X121592000Y-74456000D01*
X122394417Y-74456000D01*
X122461456Y-74475685D01*
X122463262Y-74476867D01*
X122507042Y-74506120D01*
X122639729Y-74561081D01*
X122780585Y-74589099D01*
X122780588Y-74589100D01*
X122780590Y-74589100D01*
X122924212Y-74589100D01*
X122924213Y-74589099D01*
X123065071Y-74561081D01*
X123197758Y-74506120D01*
X123241492Y-74476897D01*
X123308169Y-74456020D01*
X123310383Y-74456000D01*
X124851417Y-74456000D01*
X124918456Y-74475685D01*
X124920262Y-74476867D01*
X124964042Y-74506120D01*
X125096729Y-74561081D01*
X125237585Y-74589099D01*
X125237588Y-74589100D01*
X125237590Y-74589100D01*
X125381212Y-74589100D01*
X125381213Y-74589099D01*
X125522071Y-74561081D01*
X125654758Y-74506120D01*
X125698492Y-74476897D01*
X125699760Y-74476500D01*
X153699000Y-74476500D01*
X154501417Y-74476500D01*
X154568456Y-74496185D01*
X154570262Y-74497367D01*
X154614042Y-74526620D01*
X154746729Y-74581581D01*
X154887585Y-74609599D01*
X154887588Y-74609600D01*
X154887590Y-74609600D01*
X155031212Y-74609600D01*
X155031213Y-74609599D01*
X155172071Y-74581581D01*
X155304758Y-74526620D01*
X155348492Y-74497397D01*
X155415169Y-74476520D01*
X155417383Y-74476500D01*
X156958417Y-74476500D01*
X157025456Y-74496185D01*
X157027262Y-74497367D01*
X157071042Y-74526620D01*
X157203729Y-74581581D01*
X157344585Y-74609599D01*
X157344588Y-74609600D01*
X157344590Y-74609600D01*
X157488212Y-74609600D01*
X157488213Y-74609599D01*
X157629071Y-74581581D01*
X157761758Y-74526620D01*
X157805492Y-74497397D01*
X157872169Y-74476520D01*
X157874383Y-74476500D01*
X158699000Y-74476500D01*
X158699000Y-69881981D01*
X209250966Y-69881981D01*
X209250966Y-70076018D01*
X209288817Y-70266306D01*
X209288819Y-70266314D01*
X209363068Y-70445568D01*
X209363072Y-70445575D01*
X209384206Y-70477204D01*
X209384207Y-70477205D01*
X209882412Y-69979000D01*
X209384206Y-69480794D01*
X209363070Y-69512426D01*
X209363069Y-69512428D01*
X209288819Y-69691685D01*
X209288817Y-69691693D01*
X209250966Y-69881981D01*
X158699000Y-69881981D01*
X158699000Y-69476500D01*
X153699000Y-69476500D01*
X153699000Y-74476500D01*
X125699760Y-74476500D01*
X125765169Y-74456020D01*
X125767383Y-74456000D01*
X126592000Y-74456000D01*
X126592000Y-69456000D01*
X121592000Y-69456000D01*
X121592000Y-74456000D01*
X65666424Y-74456000D01*
X65627483Y-71815170D01*
X65626637Y-71757826D01*
X65645331Y-71690506D01*
X65697455Y-71643977D01*
X65750624Y-71632000D01*
X67111160Y-71632000D01*
X67611160Y-71632000D01*
X69948988Y-71632000D01*
X69949004Y-71631999D01*
X70008532Y-71625598D01*
X70008539Y-71625596D01*
X70143246Y-71575354D01*
X70143253Y-71575350D01*
X70258347Y-71489190D01*
X70258350Y-71489187D01*
X70344510Y-71374093D01*
X70344514Y-71374086D01*
X70394756Y-71239379D01*
X70394758Y-71239372D01*
X70401159Y-71179844D01*
X70401160Y-71179827D01*
X70401160Y-70997826D01*
X70420845Y-70930787D01*
X70473649Y-70885032D01*
X70542807Y-70875088D01*
X70549352Y-70876209D01*
X70704143Y-70907000D01*
X70898176Y-70907000D01*
X70898178Y-70906999D01*
X71088466Y-70869148D01*
X71088478Y-70869145D01*
X71267725Y-70794899D01*
X71299364Y-70773758D01*
X70712064Y-70186458D01*
X70678579Y-70125135D01*
X70678923Y-70120318D01*
X70755410Y-70152000D01*
X70846910Y-70152000D01*
X70931445Y-70116985D01*
X70996145Y-70052285D01*
X71031160Y-69967750D01*
X71031160Y-69921999D01*
X71154714Y-69921999D01*
X71154714Y-69922000D01*
X71652918Y-70420204D01*
X71674059Y-70388565D01*
X71748305Y-70209318D01*
X71748308Y-70209306D01*
X71786159Y-70019018D01*
X71786160Y-70019016D01*
X71786160Y-69824983D01*
X71786159Y-69824981D01*
X71748308Y-69634693D01*
X71748305Y-69634681D01*
X71674058Y-69455431D01*
X71652918Y-69423794D01*
X71154714Y-69921999D01*
X71031160Y-69921999D01*
X71031160Y-69876250D01*
X70996145Y-69791715D01*
X70931445Y-69727015D01*
X70846910Y-69692000D01*
X70755410Y-69692000D01*
X70682098Y-69722366D01*
X70683563Y-69701889D01*
X70712064Y-69657542D01*
X71242366Y-69127240D01*
X209737760Y-69127240D01*
X210325062Y-69714542D01*
X210358547Y-69775865D01*
X210358202Y-69780681D01*
X210281716Y-69749000D01*
X210190216Y-69749000D01*
X210105681Y-69784015D01*
X210040981Y-69848715D01*
X210005966Y-69933250D01*
X210005966Y-70024750D01*
X210040981Y-70109285D01*
X210105681Y-70173985D01*
X210190216Y-70209000D01*
X210281716Y-70209000D01*
X210355026Y-70178634D01*
X210353562Y-70199110D01*
X210325061Y-70243457D01*
X209737760Y-70830758D01*
X209737760Y-70830759D01*
X209769397Y-70851898D01*
X209948647Y-70926145D01*
X209948659Y-70926148D01*
X210138947Y-70963999D01*
X210138950Y-70964000D01*
X210332982Y-70964000D01*
X210487774Y-70933209D01*
X210557366Y-70939436D01*
X210612543Y-70982299D01*
X210635788Y-71048188D01*
X210635966Y-71054826D01*
X210635966Y-71236844D01*
X210642367Y-71296372D01*
X210642369Y-71296379D01*
X210692611Y-71431086D01*
X210692615Y-71431093D01*
X210778775Y-71546187D01*
X210778778Y-71546190D01*
X210893872Y-71632350D01*
X210893879Y-71632354D01*
X211028586Y-71682596D01*
X211028593Y-71682598D01*
X211088121Y-71688999D01*
X211088138Y-71689000D01*
X213425966Y-71689000D01*
X213425966Y-68269000D01*
X211088121Y-68269000D01*
X211028593Y-68275401D01*
X211028586Y-68275403D01*
X210893879Y-68325645D01*
X210893872Y-68325649D01*
X210778778Y-68411809D01*
X210778775Y-68411812D01*
X210692615Y-68526906D01*
X210692611Y-68526913D01*
X210642369Y-68661620D01*
X210642367Y-68661627D01*
X210635966Y-68721155D01*
X210635966Y-68903173D01*
X210616281Y-68970212D01*
X210563477Y-69015967D01*
X210494319Y-69025911D01*
X210487775Y-69024790D01*
X210332983Y-68994000D01*
X210138949Y-68994000D01*
X209948659Y-69031851D01*
X209948651Y-69031853D01*
X209769394Y-69106103D01*
X209769392Y-69106104D01*
X209737760Y-69127240D01*
X71242366Y-69127240D01*
X71283837Y-69085769D01*
X71299365Y-69070240D01*
X71267735Y-69049106D01*
X71267728Y-69049102D01*
X71088474Y-68974853D01*
X71088466Y-68974851D01*
X70898177Y-68937000D01*
X70704143Y-68937000D01*
X70549351Y-68967790D01*
X70479760Y-68961563D01*
X70424582Y-68918700D01*
X70401338Y-68852810D01*
X70401160Y-68846173D01*
X70401160Y-68664172D01*
X70401159Y-68664155D01*
X70394758Y-68604627D01*
X70394756Y-68604620D01*
X70344514Y-68469913D01*
X70344510Y-68469906D01*
X70258350Y-68354812D01*
X70258347Y-68354809D01*
X70143253Y-68268649D01*
X70143246Y-68268645D01*
X70008539Y-68218403D01*
X70008532Y-68218401D01*
X69949004Y-68212000D01*
X67611160Y-68212000D01*
X67611160Y-71632000D01*
X67111160Y-71632000D01*
X67111160Y-68212000D01*
X65696539Y-68212000D01*
X65629500Y-68192315D01*
X65583745Y-68139511D01*
X65572552Y-68089828D01*
X65545182Y-66233705D01*
X65520131Y-64534826D01*
X65538825Y-64467506D01*
X65590949Y-64420977D01*
X65644118Y-64409000D01*
X67111160Y-64409000D01*
X67611160Y-64409000D01*
X69948988Y-64409000D01*
X69949004Y-64408999D01*
X70008532Y-64402598D01*
X70008539Y-64402596D01*
X70143246Y-64352354D01*
X70143253Y-64352350D01*
X70258347Y-64266190D01*
X70258350Y-64266187D01*
X70344510Y-64151093D01*
X70344514Y-64151086D01*
X70394756Y-64016379D01*
X70394758Y-64016372D01*
X70401159Y-63956844D01*
X70401160Y-63956827D01*
X70401160Y-63774826D01*
X70420845Y-63707787D01*
X70473649Y-63662032D01*
X70542807Y-63652088D01*
X70549352Y-63653209D01*
X70704143Y-63684000D01*
X70898176Y-63684000D01*
X70898178Y-63683999D01*
X71088466Y-63646148D01*
X71088478Y-63646145D01*
X71267725Y-63571899D01*
X71299364Y-63550758D01*
X70712064Y-62963458D01*
X70678579Y-62902135D01*
X70678923Y-62897318D01*
X70755410Y-62929000D01*
X70846910Y-62929000D01*
X70931445Y-62893985D01*
X70996145Y-62829285D01*
X71031160Y-62744750D01*
X71031160Y-62698999D01*
X71154714Y-62698999D01*
X71154714Y-62699000D01*
X71652918Y-63197204D01*
X71674059Y-63165565D01*
X71748305Y-62986318D01*
X71748308Y-62986306D01*
X71786159Y-62796018D01*
X71786160Y-62796016D01*
X71786160Y-62601983D01*
X71786159Y-62601981D01*
X209250966Y-62601981D01*
X209250966Y-62796018D01*
X209288817Y-62986306D01*
X209288819Y-62986314D01*
X209363068Y-63165568D01*
X209363072Y-63165575D01*
X209384206Y-63197204D01*
X209384207Y-63197205D01*
X209882412Y-62699000D01*
X209384206Y-62200794D01*
X209363070Y-62232426D01*
X209363069Y-62232428D01*
X209288819Y-62411685D01*
X209288817Y-62411693D01*
X209250966Y-62601981D01*
X71786159Y-62601981D01*
X71748308Y-62411693D01*
X71748305Y-62411681D01*
X71674058Y-62232431D01*
X71652918Y-62200794D01*
X71154714Y-62698999D01*
X71031160Y-62698999D01*
X71031160Y-62653250D01*
X70996145Y-62568715D01*
X70931445Y-62504015D01*
X70846910Y-62469000D01*
X70755410Y-62469000D01*
X70682098Y-62499366D01*
X70683563Y-62478889D01*
X70712064Y-62434542D01*
X71299365Y-61847240D01*
X209737760Y-61847240D01*
X210325062Y-62434542D01*
X210358547Y-62495865D01*
X210358202Y-62500681D01*
X210281716Y-62469000D01*
X210190216Y-62469000D01*
X210105681Y-62504015D01*
X210040981Y-62568715D01*
X210005966Y-62653250D01*
X210005966Y-62744750D01*
X210040981Y-62829285D01*
X210105681Y-62893985D01*
X210190216Y-62929000D01*
X210281716Y-62929000D01*
X210355026Y-62898634D01*
X210353562Y-62919110D01*
X210325061Y-62963457D01*
X209737760Y-63550758D01*
X209737760Y-63550759D01*
X209769397Y-63571898D01*
X209948647Y-63646145D01*
X209948659Y-63646148D01*
X210138947Y-63683999D01*
X210138950Y-63684000D01*
X210332982Y-63684000D01*
X210487774Y-63653209D01*
X210557366Y-63659436D01*
X210612543Y-63702299D01*
X210635788Y-63768188D01*
X210635966Y-63774826D01*
X210635966Y-63956844D01*
X210642367Y-64016372D01*
X210642369Y-64016379D01*
X210692611Y-64151086D01*
X210692615Y-64151093D01*
X210778775Y-64266187D01*
X210778778Y-64266190D01*
X210893872Y-64352350D01*
X210893879Y-64352354D01*
X211028586Y-64402596D01*
X211028593Y-64402598D01*
X211088121Y-64408999D01*
X211088138Y-64409000D01*
X213425966Y-64409000D01*
X213425966Y-60989000D01*
X211088121Y-60989000D01*
X211028593Y-60995401D01*
X211028586Y-60995403D01*
X210893879Y-61045645D01*
X210893872Y-61045649D01*
X210778778Y-61131809D01*
X210778775Y-61131812D01*
X210692615Y-61246906D01*
X210692611Y-61246913D01*
X210642369Y-61381620D01*
X210642367Y-61381627D01*
X210635966Y-61441155D01*
X210635966Y-61623173D01*
X210616281Y-61690212D01*
X210563477Y-61735967D01*
X210494319Y-61745911D01*
X210487775Y-61744790D01*
X210332983Y-61714000D01*
X210138949Y-61714000D01*
X209948659Y-61751851D01*
X209948651Y-61751853D01*
X209769394Y-61826103D01*
X209769392Y-61826104D01*
X209737760Y-61847240D01*
X71299365Y-61847240D01*
X71267735Y-61826106D01*
X71267728Y-61826102D01*
X71088474Y-61751853D01*
X71088466Y-61751851D01*
X70898177Y-61714000D01*
X70704143Y-61714000D01*
X70549351Y-61744790D01*
X70479760Y-61738563D01*
X70424582Y-61695700D01*
X70401338Y-61629810D01*
X70401160Y-61623173D01*
X70401160Y-61441172D01*
X70401159Y-61441155D01*
X70394758Y-61381627D01*
X70394756Y-61381620D01*
X70344514Y-61246913D01*
X70344510Y-61246906D01*
X70258350Y-61131812D01*
X70258347Y-61131809D01*
X70143253Y-61045649D01*
X70143246Y-61045645D01*
X70008539Y-60995403D01*
X70008532Y-60995401D01*
X69949004Y-60989000D01*
X67611160Y-60989000D01*
X67611160Y-64409000D01*
X67111160Y-64409000D01*
X67111160Y-60989000D01*
X65590033Y-60989000D01*
X65522994Y-60969315D01*
X65477239Y-60916511D01*
X65466046Y-60866828D01*
X65432993Y-58625311D01*
X65390961Y-55774825D01*
X65409655Y-55707506D01*
X65461779Y-55660977D01*
X65514948Y-55649000D01*
X67111160Y-55649000D01*
X67611160Y-55649000D01*
X69948988Y-55649000D01*
X69949004Y-55648999D01*
X70008532Y-55642598D01*
X70008539Y-55642596D01*
X70143246Y-55592354D01*
X70143253Y-55592350D01*
X70258347Y-55506190D01*
X70258350Y-55506187D01*
X70344510Y-55391093D01*
X70344514Y-55391086D01*
X70394756Y-55256379D01*
X70394758Y-55256372D01*
X70401159Y-55196844D01*
X70401160Y-55196827D01*
X70401160Y-55014826D01*
X70420845Y-54947787D01*
X70473649Y-54902032D01*
X70542807Y-54892088D01*
X70549352Y-54893209D01*
X70704143Y-54924000D01*
X70898176Y-54924000D01*
X70898178Y-54923999D01*
X71088466Y-54886148D01*
X71088478Y-54886145D01*
X71267725Y-54811899D01*
X71299364Y-54790758D01*
X70712064Y-54203458D01*
X70678579Y-54142135D01*
X70678923Y-54137318D01*
X70755410Y-54169000D01*
X70846910Y-54169000D01*
X70931445Y-54133985D01*
X70996145Y-54069285D01*
X71031160Y-53984750D01*
X71031160Y-53938999D01*
X71154714Y-53938999D01*
X71154714Y-53939000D01*
X71652918Y-54437204D01*
X71674059Y-54405565D01*
X71748305Y-54226318D01*
X71748308Y-54226306D01*
X71786159Y-54036018D01*
X71786160Y-54036016D01*
X71786160Y-53841983D01*
X71786159Y-53841981D01*
X209250966Y-53841981D01*
X209250966Y-54036018D01*
X209288817Y-54226306D01*
X209288819Y-54226314D01*
X209363068Y-54405568D01*
X209363072Y-54405575D01*
X209384206Y-54437204D01*
X209384207Y-54437205D01*
X209882412Y-53939000D01*
X209384206Y-53440794D01*
X209363070Y-53472426D01*
X209363069Y-53472428D01*
X209288819Y-53651685D01*
X209288817Y-53651693D01*
X209250966Y-53841981D01*
X71786159Y-53841981D01*
X71748308Y-53651693D01*
X71748305Y-53651681D01*
X71674058Y-53472431D01*
X71652918Y-53440794D01*
X71154714Y-53938999D01*
X71031160Y-53938999D01*
X71031160Y-53893250D01*
X70996145Y-53808715D01*
X70931445Y-53744015D01*
X70846910Y-53709000D01*
X70755410Y-53709000D01*
X70682098Y-53739366D01*
X70683563Y-53718889D01*
X70712064Y-53674542D01*
X71299365Y-53087240D01*
X209737760Y-53087240D01*
X210325062Y-53674542D01*
X210358547Y-53735865D01*
X210358202Y-53740681D01*
X210281716Y-53709000D01*
X210190216Y-53709000D01*
X210105681Y-53744015D01*
X210040981Y-53808715D01*
X210005966Y-53893250D01*
X210005966Y-53984750D01*
X210040981Y-54069285D01*
X210105681Y-54133985D01*
X210190216Y-54169000D01*
X210281716Y-54169000D01*
X210355026Y-54138634D01*
X210353562Y-54159110D01*
X210325061Y-54203457D01*
X209737760Y-54790758D01*
X209737760Y-54790759D01*
X209769397Y-54811898D01*
X209948647Y-54886145D01*
X209948659Y-54886148D01*
X210138947Y-54923999D01*
X210138950Y-54924000D01*
X210332982Y-54924000D01*
X210487774Y-54893209D01*
X210557366Y-54899436D01*
X210612543Y-54942299D01*
X210635788Y-55008188D01*
X210635966Y-55014826D01*
X210635966Y-55196844D01*
X210642367Y-55256372D01*
X210642369Y-55256379D01*
X210692611Y-55391086D01*
X210692615Y-55391093D01*
X210778775Y-55506187D01*
X210778778Y-55506190D01*
X210893872Y-55592350D01*
X210893879Y-55592354D01*
X211028586Y-55642596D01*
X211028593Y-55642598D01*
X211088121Y-55648999D01*
X211088138Y-55649000D01*
X213425966Y-55649000D01*
X213425966Y-52229000D01*
X211088121Y-52229000D01*
X211028593Y-52235401D01*
X211028586Y-52235403D01*
X210893879Y-52285645D01*
X210893872Y-52285649D01*
X210778778Y-52371809D01*
X210778775Y-52371812D01*
X210692615Y-52486906D01*
X210692611Y-52486913D01*
X210642369Y-52621620D01*
X210642367Y-52621627D01*
X210635966Y-52681155D01*
X210635966Y-52863173D01*
X210616281Y-52930212D01*
X210563477Y-52975967D01*
X210494319Y-52985911D01*
X210487775Y-52984790D01*
X210332983Y-52954000D01*
X210138949Y-52954000D01*
X209948659Y-52991851D01*
X209948651Y-52991853D01*
X209769394Y-53066103D01*
X209769392Y-53066104D01*
X209737760Y-53087240D01*
X71299365Y-53087240D01*
X71267735Y-53066106D01*
X71267728Y-53066102D01*
X71088474Y-52991853D01*
X71088466Y-52991851D01*
X70898177Y-52954000D01*
X70704143Y-52954000D01*
X70549351Y-52984790D01*
X70479760Y-52978563D01*
X70424582Y-52935700D01*
X70401338Y-52869810D01*
X70401160Y-52863173D01*
X70401160Y-52681172D01*
X70401159Y-52681155D01*
X70394758Y-52621627D01*
X70394756Y-52621620D01*
X70344514Y-52486913D01*
X70344510Y-52486906D01*
X70258350Y-52371812D01*
X70258347Y-52371809D01*
X70143253Y-52285649D01*
X70143246Y-52285645D01*
X70008539Y-52235403D01*
X70008532Y-52235401D01*
X69949004Y-52229000D01*
X67611160Y-52229000D01*
X67611160Y-55649000D01*
X67111160Y-55649000D01*
X67111160Y-52229000D01*
X65460863Y-52229000D01*
X65393824Y-52209315D01*
X65348069Y-52156511D01*
X65336876Y-52106828D01*
X65318468Y-50858493D01*
X65312831Y-50476233D01*
X65331525Y-50408915D01*
X65383649Y-50362386D01*
X65437219Y-50350410D01*
X215615221Y-50838591D01*
G37*
%TD.AperFunction*%
%TD*%
M02*
