%TF.GenerationSoftware,KiCad,Pcbnew,9.0.5*%
%TF.CreationDate,2026-03-31T15:52:52-05:00*%
%TF.ProjectId,t-coil3,742d636f-696c-4332-9e6b-696361645f70,rev?*%
%TF.SameCoordinates,Original*%
%TF.FileFunction,Legend,Top*%
%TF.FilePolarity,Positive*%
%FSLAX46Y46*%
G04 Gerber Fmt 4.6, Leading zero omitted, Abs format (unit mm)*
G04 Created by KiCad (PCBNEW 9.0.5) date 2026-03-31 15:52:52*
%MOMM*%
%LPD*%
G01*
G04 APERTURE LIST*
%ADD10C,0.150000*%
%ADD11C,0.120000*%
G04 APERTURE END LIST*
D10*
X213122632Y-50773819D02*
X213122632Y-51488104D01*
X213122632Y-51488104D02*
X213075013Y-51630961D01*
X213075013Y-51630961D02*
X212979775Y-51726200D01*
X212979775Y-51726200D02*
X212836918Y-51773819D01*
X212836918Y-51773819D02*
X212741680Y-51773819D01*
X213551204Y-50869057D02*
X213598823Y-50821438D01*
X213598823Y-50821438D02*
X213694061Y-50773819D01*
X213694061Y-50773819D02*
X213932156Y-50773819D01*
X213932156Y-50773819D02*
X214027394Y-50821438D01*
X214027394Y-50821438D02*
X214075013Y-50869057D01*
X214075013Y-50869057D02*
X214122632Y-50964295D01*
X214122632Y-50964295D02*
X214122632Y-51059533D01*
X214122632Y-51059533D02*
X214075013Y-51202390D01*
X214075013Y-51202390D02*
X213503585Y-51773819D01*
X213503585Y-51773819D02*
X214122632Y-51773819D01*
X155252580Y-55660166D02*
X155300200Y-55707785D01*
X155300200Y-55707785D02*
X155347819Y-55850642D01*
X155347819Y-55850642D02*
X155347819Y-55945880D01*
X155347819Y-55945880D02*
X155300200Y-56088737D01*
X155300200Y-56088737D02*
X155204961Y-56183975D01*
X155204961Y-56183975D02*
X155109723Y-56231594D01*
X155109723Y-56231594D02*
X154919247Y-56279213D01*
X154919247Y-56279213D02*
X154776390Y-56279213D01*
X154776390Y-56279213D02*
X154585914Y-56231594D01*
X154585914Y-56231594D02*
X154490676Y-56183975D01*
X154490676Y-56183975D02*
X154395438Y-56088737D01*
X154395438Y-56088737D02*
X154347819Y-55945880D01*
X154347819Y-55945880D02*
X154347819Y-55850642D01*
X154347819Y-55850642D02*
X154395438Y-55707785D01*
X154395438Y-55707785D02*
X154443057Y-55660166D01*
X154443057Y-55279213D02*
X154395438Y-55231594D01*
X154395438Y-55231594D02*
X154347819Y-55136356D01*
X154347819Y-55136356D02*
X154347819Y-54898261D01*
X154347819Y-54898261D02*
X154395438Y-54803023D01*
X154395438Y-54803023D02*
X154443057Y-54755404D01*
X154443057Y-54755404D02*
X154538295Y-54707785D01*
X154538295Y-54707785D02*
X154633533Y-54707785D01*
X154633533Y-54707785D02*
X154776390Y-54755404D01*
X154776390Y-54755404D02*
X155347819Y-55326832D01*
X155347819Y-55326832D02*
X155347819Y-54707785D01*
X77882580Y-108630357D02*
X77930200Y-108677976D01*
X77930200Y-108677976D02*
X77977819Y-108820833D01*
X77977819Y-108820833D02*
X77977819Y-108916071D01*
X77977819Y-108916071D02*
X77930200Y-109058928D01*
X77930200Y-109058928D02*
X77834961Y-109154166D01*
X77834961Y-109154166D02*
X77739723Y-109201785D01*
X77739723Y-109201785D02*
X77549247Y-109249404D01*
X77549247Y-109249404D02*
X77406390Y-109249404D01*
X77406390Y-109249404D02*
X77215914Y-109201785D01*
X77215914Y-109201785D02*
X77120676Y-109154166D01*
X77120676Y-109154166D02*
X77025438Y-109058928D01*
X77025438Y-109058928D02*
X76977819Y-108916071D01*
X76977819Y-108916071D02*
X76977819Y-108820833D01*
X76977819Y-108820833D02*
X77025438Y-108677976D01*
X77025438Y-108677976D02*
X77073057Y-108630357D01*
X77977819Y-107677976D02*
X77977819Y-108249404D01*
X77977819Y-107963690D02*
X76977819Y-107963690D01*
X76977819Y-107963690D02*
X77120676Y-108058928D01*
X77120676Y-108058928D02*
X77215914Y-108154166D01*
X77215914Y-108154166D02*
X77263533Y-108249404D01*
X77073057Y-107297023D02*
X77025438Y-107249404D01*
X77025438Y-107249404D02*
X76977819Y-107154166D01*
X76977819Y-107154166D02*
X76977819Y-106916071D01*
X76977819Y-106916071D02*
X77025438Y-106820833D01*
X77025438Y-106820833D02*
X77073057Y-106773214D01*
X77073057Y-106773214D02*
X77168295Y-106725595D01*
X77168295Y-106725595D02*
X77263533Y-106725595D01*
X77263533Y-106725595D02*
X77406390Y-106773214D01*
X77406390Y-106773214D02*
X77977819Y-107344642D01*
X77977819Y-107344642D02*
X77977819Y-106725595D01*
X67247826Y-112722819D02*
X67247826Y-113437104D01*
X67247826Y-113437104D02*
X67200207Y-113579961D01*
X67200207Y-113579961D02*
X67104969Y-113675200D01*
X67104969Y-113675200D02*
X66962112Y-113722819D01*
X66962112Y-113722819D02*
X66866874Y-113722819D01*
X67628779Y-112722819D02*
X68295445Y-112722819D01*
X68295445Y-112722819D02*
X67866874Y-113722819D01*
X67247826Y-80756819D02*
X67247826Y-81471104D01*
X67247826Y-81471104D02*
X67200207Y-81613961D01*
X67200207Y-81613961D02*
X67104969Y-81709200D01*
X67104969Y-81709200D02*
X66962112Y-81756819D01*
X66962112Y-81756819D02*
X66866874Y-81756819D01*
X67628779Y-80756819D02*
X68247826Y-80756819D01*
X68247826Y-80756819D02*
X67914493Y-81137771D01*
X67914493Y-81137771D02*
X68057350Y-81137771D01*
X68057350Y-81137771D02*
X68152588Y-81185390D01*
X68152588Y-81185390D02*
X68200207Y-81233009D01*
X68200207Y-81233009D02*
X68247826Y-81328247D01*
X68247826Y-81328247D02*
X68247826Y-81566342D01*
X68247826Y-81566342D02*
X68200207Y-81661580D01*
X68200207Y-81661580D02*
X68152588Y-81709200D01*
X68152588Y-81709200D02*
X68057350Y-81756819D01*
X68057350Y-81756819D02*
X67771636Y-81756819D01*
X67771636Y-81756819D02*
X67676398Y-81709200D01*
X67676398Y-81709200D02*
X67628779Y-81661580D01*
X75505642Y-99543580D02*
X75458023Y-99591200D01*
X75458023Y-99591200D02*
X75315166Y-99638819D01*
X75315166Y-99638819D02*
X75219928Y-99638819D01*
X75219928Y-99638819D02*
X75077071Y-99591200D01*
X75077071Y-99591200D02*
X74981833Y-99495961D01*
X74981833Y-99495961D02*
X74934214Y-99400723D01*
X74934214Y-99400723D02*
X74886595Y-99210247D01*
X74886595Y-99210247D02*
X74886595Y-99067390D01*
X74886595Y-99067390D02*
X74934214Y-98876914D01*
X74934214Y-98876914D02*
X74981833Y-98781676D01*
X74981833Y-98781676D02*
X75077071Y-98686438D01*
X75077071Y-98686438D02*
X75219928Y-98638819D01*
X75219928Y-98638819D02*
X75315166Y-98638819D01*
X75315166Y-98638819D02*
X75458023Y-98686438D01*
X75458023Y-98686438D02*
X75505642Y-98734057D01*
X76458023Y-99638819D02*
X75886595Y-99638819D01*
X76172309Y-99638819D02*
X76172309Y-98638819D01*
X76172309Y-98638819D02*
X76077071Y-98781676D01*
X76077071Y-98781676D02*
X75981833Y-98876914D01*
X75981833Y-98876914D02*
X75886595Y-98924533D01*
X77410404Y-99638819D02*
X76838976Y-99638819D01*
X77124690Y-99638819D02*
X77124690Y-98638819D01*
X77124690Y-98638819D02*
X77029452Y-98781676D01*
X77029452Y-98781676D02*
X76934214Y-98876914D01*
X76934214Y-98876914D02*
X76838976Y-98924533D01*
X206646580Y-108632357D02*
X206694200Y-108679976D01*
X206694200Y-108679976D02*
X206741819Y-108822833D01*
X206741819Y-108822833D02*
X206741819Y-108918071D01*
X206741819Y-108918071D02*
X206694200Y-109060928D01*
X206694200Y-109060928D02*
X206598961Y-109156166D01*
X206598961Y-109156166D02*
X206503723Y-109203785D01*
X206503723Y-109203785D02*
X206313247Y-109251404D01*
X206313247Y-109251404D02*
X206170390Y-109251404D01*
X206170390Y-109251404D02*
X205979914Y-109203785D01*
X205979914Y-109203785D02*
X205884676Y-109156166D01*
X205884676Y-109156166D02*
X205789438Y-109060928D01*
X205789438Y-109060928D02*
X205741819Y-108918071D01*
X205741819Y-108918071D02*
X205741819Y-108822833D01*
X205741819Y-108822833D02*
X205789438Y-108679976D01*
X205789438Y-108679976D02*
X205837057Y-108632357D01*
X206741819Y-107679976D02*
X206741819Y-108251404D01*
X206741819Y-107965690D02*
X205741819Y-107965690D01*
X205741819Y-107965690D02*
X205884676Y-108060928D01*
X205884676Y-108060928D02*
X205979914Y-108156166D01*
X205979914Y-108156166D02*
X206027533Y-108251404D01*
X206075152Y-106822833D02*
X206741819Y-106822833D01*
X205694200Y-107060928D02*
X206408485Y-107299023D01*
X206408485Y-107299023D02*
X206408485Y-106679976D01*
X212646442Y-114705819D02*
X212646442Y-115420104D01*
X212646442Y-115420104D02*
X212598823Y-115562961D01*
X212598823Y-115562961D02*
X212503585Y-115658200D01*
X212503585Y-115658200D02*
X212360728Y-115705819D01*
X212360728Y-115705819D02*
X212265490Y-115705819D01*
X213646442Y-115705819D02*
X213075014Y-115705819D01*
X213360728Y-115705819D02*
X213360728Y-114705819D01*
X213360728Y-114705819D02*
X213265490Y-114848676D01*
X213265490Y-114848676D02*
X213170252Y-114943914D01*
X213170252Y-114943914D02*
X213075014Y-114991533D01*
X214265490Y-114705819D02*
X214360728Y-114705819D01*
X214360728Y-114705819D02*
X214455966Y-114753438D01*
X214455966Y-114753438D02*
X214503585Y-114801057D01*
X214503585Y-114801057D02*
X214551204Y-114896295D01*
X214551204Y-114896295D02*
X214598823Y-115086771D01*
X214598823Y-115086771D02*
X214598823Y-115324866D01*
X214598823Y-115324866D02*
X214551204Y-115515342D01*
X214551204Y-115515342D02*
X214503585Y-115610580D01*
X214503585Y-115610580D02*
X214455966Y-115658200D01*
X214455966Y-115658200D02*
X214360728Y-115705819D01*
X214360728Y-115705819D02*
X214265490Y-115705819D01*
X214265490Y-115705819D02*
X214170252Y-115658200D01*
X214170252Y-115658200D02*
X214122633Y-115610580D01*
X214122633Y-115610580D02*
X214075014Y-115515342D01*
X214075014Y-115515342D02*
X214027395Y-115324866D01*
X214027395Y-115324866D02*
X214027395Y-115086771D01*
X214027395Y-115086771D02*
X214075014Y-114896295D01*
X214075014Y-114896295D02*
X214122633Y-114801057D01*
X214122633Y-114801057D02*
X214170252Y-114753438D01*
X214170252Y-114753438D02*
X214265490Y-114705819D01*
X122976580Y-55658666D02*
X123024200Y-55706285D01*
X123024200Y-55706285D02*
X123071819Y-55849142D01*
X123071819Y-55849142D02*
X123071819Y-55944380D01*
X123071819Y-55944380D02*
X123024200Y-56087237D01*
X123024200Y-56087237D02*
X122928961Y-56182475D01*
X122928961Y-56182475D02*
X122833723Y-56230094D01*
X122833723Y-56230094D02*
X122643247Y-56277713D01*
X122643247Y-56277713D02*
X122500390Y-56277713D01*
X122500390Y-56277713D02*
X122309914Y-56230094D01*
X122309914Y-56230094D02*
X122214676Y-56182475D01*
X122214676Y-56182475D02*
X122119438Y-56087237D01*
X122119438Y-56087237D02*
X122071819Y-55944380D01*
X122071819Y-55944380D02*
X122071819Y-55849142D01*
X122071819Y-55849142D02*
X122119438Y-55706285D01*
X122119438Y-55706285D02*
X122167057Y-55658666D01*
X123071819Y-54706285D02*
X123071819Y-55277713D01*
X123071819Y-54991999D02*
X122071819Y-54991999D01*
X122071819Y-54991999D02*
X122214676Y-55087237D01*
X122214676Y-55087237D02*
X122309914Y-55182475D01*
X122309914Y-55182475D02*
X122357533Y-55277713D01*
X101064580Y-125346857D02*
X101112200Y-125394476D01*
X101112200Y-125394476D02*
X101159819Y-125537333D01*
X101159819Y-125537333D02*
X101159819Y-125632571D01*
X101159819Y-125632571D02*
X101112200Y-125775428D01*
X101112200Y-125775428D02*
X101016961Y-125870666D01*
X101016961Y-125870666D02*
X100921723Y-125918285D01*
X100921723Y-125918285D02*
X100731247Y-125965904D01*
X100731247Y-125965904D02*
X100588390Y-125965904D01*
X100588390Y-125965904D02*
X100397914Y-125918285D01*
X100397914Y-125918285D02*
X100302676Y-125870666D01*
X100302676Y-125870666D02*
X100207438Y-125775428D01*
X100207438Y-125775428D02*
X100159819Y-125632571D01*
X100159819Y-125632571D02*
X100159819Y-125537333D01*
X100159819Y-125537333D02*
X100207438Y-125394476D01*
X100207438Y-125394476D02*
X100255057Y-125346857D01*
X101159819Y-124394476D02*
X101159819Y-124965904D01*
X101159819Y-124680190D02*
X100159819Y-124680190D01*
X100159819Y-124680190D02*
X100302676Y-124775428D01*
X100302676Y-124775428D02*
X100397914Y-124870666D01*
X100397914Y-124870666D02*
X100445533Y-124965904D01*
X100159819Y-123489714D02*
X100159819Y-123965904D01*
X100159819Y-123965904D02*
X100636009Y-124013523D01*
X100636009Y-124013523D02*
X100588390Y-123965904D01*
X100588390Y-123965904D02*
X100540771Y-123870666D01*
X100540771Y-123870666D02*
X100540771Y-123632571D01*
X100540771Y-123632571D02*
X100588390Y-123537333D01*
X100588390Y-123537333D02*
X100636009Y-123489714D01*
X100636009Y-123489714D02*
X100731247Y-123442095D01*
X100731247Y-123442095D02*
X100969342Y-123442095D01*
X100969342Y-123442095D02*
X101064580Y-123489714D01*
X101064580Y-123489714D02*
X101112200Y-123537333D01*
X101112200Y-123537333D02*
X101159819Y-123632571D01*
X101159819Y-123632571D02*
X101159819Y-123870666D01*
X101159819Y-123870666D02*
X101112200Y-123965904D01*
X101112200Y-123965904D02*
X101064580Y-124013523D01*
X213122632Y-66813819D02*
X213122632Y-67528104D01*
X213122632Y-67528104D02*
X213075013Y-67670961D01*
X213075013Y-67670961D02*
X212979775Y-67766200D01*
X212979775Y-67766200D02*
X212836918Y-67813819D01*
X212836918Y-67813819D02*
X212741680Y-67813819D01*
X214027394Y-67147152D02*
X214027394Y-67813819D01*
X213789299Y-66766200D02*
X213551204Y-67480485D01*
X213551204Y-67480485D02*
X214170251Y-67480485D01*
X66771636Y-144688819D02*
X66771636Y-145403104D01*
X66771636Y-145403104D02*
X66724017Y-145545961D01*
X66724017Y-145545961D02*
X66628779Y-145641200D01*
X66628779Y-145641200D02*
X66485922Y-145688819D01*
X66485922Y-145688819D02*
X66390684Y-145688819D01*
X67771636Y-145688819D02*
X67200208Y-145688819D01*
X67485922Y-145688819D02*
X67485922Y-144688819D01*
X67485922Y-144688819D02*
X67390684Y-144831676D01*
X67390684Y-144831676D02*
X67295446Y-144926914D01*
X67295446Y-144926914D02*
X67200208Y-144974533D01*
X68724017Y-145688819D02*
X68152589Y-145688819D01*
X68438303Y-145688819D02*
X68438303Y-144688819D01*
X68438303Y-144688819D02*
X68343065Y-144831676D01*
X68343065Y-144831676D02*
X68247827Y-144926914D01*
X68247827Y-144926914D02*
X68152589Y-144974533D01*
X183448580Y-92781357D02*
X183496200Y-92828976D01*
X183496200Y-92828976D02*
X183543819Y-92971833D01*
X183543819Y-92971833D02*
X183543819Y-93067071D01*
X183543819Y-93067071D02*
X183496200Y-93209928D01*
X183496200Y-93209928D02*
X183400961Y-93305166D01*
X183400961Y-93305166D02*
X183305723Y-93352785D01*
X183305723Y-93352785D02*
X183115247Y-93400404D01*
X183115247Y-93400404D02*
X182972390Y-93400404D01*
X182972390Y-93400404D02*
X182781914Y-93352785D01*
X182781914Y-93352785D02*
X182686676Y-93305166D01*
X182686676Y-93305166D02*
X182591438Y-93209928D01*
X182591438Y-93209928D02*
X182543819Y-93067071D01*
X182543819Y-93067071D02*
X182543819Y-92971833D01*
X182543819Y-92971833D02*
X182591438Y-92828976D01*
X182591438Y-92828976D02*
X182639057Y-92781357D01*
X183543819Y-91828976D02*
X183543819Y-92400404D01*
X183543819Y-92114690D02*
X182543819Y-92114690D01*
X182543819Y-92114690D02*
X182686676Y-92209928D01*
X182686676Y-92209928D02*
X182781914Y-92305166D01*
X182781914Y-92305166D02*
X182829533Y-92400404D01*
X182543819Y-91209928D02*
X182543819Y-91114690D01*
X182543819Y-91114690D02*
X182591438Y-91019452D01*
X182591438Y-91019452D02*
X182639057Y-90971833D01*
X182639057Y-90971833D02*
X182734295Y-90924214D01*
X182734295Y-90924214D02*
X182924771Y-90876595D01*
X182924771Y-90876595D02*
X183162866Y-90876595D01*
X183162866Y-90876595D02*
X183353342Y-90924214D01*
X183353342Y-90924214D02*
X183448580Y-90971833D01*
X183448580Y-90971833D02*
X183496200Y-91019452D01*
X183496200Y-91019452D02*
X183543819Y-91114690D01*
X183543819Y-91114690D02*
X183543819Y-91209928D01*
X183543819Y-91209928D02*
X183496200Y-91305166D01*
X183496200Y-91305166D02*
X183448580Y-91352785D01*
X183448580Y-91352785D02*
X183353342Y-91400404D01*
X183353342Y-91400404D02*
X183162866Y-91448023D01*
X183162866Y-91448023D02*
X182924771Y-91448023D01*
X182924771Y-91448023D02*
X182734295Y-91400404D01*
X182734295Y-91400404D02*
X182639057Y-91352785D01*
X182639057Y-91352785D02*
X182591438Y-91305166D01*
X182591438Y-91305166D02*
X182543819Y-91209928D01*
X213122632Y-82739819D02*
X213122632Y-83454104D01*
X213122632Y-83454104D02*
X213075013Y-83596961D01*
X213075013Y-83596961D02*
X212979775Y-83692200D01*
X212979775Y-83692200D02*
X212836918Y-83739819D01*
X212836918Y-83739819D02*
X212741680Y-83739819D01*
X214027394Y-82739819D02*
X213836918Y-82739819D01*
X213836918Y-82739819D02*
X213741680Y-82787438D01*
X213741680Y-82787438D02*
X213694061Y-82835057D01*
X213694061Y-82835057D02*
X213598823Y-82977914D01*
X213598823Y-82977914D02*
X213551204Y-83168390D01*
X213551204Y-83168390D02*
X213551204Y-83549342D01*
X213551204Y-83549342D02*
X213598823Y-83644580D01*
X213598823Y-83644580D02*
X213646442Y-83692200D01*
X213646442Y-83692200D02*
X213741680Y-83739819D01*
X213741680Y-83739819D02*
X213932156Y-83739819D01*
X213932156Y-83739819D02*
X214027394Y-83692200D01*
X214027394Y-83692200D02*
X214075013Y-83644580D01*
X214075013Y-83644580D02*
X214122632Y-83549342D01*
X214122632Y-83549342D02*
X214122632Y-83311247D01*
X214122632Y-83311247D02*
X214075013Y-83216009D01*
X214075013Y-83216009D02*
X214027394Y-83168390D01*
X214027394Y-83168390D02*
X213932156Y-83120771D01*
X213932156Y-83120771D02*
X213741680Y-83120771D01*
X213741680Y-83120771D02*
X213646442Y-83168390D01*
X213646442Y-83168390D02*
X213598823Y-83216009D01*
X213598823Y-83216009D02*
X213551204Y-83311247D01*
X183157580Y-125386357D02*
X183205200Y-125433976D01*
X183205200Y-125433976D02*
X183252819Y-125576833D01*
X183252819Y-125576833D02*
X183252819Y-125672071D01*
X183252819Y-125672071D02*
X183205200Y-125814928D01*
X183205200Y-125814928D02*
X183109961Y-125910166D01*
X183109961Y-125910166D02*
X183014723Y-125957785D01*
X183014723Y-125957785D02*
X182824247Y-126005404D01*
X182824247Y-126005404D02*
X182681390Y-126005404D01*
X182681390Y-126005404D02*
X182490914Y-125957785D01*
X182490914Y-125957785D02*
X182395676Y-125910166D01*
X182395676Y-125910166D02*
X182300438Y-125814928D01*
X182300438Y-125814928D02*
X182252819Y-125672071D01*
X182252819Y-125672071D02*
X182252819Y-125576833D01*
X182252819Y-125576833D02*
X182300438Y-125433976D01*
X182300438Y-125433976D02*
X182348057Y-125386357D01*
X182348057Y-125005404D02*
X182300438Y-124957785D01*
X182300438Y-124957785D02*
X182252819Y-124862547D01*
X182252819Y-124862547D02*
X182252819Y-124624452D01*
X182252819Y-124624452D02*
X182300438Y-124529214D01*
X182300438Y-124529214D02*
X182348057Y-124481595D01*
X182348057Y-124481595D02*
X182443295Y-124433976D01*
X182443295Y-124433976D02*
X182538533Y-124433976D01*
X182538533Y-124433976D02*
X182681390Y-124481595D01*
X182681390Y-124481595D02*
X183252819Y-125053023D01*
X183252819Y-125053023D02*
X183252819Y-124433976D01*
X182252819Y-123814928D02*
X182252819Y-123719690D01*
X182252819Y-123719690D02*
X182300438Y-123624452D01*
X182300438Y-123624452D02*
X182348057Y-123576833D01*
X182348057Y-123576833D02*
X182443295Y-123529214D01*
X182443295Y-123529214D02*
X182633771Y-123481595D01*
X182633771Y-123481595D02*
X182871866Y-123481595D01*
X182871866Y-123481595D02*
X183062342Y-123529214D01*
X183062342Y-123529214D02*
X183157580Y-123576833D01*
X183157580Y-123576833D02*
X183205200Y-123624452D01*
X183205200Y-123624452D02*
X183252819Y-123719690D01*
X183252819Y-123719690D02*
X183252819Y-123814928D01*
X183252819Y-123814928D02*
X183205200Y-123910166D01*
X183205200Y-123910166D02*
X183157580Y-123957785D01*
X183157580Y-123957785D02*
X183062342Y-124005404D01*
X183062342Y-124005404D02*
X182871866Y-124053023D01*
X182871866Y-124053023D02*
X182633771Y-124053023D01*
X182633771Y-124053023D02*
X182443295Y-124005404D01*
X182443295Y-124005404D02*
X182348057Y-123957785D01*
X182348057Y-123957785D02*
X182300438Y-123910166D01*
X182300438Y-123910166D02*
X182252819Y-123814928D01*
X101123580Y-140895357D02*
X101171200Y-140942976D01*
X101171200Y-140942976D02*
X101218819Y-141085833D01*
X101218819Y-141085833D02*
X101218819Y-141181071D01*
X101218819Y-141181071D02*
X101171200Y-141323928D01*
X101171200Y-141323928D02*
X101075961Y-141419166D01*
X101075961Y-141419166D02*
X100980723Y-141466785D01*
X100980723Y-141466785D02*
X100790247Y-141514404D01*
X100790247Y-141514404D02*
X100647390Y-141514404D01*
X100647390Y-141514404D02*
X100456914Y-141466785D01*
X100456914Y-141466785D02*
X100361676Y-141419166D01*
X100361676Y-141419166D02*
X100266438Y-141323928D01*
X100266438Y-141323928D02*
X100218819Y-141181071D01*
X100218819Y-141181071D02*
X100218819Y-141085833D01*
X100218819Y-141085833D02*
X100266438Y-140942976D01*
X100266438Y-140942976D02*
X100314057Y-140895357D01*
X101218819Y-139942976D02*
X101218819Y-140514404D01*
X101218819Y-140228690D02*
X100218819Y-140228690D01*
X100218819Y-140228690D02*
X100361676Y-140323928D01*
X100361676Y-140323928D02*
X100456914Y-140419166D01*
X100456914Y-140419166D02*
X100504533Y-140514404D01*
X100218819Y-139609642D02*
X100218819Y-138942976D01*
X100218819Y-138942976D02*
X101218819Y-139371547D01*
X101224580Y-92221166D02*
X101272200Y-92268785D01*
X101272200Y-92268785D02*
X101319819Y-92411642D01*
X101319819Y-92411642D02*
X101319819Y-92506880D01*
X101319819Y-92506880D02*
X101272200Y-92649737D01*
X101272200Y-92649737D02*
X101176961Y-92744975D01*
X101176961Y-92744975D02*
X101081723Y-92792594D01*
X101081723Y-92792594D02*
X100891247Y-92840213D01*
X100891247Y-92840213D02*
X100748390Y-92840213D01*
X100748390Y-92840213D02*
X100557914Y-92792594D01*
X100557914Y-92792594D02*
X100462676Y-92744975D01*
X100462676Y-92744975D02*
X100367438Y-92649737D01*
X100367438Y-92649737D02*
X100319819Y-92506880D01*
X100319819Y-92506880D02*
X100319819Y-92411642D01*
X100319819Y-92411642D02*
X100367438Y-92268785D01*
X100367438Y-92268785D02*
X100415057Y-92221166D01*
X100748390Y-91649737D02*
X100700771Y-91744975D01*
X100700771Y-91744975D02*
X100653152Y-91792594D01*
X100653152Y-91792594D02*
X100557914Y-91840213D01*
X100557914Y-91840213D02*
X100510295Y-91840213D01*
X100510295Y-91840213D02*
X100415057Y-91792594D01*
X100415057Y-91792594D02*
X100367438Y-91744975D01*
X100367438Y-91744975D02*
X100319819Y-91649737D01*
X100319819Y-91649737D02*
X100319819Y-91459261D01*
X100319819Y-91459261D02*
X100367438Y-91364023D01*
X100367438Y-91364023D02*
X100415057Y-91316404D01*
X100415057Y-91316404D02*
X100510295Y-91268785D01*
X100510295Y-91268785D02*
X100557914Y-91268785D01*
X100557914Y-91268785D02*
X100653152Y-91316404D01*
X100653152Y-91316404D02*
X100700771Y-91364023D01*
X100700771Y-91364023D02*
X100748390Y-91459261D01*
X100748390Y-91459261D02*
X100748390Y-91649737D01*
X100748390Y-91649737D02*
X100796009Y-91744975D01*
X100796009Y-91744975D02*
X100843628Y-91792594D01*
X100843628Y-91792594D02*
X100938866Y-91840213D01*
X100938866Y-91840213D02*
X101129342Y-91840213D01*
X101129342Y-91840213D02*
X101224580Y-91792594D01*
X101224580Y-91792594D02*
X101272200Y-91744975D01*
X101272200Y-91744975D02*
X101319819Y-91649737D01*
X101319819Y-91649737D02*
X101319819Y-91459261D01*
X101319819Y-91459261D02*
X101272200Y-91364023D01*
X101272200Y-91364023D02*
X101224580Y-91316404D01*
X101224580Y-91316404D02*
X101129342Y-91268785D01*
X101129342Y-91268785D02*
X100938866Y-91268785D01*
X100938866Y-91268785D02*
X100843628Y-91316404D01*
X100843628Y-91316404D02*
X100796009Y-91364023D01*
X100796009Y-91364023D02*
X100748390Y-91459261D01*
X125885580Y-76169166D02*
X125933200Y-76216785D01*
X125933200Y-76216785D02*
X125980819Y-76359642D01*
X125980819Y-76359642D02*
X125980819Y-76454880D01*
X125980819Y-76454880D02*
X125933200Y-76597737D01*
X125933200Y-76597737D02*
X125837961Y-76692975D01*
X125837961Y-76692975D02*
X125742723Y-76740594D01*
X125742723Y-76740594D02*
X125552247Y-76788213D01*
X125552247Y-76788213D02*
X125409390Y-76788213D01*
X125409390Y-76788213D02*
X125218914Y-76740594D01*
X125218914Y-76740594D02*
X125123676Y-76692975D01*
X125123676Y-76692975D02*
X125028438Y-76597737D01*
X125028438Y-76597737D02*
X124980819Y-76454880D01*
X124980819Y-76454880D02*
X124980819Y-76359642D01*
X124980819Y-76359642D02*
X125028438Y-76216785D01*
X125028438Y-76216785D02*
X125076057Y-76169166D01*
X124980819Y-75835832D02*
X124980819Y-75216785D01*
X124980819Y-75216785D02*
X125361771Y-75550118D01*
X125361771Y-75550118D02*
X125361771Y-75407261D01*
X125361771Y-75407261D02*
X125409390Y-75312023D01*
X125409390Y-75312023D02*
X125457009Y-75264404D01*
X125457009Y-75264404D02*
X125552247Y-75216785D01*
X125552247Y-75216785D02*
X125790342Y-75216785D01*
X125790342Y-75216785D02*
X125885580Y-75264404D01*
X125885580Y-75264404D02*
X125933200Y-75312023D01*
X125933200Y-75312023D02*
X125980819Y-75407261D01*
X125980819Y-75407261D02*
X125980819Y-75692975D01*
X125980819Y-75692975D02*
X125933200Y-75788213D01*
X125933200Y-75788213D02*
X125885580Y-75835832D01*
X67247826Y-96739819D02*
X67247826Y-97454104D01*
X67247826Y-97454104D02*
X67200207Y-97596961D01*
X67200207Y-97596961D02*
X67104969Y-97692200D01*
X67104969Y-97692200D02*
X66962112Y-97739819D01*
X66962112Y-97739819D02*
X66866874Y-97739819D01*
X68200207Y-96739819D02*
X67724017Y-96739819D01*
X67724017Y-96739819D02*
X67676398Y-97216009D01*
X67676398Y-97216009D02*
X67724017Y-97168390D01*
X67724017Y-97168390D02*
X67819255Y-97120771D01*
X67819255Y-97120771D02*
X68057350Y-97120771D01*
X68057350Y-97120771D02*
X68152588Y-97168390D01*
X68152588Y-97168390D02*
X68200207Y-97216009D01*
X68200207Y-97216009D02*
X68247826Y-97311247D01*
X68247826Y-97311247D02*
X68247826Y-97549342D01*
X68247826Y-97549342D02*
X68200207Y-97644580D01*
X68200207Y-97644580D02*
X68152588Y-97692200D01*
X68152588Y-97692200D02*
X68057350Y-97739819D01*
X68057350Y-97739819D02*
X67819255Y-97739819D01*
X67819255Y-97739819D02*
X67724017Y-97692200D01*
X67724017Y-97692200D02*
X67676398Y-97644580D01*
X204340642Y-99512580D02*
X204293023Y-99560200D01*
X204293023Y-99560200D02*
X204150166Y-99607819D01*
X204150166Y-99607819D02*
X204054928Y-99607819D01*
X204054928Y-99607819D02*
X203912071Y-99560200D01*
X203912071Y-99560200D02*
X203816833Y-99464961D01*
X203816833Y-99464961D02*
X203769214Y-99369723D01*
X203769214Y-99369723D02*
X203721595Y-99179247D01*
X203721595Y-99179247D02*
X203721595Y-99036390D01*
X203721595Y-99036390D02*
X203769214Y-98845914D01*
X203769214Y-98845914D02*
X203816833Y-98750676D01*
X203816833Y-98750676D02*
X203912071Y-98655438D01*
X203912071Y-98655438D02*
X204054928Y-98607819D01*
X204054928Y-98607819D02*
X204150166Y-98607819D01*
X204150166Y-98607819D02*
X204293023Y-98655438D01*
X204293023Y-98655438D02*
X204340642Y-98703057D01*
X205293023Y-99607819D02*
X204721595Y-99607819D01*
X205007309Y-99607819D02*
X205007309Y-98607819D01*
X205007309Y-98607819D02*
X204912071Y-98750676D01*
X204912071Y-98750676D02*
X204816833Y-98845914D01*
X204816833Y-98845914D02*
X204721595Y-98893533D01*
X205626357Y-98607819D02*
X206245404Y-98607819D01*
X206245404Y-98607819D02*
X205912071Y-98988771D01*
X205912071Y-98988771D02*
X206054928Y-98988771D01*
X206054928Y-98988771D02*
X206150166Y-99036390D01*
X206150166Y-99036390D02*
X206197785Y-99084009D01*
X206197785Y-99084009D02*
X206245404Y-99179247D01*
X206245404Y-99179247D02*
X206245404Y-99417342D01*
X206245404Y-99417342D02*
X206197785Y-99512580D01*
X206197785Y-99512580D02*
X206150166Y-99560200D01*
X206150166Y-99560200D02*
X206054928Y-99607819D01*
X206054928Y-99607819D02*
X205769214Y-99607819D01*
X205769214Y-99607819D02*
X205673976Y-99560200D01*
X205673976Y-99560200D02*
X205626357Y-99512580D01*
X157952580Y-76199166D02*
X158000200Y-76246785D01*
X158000200Y-76246785D02*
X158047819Y-76389642D01*
X158047819Y-76389642D02*
X158047819Y-76484880D01*
X158047819Y-76484880D02*
X158000200Y-76627737D01*
X158000200Y-76627737D02*
X157904961Y-76722975D01*
X157904961Y-76722975D02*
X157809723Y-76770594D01*
X157809723Y-76770594D02*
X157619247Y-76818213D01*
X157619247Y-76818213D02*
X157476390Y-76818213D01*
X157476390Y-76818213D02*
X157285914Y-76770594D01*
X157285914Y-76770594D02*
X157190676Y-76722975D01*
X157190676Y-76722975D02*
X157095438Y-76627737D01*
X157095438Y-76627737D02*
X157047819Y-76484880D01*
X157047819Y-76484880D02*
X157047819Y-76389642D01*
X157047819Y-76389642D02*
X157095438Y-76246785D01*
X157095438Y-76246785D02*
X157143057Y-76199166D01*
X157381152Y-75342023D02*
X158047819Y-75342023D01*
X157000200Y-75580118D02*
X157714485Y-75818213D01*
X157714485Y-75818213D02*
X157714485Y-75199166D01*
X123961433Y-67662680D02*
X123913814Y-67710300D01*
X123913814Y-67710300D02*
X123770957Y-67757919D01*
X123770957Y-67757919D02*
X123675719Y-67757919D01*
X123675719Y-67757919D02*
X123532862Y-67710300D01*
X123532862Y-67710300D02*
X123437624Y-67615061D01*
X123437624Y-67615061D02*
X123390005Y-67519823D01*
X123390005Y-67519823D02*
X123342386Y-67329347D01*
X123342386Y-67329347D02*
X123342386Y-67186490D01*
X123342386Y-67186490D02*
X123390005Y-66996014D01*
X123390005Y-66996014D02*
X123437624Y-66900776D01*
X123437624Y-66900776D02*
X123532862Y-66805538D01*
X123532862Y-66805538D02*
X123675719Y-66757919D01*
X123675719Y-66757919D02*
X123770957Y-66757919D01*
X123770957Y-66757919D02*
X123913814Y-66805538D01*
X123913814Y-66805538D02*
X123961433Y-66853157D01*
X124866195Y-66757919D02*
X124390005Y-66757919D01*
X124390005Y-66757919D02*
X124342386Y-67234109D01*
X124342386Y-67234109D02*
X124390005Y-67186490D01*
X124390005Y-67186490D02*
X124485243Y-67138871D01*
X124485243Y-67138871D02*
X124723338Y-67138871D01*
X124723338Y-67138871D02*
X124818576Y-67186490D01*
X124818576Y-67186490D02*
X124866195Y-67234109D01*
X124866195Y-67234109D02*
X124913814Y-67329347D01*
X124913814Y-67329347D02*
X124913814Y-67567442D01*
X124913814Y-67567442D02*
X124866195Y-67662680D01*
X124866195Y-67662680D02*
X124818576Y-67710300D01*
X124818576Y-67710300D02*
X124723338Y-67757919D01*
X124723338Y-67757919D02*
X124485243Y-67757919D01*
X124485243Y-67757919D02*
X124390005Y-67710300D01*
X124390005Y-67710300D02*
X124342386Y-67662680D01*
X212646442Y-130688819D02*
X212646442Y-131403104D01*
X212646442Y-131403104D02*
X212598823Y-131545961D01*
X212598823Y-131545961D02*
X212503585Y-131641200D01*
X212503585Y-131641200D02*
X212360728Y-131688819D01*
X212360728Y-131688819D02*
X212265490Y-131688819D01*
X213646442Y-131688819D02*
X213075014Y-131688819D01*
X213360728Y-131688819D02*
X213360728Y-130688819D01*
X213360728Y-130688819D02*
X213265490Y-130831676D01*
X213265490Y-130831676D02*
X213170252Y-130926914D01*
X213170252Y-130926914D02*
X213075014Y-130974533D01*
X214027395Y-130784057D02*
X214075014Y-130736438D01*
X214075014Y-130736438D02*
X214170252Y-130688819D01*
X214170252Y-130688819D02*
X214408347Y-130688819D01*
X214408347Y-130688819D02*
X214503585Y-130736438D01*
X214503585Y-130736438D02*
X214551204Y-130784057D01*
X214551204Y-130784057D02*
X214598823Y-130879295D01*
X214598823Y-130879295D02*
X214598823Y-130974533D01*
X214598823Y-130974533D02*
X214551204Y-131117390D01*
X214551204Y-131117390D02*
X213979776Y-131688819D01*
X213979776Y-131688819D02*
X214598823Y-131688819D01*
X67247826Y-64773819D02*
X67247826Y-65488104D01*
X67247826Y-65488104D02*
X67200207Y-65630961D01*
X67200207Y-65630961D02*
X67104969Y-65726200D01*
X67104969Y-65726200D02*
X66962112Y-65773819D01*
X66962112Y-65773819D02*
X66866874Y-65773819D01*
X68247826Y-65773819D02*
X67676398Y-65773819D01*
X67962112Y-65773819D02*
X67962112Y-64773819D01*
X67962112Y-64773819D02*
X67866874Y-64916676D01*
X67866874Y-64916676D02*
X67771636Y-65011914D01*
X67771636Y-65011914D02*
X67676398Y-65059533D01*
X183271580Y-140840357D02*
X183319200Y-140887976D01*
X183319200Y-140887976D02*
X183366819Y-141030833D01*
X183366819Y-141030833D02*
X183366819Y-141126071D01*
X183366819Y-141126071D02*
X183319200Y-141268928D01*
X183319200Y-141268928D02*
X183223961Y-141364166D01*
X183223961Y-141364166D02*
X183128723Y-141411785D01*
X183128723Y-141411785D02*
X182938247Y-141459404D01*
X182938247Y-141459404D02*
X182795390Y-141459404D01*
X182795390Y-141459404D02*
X182604914Y-141411785D01*
X182604914Y-141411785D02*
X182509676Y-141364166D01*
X182509676Y-141364166D02*
X182414438Y-141268928D01*
X182414438Y-141268928D02*
X182366819Y-141126071D01*
X182366819Y-141126071D02*
X182366819Y-141030833D01*
X182366819Y-141030833D02*
X182414438Y-140887976D01*
X182414438Y-140887976D02*
X182462057Y-140840357D01*
X183366819Y-139887976D02*
X183366819Y-140459404D01*
X183366819Y-140173690D02*
X182366819Y-140173690D01*
X182366819Y-140173690D02*
X182509676Y-140268928D01*
X182509676Y-140268928D02*
X182604914Y-140364166D01*
X182604914Y-140364166D02*
X182652533Y-140459404D01*
X183366819Y-139411785D02*
X183366819Y-139221309D01*
X183366819Y-139221309D02*
X183319200Y-139126071D01*
X183319200Y-139126071D02*
X183271580Y-139078452D01*
X183271580Y-139078452D02*
X183128723Y-138983214D01*
X183128723Y-138983214D02*
X182938247Y-138935595D01*
X182938247Y-138935595D02*
X182557295Y-138935595D01*
X182557295Y-138935595D02*
X182462057Y-138983214D01*
X182462057Y-138983214D02*
X182414438Y-139030833D01*
X182414438Y-139030833D02*
X182366819Y-139126071D01*
X182366819Y-139126071D02*
X182366819Y-139316547D01*
X182366819Y-139316547D02*
X182414438Y-139411785D01*
X182414438Y-139411785D02*
X182462057Y-139459404D01*
X182462057Y-139459404D02*
X182557295Y-139507023D01*
X182557295Y-139507023D02*
X182795390Y-139507023D01*
X182795390Y-139507023D02*
X182890628Y-139459404D01*
X182890628Y-139459404D02*
X182938247Y-139411785D01*
X182938247Y-139411785D02*
X182985866Y-139316547D01*
X182985866Y-139316547D02*
X182985866Y-139126071D01*
X182985866Y-139126071D02*
X182938247Y-139030833D01*
X182938247Y-139030833D02*
X182890628Y-138983214D01*
X182890628Y-138983214D02*
X182795390Y-138935595D01*
X156047833Y-67580580D02*
X156000214Y-67628200D01*
X156000214Y-67628200D02*
X155857357Y-67675819D01*
X155857357Y-67675819D02*
X155762119Y-67675819D01*
X155762119Y-67675819D02*
X155619262Y-67628200D01*
X155619262Y-67628200D02*
X155524024Y-67532961D01*
X155524024Y-67532961D02*
X155476405Y-67437723D01*
X155476405Y-67437723D02*
X155428786Y-67247247D01*
X155428786Y-67247247D02*
X155428786Y-67104390D01*
X155428786Y-67104390D02*
X155476405Y-66913914D01*
X155476405Y-66913914D02*
X155524024Y-66818676D01*
X155524024Y-66818676D02*
X155619262Y-66723438D01*
X155619262Y-66723438D02*
X155762119Y-66675819D01*
X155762119Y-66675819D02*
X155857357Y-66675819D01*
X155857357Y-66675819D02*
X156000214Y-66723438D01*
X156000214Y-66723438D02*
X156047833Y-66771057D01*
X156904976Y-66675819D02*
X156714500Y-66675819D01*
X156714500Y-66675819D02*
X156619262Y-66723438D01*
X156619262Y-66723438D02*
X156571643Y-66771057D01*
X156571643Y-66771057D02*
X156476405Y-66913914D01*
X156476405Y-66913914D02*
X156428786Y-67104390D01*
X156428786Y-67104390D02*
X156428786Y-67485342D01*
X156428786Y-67485342D02*
X156476405Y-67580580D01*
X156476405Y-67580580D02*
X156524024Y-67628200D01*
X156524024Y-67628200D02*
X156619262Y-67675819D01*
X156619262Y-67675819D02*
X156809738Y-67675819D01*
X156809738Y-67675819D02*
X156904976Y-67628200D01*
X156904976Y-67628200D02*
X156952595Y-67580580D01*
X156952595Y-67580580D02*
X157000214Y-67485342D01*
X157000214Y-67485342D02*
X157000214Y-67247247D01*
X157000214Y-67247247D02*
X156952595Y-67152009D01*
X156952595Y-67152009D02*
X156904976Y-67104390D01*
X156904976Y-67104390D02*
X156809738Y-67056771D01*
X156809738Y-67056771D02*
X156619262Y-67056771D01*
X156619262Y-67056771D02*
X156524024Y-67104390D01*
X156524024Y-67104390D02*
X156476405Y-67152009D01*
X156476405Y-67152009D02*
X156428786Y-67247247D01*
X99254833Y-83568580D02*
X99207214Y-83616200D01*
X99207214Y-83616200D02*
X99064357Y-83663819D01*
X99064357Y-83663819D02*
X98969119Y-83663819D01*
X98969119Y-83663819D02*
X98826262Y-83616200D01*
X98826262Y-83616200D02*
X98731024Y-83520961D01*
X98731024Y-83520961D02*
X98683405Y-83425723D01*
X98683405Y-83425723D02*
X98635786Y-83235247D01*
X98635786Y-83235247D02*
X98635786Y-83092390D01*
X98635786Y-83092390D02*
X98683405Y-82901914D01*
X98683405Y-82901914D02*
X98731024Y-82806676D01*
X98731024Y-82806676D02*
X98826262Y-82711438D01*
X98826262Y-82711438D02*
X98969119Y-82663819D01*
X98969119Y-82663819D02*
X99064357Y-82663819D01*
X99064357Y-82663819D02*
X99207214Y-82711438D01*
X99207214Y-82711438D02*
X99254833Y-82759057D01*
X99588167Y-82663819D02*
X100254833Y-82663819D01*
X100254833Y-82663819D02*
X99826262Y-83663819D01*
X181581333Y-83540580D02*
X181533714Y-83588200D01*
X181533714Y-83588200D02*
X181390857Y-83635819D01*
X181390857Y-83635819D02*
X181295619Y-83635819D01*
X181295619Y-83635819D02*
X181152762Y-83588200D01*
X181152762Y-83588200D02*
X181057524Y-83492961D01*
X181057524Y-83492961D02*
X181009905Y-83397723D01*
X181009905Y-83397723D02*
X180962286Y-83207247D01*
X180962286Y-83207247D02*
X180962286Y-83064390D01*
X180962286Y-83064390D02*
X181009905Y-82873914D01*
X181009905Y-82873914D02*
X181057524Y-82778676D01*
X181057524Y-82778676D02*
X181152762Y-82683438D01*
X181152762Y-82683438D02*
X181295619Y-82635819D01*
X181295619Y-82635819D02*
X181390857Y-82635819D01*
X181390857Y-82635819D02*
X181533714Y-82683438D01*
X181533714Y-82683438D02*
X181581333Y-82731057D01*
X182057524Y-83635819D02*
X182248000Y-83635819D01*
X182248000Y-83635819D02*
X182343238Y-83588200D01*
X182343238Y-83588200D02*
X182390857Y-83540580D01*
X182390857Y-83540580D02*
X182486095Y-83397723D01*
X182486095Y-83397723D02*
X182533714Y-83207247D01*
X182533714Y-83207247D02*
X182533714Y-82826295D01*
X182533714Y-82826295D02*
X182486095Y-82731057D01*
X182486095Y-82731057D02*
X182438476Y-82683438D01*
X182438476Y-82683438D02*
X182343238Y-82635819D01*
X182343238Y-82635819D02*
X182152762Y-82635819D01*
X182152762Y-82635819D02*
X182057524Y-82683438D01*
X182057524Y-82683438D02*
X182009905Y-82731057D01*
X182009905Y-82731057D02*
X181962286Y-82826295D01*
X181962286Y-82826295D02*
X181962286Y-83064390D01*
X181962286Y-83064390D02*
X182009905Y-83159628D01*
X182009905Y-83159628D02*
X182057524Y-83207247D01*
X182057524Y-83207247D02*
X182152762Y-83254866D01*
X182152762Y-83254866D02*
X182343238Y-83254866D01*
X182343238Y-83254866D02*
X182438476Y-83207247D01*
X182438476Y-83207247D02*
X182486095Y-83159628D01*
X182486095Y-83159628D02*
X182533714Y-83064390D01*
X98783642Y-131846580D02*
X98736023Y-131894200D01*
X98736023Y-131894200D02*
X98593166Y-131941819D01*
X98593166Y-131941819D02*
X98497928Y-131941819D01*
X98497928Y-131941819D02*
X98355071Y-131894200D01*
X98355071Y-131894200D02*
X98259833Y-131798961D01*
X98259833Y-131798961D02*
X98212214Y-131703723D01*
X98212214Y-131703723D02*
X98164595Y-131513247D01*
X98164595Y-131513247D02*
X98164595Y-131370390D01*
X98164595Y-131370390D02*
X98212214Y-131179914D01*
X98212214Y-131179914D02*
X98259833Y-131084676D01*
X98259833Y-131084676D02*
X98355071Y-130989438D01*
X98355071Y-130989438D02*
X98497928Y-130941819D01*
X98497928Y-130941819D02*
X98593166Y-130941819D01*
X98593166Y-130941819D02*
X98736023Y-130989438D01*
X98736023Y-130989438D02*
X98783642Y-131037057D01*
X99736023Y-131941819D02*
X99164595Y-131941819D01*
X99450309Y-131941819D02*
X99450309Y-130941819D01*
X99450309Y-130941819D02*
X99355071Y-131084676D01*
X99355071Y-131084676D02*
X99259833Y-131179914D01*
X99259833Y-131179914D02*
X99164595Y-131227533D01*
X100593166Y-130941819D02*
X100402690Y-130941819D01*
X100402690Y-130941819D02*
X100307452Y-130989438D01*
X100307452Y-130989438D02*
X100259833Y-131037057D01*
X100259833Y-131037057D02*
X100164595Y-131179914D01*
X100164595Y-131179914D02*
X100116976Y-131370390D01*
X100116976Y-131370390D02*
X100116976Y-131751342D01*
X100116976Y-131751342D02*
X100164595Y-131846580D01*
X100164595Y-131846580D02*
X100212214Y-131894200D01*
X100212214Y-131894200D02*
X100307452Y-131941819D01*
X100307452Y-131941819D02*
X100497928Y-131941819D01*
X100497928Y-131941819D02*
X100593166Y-131894200D01*
X100593166Y-131894200D02*
X100640785Y-131846580D01*
X100640785Y-131846580D02*
X100688404Y-131751342D01*
X100688404Y-131751342D02*
X100688404Y-131513247D01*
X100688404Y-131513247D02*
X100640785Y-131418009D01*
X100640785Y-131418009D02*
X100593166Y-131370390D01*
X100593166Y-131370390D02*
X100497928Y-131322771D01*
X100497928Y-131322771D02*
X100307452Y-131322771D01*
X100307452Y-131322771D02*
X100212214Y-131370390D01*
X100212214Y-131370390D02*
X100164595Y-131418009D01*
X100164595Y-131418009D02*
X100116976Y-131513247D01*
X213122632Y-98722819D02*
X213122632Y-99437104D01*
X213122632Y-99437104D02*
X213075013Y-99579961D01*
X213075013Y-99579961D02*
X212979775Y-99675200D01*
X212979775Y-99675200D02*
X212836918Y-99722819D01*
X212836918Y-99722819D02*
X212741680Y-99722819D01*
X213741680Y-99151390D02*
X213646442Y-99103771D01*
X213646442Y-99103771D02*
X213598823Y-99056152D01*
X213598823Y-99056152D02*
X213551204Y-98960914D01*
X213551204Y-98960914D02*
X213551204Y-98913295D01*
X213551204Y-98913295D02*
X213598823Y-98818057D01*
X213598823Y-98818057D02*
X213646442Y-98770438D01*
X213646442Y-98770438D02*
X213741680Y-98722819D01*
X213741680Y-98722819D02*
X213932156Y-98722819D01*
X213932156Y-98722819D02*
X214027394Y-98770438D01*
X214027394Y-98770438D02*
X214075013Y-98818057D01*
X214075013Y-98818057D02*
X214122632Y-98913295D01*
X214122632Y-98913295D02*
X214122632Y-98960914D01*
X214122632Y-98960914D02*
X214075013Y-99056152D01*
X214075013Y-99056152D02*
X214027394Y-99103771D01*
X214027394Y-99103771D02*
X213932156Y-99151390D01*
X213932156Y-99151390D02*
X213741680Y-99151390D01*
X213741680Y-99151390D02*
X213646442Y-99199009D01*
X213646442Y-99199009D02*
X213598823Y-99246628D01*
X213598823Y-99246628D02*
X213551204Y-99341866D01*
X213551204Y-99341866D02*
X213551204Y-99532342D01*
X213551204Y-99532342D02*
X213598823Y-99627580D01*
X213598823Y-99627580D02*
X213646442Y-99675200D01*
X213646442Y-99675200D02*
X213741680Y-99722819D01*
X213741680Y-99722819D02*
X213932156Y-99722819D01*
X213932156Y-99722819D02*
X214027394Y-99675200D01*
X214027394Y-99675200D02*
X214075013Y-99627580D01*
X214075013Y-99627580D02*
X214122632Y-99532342D01*
X214122632Y-99532342D02*
X214122632Y-99341866D01*
X214122632Y-99341866D02*
X214075013Y-99246628D01*
X214075013Y-99246628D02*
X214027394Y-99199009D01*
X214027394Y-99199009D02*
X213932156Y-99151390D01*
X180762642Y-131761580D02*
X180715023Y-131809200D01*
X180715023Y-131809200D02*
X180572166Y-131856819D01*
X180572166Y-131856819D02*
X180476928Y-131856819D01*
X180476928Y-131856819D02*
X180334071Y-131809200D01*
X180334071Y-131809200D02*
X180238833Y-131713961D01*
X180238833Y-131713961D02*
X180191214Y-131618723D01*
X180191214Y-131618723D02*
X180143595Y-131428247D01*
X180143595Y-131428247D02*
X180143595Y-131285390D01*
X180143595Y-131285390D02*
X180191214Y-131094914D01*
X180191214Y-131094914D02*
X180238833Y-130999676D01*
X180238833Y-130999676D02*
X180334071Y-130904438D01*
X180334071Y-130904438D02*
X180476928Y-130856819D01*
X180476928Y-130856819D02*
X180572166Y-130856819D01*
X180572166Y-130856819D02*
X180715023Y-130904438D01*
X180715023Y-130904438D02*
X180762642Y-130952057D01*
X181715023Y-131856819D02*
X181143595Y-131856819D01*
X181429309Y-131856819D02*
X181429309Y-130856819D01*
X181429309Y-130856819D02*
X181334071Y-130999676D01*
X181334071Y-130999676D02*
X181238833Y-131094914D01*
X181238833Y-131094914D02*
X181143595Y-131142533D01*
X182286452Y-131285390D02*
X182191214Y-131237771D01*
X182191214Y-131237771D02*
X182143595Y-131190152D01*
X182143595Y-131190152D02*
X182095976Y-131094914D01*
X182095976Y-131094914D02*
X182095976Y-131047295D01*
X182095976Y-131047295D02*
X182143595Y-130952057D01*
X182143595Y-130952057D02*
X182191214Y-130904438D01*
X182191214Y-130904438D02*
X182286452Y-130856819D01*
X182286452Y-130856819D02*
X182476928Y-130856819D01*
X182476928Y-130856819D02*
X182572166Y-130904438D01*
X182572166Y-130904438D02*
X182619785Y-130952057D01*
X182619785Y-130952057D02*
X182667404Y-131047295D01*
X182667404Y-131047295D02*
X182667404Y-131094914D01*
X182667404Y-131094914D02*
X182619785Y-131190152D01*
X182619785Y-131190152D02*
X182572166Y-131237771D01*
X182572166Y-131237771D02*
X182476928Y-131285390D01*
X182476928Y-131285390D02*
X182286452Y-131285390D01*
X182286452Y-131285390D02*
X182191214Y-131333009D01*
X182191214Y-131333009D02*
X182143595Y-131380628D01*
X182143595Y-131380628D02*
X182095976Y-131475866D01*
X182095976Y-131475866D02*
X182095976Y-131666342D01*
X182095976Y-131666342D02*
X182143595Y-131761580D01*
X182143595Y-131761580D02*
X182191214Y-131809200D01*
X182191214Y-131809200D02*
X182286452Y-131856819D01*
X182286452Y-131856819D02*
X182476928Y-131856819D01*
X182476928Y-131856819D02*
X182572166Y-131809200D01*
X182572166Y-131809200D02*
X182619785Y-131761580D01*
X182619785Y-131761580D02*
X182667404Y-131666342D01*
X182667404Y-131666342D02*
X182667404Y-131475866D01*
X182667404Y-131475866D02*
X182619785Y-131380628D01*
X182619785Y-131380628D02*
X182572166Y-131333009D01*
X182572166Y-131333009D02*
X182476928Y-131285390D01*
X67247826Y-128705819D02*
X67247826Y-129420104D01*
X67247826Y-129420104D02*
X67200207Y-129562961D01*
X67200207Y-129562961D02*
X67104969Y-129658200D01*
X67104969Y-129658200D02*
X66962112Y-129705819D01*
X66962112Y-129705819D02*
X66866874Y-129705819D01*
X67771636Y-129705819D02*
X67962112Y-129705819D01*
X67962112Y-129705819D02*
X68057350Y-129658200D01*
X68057350Y-129658200D02*
X68104969Y-129610580D01*
X68104969Y-129610580D02*
X68200207Y-129467723D01*
X68200207Y-129467723D02*
X68247826Y-129277247D01*
X68247826Y-129277247D02*
X68247826Y-128896295D01*
X68247826Y-128896295D02*
X68200207Y-128801057D01*
X68200207Y-128801057D02*
X68152588Y-128753438D01*
X68152588Y-128753438D02*
X68057350Y-128705819D01*
X68057350Y-128705819D02*
X67866874Y-128705819D01*
X67866874Y-128705819D02*
X67771636Y-128753438D01*
X67771636Y-128753438D02*
X67724017Y-128801057D01*
X67724017Y-128801057D02*
X67676398Y-128896295D01*
X67676398Y-128896295D02*
X67676398Y-129134390D01*
X67676398Y-129134390D02*
X67724017Y-129229628D01*
X67724017Y-129229628D02*
X67771636Y-129277247D01*
X67771636Y-129277247D02*
X67866874Y-129324866D01*
X67866874Y-129324866D02*
X68057350Y-129324866D01*
X68057350Y-129324866D02*
X68152588Y-129277247D01*
X68152588Y-129277247D02*
X68200207Y-129229628D01*
X68200207Y-129229628D02*
X68247826Y-129134390D01*
D11*
%TO.C,J2*%
X209455966Y-58069000D02*
X209955966Y-58319000D01*
X209455966Y-58569000D02*
X209455966Y-58069000D01*
X209955966Y-58319000D02*
X209455966Y-58569000D01*
%TO.C,C2*%
X156833000Y-55639767D02*
X156833000Y-55347233D01*
X155813000Y-55639767D02*
X155813000Y-55347233D01*
%TO.C,C12*%
X75583000Y-107841233D02*
X75583000Y-108133767D01*
X76603000Y-107841233D02*
X76603000Y-108133767D01*
%TO.C,J7*%
X71081160Y-106268000D02*
X71581160Y-106018000D01*
X71581160Y-106018000D02*
X71581160Y-106518000D01*
X71581160Y-106518000D02*
X71081160Y-106268000D01*
%TO.C,J3*%
X71081160Y-74302000D02*
X71581160Y-74052000D01*
X71581160Y-74052000D02*
X71581160Y-74552000D01*
X71581160Y-74552000D02*
X71081160Y-74302000D01*
%TO.C,C11*%
X76002233Y-100104000D02*
X76294767Y-100104000D01*
X76002233Y-101124000D02*
X76294767Y-101124000D01*
%TO.C,C14*%
X204347000Y-107843233D02*
X204347000Y-108135767D01*
X205367000Y-107843233D02*
X205367000Y-108135767D01*
%TO.C,J10*%
X209455966Y-122001000D02*
X209955966Y-122251000D01*
X209455966Y-122501000D02*
X209455966Y-122001000D01*
X209955966Y-122251000D02*
X209455966Y-122501000D01*
%TO.C,C1*%
X123537000Y-55638267D02*
X123537000Y-55345733D01*
X124557000Y-55638267D02*
X124557000Y-55345733D01*
%TO.C,C15*%
X98765000Y-124557733D02*
X98765000Y-124850267D01*
X99785000Y-124557733D02*
X99785000Y-124850267D01*
%TO.C,J4*%
X209455966Y-74109000D02*
X209955966Y-74359000D01*
X209455966Y-74609000D02*
X209455966Y-74109000D01*
X209955966Y-74359000D02*
X209455966Y-74609000D01*
%TO.C,J11*%
X71081160Y-138234000D02*
X71581160Y-137984000D01*
X71581160Y-137984000D02*
X71581160Y-138484000D01*
X71581160Y-138484000D02*
X71081160Y-138234000D01*
%TO.C,C10*%
X181149000Y-91992233D02*
X181149000Y-92284767D01*
X182169000Y-91992233D02*
X182169000Y-92284767D01*
%TO.C,J6*%
X209455966Y-90035000D02*
X209955966Y-90285000D01*
X209455966Y-90535000D02*
X209455966Y-90035000D01*
X209955966Y-90285000D02*
X209455966Y-90535000D01*
%TO.C,C20*%
X180858000Y-124597233D02*
X180858000Y-124889767D01*
X181878000Y-124597233D02*
X181878000Y-124889767D01*
%TO.C,C17*%
X98824000Y-140106233D02*
X98824000Y-140398767D01*
X99844000Y-140106233D02*
X99844000Y-140398767D01*
%TO.C,C8*%
X98925000Y-91908233D02*
X98925000Y-92200767D01*
X99945000Y-91908233D02*
X99945000Y-92200767D01*
%TO.C,C3*%
X123586000Y-75856233D02*
X123586000Y-76148767D01*
X124606000Y-75856233D02*
X124606000Y-76148767D01*
%TO.C,J5*%
X71081160Y-90285000D02*
X71581160Y-90035000D01*
X71581160Y-90035000D02*
X71581160Y-90535000D01*
X71581160Y-90535000D02*
X71081160Y-90285000D01*
%TO.C,C13*%
X204837233Y-100073000D02*
X205129767Y-100073000D01*
X204837233Y-101093000D02*
X205129767Y-101093000D01*
%TO.C,C4*%
X155653000Y-75886233D02*
X155653000Y-76178767D01*
X156673000Y-75886233D02*
X156673000Y-76178767D01*
%TO.C,C5*%
X123981833Y-68223100D02*
X124274367Y-68223100D01*
X123981833Y-69243100D02*
X124274367Y-69243100D01*
%TO.C,J12*%
X209455966Y-137984000D02*
X209955966Y-138234000D01*
X209455966Y-138484000D02*
X209455966Y-137984000D01*
X209955966Y-138234000D02*
X209455966Y-138484000D01*
%TO.C,J1*%
X71081160Y-58319000D02*
X71581160Y-58069000D01*
X71581160Y-58069000D02*
X71581160Y-58569000D01*
X71581160Y-58569000D02*
X71081160Y-58319000D01*
%TO.C,C19*%
X180972000Y-140051233D02*
X180972000Y-140343767D01*
X181992000Y-140051233D02*
X181992000Y-140343767D01*
%TO.C,C6*%
X156068233Y-68141000D02*
X156360767Y-68141000D01*
X156068233Y-69161000D02*
X156360767Y-69161000D01*
%TO.C,C7*%
X99275233Y-84129000D02*
X99567767Y-84129000D01*
X99275233Y-85149000D02*
X99567767Y-85149000D01*
%TO.C,C9*%
X181601733Y-84101000D02*
X181894267Y-84101000D01*
X181601733Y-85121000D02*
X181894267Y-85121000D01*
%TO.C,C16*%
X99280233Y-132407000D02*
X99572767Y-132407000D01*
X99280233Y-133427000D02*
X99572767Y-133427000D01*
%TO.C,J8*%
X209455966Y-106018000D02*
X209955966Y-106268000D01*
X209455966Y-106518000D02*
X209455966Y-106018000D01*
X209955966Y-106268000D02*
X209455966Y-106518000D01*
%TO.C,C18*%
X181259233Y-132322000D02*
X181551767Y-132322000D01*
X181259233Y-133342000D02*
X181551767Y-133342000D01*
%TO.C,J9*%
X71081160Y-122251000D02*
X71581160Y-122001000D01*
X71581160Y-122001000D02*
X71581160Y-122501000D01*
X71581160Y-122501000D02*
X71081160Y-122251000D01*
%TD*%
M02*
