%TF.GenerationSoftware,KiCad,Pcbnew,9.0.5*%
%TF.CreationDate,2026-04-03T10:29:49-05:00*%
%TF.ProjectId,t-coil3,742d636f-696c-4332-9e6b-696361645f70,rev?*%
%TF.SameCoordinates,Original*%
%TF.FileFunction,Drillmap*%
%TF.FilePolarity,Positive*%
%FSLAX45Y45*%
G04 Gerber Fmt 4.5, Leading zero omitted, Abs format (unit mm)*
G04 Created by KiCad (PCBNEW 9.0.5) date 2026-04-03 10:29:49*
%MOMM*%
%LPD*%
G01*
G04 APERTURE LIST*
%ADD10C,0.050000*%
%ADD11C,0.200000*%
G04 APERTURE END LIST*
D10*
X6432100Y-4874600D02*
X21672100Y-4874600D01*
X21672100Y-15034600D01*
X6432100Y-15034600D01*
X6432100Y-4874600D01*
D11*
X6690377Y-15348584D02*
X6690377Y-15148584D01*
X6690377Y-15148584D02*
X6737996Y-15148584D01*
X6737996Y-15148584D02*
X6766567Y-15158108D01*
X6766567Y-15158108D02*
X6785615Y-15177155D01*
X6785615Y-15177155D02*
X6795139Y-15196203D01*
X6795139Y-15196203D02*
X6804662Y-15234298D01*
X6804662Y-15234298D02*
X6804662Y-15262869D01*
X6804662Y-15262869D02*
X6795139Y-15300965D01*
X6795139Y-15300965D02*
X6785615Y-15320012D01*
X6785615Y-15320012D02*
X6766567Y-15339060D01*
X6766567Y-15339060D02*
X6737996Y-15348584D01*
X6737996Y-15348584D02*
X6690377Y-15348584D01*
X6890377Y-15348584D02*
X6890377Y-15215250D01*
X6890377Y-15253346D02*
X6899901Y-15234298D01*
X6899901Y-15234298D02*
X6909424Y-15224774D01*
X6909424Y-15224774D02*
X6928472Y-15215250D01*
X6928472Y-15215250D02*
X6947520Y-15215250D01*
X7014186Y-15348584D02*
X7014186Y-15215250D01*
X7014186Y-15148584D02*
X7004662Y-15158108D01*
X7004662Y-15158108D02*
X7014186Y-15167631D01*
X7014186Y-15167631D02*
X7023710Y-15158108D01*
X7023710Y-15158108D02*
X7014186Y-15148584D01*
X7014186Y-15148584D02*
X7014186Y-15167631D01*
X7137996Y-15348584D02*
X7118948Y-15339060D01*
X7118948Y-15339060D02*
X7109424Y-15320012D01*
X7109424Y-15320012D02*
X7109424Y-15148584D01*
X7242758Y-15348584D02*
X7223710Y-15339060D01*
X7223710Y-15339060D02*
X7214186Y-15320012D01*
X7214186Y-15320012D02*
X7214186Y-15148584D01*
X7471329Y-15348584D02*
X7471329Y-15148584D01*
X7471329Y-15148584D02*
X7537996Y-15291441D01*
X7537996Y-15291441D02*
X7604662Y-15148584D01*
X7604662Y-15148584D02*
X7604662Y-15348584D01*
X7785615Y-15348584D02*
X7785615Y-15243822D01*
X7785615Y-15243822D02*
X7776091Y-15224774D01*
X7776091Y-15224774D02*
X7757043Y-15215250D01*
X7757043Y-15215250D02*
X7718948Y-15215250D01*
X7718948Y-15215250D02*
X7699901Y-15224774D01*
X7785615Y-15339060D02*
X7766567Y-15348584D01*
X7766567Y-15348584D02*
X7718948Y-15348584D01*
X7718948Y-15348584D02*
X7699901Y-15339060D01*
X7699901Y-15339060D02*
X7690377Y-15320012D01*
X7690377Y-15320012D02*
X7690377Y-15300965D01*
X7690377Y-15300965D02*
X7699901Y-15281917D01*
X7699901Y-15281917D02*
X7718948Y-15272393D01*
X7718948Y-15272393D02*
X7766567Y-15272393D01*
X7766567Y-15272393D02*
X7785615Y-15262869D01*
X7880853Y-15215250D02*
X7880853Y-15415250D01*
X7880853Y-15224774D02*
X7899901Y-15215250D01*
X7899901Y-15215250D02*
X7937996Y-15215250D01*
X7937996Y-15215250D02*
X7957043Y-15224774D01*
X7957043Y-15224774D02*
X7966567Y-15234298D01*
X7966567Y-15234298D02*
X7976091Y-15253346D01*
X7976091Y-15253346D02*
X7976091Y-15310488D01*
X7976091Y-15310488D02*
X7966567Y-15329536D01*
X7966567Y-15329536D02*
X7957043Y-15339060D01*
X7957043Y-15339060D02*
X7937996Y-15348584D01*
X7937996Y-15348584D02*
X7899901Y-15348584D01*
X7899901Y-15348584D02*
X7880853Y-15339060D01*
X8061805Y-15329536D02*
X8071329Y-15339060D01*
X8071329Y-15339060D02*
X8061805Y-15348584D01*
X8061805Y-15348584D02*
X8052282Y-15339060D01*
X8052282Y-15339060D02*
X8061805Y-15329536D01*
X8061805Y-15329536D02*
X8061805Y-15348584D01*
X8061805Y-15224774D02*
X8071329Y-15234298D01*
X8071329Y-15234298D02*
X8061805Y-15243822D01*
X8061805Y-15243822D02*
X8052282Y-15234298D01*
X8052282Y-15234298D02*
X8061805Y-15224774D01*
X8061805Y-15224774D02*
X8061805Y-15243822D01*
M02*
