%TF.GenerationSoftware,KiCad,Pcbnew,9.0.5*%
%TF.CreationDate,2026-03-31T15:52:52-05:00*%
%TF.ProjectId,t-coil3,742d636f-696c-4332-9e6b-696361645f70,rev?*%
%TF.SameCoordinates,Original*%
%TF.FileFunction,Copper,L1,Top*%
%TF.FilePolarity,Positive*%
%FSLAX46Y46*%
G04 Gerber Fmt 4.6, Leading zero omitted, Abs format (unit mm)*
G04 Created by KiCad (PCBNEW 9.0.5) date 2026-03-31 15:52:52*
%MOMM*%
%LPD*%
G01*
G04 APERTURE LIST*
G04 Aperture macros list*
%AMRoundRect*
0 Rectangle with rounded corners*
0 $1 Rounding radius*
0 $2 $3 $4 $5 $6 $7 $8 $9 X,Y pos of 4 corners*
0 Add a 4 corners polygon primitive as box body*
4,1,4,$2,$3,$4,$5,$6,$7,$8,$9,$2,$3,0*
0 Add four circle primitives for the rounded corners*
1,1,$1+$1,$2,$3*
1,1,$1+$1,$4,$5*
1,1,$1+$1,$6,$7*
1,1,$1+$1,$8,$9*
0 Add four rect primitives between the rounded corners*
20,1,$1+$1,$2,$3,$4,$5,0*
20,1,$1+$1,$4,$5,$6,$7,0*
20,1,$1+$1,$6,$7,$8,$9,0*
20,1,$1+$1,$8,$9,$2,$3,0*%
G04 Aperture macros list end*
%TA.AperFunction,SMDPad,CuDef*%
%ADD10R,5.080000X2.290000*%
%TD*%
%TA.AperFunction,SMDPad,CuDef*%
%ADD11R,5.080000X2.420000*%
%TD*%
%TA.AperFunction,SMDPad,CuDef*%
%ADD12R,0.950000X0.460000*%
%TD*%
%TA.AperFunction,ComponentPad*%
%ADD13C,0.970000*%
%TD*%
%TA.AperFunction,SMDPad,CuDef*%
%ADD14RoundRect,0.237500X0.237500X-0.300000X0.237500X0.300000X-0.237500X0.300000X-0.237500X-0.300000X0*%
%TD*%
%TA.AperFunction,SMDPad,CuDef*%
%ADD15RoundRect,0.237500X-0.237500X0.300000X-0.237500X-0.300000X0.237500X-0.300000X0.237500X0.300000X0*%
%TD*%
%TA.AperFunction,SMDPad,CuDef*%
%ADD16RoundRect,0.237500X-0.300000X-0.237500X0.300000X-0.237500X0.300000X0.237500X-0.300000X0.237500X0*%
%TD*%
%TA.AperFunction,ViaPad*%
%ADD17C,0.600000*%
%TD*%
%TA.AperFunction,ViaPad*%
%ADD18C,0.457200*%
%TD*%
%TA.AperFunction,Conductor*%
%ADD19C,0.200000*%
%TD*%
%TA.AperFunction,Conductor*%
%ADD20C,0.406400*%
%TD*%
%TA.AperFunction,Conductor*%
%ADD21C,0.427627*%
%TD*%
G04 APERTURE END LIST*
D10*
%TO.P,J2,1,In*%
%TO.N,Net-(J1-In)*%
X213675966Y-58319000D03*
D11*
%TO.P,J2,2,Ext*%
%TO.N,GND*%
X213675966Y-62699000D03*
X213675966Y-53939000D03*
D12*
X210685966Y-62699000D03*
X210685966Y-53939000D03*
D13*
X210235966Y-62699000D03*
X210235966Y-53939000D03*
%TD*%
D14*
%TO.P,C2,2*%
%TO.N,GND*%
X156323000Y-54631000D03*
%TO.P,C2,1*%
%TO.N,Net-(J1-In)*%
X156323000Y-56356000D03*
%TD*%
D15*
%TO.P,C12,1*%
%TO.N,Net-(J7-In)*%
X76093000Y-107125000D03*
%TO.P,C12,2*%
%TO.N,GND*%
X76093000Y-108850000D03*
%TD*%
D10*
%TO.P,J7,1,In*%
%TO.N,Net-(J7-In)*%
X67361160Y-106268000D03*
D11*
%TO.P,J7,2,Ext*%
%TO.N,GND*%
X67361160Y-101888000D03*
X67361160Y-110648000D03*
D12*
X70351160Y-101888000D03*
X70351160Y-110648000D03*
D13*
X70801160Y-101888000D03*
X70801160Y-110648000D03*
%TD*%
D10*
%TO.P,J3,1,In*%
%TO.N,Net-(J3-In)*%
X67361160Y-74302000D03*
D11*
%TO.P,J3,2,Ext*%
%TO.N,GND*%
X67361160Y-69922000D03*
X67361160Y-78682000D03*
D12*
X70351160Y-69922000D03*
X70351160Y-78682000D03*
D13*
X70801160Y-69922000D03*
X70801160Y-78682000D03*
%TD*%
D16*
%TO.P,C11,1*%
%TO.N,Net-(J7-In)*%
X75286000Y-100614000D03*
%TO.P,C11,2*%
X77011000Y-100614000D03*
%TD*%
D15*
%TO.P,C14,1*%
%TO.N,Net-(J7-In)*%
X204857000Y-107127000D03*
%TO.P,C14,2*%
%TO.N,GND*%
X204857000Y-108852000D03*
%TD*%
D10*
%TO.P,J10,1,In*%
%TO.N,Net-(J10-In)*%
X213675966Y-122251000D03*
D11*
%TO.P,J10,2,Ext*%
%TO.N,GND*%
X213675966Y-126631000D03*
X213675966Y-117871000D03*
D12*
X210685966Y-126631000D03*
X210685966Y-117871000D03*
D13*
X210235966Y-126631000D03*
X210235966Y-117871000D03*
%TD*%
D14*
%TO.P,C1,1*%
%TO.N,Net-(J1-In)*%
X124047000Y-56354500D03*
%TO.P,C1,2*%
%TO.N,GND*%
X124047000Y-54629500D03*
%TD*%
D15*
%TO.P,C15,1*%
%TO.N,Net-(J10-In)*%
X99275000Y-123841500D03*
%TO.P,C15,2*%
%TO.N,GND*%
X99275000Y-125566500D03*
%TD*%
D10*
%TO.P,J4,1,In*%
%TO.N,Net-(J3-In)*%
X213675966Y-74359000D03*
D11*
%TO.P,J4,2,Ext*%
%TO.N,GND*%
X213675966Y-78739000D03*
X213675966Y-69979000D03*
D12*
X210685966Y-78739000D03*
X210685966Y-69979000D03*
D13*
X210235966Y-78739000D03*
X210235966Y-69979000D03*
%TD*%
D10*
%TO.P,J11,1,In*%
%TO.N,Net-(J11-In)*%
X67361160Y-138234000D03*
D11*
%TO.P,J11,2,Ext*%
%TO.N,GND*%
X67361160Y-133854000D03*
X67361160Y-142614000D03*
D12*
X70351160Y-133854000D03*
X70351160Y-142614000D03*
D13*
X70801160Y-133854000D03*
X70801160Y-142614000D03*
%TD*%
D15*
%TO.P,C10,1*%
%TO.N,Net-(J5-In)*%
X181659000Y-91276000D03*
%TO.P,C10,2*%
%TO.N,GND*%
X181659000Y-93001000D03*
%TD*%
D10*
%TO.P,J6,1,In*%
%TO.N,Net-(J5-In)*%
X213675966Y-90285000D03*
D11*
%TO.P,J6,2,Ext*%
%TO.N,GND*%
X213675966Y-94665000D03*
X213675966Y-85905000D03*
D12*
X210685966Y-94665000D03*
X210685966Y-85905000D03*
D13*
X210235966Y-94665000D03*
X210235966Y-85905000D03*
%TD*%
D15*
%TO.P,C20,1*%
%TO.N,Net-(J10-In)*%
X181368000Y-123881000D03*
%TO.P,C20,2*%
%TO.N,GND*%
X181368000Y-125606000D03*
%TD*%
%TO.P,C17,1*%
%TO.N,Net-(J11-In)*%
X99334000Y-139390000D03*
%TO.P,C17,2*%
%TO.N,GND*%
X99334000Y-141115000D03*
%TD*%
%TO.P,C8,1*%
%TO.N,Net-(J5-In)*%
X99435000Y-91192000D03*
%TO.P,C8,2*%
%TO.N,GND*%
X99435000Y-92917000D03*
%TD*%
%TO.P,C3,1*%
%TO.N,Net-(J3-In)*%
X124096000Y-75140000D03*
%TO.P,C3,2*%
%TO.N,GND*%
X124096000Y-76865000D03*
%TD*%
D10*
%TO.P,J5,1,In*%
%TO.N,Net-(J5-In)*%
X67361160Y-90285000D03*
D11*
%TO.P,J5,2,Ext*%
%TO.N,GND*%
X67361160Y-85905000D03*
X67361160Y-94665000D03*
D12*
X70351160Y-85905000D03*
X70351160Y-94665000D03*
D13*
X70801160Y-85905000D03*
X70801160Y-94665000D03*
%TD*%
D16*
%TO.P,C13,1*%
%TO.N,Net-(J7-In)*%
X204121000Y-100583000D03*
%TO.P,C13,2*%
X205846000Y-100583000D03*
%TD*%
D15*
%TO.P,C4,1*%
%TO.N,Net-(J3-In)*%
X156163000Y-75170000D03*
%TO.P,C4,2*%
%TO.N,GND*%
X156163000Y-76895000D03*
%TD*%
D16*
%TO.P,C5,1*%
%TO.N,Net-(J3-In)*%
X123265600Y-68733100D03*
%TO.P,C5,2*%
X124990600Y-68733100D03*
%TD*%
D10*
%TO.P,J12,1,In*%
%TO.N,Net-(J11-In)*%
X213675966Y-138234000D03*
D11*
%TO.P,J12,2,Ext*%
%TO.N,GND*%
X213675966Y-142614000D03*
X213675966Y-133854000D03*
D12*
X210685966Y-142614000D03*
X210685966Y-133854000D03*
D13*
X210235966Y-142614000D03*
X210235966Y-133854000D03*
%TD*%
D10*
%TO.P,J1,1,In*%
%TO.N,Net-(J1-In)*%
X67361160Y-58319000D03*
D11*
%TO.P,J1,2,Ext*%
%TO.N,GND*%
X67361160Y-53939000D03*
X67361160Y-62699000D03*
D12*
X70351160Y-53939000D03*
X70351160Y-62699000D03*
D13*
X70801160Y-53939000D03*
X70801160Y-62699000D03*
%TD*%
D15*
%TO.P,C19,1*%
%TO.N,Net-(J11-In)*%
X181482000Y-139335000D03*
%TO.P,C19,2*%
%TO.N,GND*%
X181482000Y-141060000D03*
%TD*%
D16*
%TO.P,C6,1*%
%TO.N,Net-(J3-In)*%
X155352000Y-68651000D03*
%TO.P,C6,2*%
X157077000Y-68651000D03*
%TD*%
%TO.P,C7,1*%
%TO.N,Net-(J5-In)*%
X98559000Y-84639000D03*
%TO.P,C7,2*%
X100284000Y-84639000D03*
%TD*%
%TO.P,C9,1*%
%TO.N,Net-(J5-In)*%
X180885500Y-84611000D03*
%TO.P,C9,2*%
X182610500Y-84611000D03*
%TD*%
%TO.P,C16,1*%
%TO.N,Net-(J11-In)*%
X98564000Y-132917000D03*
%TO.P,C16,2*%
X100289000Y-132917000D03*
%TD*%
D10*
%TO.P,J8,1,In*%
%TO.N,Net-(J7-In)*%
X213675966Y-106268000D03*
D11*
%TO.P,J8,2,Ext*%
%TO.N,GND*%
X213675966Y-110648000D03*
X213675966Y-101888000D03*
D12*
X210685966Y-110648000D03*
X210685966Y-101888000D03*
D13*
X210235966Y-110648000D03*
X210235966Y-101888000D03*
%TD*%
D16*
%TO.P,C18,1*%
%TO.N,Net-(J11-In)*%
X180543000Y-132832000D03*
%TO.P,C18,2*%
X182268000Y-132832000D03*
%TD*%
D10*
%TO.P,J9,1,In*%
%TO.N,Net-(J10-In)*%
X67361160Y-122251000D03*
D11*
%TO.P,J9,2,Ext*%
%TO.N,GND*%
X67361160Y-117871000D03*
X67361160Y-126631000D03*
D12*
X70351160Y-117871000D03*
X70351160Y-126631000D03*
D13*
X70801160Y-117871000D03*
X70801160Y-126631000D03*
%TD*%
D17*
%TO.N,GND*%
X156166000Y-137574000D03*
X123754000Y-137538000D03*
X209894000Y-137548000D03*
X94064000Y-137514000D03*
X91064000Y-137514000D03*
X92564000Y-137514000D03*
X95564000Y-137514000D03*
X89564000Y-137514000D03*
X88064000Y-137514000D03*
X86564000Y-137514000D03*
X85064000Y-137514000D03*
X83564000Y-137514000D03*
X82064000Y-137514000D03*
X80564000Y-137514000D03*
X79064000Y-137514000D03*
X77564000Y-137514000D03*
X76064000Y-137514000D03*
X74564000Y-137514000D03*
X73064000Y-137514000D03*
X71564000Y-137514000D03*
X208431000Y-139302000D03*
X206931000Y-139302000D03*
X205431000Y-139302000D03*
X203931000Y-139302000D03*
X202431000Y-139302000D03*
X200931000Y-139302000D03*
X198767000Y-139354000D03*
X197267000Y-139354000D03*
X195767000Y-139354000D03*
X194267000Y-139354000D03*
X192767000Y-139354000D03*
X190431000Y-139302000D03*
X188931000Y-139302000D03*
X187431000Y-139302000D03*
X185931000Y-139302000D03*
X176931000Y-139302000D03*
X175431000Y-139302000D03*
X173931000Y-139302000D03*
X172431000Y-139302000D03*
X170931000Y-139302000D03*
X169431000Y-139302000D03*
X167931000Y-139302000D03*
X166431000Y-139302000D03*
X164931000Y-139302000D03*
X163431000Y-139302000D03*
X161931000Y-139302000D03*
X160431000Y-139302000D03*
X158931000Y-139302000D03*
X157431000Y-139302000D03*
X155931000Y-139302000D03*
X154431000Y-139302000D03*
X152931000Y-139302000D03*
X151431000Y-139302000D03*
X149931000Y-139302000D03*
X148431000Y-139302000D03*
X146931000Y-139302000D03*
X145431000Y-139302000D03*
X143931000Y-139302000D03*
X142431000Y-139302000D03*
X140931000Y-139302000D03*
X139431000Y-139302000D03*
X137931000Y-139302000D03*
X136431000Y-139302000D03*
X134931000Y-139302000D03*
X133431000Y-139302000D03*
X131931000Y-139302000D03*
X130431000Y-139302000D03*
X128931000Y-139302000D03*
X127431000Y-139302000D03*
X125931000Y-139302000D03*
X124431000Y-139302000D03*
X122931000Y-139302000D03*
X121431000Y-139302000D03*
X119931000Y-139302000D03*
X118431000Y-139302000D03*
X116931000Y-139302000D03*
X115431000Y-139302000D03*
X113931000Y-139302000D03*
X112431000Y-139302000D03*
X110931000Y-139302000D03*
X109431000Y-139302000D03*
X107931000Y-139302000D03*
X106431000Y-139302000D03*
X104931000Y-139302000D03*
X103431000Y-139302000D03*
X95351000Y-139322000D03*
X93851000Y-139322000D03*
X92351000Y-139322000D03*
X90851000Y-139322000D03*
X89351000Y-139322000D03*
X86931000Y-139302000D03*
X83931000Y-139302000D03*
X82431000Y-139302000D03*
X80931000Y-139302000D03*
X77931000Y-139302000D03*
X76431000Y-139302000D03*
X71931000Y-139302000D03*
X74931000Y-139302000D03*
X209931000Y-139302000D03*
X73431000Y-139302000D03*
X85431000Y-139302000D03*
X208394000Y-137548000D03*
X206894000Y-137548000D03*
X205394000Y-137548000D03*
X203894000Y-137548000D03*
X202394000Y-137548000D03*
X200894000Y-137548000D03*
X199394000Y-137548000D03*
X197894000Y-137548000D03*
X196394000Y-137548000D03*
X194894000Y-137548000D03*
X193394000Y-137548000D03*
X191894000Y-137548000D03*
X190394000Y-137548000D03*
X188894000Y-137548000D03*
X187394000Y-137548000D03*
X185894000Y-137548000D03*
X176894000Y-137548000D03*
X175394000Y-137548000D03*
X173894000Y-137548000D03*
X172394000Y-137548000D03*
X170894000Y-137548000D03*
X169394000Y-137548000D03*
X167894000Y-137548000D03*
X166394000Y-137548000D03*
X164894000Y-137548000D03*
X163394000Y-137548000D03*
X161894000Y-137548000D03*
X160394000Y-137548000D03*
X158894000Y-137548000D03*
X157394000Y-137548000D03*
X154997000Y-137559000D03*
X153497000Y-137559000D03*
X151997000Y-137559000D03*
X150497000Y-137559000D03*
X148997000Y-137559000D03*
X147497000Y-137559000D03*
X145997000Y-137559000D03*
X144497000Y-137559000D03*
X142997000Y-137559000D03*
X141497000Y-137559000D03*
X139997000Y-137559000D03*
X138497000Y-137559000D03*
X136997000Y-137559000D03*
X135497000Y-137559000D03*
X133997000Y-137559000D03*
X129497000Y-137559000D03*
X127997000Y-137559000D03*
X126497000Y-137559000D03*
X124997000Y-137559000D03*
X122564000Y-137514000D03*
X121064000Y-137514000D03*
X119564000Y-137514000D03*
X118064000Y-137514000D03*
X116564000Y-137514000D03*
X115064000Y-137514000D03*
X113564000Y-137514000D03*
X112064000Y-137514000D03*
X110564000Y-137514000D03*
X109064000Y-137514000D03*
X107564000Y-137514000D03*
X106064000Y-137514000D03*
X104564000Y-137514000D03*
X103064000Y-137514000D03*
X130997000Y-137559000D03*
X132497000Y-137559000D03*
X156151000Y-121403000D03*
X123737000Y-121357000D03*
X209909000Y-121353000D03*
X94079000Y-121319000D03*
X91079000Y-121319000D03*
X92579000Y-121319000D03*
X95579000Y-121319000D03*
X89579000Y-121319000D03*
X88079000Y-121319000D03*
X86579000Y-121319000D03*
X85079000Y-121319000D03*
X83579000Y-121319000D03*
X82079000Y-121319000D03*
X80579000Y-121319000D03*
X79079000Y-121319000D03*
X77579000Y-121319000D03*
X76079000Y-121319000D03*
X74579000Y-121319000D03*
X73079000Y-121319000D03*
X71579000Y-121319000D03*
X98579000Y-121319000D03*
X97079000Y-121319000D03*
X208446000Y-123107000D03*
X206946000Y-123107000D03*
X205446000Y-123107000D03*
X203946000Y-123107000D03*
X202446000Y-123107000D03*
X200946000Y-123107000D03*
X199004000Y-123167000D03*
X197504000Y-123167000D03*
X196004000Y-123167000D03*
X194504000Y-123167000D03*
X193004000Y-123167000D03*
X190446000Y-123107000D03*
X188946000Y-123107000D03*
X187446000Y-123107000D03*
X185946000Y-123107000D03*
X184446000Y-123107000D03*
X182946000Y-123107000D03*
X179946000Y-123107000D03*
X178446000Y-123107000D03*
X176946000Y-123107000D03*
X175446000Y-123107000D03*
X173946000Y-123107000D03*
X172446000Y-123107000D03*
X170946000Y-123107000D03*
X169446000Y-123107000D03*
X167946000Y-123107000D03*
X166446000Y-123107000D03*
X164946000Y-123107000D03*
X163446000Y-123107000D03*
X161946000Y-123107000D03*
X160446000Y-123107000D03*
X158946000Y-123107000D03*
X157446000Y-123107000D03*
X155946000Y-123107000D03*
X154446000Y-123107000D03*
X152946000Y-123107000D03*
X151446000Y-123107000D03*
X149946000Y-123107000D03*
X148446000Y-123107000D03*
X146946000Y-123107000D03*
X145446000Y-123107000D03*
X143946000Y-123107000D03*
X142446000Y-123107000D03*
X140946000Y-123107000D03*
X139446000Y-123107000D03*
X137946000Y-123107000D03*
X136446000Y-123107000D03*
X134946000Y-123107000D03*
X133446000Y-123107000D03*
X131946000Y-123107000D03*
X130446000Y-123107000D03*
X128946000Y-123107000D03*
X127446000Y-123107000D03*
X125946000Y-123107000D03*
X124446000Y-123107000D03*
X122946000Y-123107000D03*
X121446000Y-123107000D03*
X119946000Y-123107000D03*
X118446000Y-123107000D03*
X116946000Y-123107000D03*
X115446000Y-123107000D03*
X113946000Y-123107000D03*
X112446000Y-123107000D03*
X110946000Y-123107000D03*
X109446000Y-123107000D03*
X107946000Y-123107000D03*
X106446000Y-123107000D03*
X104946000Y-123107000D03*
X103446000Y-123107000D03*
X101946000Y-123107000D03*
X100446000Y-123107000D03*
X97973000Y-123142000D03*
X96473000Y-123142000D03*
X94973000Y-123142000D03*
X93473000Y-123142000D03*
X91973000Y-123142000D03*
X90473000Y-123142000D03*
X83826000Y-123131000D03*
X82326000Y-123131000D03*
X77946000Y-123107000D03*
X76446000Y-123107000D03*
X71946000Y-123107000D03*
X74946000Y-123107000D03*
X209946000Y-123107000D03*
X73446000Y-123107000D03*
X85326000Y-123131000D03*
X208409000Y-121353000D03*
X206909000Y-121353000D03*
X205409000Y-121353000D03*
X203909000Y-121353000D03*
X202409000Y-121353000D03*
X200909000Y-121353000D03*
X199409000Y-121353000D03*
X197909000Y-121353000D03*
X196409000Y-121353000D03*
X194909000Y-121353000D03*
X193409000Y-121353000D03*
X191909000Y-121353000D03*
X190409000Y-121353000D03*
X188909000Y-121353000D03*
X187409000Y-121353000D03*
X185909000Y-121353000D03*
X184409000Y-121353000D03*
X182909000Y-121353000D03*
X181409000Y-121353000D03*
X179909000Y-121353000D03*
X178409000Y-121353000D03*
X176909000Y-121353000D03*
X175409000Y-121353000D03*
X173909000Y-121353000D03*
X172409000Y-121353000D03*
X170909000Y-121353000D03*
X169409000Y-121353000D03*
X167909000Y-121353000D03*
X166409000Y-121353000D03*
X164909000Y-121353000D03*
X163409000Y-121353000D03*
X161909000Y-121353000D03*
X160409000Y-121353000D03*
X158909000Y-121353000D03*
X157409000Y-121353000D03*
X155012000Y-121364000D03*
X153512000Y-121364000D03*
X152012000Y-121364000D03*
X150512000Y-121364000D03*
X149012000Y-121364000D03*
X147512000Y-121364000D03*
X146012000Y-121364000D03*
X144512000Y-121364000D03*
X143012000Y-121364000D03*
X141512000Y-121364000D03*
X140012000Y-121364000D03*
X138512000Y-121364000D03*
X137012000Y-121364000D03*
X135512000Y-121364000D03*
X134012000Y-121364000D03*
X132512000Y-121364000D03*
X131012000Y-121364000D03*
X129512000Y-121364000D03*
X128012000Y-121364000D03*
X126512000Y-121364000D03*
X125012000Y-121364000D03*
X122579000Y-121319000D03*
X121079000Y-121319000D03*
X119579000Y-121319000D03*
X118079000Y-121319000D03*
X116579000Y-121319000D03*
X115079000Y-121319000D03*
X113579000Y-121319000D03*
X112079000Y-121319000D03*
X110579000Y-121319000D03*
X109079000Y-121319000D03*
X107579000Y-121319000D03*
X106079000Y-121319000D03*
X104579000Y-121319000D03*
X103079000Y-121319000D03*
X101579000Y-121319000D03*
X100079000Y-121319000D03*
X156149000Y-105286000D03*
X123776000Y-105313000D03*
X156234000Y-89445000D03*
X123822000Y-89409000D03*
X210202000Y-105285000D03*
X94104000Y-105253000D03*
X91104000Y-105253000D03*
X92604000Y-105253000D03*
X95604000Y-105253000D03*
X89604000Y-105253000D03*
X88104000Y-105253000D03*
X86604000Y-105253000D03*
X85104000Y-105253000D03*
X83604000Y-105253000D03*
X82104000Y-105253000D03*
X80604000Y-105253000D03*
X71604000Y-105253000D03*
X98604000Y-105253000D03*
X97104000Y-105253000D03*
X208471000Y-107041000D03*
X200971000Y-107041000D03*
X199471000Y-107041000D03*
X197971000Y-107041000D03*
X196471000Y-107041000D03*
X194971000Y-107041000D03*
X193471000Y-107041000D03*
X191971000Y-107041000D03*
X190471000Y-107041000D03*
X188971000Y-107041000D03*
X187471000Y-107041000D03*
X185971000Y-107041000D03*
X184471000Y-107041000D03*
X182971000Y-107041000D03*
X181471000Y-107041000D03*
X179971000Y-107041000D03*
X178471000Y-107041000D03*
X176971000Y-107041000D03*
X175471000Y-107041000D03*
X173971000Y-107041000D03*
X172471000Y-107041000D03*
X170971000Y-107041000D03*
X169471000Y-107041000D03*
X167971000Y-107041000D03*
X166471000Y-107041000D03*
X164971000Y-107041000D03*
X163471000Y-107041000D03*
X161971000Y-107041000D03*
X160471000Y-107041000D03*
X158971000Y-107041000D03*
X157471000Y-107041000D03*
X155971000Y-107041000D03*
X154471000Y-107041000D03*
X152971000Y-107041000D03*
X151471000Y-107041000D03*
X149971000Y-107041000D03*
X148471000Y-107041000D03*
X146971000Y-107041000D03*
X145471000Y-107041000D03*
X143971000Y-107041000D03*
X142471000Y-107041000D03*
X140971000Y-107041000D03*
X139471000Y-107041000D03*
X137971000Y-107041000D03*
X136471000Y-107041000D03*
X134971000Y-107041000D03*
X133471000Y-107041000D03*
X131971000Y-107041000D03*
X130471000Y-107041000D03*
X128971000Y-107041000D03*
X127471000Y-107041000D03*
X125971000Y-107041000D03*
X124471000Y-107041000D03*
X122971000Y-107041000D03*
X121471000Y-107041000D03*
X119971000Y-107041000D03*
X118471000Y-107041000D03*
X116971000Y-107041000D03*
X115471000Y-107041000D03*
X113971000Y-107041000D03*
X112471000Y-107041000D03*
X110971000Y-107041000D03*
X109471000Y-107041000D03*
X107971000Y-107041000D03*
X106471000Y-107041000D03*
X104971000Y-107041000D03*
X103471000Y-107041000D03*
X101971000Y-107041000D03*
X100471000Y-107041000D03*
X98971000Y-107041000D03*
X97471000Y-107041000D03*
X95971000Y-107041000D03*
X94471000Y-107041000D03*
X92971000Y-107041000D03*
X91471000Y-107041000D03*
X89971000Y-107041000D03*
X88471000Y-107041000D03*
X86971000Y-107041000D03*
X83971000Y-107041000D03*
X82471000Y-107041000D03*
X80971000Y-107041000D03*
X71971000Y-107041000D03*
X209971000Y-107041000D03*
X85471000Y-107041000D03*
X208702000Y-105285000D03*
X200934000Y-105287000D03*
X199434000Y-105287000D03*
X197934000Y-105287000D03*
X196434000Y-105287000D03*
X194934000Y-105287000D03*
X193434000Y-105287000D03*
X191934000Y-105287000D03*
X190434000Y-105287000D03*
X188934000Y-105287000D03*
X187434000Y-105287000D03*
X185934000Y-105287000D03*
X184434000Y-105287000D03*
X182934000Y-105287000D03*
X181434000Y-105287000D03*
X179934000Y-105287000D03*
X178434000Y-105287000D03*
X176934000Y-105287000D03*
X175434000Y-105287000D03*
X173934000Y-105287000D03*
X172434000Y-105287000D03*
X170934000Y-105287000D03*
X169434000Y-105287000D03*
X167934000Y-105287000D03*
X166434000Y-105287000D03*
X164934000Y-105287000D03*
X163434000Y-105287000D03*
X161934000Y-105287000D03*
X160434000Y-105287000D03*
X158934000Y-105287000D03*
X157434000Y-105287000D03*
X155037000Y-105298000D03*
X153537000Y-105298000D03*
X152037000Y-105298000D03*
X150537000Y-105298000D03*
X149037000Y-105298000D03*
X147537000Y-105298000D03*
X146037000Y-105298000D03*
X144537000Y-105298000D03*
X143037000Y-105298000D03*
X141537000Y-105298000D03*
X140037000Y-105298000D03*
X138537000Y-105298000D03*
X137037000Y-105298000D03*
X135537000Y-105298000D03*
X134037000Y-105298000D03*
X132537000Y-105298000D03*
X131037000Y-105298000D03*
X129537000Y-105298000D03*
X128037000Y-105298000D03*
X126537000Y-105298000D03*
X125037000Y-105298000D03*
X122604000Y-105253000D03*
X121104000Y-105253000D03*
X119604000Y-105253000D03*
X118104000Y-105253000D03*
X116604000Y-105253000D03*
X115104000Y-105253000D03*
X113604000Y-105253000D03*
X112104000Y-105253000D03*
X110604000Y-105253000D03*
X109104000Y-105253000D03*
X107604000Y-105253000D03*
X106104000Y-105253000D03*
X104604000Y-105253000D03*
X103104000Y-105253000D03*
X101604000Y-105253000D03*
X100104000Y-105253000D03*
X209962000Y-89419000D03*
X94132000Y-89385000D03*
X91132000Y-89385000D03*
X92632000Y-89385000D03*
X95632000Y-89385000D03*
X89632000Y-89385000D03*
X88132000Y-89385000D03*
X86632000Y-89385000D03*
X85132000Y-89385000D03*
X83632000Y-89385000D03*
X82132000Y-89385000D03*
X80632000Y-89385000D03*
X79132000Y-89385000D03*
X77632000Y-89385000D03*
X76132000Y-89385000D03*
X74632000Y-89385000D03*
X73132000Y-89385000D03*
X71632000Y-89385000D03*
X208499000Y-91173000D03*
X206999000Y-91173000D03*
X205499000Y-91173000D03*
X203999000Y-91173000D03*
X202499000Y-91173000D03*
X200999000Y-91173000D03*
X199499000Y-91173000D03*
X197999000Y-91173000D03*
X196499000Y-91173000D03*
X194999000Y-91173000D03*
X193499000Y-91173000D03*
X191999000Y-91173000D03*
X190499000Y-91173000D03*
X188999000Y-91173000D03*
X187499000Y-91173000D03*
X185999000Y-91173000D03*
X178499000Y-91173000D03*
X176999000Y-91173000D03*
X175499000Y-91173000D03*
X173999000Y-91173000D03*
X172499000Y-91173000D03*
X170999000Y-91173000D03*
X169499000Y-91173000D03*
X167999000Y-91173000D03*
X166499000Y-91173000D03*
X164999000Y-91173000D03*
X163499000Y-91173000D03*
X161999000Y-91173000D03*
X160499000Y-91173000D03*
X158999000Y-91173000D03*
X157499000Y-91173000D03*
X155999000Y-91173000D03*
X154499000Y-91173000D03*
X152999000Y-91173000D03*
X151499000Y-91173000D03*
X149999000Y-91173000D03*
X148499000Y-91173000D03*
X146999000Y-91173000D03*
X145499000Y-91173000D03*
X143999000Y-91173000D03*
X142499000Y-91173000D03*
X140999000Y-91173000D03*
X139499000Y-91173000D03*
X137999000Y-91173000D03*
X136499000Y-91173000D03*
X134999000Y-91173000D03*
X133499000Y-91173000D03*
X131999000Y-91173000D03*
X130499000Y-91173000D03*
X128999000Y-91173000D03*
X127499000Y-91173000D03*
X125999000Y-91173000D03*
X124499000Y-91173000D03*
X122999000Y-91173000D03*
X121499000Y-91173000D03*
X119999000Y-91173000D03*
X118499000Y-91173000D03*
X116999000Y-91173000D03*
X115499000Y-91173000D03*
X113999000Y-91173000D03*
X112499000Y-91173000D03*
X110999000Y-91173000D03*
X109499000Y-91173000D03*
X107999000Y-91173000D03*
X106499000Y-91173000D03*
X104999000Y-91173000D03*
X103499000Y-91173000D03*
X95999000Y-91173000D03*
X94499000Y-91173000D03*
X92999000Y-91173000D03*
X91499000Y-91173000D03*
X89999000Y-91173000D03*
X88499000Y-91173000D03*
X86999000Y-91173000D03*
X83999000Y-91173000D03*
X82499000Y-91173000D03*
X80999000Y-91173000D03*
X79499000Y-91173000D03*
X77999000Y-91173000D03*
X76499000Y-91173000D03*
X71999000Y-91173000D03*
X74999000Y-91173000D03*
X209999000Y-91173000D03*
X73499000Y-91173000D03*
X85499000Y-91173000D03*
X208462000Y-89419000D03*
X206962000Y-89419000D03*
X205462000Y-89419000D03*
X203962000Y-89419000D03*
X202462000Y-89419000D03*
X200962000Y-89419000D03*
X199462000Y-89419000D03*
X197962000Y-89419000D03*
X196462000Y-89419000D03*
X194962000Y-89419000D03*
X193462000Y-89419000D03*
X191962000Y-89419000D03*
X190462000Y-89419000D03*
X188962000Y-89419000D03*
X187462000Y-89419000D03*
X185962000Y-89419000D03*
X176962000Y-89419000D03*
X175462000Y-89419000D03*
X173962000Y-89419000D03*
X172462000Y-89419000D03*
X170962000Y-89419000D03*
X169462000Y-89419000D03*
X167962000Y-89419000D03*
X166462000Y-89419000D03*
X164962000Y-89419000D03*
X163462000Y-89419000D03*
X161962000Y-89419000D03*
X160462000Y-89419000D03*
X158962000Y-89419000D03*
X157462000Y-89419000D03*
X155065000Y-89430000D03*
X153565000Y-89430000D03*
X152065000Y-89430000D03*
X150565000Y-89430000D03*
X149065000Y-89430000D03*
X147565000Y-89430000D03*
X146065000Y-89430000D03*
X144565000Y-89430000D03*
X143065000Y-89430000D03*
X141565000Y-89430000D03*
X140065000Y-89430000D03*
X138565000Y-89430000D03*
X137065000Y-89430000D03*
X135565000Y-89430000D03*
X134065000Y-89430000D03*
X132565000Y-89430000D03*
X131065000Y-89430000D03*
X129565000Y-89430000D03*
X128065000Y-89430000D03*
X126565000Y-89430000D03*
X125065000Y-89430000D03*
X122632000Y-89385000D03*
X121132000Y-89385000D03*
X119632000Y-89385000D03*
X118132000Y-89385000D03*
X116632000Y-89385000D03*
X115132000Y-89385000D03*
X113632000Y-89385000D03*
X112132000Y-89385000D03*
X110632000Y-89385000D03*
X109132000Y-89385000D03*
X107632000Y-89385000D03*
X106132000Y-89385000D03*
X104632000Y-89385000D03*
X103132000Y-89385000D03*
X209859000Y-73486000D03*
X94029000Y-73452000D03*
X91029000Y-73452000D03*
X92529000Y-73452000D03*
X95529000Y-73452000D03*
X89529000Y-73452000D03*
X88029000Y-73452000D03*
X86529000Y-73452000D03*
X85029000Y-73452000D03*
X83529000Y-73452000D03*
X82029000Y-73452000D03*
X80529000Y-73452000D03*
X79029000Y-73452000D03*
X77529000Y-73452000D03*
X76029000Y-73452000D03*
X74529000Y-73452000D03*
X73029000Y-73452000D03*
X71529000Y-73452000D03*
X98529000Y-73452000D03*
X97029000Y-73452000D03*
X208396000Y-75240000D03*
X206896000Y-75240000D03*
X205396000Y-75240000D03*
X203896000Y-75240000D03*
X202396000Y-75240000D03*
X200896000Y-75240000D03*
X199396000Y-75240000D03*
X197896000Y-75240000D03*
X196396000Y-75240000D03*
X194896000Y-75240000D03*
X193396000Y-75240000D03*
X191896000Y-75240000D03*
X190396000Y-75240000D03*
X188896000Y-75240000D03*
X187396000Y-75240000D03*
X185896000Y-75240000D03*
X184396000Y-75240000D03*
X182896000Y-75240000D03*
X181396000Y-75240000D03*
X179896000Y-75240000D03*
X178396000Y-75240000D03*
X176896000Y-75240000D03*
X175396000Y-75240000D03*
X173896000Y-75240000D03*
X172396000Y-75240000D03*
X170896000Y-75240000D03*
X169396000Y-75240000D03*
X167896000Y-75240000D03*
X166396000Y-75240000D03*
X164896000Y-75240000D03*
X163396000Y-75240000D03*
X161896000Y-75240000D03*
X160396000Y-75240000D03*
X152896000Y-75240000D03*
X151396000Y-75240000D03*
X149896000Y-75240000D03*
X148396000Y-75240000D03*
X146896000Y-75240000D03*
X145396000Y-75240000D03*
X143896000Y-75240000D03*
X142396000Y-75240000D03*
X140896000Y-75240000D03*
X139396000Y-75240000D03*
X137896000Y-75240000D03*
X136396000Y-75240000D03*
X134896000Y-75240000D03*
X133396000Y-75240000D03*
X131896000Y-75240000D03*
X130396000Y-75240000D03*
X128896000Y-75240000D03*
X119896000Y-75240000D03*
X118396000Y-75240000D03*
X116896000Y-75240000D03*
X115396000Y-75240000D03*
X113896000Y-75240000D03*
X112396000Y-75240000D03*
X110896000Y-75240000D03*
X109396000Y-75240000D03*
X107896000Y-75240000D03*
X106396000Y-75240000D03*
X104896000Y-75240000D03*
X103396000Y-75240000D03*
X101896000Y-75240000D03*
X100396000Y-75240000D03*
X98896000Y-75240000D03*
X97396000Y-75240000D03*
X95896000Y-75240000D03*
X94396000Y-75240000D03*
X92896000Y-75240000D03*
X91396000Y-75240000D03*
X89896000Y-75240000D03*
X88396000Y-75240000D03*
X86896000Y-75240000D03*
X83896000Y-75240000D03*
X82396000Y-75240000D03*
X80896000Y-75240000D03*
X79396000Y-75240000D03*
X77896000Y-75240000D03*
X76396000Y-75240000D03*
X71896000Y-75240000D03*
X74896000Y-75240000D03*
X209896000Y-75240000D03*
X73396000Y-75240000D03*
X85396000Y-75240000D03*
X208359000Y-73486000D03*
X206859000Y-73486000D03*
X205359000Y-73486000D03*
X203859000Y-73486000D03*
X202359000Y-73486000D03*
X200859000Y-73486000D03*
X199359000Y-73486000D03*
X197859000Y-73486000D03*
X196359000Y-73486000D03*
X194859000Y-73486000D03*
X193359000Y-73486000D03*
X191859000Y-73486000D03*
X190359000Y-73486000D03*
X188859000Y-73486000D03*
X187359000Y-73486000D03*
X185859000Y-73486000D03*
X184359000Y-73486000D03*
X182859000Y-73486000D03*
X181359000Y-73486000D03*
X179859000Y-73486000D03*
X178359000Y-73486000D03*
X176859000Y-73486000D03*
X175359000Y-73486000D03*
X173859000Y-73486000D03*
X172359000Y-73486000D03*
X170859000Y-73486000D03*
X169359000Y-73486000D03*
X167859000Y-73486000D03*
X166359000Y-73486000D03*
X164859000Y-73486000D03*
X163359000Y-73486000D03*
X161859000Y-73486000D03*
X160359000Y-73486000D03*
X151962000Y-73497000D03*
X150462000Y-73497000D03*
X148962000Y-73497000D03*
X147462000Y-73497000D03*
X145962000Y-73497000D03*
X144462000Y-73497000D03*
X142962000Y-73497000D03*
X141462000Y-73497000D03*
X139962000Y-73497000D03*
X138462000Y-73497000D03*
X136962000Y-73497000D03*
X135462000Y-73497000D03*
X133962000Y-73497000D03*
X132462000Y-73497000D03*
X130962000Y-73497000D03*
X129462000Y-73497000D03*
X127962000Y-73497000D03*
X119529000Y-73452000D03*
X118029000Y-73452000D03*
X116529000Y-73452000D03*
X115029000Y-73452000D03*
X113529000Y-73452000D03*
X112029000Y-73452000D03*
X110529000Y-73452000D03*
X109029000Y-73452000D03*
X107529000Y-73452000D03*
X106029000Y-73452000D03*
X104529000Y-73452000D03*
X103029000Y-73452000D03*
X101529000Y-73452000D03*
X100029000Y-73452000D03*
X208469000Y-59303000D03*
X206969000Y-59303000D03*
X205469000Y-59303000D03*
X203969000Y-59303000D03*
X202469000Y-59303000D03*
X200969000Y-59303000D03*
X199469000Y-59303000D03*
X197969000Y-59303000D03*
X196469000Y-59303000D03*
X194969000Y-59303000D03*
X193469000Y-59303000D03*
X191969000Y-59303000D03*
X190469000Y-59303000D03*
X188969000Y-59303000D03*
X187469000Y-59303000D03*
X185969000Y-59303000D03*
X184469000Y-59303000D03*
X182969000Y-59303000D03*
X181469000Y-59303000D03*
X179969000Y-59303000D03*
X178469000Y-59303000D03*
X176969000Y-59303000D03*
X175469000Y-59303000D03*
X173969000Y-59303000D03*
X172469000Y-59303000D03*
X170969000Y-59303000D03*
X169469000Y-59303000D03*
X167969000Y-59303000D03*
X166469000Y-59303000D03*
X164969000Y-59303000D03*
X163469000Y-59303000D03*
X161969000Y-59303000D03*
X160469000Y-59303000D03*
X158969000Y-59303000D03*
X157469000Y-59303000D03*
X155969000Y-59303000D03*
X154469000Y-59303000D03*
X152969000Y-59303000D03*
X151469000Y-59303000D03*
X149969000Y-59303000D03*
X148469000Y-59303000D03*
X146969000Y-59303000D03*
X145469000Y-59303000D03*
X143969000Y-59303000D03*
X142469000Y-59303000D03*
X140969000Y-59303000D03*
X139469000Y-59303000D03*
X137969000Y-59303000D03*
X136469000Y-59303000D03*
X134969000Y-59303000D03*
X133469000Y-59303000D03*
X131969000Y-59303000D03*
X130469000Y-59303000D03*
X128969000Y-59303000D03*
X127469000Y-59303000D03*
X125969000Y-59303000D03*
X124469000Y-59303000D03*
X122969000Y-59303000D03*
X121469000Y-59303000D03*
X119969000Y-59303000D03*
X118469000Y-59303000D03*
X116969000Y-59303000D03*
X115469000Y-59303000D03*
X113969000Y-59303000D03*
X112469000Y-59303000D03*
X110969000Y-59303000D03*
X109469000Y-59303000D03*
X107969000Y-59303000D03*
X106469000Y-59303000D03*
X104969000Y-59303000D03*
X103469000Y-59303000D03*
X101969000Y-59303000D03*
X100469000Y-59303000D03*
X98969000Y-59303000D03*
X97469000Y-59303000D03*
X95969000Y-59303000D03*
X94469000Y-59303000D03*
X92969000Y-59303000D03*
X91469000Y-59303000D03*
X89969000Y-59303000D03*
X88469000Y-59303000D03*
X86969000Y-59303000D03*
X85469000Y-59303000D03*
X83969000Y-59303000D03*
X82469000Y-59303000D03*
X80969000Y-59303000D03*
X79469000Y-59303000D03*
X77969000Y-59303000D03*
X76469000Y-59303000D03*
X74969000Y-59303000D03*
X73469000Y-59303000D03*
X71969000Y-59303000D03*
X209969000Y-59303000D03*
X100102000Y-57515000D03*
X101602000Y-57515000D03*
X103102000Y-57515000D03*
X104602000Y-57515000D03*
X106102000Y-57515000D03*
X107602000Y-57515000D03*
X109102000Y-57515000D03*
X110602000Y-57515000D03*
X112102000Y-57515000D03*
X113602000Y-57515000D03*
X115102000Y-57515000D03*
X116602000Y-57515000D03*
X118102000Y-57515000D03*
X119602000Y-57515000D03*
X121102000Y-57515000D03*
X122602000Y-57515000D03*
X97102000Y-57515000D03*
X98602000Y-57515000D03*
X71602000Y-57515000D03*
X73102000Y-57515000D03*
X74602000Y-57515000D03*
X76102000Y-57515000D03*
X77602000Y-57515000D03*
X79102000Y-57515000D03*
X80602000Y-57515000D03*
X82102000Y-57515000D03*
X83602000Y-57515000D03*
X85102000Y-57515000D03*
X86602000Y-57515000D03*
X88102000Y-57515000D03*
X89602000Y-57515000D03*
X95602000Y-57515000D03*
X92602000Y-57515000D03*
X91102000Y-57515000D03*
X94102000Y-57515000D03*
X125035000Y-57560000D03*
X126535000Y-57560000D03*
X128035000Y-57560000D03*
X129535000Y-57560000D03*
X131035000Y-57560000D03*
X132535000Y-57560000D03*
X134035000Y-57560000D03*
X135535000Y-57560000D03*
X137035000Y-57560000D03*
X138535000Y-57560000D03*
X140035000Y-57560000D03*
X141535000Y-57560000D03*
X143035000Y-57560000D03*
X144535000Y-57560000D03*
X146035000Y-57560000D03*
X147535000Y-57560000D03*
X149035000Y-57560000D03*
X150535000Y-57560000D03*
X152035000Y-57560000D03*
X153535000Y-57560000D03*
X157432000Y-57549000D03*
X158932000Y-57549000D03*
X160432000Y-57549000D03*
X161932000Y-57549000D03*
X163432000Y-57549000D03*
X164932000Y-57549000D03*
X166432000Y-57549000D03*
X167932000Y-57549000D03*
X169432000Y-57549000D03*
X170932000Y-57549000D03*
X172432000Y-57549000D03*
X173932000Y-57549000D03*
X175432000Y-57549000D03*
X176932000Y-57549000D03*
X178432000Y-57549000D03*
X179932000Y-57549000D03*
X181432000Y-57549000D03*
X182932000Y-57549000D03*
X184432000Y-57549000D03*
X185932000Y-57549000D03*
X187432000Y-57549000D03*
X188932000Y-57549000D03*
X190432000Y-57549000D03*
X191932000Y-57549000D03*
X193432000Y-57549000D03*
X194932000Y-57549000D03*
X196432000Y-57549000D03*
X197932000Y-57549000D03*
X199432000Y-57549000D03*
X200932000Y-57549000D03*
X202432000Y-57549000D03*
X203932000Y-57549000D03*
X205432000Y-57549000D03*
X206932000Y-57549000D03*
X208432000Y-57549000D03*
X209932000Y-57549000D03*
X125218000Y-54613000D03*
X206160000Y-108849000D03*
X157492000Y-76861000D03*
X182899000Y-141049000D03*
X100578000Y-125579000D03*
X100818000Y-92895000D03*
X157482000Y-54608000D03*
X125266000Y-76870000D03*
X183066000Y-92975000D03*
X77372000Y-108844000D03*
X100800000Y-141072000D03*
X182756000Y-125603000D03*
D18*
%TO.N,Net-(J3-In)*%
X154959400Y-73880500D03*
X154959400Y-72387400D03*
X124718000Y-70509300D03*
X157416400Y-73880500D03*
X123569000Y-71069500D03*
X157416400Y-72387400D03*
X155676000Y-71090000D03*
X122852400Y-73860000D03*
X125309400Y-72366900D03*
X156825000Y-70529800D03*
X125309400Y-73860000D03*
X122852400Y-72366900D03*
%TO.N,Net-(J5-In)*%
X100640400Y-89859500D03*
X100049000Y-86508800D03*
X181131000Y-87038500D03*
X98183400Y-89859500D03*
X180414400Y-89829000D03*
X182280000Y-86478300D03*
X182871400Y-88335900D03*
X98900000Y-87069000D03*
X182871400Y-89829000D03*
X100640400Y-88366400D03*
X180414400Y-88335900D03*
X98183400Y-88366400D03*
%TO.N,Net-(J7-In)*%
X203651400Y-104323400D03*
X77311400Y-105792500D03*
X77311400Y-104299400D03*
X74854400Y-105792500D03*
X203651400Y-105816500D03*
X206108400Y-104323400D03*
X75571000Y-103002000D03*
X206108400Y-105816500D03*
X74854400Y-104299400D03*
X205517000Y-102465800D03*
X76720000Y-102441800D03*
X204368000Y-103026000D03*
D17*
%TO.N,Net-(J10-In)*%
X79936000Y-123915000D03*
X191930000Y-123965000D03*
X199821000Y-123965000D03*
X87827000Y-123915000D03*
D18*
%TO.N,Net-(J11-In)*%
X98090400Y-138070500D03*
X99956000Y-134719800D03*
D17*
X191736000Y-140127000D03*
X87831000Y-140197000D03*
D18*
X182699400Y-138035500D03*
X100547400Y-136577400D03*
X98090400Y-136577400D03*
D17*
X199627000Y-140127000D03*
D18*
X182108000Y-134684800D03*
D17*
X79940000Y-140197000D03*
D18*
X98807000Y-135280000D03*
X180242400Y-136542400D03*
X180959000Y-135245000D03*
X100547400Y-138070500D03*
X180242400Y-138035500D03*
X182699400Y-136542400D03*
D17*
%TO.N,GND*%
X155035000Y-57560000D03*
X88973000Y-123142000D03*
X86826000Y-123131000D03*
X80826000Y-123131000D03*
%TD*%
D19*
%TO.N,Net-(J11-In)*%
X124009000Y-138315000D02*
X124006000Y-138318000D01*
%TO.N,Net-(J7-In)*%
X124049000Y-106054000D02*
X124046000Y-106057000D01*
%TO.N,Net-(J5-In)*%
X124077000Y-90186000D02*
X124074000Y-90189000D01*
%TO.N,Net-(J3-In)*%
X123974000Y-74253000D02*
X123971000Y-74256000D01*
D20*
%TO.N,Net-(J1-In)*%
X67361160Y-58319000D02*
X213675966Y-58319000D01*
D19*
X124047000Y-58316000D02*
X124044000Y-58319000D01*
D20*
X124047000Y-56354500D02*
X124047000Y-58316000D01*
X156323000Y-56356000D02*
X156323000Y-58336500D01*
D19*
%TO.N,GND*%
X206157000Y-108852000D02*
X206160000Y-108849000D01*
X181659000Y-93001000D02*
X183040000Y-93001000D01*
X182753000Y-125606000D02*
X182756000Y-125603000D01*
X99275000Y-125566500D02*
X100565500Y-125566500D01*
X156163000Y-76895000D02*
X157458000Y-76895000D01*
X100565500Y-125566500D02*
X100578000Y-125579000D01*
X99334000Y-141115000D02*
X100757000Y-141115000D01*
X183040000Y-93001000D02*
X183066000Y-92975000D01*
X181368000Y-125606000D02*
X182753000Y-125606000D01*
X99435000Y-92917000D02*
X100796000Y-92917000D01*
X181482000Y-141060000D02*
X182888000Y-141060000D01*
X125201500Y-54629500D02*
X125218000Y-54613000D01*
X124096000Y-76865000D02*
X125261000Y-76865000D01*
X157459000Y-54631000D02*
X157482000Y-54608000D01*
X77366000Y-108850000D02*
X77372000Y-108844000D01*
X156323000Y-54631000D02*
X157459000Y-54631000D01*
X204857000Y-108852000D02*
X206157000Y-108852000D01*
X124047000Y-54629500D02*
X125201500Y-54629500D01*
X100757000Y-141115000D02*
X100800000Y-141072000D01*
X100796000Y-92917000D02*
X100818000Y-92895000D01*
X125261000Y-76865000D02*
X125266000Y-76870000D01*
X76093000Y-108850000D02*
X77366000Y-108850000D01*
X157458000Y-76895000D02*
X157492000Y-76861000D01*
X182888000Y-141060000D02*
X182899000Y-141049000D01*
D20*
%TO.N,Net-(J3-In)*%
X122806400Y-74332000D02*
X121392500Y-74332000D01*
X156825000Y-70529800D02*
X157883800Y-70529800D01*
X154913400Y-74352500D02*
X153499500Y-74352500D01*
X124718000Y-70509300D02*
X125776800Y-70509300D01*
D19*
X121346000Y-74378500D02*
X121290000Y-74322500D01*
X213637000Y-74302000D02*
X213694000Y-74359000D01*
D20*
X121290000Y-69069500D02*
X121290000Y-74322500D01*
D19*
X157416400Y-71095900D02*
X157410500Y-71090000D01*
D20*
X159064000Y-68725000D02*
X159064000Y-74299000D01*
D19*
X156184000Y-74385400D02*
X156189400Y-74380000D01*
D20*
X123850300Y-70509300D02*
X124410500Y-71069500D01*
X153752000Y-68735000D02*
X153397000Y-69090000D01*
D19*
X159054000Y-68735000D02*
X159064000Y-68725000D01*
D20*
X125332400Y-74289000D02*
X126814500Y-74289000D01*
X157416400Y-73880500D02*
X157416400Y-74286500D01*
X122347600Y-70509300D02*
X123383700Y-70509300D01*
X67351000Y-74302000D02*
X121269500Y-74302000D01*
X155388000Y-68735000D02*
X153752000Y-68735000D01*
X154959400Y-72387400D02*
X154965000Y-72381800D01*
X213694000Y-74359000D02*
X159108000Y-74359000D01*
X125309400Y-73860000D02*
X125309400Y-74266000D01*
X153397000Y-69090000D02*
X153397000Y-74343000D01*
X122858000Y-72361300D02*
X122858000Y-71088000D01*
X125871200Y-72909900D02*
X125853200Y-72927900D01*
X122308600Y-70549300D02*
X122347600Y-70510300D01*
X157883800Y-70530800D02*
X157978200Y-70625200D01*
D21*
X159064000Y-74299000D02*
X159087500Y-74322500D01*
D20*
X156517500Y-71090000D02*
X157410500Y-71090000D01*
X125853200Y-72927900D02*
X122308600Y-72927900D01*
X123281000Y-68714500D02*
X121645000Y-68714500D01*
X156184000Y-75141500D02*
X156184000Y-74385400D01*
D19*
X153376500Y-74322500D02*
X153397000Y-74343000D01*
D20*
X122291600Y-72927900D02*
X122291600Y-70549300D01*
X157416400Y-72387400D02*
X157416400Y-71095900D01*
D19*
X159011000Y-74399000D02*
X159087500Y-74322500D01*
D20*
X125871200Y-70604700D02*
X125871200Y-72909900D01*
D19*
X126947000Y-68714500D02*
X126957000Y-68704500D01*
D21*
X126957000Y-74278500D02*
X126980500Y-74302000D01*
D20*
X124410500Y-71069500D02*
X125303500Y-71069500D01*
D19*
X126904000Y-74378500D02*
X126980500Y-74302000D01*
D20*
X157978200Y-72930400D02*
X157960200Y-72948400D01*
D21*
X156203000Y-75160500D02*
X156184000Y-75141500D01*
D19*
X125309400Y-71075400D02*
X125303500Y-71069500D01*
D20*
X154454600Y-70529800D02*
X155957300Y-70529800D01*
X125776800Y-70510300D02*
X125871200Y-70604700D01*
D21*
X124096000Y-75140000D02*
X124077000Y-75121000D01*
D20*
X156189400Y-74380000D02*
X156189400Y-73124400D01*
X121645000Y-68714500D02*
X121290000Y-69069500D01*
X157113000Y-68735000D02*
X159054000Y-68735000D01*
X124077000Y-75121000D02*
X124077000Y-74364900D01*
X157439400Y-74309500D02*
X158921500Y-74309500D01*
X154398600Y-72948400D02*
X154398600Y-70569800D01*
X154983500Y-71090000D02*
X155676000Y-71090000D01*
X123383700Y-70509300D02*
X123850300Y-70509300D01*
X126980500Y-74302000D02*
X153286600Y-74302000D01*
X125309400Y-72366900D02*
X125309400Y-71075400D01*
X122852400Y-72366900D02*
X122858000Y-72361300D01*
X122876500Y-71069500D02*
X123569000Y-71069500D01*
X125006000Y-68714500D02*
X126947000Y-68714500D01*
D21*
X122852400Y-74286000D02*
X122806400Y-74332000D01*
D20*
X124082400Y-74359500D02*
X124082400Y-73103900D01*
X122852400Y-73860000D02*
X122852400Y-74286000D01*
X154959400Y-73880500D02*
X154959400Y-74306500D01*
X154965000Y-72381800D02*
X154965000Y-71108500D01*
X157960200Y-72948400D02*
X154415600Y-72948400D01*
D19*
X121269500Y-74302000D02*
X121290000Y-74322500D01*
D20*
X126957000Y-68704500D02*
X126957000Y-74278500D01*
X157978200Y-70625200D02*
X157978200Y-72930400D01*
D19*
X124077000Y-74364900D02*
X124082400Y-74359500D01*
X153453000Y-74399000D02*
X153397000Y-74343000D01*
D20*
X155957300Y-70529800D02*
X156517500Y-71090000D01*
%TO.N,Net-(J5-In)*%
X179853600Y-86534300D02*
X179909600Y-86478300D01*
X180414400Y-89829000D02*
X180414400Y-90255000D01*
D21*
X99427000Y-91139500D02*
X99408000Y-91120500D01*
X181644400Y-90328500D02*
X181644400Y-89072900D01*
D20*
X98612000Y-84714000D02*
X96976000Y-84714000D01*
D19*
X99408000Y-90364400D02*
X99413400Y-90359000D01*
D20*
X99741500Y-87069000D02*
X100634500Y-87069000D01*
X96621000Y-85069000D02*
X96621000Y-90322000D01*
X180945700Y-86478300D02*
X181412300Y-86478300D01*
X180843000Y-84683500D02*
X179207000Y-84683500D01*
X213694000Y-90285000D02*
X184448400Y-90285000D01*
X100640400Y-88366400D02*
X100640400Y-87074900D01*
X178852000Y-85038500D02*
X178852000Y-90291500D01*
X99408000Y-91120500D02*
X99408000Y-90364400D01*
X182871400Y-88335900D02*
X182871400Y-87044400D01*
X184519000Y-84673500D02*
X184519000Y-90247500D01*
X181412300Y-86478300D02*
X181972500Y-87038500D01*
X182894400Y-90258000D02*
X184376500Y-90258000D01*
X179853600Y-88896900D02*
X179853600Y-86534300D01*
X183433200Y-86572700D02*
X183433200Y-88878900D01*
X179909600Y-86478300D02*
X180945700Y-86478300D01*
X96976000Y-84714000D02*
X96621000Y-85069000D01*
X180368400Y-90301000D02*
X178954500Y-90301000D01*
X180414400Y-88335900D02*
X180420000Y-88330300D01*
X99181300Y-86508800D02*
X99741500Y-87069000D01*
X98137400Y-90331500D02*
X96723500Y-90331500D01*
X98183400Y-89859500D02*
X98183400Y-90285500D01*
X67351000Y-90285000D02*
X96604000Y-90285000D01*
D19*
X178908000Y-90347500D02*
X178852000Y-90291500D01*
X96677000Y-90378000D02*
X96621000Y-90322000D01*
D20*
X100049000Y-86508800D02*
X101107800Y-86508800D01*
X180420000Y-88330300D02*
X180420000Y-87057000D01*
X182280000Y-86478300D02*
X183338800Y-86478300D01*
X97678600Y-86508800D02*
X98714700Y-86508800D01*
X181972500Y-87038500D02*
X182865500Y-87038500D01*
D19*
X184509000Y-84683500D02*
X184519000Y-84673500D01*
D20*
X178712600Y-90213200D02*
X102345800Y-90213200D01*
X101202200Y-88909400D02*
X101184200Y-88927400D01*
X100663400Y-90288500D02*
X102145500Y-90288500D01*
X182568000Y-84683500D02*
X184509000Y-84683500D01*
D19*
X96600500Y-90301500D02*
X96621000Y-90322000D01*
D20*
X183433200Y-88878900D02*
X183415200Y-88896900D01*
X102288000Y-84704000D02*
X102288000Y-90278000D01*
D19*
X182871400Y-87044400D02*
X182865500Y-87038500D01*
D20*
X101202200Y-86603200D02*
X101202200Y-88909400D01*
D19*
X181639000Y-90333900D02*
X181644400Y-90328500D01*
D20*
X183415200Y-88896900D02*
X179870600Y-88896900D01*
X101107800Y-86508800D02*
X101202200Y-86603200D01*
D19*
X100640400Y-87074900D02*
X100634500Y-87069000D01*
D20*
X179207000Y-84683500D02*
X178852000Y-85038500D01*
X98183400Y-88366400D02*
X98189000Y-88360800D01*
X100337000Y-84714000D02*
X102278000Y-84714000D01*
X97622600Y-88927400D02*
X97622600Y-86548800D01*
D21*
X181639000Y-91090000D02*
X181639000Y-90333900D01*
X181658000Y-91109000D02*
X181639000Y-91090000D01*
D20*
X180438500Y-87038500D02*
X181131000Y-87038500D01*
X98189000Y-88360800D02*
X98189000Y-87087500D01*
X101184200Y-88927400D02*
X97639600Y-88927400D01*
D21*
X100640400Y-90265500D02*
X100663400Y-90288500D01*
D20*
X99413400Y-90359000D02*
X99413400Y-89103400D01*
X183338800Y-86478300D02*
X183433200Y-86572700D01*
D19*
X184466000Y-90347500D02*
X184542500Y-90271000D01*
X178831500Y-90271000D02*
X178852000Y-90291500D01*
X102278000Y-84714000D02*
X102288000Y-84704000D01*
D20*
X97639600Y-86548800D02*
X97678600Y-86509800D01*
X182871400Y-89829000D02*
X182871400Y-90235000D01*
X98207500Y-87069000D02*
X98900000Y-87069000D01*
X98714700Y-86508800D02*
X99181300Y-86508800D01*
X100640400Y-89859500D02*
X100640400Y-90265500D01*
%TO.N,Net-(J7-In)*%
X203107600Y-102505800D02*
X203146600Y-102466800D01*
X203675500Y-103026000D02*
X204368000Y-103026000D01*
X206575800Y-102466800D02*
X206670200Y-102561200D01*
X203651400Y-105816500D02*
X203651400Y-106242500D01*
X203605400Y-106288500D02*
X202191500Y-106288500D01*
X203090600Y-104884400D02*
X203090600Y-102505800D01*
X75852300Y-102441800D02*
X76412500Y-103002000D01*
X76084400Y-106292000D02*
X76084400Y-105036400D01*
D19*
X202068500Y-106258500D02*
X202089000Y-106279000D01*
D21*
X207756000Y-106235000D02*
X207779500Y-106258500D01*
D20*
X204080000Y-100671000D02*
X202444000Y-100671000D01*
X205517000Y-102465800D02*
X206575800Y-102465800D01*
D19*
X77311400Y-103007900D02*
X77305500Y-103002000D01*
D20*
X74854400Y-104299400D02*
X74860000Y-104293800D01*
X77855200Y-104860400D02*
X74310600Y-104860400D01*
X73404000Y-106268000D02*
X67351000Y-106268000D01*
D19*
X206108400Y-103031900D02*
X206102500Y-103026000D01*
D20*
X73647000Y-100647000D02*
X73292000Y-101002000D01*
D19*
X207703000Y-106335000D02*
X207779500Y-106258500D01*
D20*
X74878500Y-103002000D02*
X75571000Y-103002000D01*
X74293600Y-104860400D02*
X74293600Y-102481800D01*
X77311400Y-104299400D02*
X77311400Y-103007900D01*
D19*
X207746000Y-100671000D02*
X207756000Y-100661000D01*
D21*
X203651400Y-106242500D02*
X203605400Y-106288500D01*
D20*
X202089000Y-101026000D02*
X202089000Y-106279000D01*
X206652200Y-104884400D02*
X203107600Y-104884400D01*
X73292000Y-101002000D02*
X73292000Y-106255000D01*
X205805000Y-100671000D02*
X207746000Y-100671000D01*
X75385700Y-102441800D02*
X75852300Y-102441800D01*
X77008000Y-100647000D02*
X78949000Y-100647000D01*
X77873200Y-102536200D02*
X77873200Y-104842400D01*
X77778800Y-102441800D02*
X77873200Y-102536200D01*
X204876000Y-107077500D02*
X204876000Y-106321400D01*
D21*
X76098000Y-107072500D02*
X76079000Y-107053500D01*
D20*
X205209500Y-103026000D02*
X206102500Y-103026000D01*
X74808400Y-106264500D02*
X73394500Y-106264500D01*
X74854400Y-105792500D02*
X74854400Y-106218500D01*
X204182700Y-102465800D02*
X204649300Y-102465800D01*
X76412500Y-103002000D02*
X77305500Y-103002000D01*
D19*
X78906000Y-106311000D02*
X78982500Y-106234500D01*
D20*
X206108400Y-104323400D02*
X206108400Y-103031900D01*
X206131400Y-106245500D02*
X207613500Y-106245500D01*
D19*
X78949000Y-100647000D02*
X78959000Y-100637000D01*
X204876000Y-106321400D02*
X204881400Y-106316000D01*
D20*
X206670200Y-102561200D02*
X206670200Y-104866400D01*
D21*
X204895000Y-107096500D02*
X204876000Y-107077500D01*
D20*
X206670200Y-104866400D02*
X206652200Y-104884400D01*
X204881400Y-106316000D02*
X204881400Y-105060400D01*
X207756000Y-100661000D02*
X207756000Y-106235000D01*
X77311400Y-105792500D02*
X77311400Y-106198500D01*
D19*
X73348000Y-106311000D02*
X73292000Y-106255000D01*
D20*
X206108400Y-105816500D02*
X206108400Y-106222500D01*
D19*
X73271500Y-106234500D02*
X73292000Y-106255000D01*
D20*
X202078000Y-106210500D02*
X79163300Y-106210500D01*
D19*
X76079000Y-106297400D02*
X76084400Y-106292000D01*
D20*
X204649300Y-102465800D02*
X205209500Y-103026000D01*
X74310600Y-102481800D02*
X74349600Y-102442800D01*
X203146600Y-102465800D02*
X204182700Y-102465800D01*
X75283000Y-100647000D02*
X73647000Y-100647000D01*
X77873200Y-104842400D02*
X77855200Y-104860400D01*
X76720000Y-102441800D02*
X77778800Y-102441800D01*
X77334400Y-106221500D02*
X78816500Y-106221500D01*
X74349600Y-102441800D02*
X75385700Y-102441800D01*
D19*
X202145000Y-106335000D02*
X202089000Y-106279000D01*
D20*
X203651400Y-104323400D02*
X203657000Y-104317800D01*
X78959000Y-100637000D02*
X78959000Y-106211000D01*
X202444000Y-100671000D02*
X202089000Y-101026000D01*
X76079000Y-107053500D02*
X76079000Y-106297400D01*
X203657000Y-104317800D02*
X203657000Y-103044500D01*
X207799500Y-106268000D02*
X213694000Y-106268000D01*
X74860000Y-104293800D02*
X74860000Y-103020500D01*
%TO.N,Net-(J10-In)*%
X67351000Y-122251000D02*
X79936000Y-122251000D01*
D19*
X199863000Y-123923000D02*
X199821000Y-123965000D01*
D20*
X87869000Y-122251000D02*
X87869000Y-123873000D01*
X191930000Y-123965000D02*
X191930000Y-122301000D01*
X199863000Y-122301000D02*
X199863000Y-123923000D01*
X99279000Y-123933000D02*
X99279000Y-122339400D01*
D19*
X87869000Y-123873000D02*
X87827000Y-123915000D01*
D20*
X181355000Y-123914500D02*
X181355000Y-122294200D01*
X87869000Y-122251000D02*
X213694000Y-122251000D01*
X79936000Y-123915000D02*
X79936000Y-122251000D01*
X79936000Y-122251000D02*
X87869000Y-122251000D01*
D19*
%TO.N,Net-(J11-In)*%
X178659500Y-138477500D02*
X178680000Y-138498000D01*
D20*
X67222000Y-138500000D02*
X96475000Y-138500000D01*
D21*
X100547400Y-138476500D02*
X100570400Y-138499500D01*
D19*
X100547400Y-135285900D02*
X100541500Y-135280000D01*
D20*
X97585600Y-134719800D02*
X98621700Y-134719800D01*
D21*
X191736000Y-138503000D02*
X191739000Y-138500000D01*
D20*
X183261200Y-134779200D02*
X183261200Y-137085400D01*
D19*
X199669000Y-140085000D02*
X199627000Y-140127000D01*
D20*
X97529600Y-137138400D02*
X97529600Y-134759800D01*
D19*
X99315000Y-138575400D02*
X99320400Y-138570000D01*
D20*
X183243200Y-137103400D02*
X179698600Y-137103400D01*
X182722400Y-138464500D02*
X184204500Y-138464500D01*
X213565000Y-138500000D02*
X184319400Y-138500000D01*
D19*
X182699400Y-135250900D02*
X182693500Y-135245000D01*
D20*
X98519000Y-132925000D02*
X96883000Y-132925000D01*
X98044400Y-138542500D02*
X96630500Y-138542500D01*
D21*
X181486000Y-139315500D02*
X181467000Y-139296500D01*
D20*
X102195000Y-132915000D02*
X102195000Y-138489000D01*
X181800500Y-135245000D02*
X182693500Y-135245000D01*
X100547400Y-136577400D02*
X100547400Y-135285900D01*
X179698600Y-134724800D02*
X179737600Y-134685800D01*
X178680000Y-133245000D02*
X178680000Y-138498000D01*
X180248000Y-136536800D02*
X180248000Y-135263500D01*
X96528000Y-133280000D02*
X96528000Y-138533000D01*
X180773700Y-134684800D02*
X181240300Y-134684800D01*
D19*
X96584000Y-138589000D02*
X96528000Y-138533000D01*
D20*
X101109200Y-134814200D02*
X101109200Y-137120400D01*
X180242400Y-136542400D02*
X180248000Y-136536800D01*
D21*
X99334000Y-139350500D02*
X99315000Y-139331500D01*
D20*
X99648500Y-135280000D02*
X100541500Y-135280000D01*
X182699400Y-138035500D02*
X182699400Y-138441500D01*
X99315000Y-139331500D02*
X99315000Y-138575400D01*
X179737600Y-134684800D02*
X180773700Y-134684800D01*
D19*
X184294000Y-138554000D02*
X184370500Y-138477500D01*
D20*
X99320400Y-138570000D02*
X99320400Y-137314400D01*
X98096000Y-136571800D02*
X98096000Y-135298500D01*
X181467000Y-139296500D02*
X181467000Y-138540400D01*
X181472400Y-138535000D02*
X181472400Y-137279400D01*
X97546600Y-134759800D02*
X97585600Y-134720800D01*
X96883000Y-132925000D02*
X96528000Y-133280000D01*
X180242400Y-138035500D02*
X180242400Y-138461500D01*
X182108000Y-134684800D02*
X183166800Y-134684800D01*
X99088300Y-134719800D02*
X99648500Y-135280000D01*
X182396000Y-132890000D02*
X184337000Y-132890000D01*
X183166800Y-134684800D02*
X183261200Y-134779200D01*
X179035000Y-132890000D02*
X178680000Y-133245000D01*
D19*
X178736000Y-138554000D02*
X178680000Y-138498000D01*
X184337000Y-132890000D02*
X184347000Y-132880000D01*
D20*
X180266500Y-135245000D02*
X180959000Y-135245000D01*
D19*
X181467000Y-138540400D02*
X181472400Y-138535000D01*
D20*
X199669000Y-138525000D02*
X199669000Y-140085000D01*
X98090400Y-136577400D02*
X98096000Y-136571800D01*
D19*
X87873000Y-140155000D02*
X87831000Y-140197000D01*
D20*
X180671000Y-132890000D02*
X179035000Y-132890000D01*
X178583600Y-138428200D02*
X102216800Y-138428200D01*
X98114500Y-135280000D02*
X98807000Y-135280000D01*
X191736000Y-140127000D02*
X191736000Y-138503000D01*
X180196400Y-138507500D02*
X178782500Y-138507500D01*
X181240300Y-134684800D02*
X181800500Y-135245000D01*
D19*
X102185000Y-132925000D02*
X102195000Y-132915000D01*
D20*
X98621700Y-134719800D02*
X99088300Y-134719800D01*
X183261200Y-137085400D02*
X183243200Y-137103400D01*
X101091200Y-137138400D02*
X97546600Y-137138400D01*
X184347000Y-132880000D02*
X184347000Y-138454000D01*
X79940000Y-140197000D02*
X79940000Y-138533000D01*
D19*
X102142000Y-138589000D02*
X102218500Y-138512500D01*
D20*
X101014800Y-134719800D02*
X101109200Y-134814200D01*
X100570400Y-138499500D02*
X102052500Y-138499500D01*
X100547400Y-138070500D02*
X100547400Y-138476500D01*
X100244000Y-132925000D02*
X102185000Y-132925000D01*
X182699400Y-136542400D02*
X182699400Y-135250900D01*
X101109200Y-137120400D02*
X101091200Y-137138400D01*
X99956000Y-134719800D02*
X101014800Y-134719800D01*
D19*
X96507500Y-138512500D02*
X96528000Y-138533000D01*
D21*
X199644000Y-138500000D02*
X199669000Y-138525000D01*
D20*
X179681600Y-137103400D02*
X179681600Y-134724800D01*
X87873000Y-138533000D02*
X87873000Y-140155000D01*
X98090400Y-138070500D02*
X98090400Y-138496500D01*
%TD*%
M02*
