%TF.GenerationSoftware,KiCad,Pcbnew,9.0.5*%
%TF.CreationDate,2026-03-31T15:52:52-05:00*%
%TF.ProjectId,t-coil3,742d636f-696c-4332-9e6b-696361645f70,rev?*%
%TF.SameCoordinates,Original*%
%TF.FileFunction,Copper,L2,Inr*%
%TF.FilePolarity,Positive*%
%FSLAX46Y46*%
G04 Gerber Fmt 4.6, Leading zero omitted, Abs format (unit mm)*
G04 Created by KiCad (PCBNEW 9.0.5) date 2026-03-31 15:52:52*
%MOMM*%
%LPD*%
G01*
G04 APERTURE LIST*
%TA.AperFunction,ComponentPad*%
%ADD10C,0.970000*%
%TD*%
%TA.AperFunction,ViaPad*%
%ADD11C,0.600000*%
%TD*%
%TA.AperFunction,ViaPad*%
%ADD12C,0.457200*%
%TD*%
G04 APERTURE END LIST*
D10*
%TO.N,GND*%
%TO.C,J2*%
X210235966Y-62699000D03*
X210235966Y-53939000D03*
%TD*%
%TO.N,GND*%
%TO.C,J7*%
X70801160Y-101888000D03*
X70801160Y-110648000D03*
%TD*%
%TO.N,GND*%
%TO.C,J3*%
X70801160Y-69922000D03*
X70801160Y-78682000D03*
%TD*%
%TO.N,GND*%
%TO.C,J10*%
X210235966Y-126631000D03*
X210235966Y-117871000D03*
%TD*%
%TO.N,GND*%
%TO.C,J4*%
X210235966Y-78739000D03*
X210235966Y-69979000D03*
%TD*%
%TO.N,GND*%
%TO.C,J11*%
X70801160Y-133854000D03*
X70801160Y-142614000D03*
%TD*%
%TO.N,GND*%
%TO.C,J6*%
X210235966Y-94665000D03*
X210235966Y-85905000D03*
%TD*%
%TO.N,GND*%
%TO.C,J5*%
X70801160Y-85905000D03*
X70801160Y-94665000D03*
%TD*%
%TO.N,GND*%
%TO.C,J12*%
X210235966Y-142614000D03*
X210235966Y-133854000D03*
%TD*%
%TO.N,GND*%
%TO.C,J1*%
X70801160Y-53939000D03*
X70801160Y-62699000D03*
%TD*%
%TO.N,GND*%
%TO.C,J8*%
X210235966Y-110648000D03*
X210235966Y-101888000D03*
%TD*%
%TO.N,GND*%
%TO.C,J9*%
X70801160Y-117871000D03*
X70801160Y-126631000D03*
%TD*%
D11*
%TO.N,GND*%
X156166000Y-137574000D03*
X123754000Y-137538000D03*
X209894000Y-137548000D03*
X94064000Y-137514000D03*
X91064000Y-137514000D03*
X92564000Y-137514000D03*
X95564000Y-137514000D03*
X89564000Y-137514000D03*
X88064000Y-137514000D03*
X86564000Y-137514000D03*
X85064000Y-137514000D03*
X83564000Y-137514000D03*
X82064000Y-137514000D03*
X80564000Y-137514000D03*
X79064000Y-137514000D03*
X77564000Y-137514000D03*
X76064000Y-137514000D03*
X74564000Y-137514000D03*
X73064000Y-137514000D03*
X71564000Y-137514000D03*
X208431000Y-139302000D03*
X206931000Y-139302000D03*
X205431000Y-139302000D03*
X203931000Y-139302000D03*
X202431000Y-139302000D03*
X200931000Y-139302000D03*
X198767000Y-139354000D03*
X197267000Y-139354000D03*
X195767000Y-139354000D03*
X194267000Y-139354000D03*
X192767000Y-139354000D03*
X190431000Y-139302000D03*
X188931000Y-139302000D03*
X187431000Y-139302000D03*
X185931000Y-139302000D03*
X176931000Y-139302000D03*
X175431000Y-139302000D03*
X173931000Y-139302000D03*
X172431000Y-139302000D03*
X170931000Y-139302000D03*
X169431000Y-139302000D03*
X167931000Y-139302000D03*
X166431000Y-139302000D03*
X164931000Y-139302000D03*
X163431000Y-139302000D03*
X161931000Y-139302000D03*
X160431000Y-139302000D03*
X158931000Y-139302000D03*
X157431000Y-139302000D03*
X155931000Y-139302000D03*
X154431000Y-139302000D03*
X152931000Y-139302000D03*
X151431000Y-139302000D03*
X149931000Y-139302000D03*
X148431000Y-139302000D03*
X146931000Y-139302000D03*
X145431000Y-139302000D03*
X143931000Y-139302000D03*
X142431000Y-139302000D03*
X140931000Y-139302000D03*
X139431000Y-139302000D03*
X137931000Y-139302000D03*
X136431000Y-139302000D03*
X134931000Y-139302000D03*
X133431000Y-139302000D03*
X131931000Y-139302000D03*
X130431000Y-139302000D03*
X128931000Y-139302000D03*
X127431000Y-139302000D03*
X125931000Y-139302000D03*
X124431000Y-139302000D03*
X122931000Y-139302000D03*
X121431000Y-139302000D03*
X119931000Y-139302000D03*
X118431000Y-139302000D03*
X116931000Y-139302000D03*
X115431000Y-139302000D03*
X113931000Y-139302000D03*
X112431000Y-139302000D03*
X110931000Y-139302000D03*
X109431000Y-139302000D03*
X107931000Y-139302000D03*
X106431000Y-139302000D03*
X104931000Y-139302000D03*
X103431000Y-139302000D03*
X95351000Y-139322000D03*
X93851000Y-139322000D03*
X92351000Y-139322000D03*
X90851000Y-139322000D03*
X89351000Y-139322000D03*
X86931000Y-139302000D03*
X83931000Y-139302000D03*
X82431000Y-139302000D03*
X80931000Y-139302000D03*
X77931000Y-139302000D03*
X76431000Y-139302000D03*
X71931000Y-139302000D03*
X74931000Y-139302000D03*
X209931000Y-139302000D03*
X73431000Y-139302000D03*
X85431000Y-139302000D03*
X208394000Y-137548000D03*
X206894000Y-137548000D03*
X205394000Y-137548000D03*
X203894000Y-137548000D03*
X202394000Y-137548000D03*
X200894000Y-137548000D03*
X199394000Y-137548000D03*
X197894000Y-137548000D03*
X196394000Y-137548000D03*
X194894000Y-137548000D03*
X193394000Y-137548000D03*
X191894000Y-137548000D03*
X190394000Y-137548000D03*
X188894000Y-137548000D03*
X187394000Y-137548000D03*
X185894000Y-137548000D03*
X176894000Y-137548000D03*
X175394000Y-137548000D03*
X173894000Y-137548000D03*
X172394000Y-137548000D03*
X170894000Y-137548000D03*
X169394000Y-137548000D03*
X167894000Y-137548000D03*
X166394000Y-137548000D03*
X164894000Y-137548000D03*
X163394000Y-137548000D03*
X161894000Y-137548000D03*
X160394000Y-137548000D03*
X158894000Y-137548000D03*
X157394000Y-137548000D03*
X154997000Y-137559000D03*
X153497000Y-137559000D03*
X151997000Y-137559000D03*
X150497000Y-137559000D03*
X148997000Y-137559000D03*
X147497000Y-137559000D03*
X145997000Y-137559000D03*
X144497000Y-137559000D03*
X142997000Y-137559000D03*
X141497000Y-137559000D03*
X139997000Y-137559000D03*
X138497000Y-137559000D03*
X136997000Y-137559000D03*
X135497000Y-137559000D03*
X133997000Y-137559000D03*
X129497000Y-137559000D03*
X127997000Y-137559000D03*
X126497000Y-137559000D03*
X124997000Y-137559000D03*
X122564000Y-137514000D03*
X121064000Y-137514000D03*
X119564000Y-137514000D03*
X118064000Y-137514000D03*
X116564000Y-137514000D03*
X115064000Y-137514000D03*
X113564000Y-137514000D03*
X112064000Y-137514000D03*
X110564000Y-137514000D03*
X109064000Y-137514000D03*
X107564000Y-137514000D03*
X106064000Y-137514000D03*
X104564000Y-137514000D03*
X103064000Y-137514000D03*
X130997000Y-137559000D03*
X132497000Y-137559000D03*
X156151000Y-121403000D03*
X123737000Y-121357000D03*
X209909000Y-121353000D03*
X94079000Y-121319000D03*
X91079000Y-121319000D03*
X92579000Y-121319000D03*
X95579000Y-121319000D03*
X89579000Y-121319000D03*
X88079000Y-121319000D03*
X86579000Y-121319000D03*
X85079000Y-121319000D03*
X83579000Y-121319000D03*
X82079000Y-121319000D03*
X80579000Y-121319000D03*
X79079000Y-121319000D03*
X77579000Y-121319000D03*
X76079000Y-121319000D03*
X74579000Y-121319000D03*
X73079000Y-121319000D03*
X71579000Y-121319000D03*
X98579000Y-121319000D03*
X97079000Y-121319000D03*
X208446000Y-123107000D03*
X206946000Y-123107000D03*
X205446000Y-123107000D03*
X203946000Y-123107000D03*
X202446000Y-123107000D03*
X200946000Y-123107000D03*
X199004000Y-123167000D03*
X197504000Y-123167000D03*
X196004000Y-123167000D03*
X194504000Y-123167000D03*
X193004000Y-123167000D03*
X190446000Y-123107000D03*
X188946000Y-123107000D03*
X187446000Y-123107000D03*
X185946000Y-123107000D03*
X184446000Y-123107000D03*
X182946000Y-123107000D03*
X179946000Y-123107000D03*
X178446000Y-123107000D03*
X176946000Y-123107000D03*
X175446000Y-123107000D03*
X173946000Y-123107000D03*
X172446000Y-123107000D03*
X170946000Y-123107000D03*
X169446000Y-123107000D03*
X167946000Y-123107000D03*
X166446000Y-123107000D03*
X164946000Y-123107000D03*
X163446000Y-123107000D03*
X161946000Y-123107000D03*
X160446000Y-123107000D03*
X158946000Y-123107000D03*
X157446000Y-123107000D03*
X155946000Y-123107000D03*
X154446000Y-123107000D03*
X152946000Y-123107000D03*
X151446000Y-123107000D03*
X149946000Y-123107000D03*
X148446000Y-123107000D03*
X146946000Y-123107000D03*
X145446000Y-123107000D03*
X143946000Y-123107000D03*
X142446000Y-123107000D03*
X140946000Y-123107000D03*
X139446000Y-123107000D03*
X137946000Y-123107000D03*
X136446000Y-123107000D03*
X134946000Y-123107000D03*
X133446000Y-123107000D03*
X131946000Y-123107000D03*
X130446000Y-123107000D03*
X128946000Y-123107000D03*
X127446000Y-123107000D03*
X125946000Y-123107000D03*
X124446000Y-123107000D03*
X122946000Y-123107000D03*
X121446000Y-123107000D03*
X119946000Y-123107000D03*
X118446000Y-123107000D03*
X116946000Y-123107000D03*
X115446000Y-123107000D03*
X113946000Y-123107000D03*
X112446000Y-123107000D03*
X110946000Y-123107000D03*
X109446000Y-123107000D03*
X107946000Y-123107000D03*
X106446000Y-123107000D03*
X104946000Y-123107000D03*
X103446000Y-123107000D03*
X101946000Y-123107000D03*
X100446000Y-123107000D03*
X97973000Y-123142000D03*
X96473000Y-123142000D03*
X94973000Y-123142000D03*
X93473000Y-123142000D03*
X91973000Y-123142000D03*
X90473000Y-123142000D03*
X83826000Y-123131000D03*
X82326000Y-123131000D03*
X77946000Y-123107000D03*
X76446000Y-123107000D03*
X71946000Y-123107000D03*
X74946000Y-123107000D03*
X209946000Y-123107000D03*
X73446000Y-123107000D03*
X85326000Y-123131000D03*
X208409000Y-121353000D03*
X206909000Y-121353000D03*
X205409000Y-121353000D03*
X203909000Y-121353000D03*
X202409000Y-121353000D03*
X200909000Y-121353000D03*
X199409000Y-121353000D03*
X197909000Y-121353000D03*
X196409000Y-121353000D03*
X194909000Y-121353000D03*
X193409000Y-121353000D03*
X191909000Y-121353000D03*
X190409000Y-121353000D03*
X188909000Y-121353000D03*
X187409000Y-121353000D03*
X185909000Y-121353000D03*
X184409000Y-121353000D03*
X182909000Y-121353000D03*
X181409000Y-121353000D03*
X179909000Y-121353000D03*
X178409000Y-121353000D03*
X176909000Y-121353000D03*
X175409000Y-121353000D03*
X173909000Y-121353000D03*
X172409000Y-121353000D03*
X170909000Y-121353000D03*
X169409000Y-121353000D03*
X167909000Y-121353000D03*
X166409000Y-121353000D03*
X164909000Y-121353000D03*
X163409000Y-121353000D03*
X161909000Y-121353000D03*
X160409000Y-121353000D03*
X158909000Y-121353000D03*
X157409000Y-121353000D03*
X155012000Y-121364000D03*
X153512000Y-121364000D03*
X152012000Y-121364000D03*
X150512000Y-121364000D03*
X149012000Y-121364000D03*
X147512000Y-121364000D03*
X146012000Y-121364000D03*
X144512000Y-121364000D03*
X143012000Y-121364000D03*
X141512000Y-121364000D03*
X140012000Y-121364000D03*
X138512000Y-121364000D03*
X137012000Y-121364000D03*
X135512000Y-121364000D03*
X134012000Y-121364000D03*
X132512000Y-121364000D03*
X131012000Y-121364000D03*
X129512000Y-121364000D03*
X128012000Y-121364000D03*
X126512000Y-121364000D03*
X125012000Y-121364000D03*
X122579000Y-121319000D03*
X121079000Y-121319000D03*
X119579000Y-121319000D03*
X118079000Y-121319000D03*
X116579000Y-121319000D03*
X115079000Y-121319000D03*
X113579000Y-121319000D03*
X112079000Y-121319000D03*
X110579000Y-121319000D03*
X109079000Y-121319000D03*
X107579000Y-121319000D03*
X106079000Y-121319000D03*
X104579000Y-121319000D03*
X103079000Y-121319000D03*
X101579000Y-121319000D03*
X100079000Y-121319000D03*
X156149000Y-105286000D03*
X123776000Y-105313000D03*
X156234000Y-89445000D03*
X123822000Y-89409000D03*
X210202000Y-105285000D03*
X94104000Y-105253000D03*
X91104000Y-105253000D03*
X92604000Y-105253000D03*
X95604000Y-105253000D03*
X89604000Y-105253000D03*
X88104000Y-105253000D03*
X86604000Y-105253000D03*
X85104000Y-105253000D03*
X83604000Y-105253000D03*
X82104000Y-105253000D03*
X80604000Y-105253000D03*
X71604000Y-105253000D03*
X98604000Y-105253000D03*
X97104000Y-105253000D03*
X208471000Y-107041000D03*
X200971000Y-107041000D03*
X199471000Y-107041000D03*
X197971000Y-107041000D03*
X196471000Y-107041000D03*
X194971000Y-107041000D03*
X193471000Y-107041000D03*
X191971000Y-107041000D03*
X190471000Y-107041000D03*
X188971000Y-107041000D03*
X187471000Y-107041000D03*
X185971000Y-107041000D03*
X184471000Y-107041000D03*
X182971000Y-107041000D03*
X181471000Y-107041000D03*
X179971000Y-107041000D03*
X178471000Y-107041000D03*
X176971000Y-107041000D03*
X175471000Y-107041000D03*
X173971000Y-107041000D03*
X172471000Y-107041000D03*
X170971000Y-107041000D03*
X169471000Y-107041000D03*
X167971000Y-107041000D03*
X166471000Y-107041000D03*
X164971000Y-107041000D03*
X163471000Y-107041000D03*
X161971000Y-107041000D03*
X160471000Y-107041000D03*
X158971000Y-107041000D03*
X157471000Y-107041000D03*
X155971000Y-107041000D03*
X154471000Y-107041000D03*
X152971000Y-107041000D03*
X151471000Y-107041000D03*
X149971000Y-107041000D03*
X148471000Y-107041000D03*
X146971000Y-107041000D03*
X145471000Y-107041000D03*
X143971000Y-107041000D03*
X142471000Y-107041000D03*
X140971000Y-107041000D03*
X139471000Y-107041000D03*
X137971000Y-107041000D03*
X136471000Y-107041000D03*
X134971000Y-107041000D03*
X133471000Y-107041000D03*
X131971000Y-107041000D03*
X130471000Y-107041000D03*
X128971000Y-107041000D03*
X127471000Y-107041000D03*
X125971000Y-107041000D03*
X124471000Y-107041000D03*
X122971000Y-107041000D03*
X121471000Y-107041000D03*
X119971000Y-107041000D03*
X118471000Y-107041000D03*
X116971000Y-107041000D03*
X115471000Y-107041000D03*
X113971000Y-107041000D03*
X112471000Y-107041000D03*
X110971000Y-107041000D03*
X109471000Y-107041000D03*
X107971000Y-107041000D03*
X106471000Y-107041000D03*
X104971000Y-107041000D03*
X103471000Y-107041000D03*
X101971000Y-107041000D03*
X100471000Y-107041000D03*
X98971000Y-107041000D03*
X97471000Y-107041000D03*
X95971000Y-107041000D03*
X94471000Y-107041000D03*
X92971000Y-107041000D03*
X91471000Y-107041000D03*
X89971000Y-107041000D03*
X88471000Y-107041000D03*
X86971000Y-107041000D03*
X83971000Y-107041000D03*
X82471000Y-107041000D03*
X80971000Y-107041000D03*
X71971000Y-107041000D03*
X209971000Y-107041000D03*
X85471000Y-107041000D03*
X208702000Y-105285000D03*
X200934000Y-105287000D03*
X199434000Y-105287000D03*
X197934000Y-105287000D03*
X196434000Y-105287000D03*
X194934000Y-105287000D03*
X193434000Y-105287000D03*
X191934000Y-105287000D03*
X190434000Y-105287000D03*
X188934000Y-105287000D03*
X187434000Y-105287000D03*
X185934000Y-105287000D03*
X184434000Y-105287000D03*
X182934000Y-105287000D03*
X181434000Y-105287000D03*
X179934000Y-105287000D03*
X178434000Y-105287000D03*
X176934000Y-105287000D03*
X175434000Y-105287000D03*
X173934000Y-105287000D03*
X172434000Y-105287000D03*
X170934000Y-105287000D03*
X169434000Y-105287000D03*
X167934000Y-105287000D03*
X166434000Y-105287000D03*
X164934000Y-105287000D03*
X163434000Y-105287000D03*
X161934000Y-105287000D03*
X160434000Y-105287000D03*
X158934000Y-105287000D03*
X157434000Y-105287000D03*
X155037000Y-105298000D03*
X153537000Y-105298000D03*
X152037000Y-105298000D03*
X150537000Y-105298000D03*
X149037000Y-105298000D03*
X147537000Y-105298000D03*
X146037000Y-105298000D03*
X144537000Y-105298000D03*
X143037000Y-105298000D03*
X141537000Y-105298000D03*
X140037000Y-105298000D03*
X138537000Y-105298000D03*
X137037000Y-105298000D03*
X135537000Y-105298000D03*
X134037000Y-105298000D03*
X132537000Y-105298000D03*
X131037000Y-105298000D03*
X129537000Y-105298000D03*
X128037000Y-105298000D03*
X126537000Y-105298000D03*
X125037000Y-105298000D03*
X122604000Y-105253000D03*
X121104000Y-105253000D03*
X119604000Y-105253000D03*
X118104000Y-105253000D03*
X116604000Y-105253000D03*
X115104000Y-105253000D03*
X113604000Y-105253000D03*
X112104000Y-105253000D03*
X110604000Y-105253000D03*
X109104000Y-105253000D03*
X107604000Y-105253000D03*
X106104000Y-105253000D03*
X104604000Y-105253000D03*
X103104000Y-105253000D03*
X101604000Y-105253000D03*
X100104000Y-105253000D03*
X209962000Y-89419000D03*
X94132000Y-89385000D03*
X91132000Y-89385000D03*
X92632000Y-89385000D03*
X95632000Y-89385000D03*
X89632000Y-89385000D03*
X88132000Y-89385000D03*
X86632000Y-89385000D03*
X85132000Y-89385000D03*
X83632000Y-89385000D03*
X82132000Y-89385000D03*
X80632000Y-89385000D03*
X79132000Y-89385000D03*
X77632000Y-89385000D03*
X76132000Y-89385000D03*
X74632000Y-89385000D03*
X73132000Y-89385000D03*
X71632000Y-89385000D03*
X208499000Y-91173000D03*
X206999000Y-91173000D03*
X205499000Y-91173000D03*
X203999000Y-91173000D03*
X202499000Y-91173000D03*
X200999000Y-91173000D03*
X199499000Y-91173000D03*
X197999000Y-91173000D03*
X196499000Y-91173000D03*
X194999000Y-91173000D03*
X193499000Y-91173000D03*
X191999000Y-91173000D03*
X190499000Y-91173000D03*
X188999000Y-91173000D03*
X187499000Y-91173000D03*
X185999000Y-91173000D03*
X178499000Y-91173000D03*
X176999000Y-91173000D03*
X175499000Y-91173000D03*
X173999000Y-91173000D03*
X172499000Y-91173000D03*
X170999000Y-91173000D03*
X169499000Y-91173000D03*
X167999000Y-91173000D03*
X166499000Y-91173000D03*
X164999000Y-91173000D03*
X163499000Y-91173000D03*
X161999000Y-91173000D03*
X160499000Y-91173000D03*
X158999000Y-91173000D03*
X157499000Y-91173000D03*
X155999000Y-91173000D03*
X154499000Y-91173000D03*
X152999000Y-91173000D03*
X151499000Y-91173000D03*
X149999000Y-91173000D03*
X148499000Y-91173000D03*
X146999000Y-91173000D03*
X145499000Y-91173000D03*
X143999000Y-91173000D03*
X142499000Y-91173000D03*
X140999000Y-91173000D03*
X139499000Y-91173000D03*
X137999000Y-91173000D03*
X136499000Y-91173000D03*
X134999000Y-91173000D03*
X133499000Y-91173000D03*
X131999000Y-91173000D03*
X130499000Y-91173000D03*
X128999000Y-91173000D03*
X127499000Y-91173000D03*
X125999000Y-91173000D03*
X124499000Y-91173000D03*
X122999000Y-91173000D03*
X121499000Y-91173000D03*
X119999000Y-91173000D03*
X118499000Y-91173000D03*
X116999000Y-91173000D03*
X115499000Y-91173000D03*
X113999000Y-91173000D03*
X112499000Y-91173000D03*
X110999000Y-91173000D03*
X109499000Y-91173000D03*
X107999000Y-91173000D03*
X106499000Y-91173000D03*
X104999000Y-91173000D03*
X103499000Y-91173000D03*
X95999000Y-91173000D03*
X94499000Y-91173000D03*
X92999000Y-91173000D03*
X91499000Y-91173000D03*
X89999000Y-91173000D03*
X88499000Y-91173000D03*
X86999000Y-91173000D03*
X83999000Y-91173000D03*
X82499000Y-91173000D03*
X80999000Y-91173000D03*
X79499000Y-91173000D03*
X77999000Y-91173000D03*
X76499000Y-91173000D03*
X71999000Y-91173000D03*
X74999000Y-91173000D03*
X209999000Y-91173000D03*
X73499000Y-91173000D03*
X85499000Y-91173000D03*
X208462000Y-89419000D03*
X206962000Y-89419000D03*
X205462000Y-89419000D03*
X203962000Y-89419000D03*
X202462000Y-89419000D03*
X200962000Y-89419000D03*
X199462000Y-89419000D03*
X197962000Y-89419000D03*
X196462000Y-89419000D03*
X194962000Y-89419000D03*
X193462000Y-89419000D03*
X191962000Y-89419000D03*
X190462000Y-89419000D03*
X188962000Y-89419000D03*
X187462000Y-89419000D03*
X185962000Y-89419000D03*
X176962000Y-89419000D03*
X175462000Y-89419000D03*
X173962000Y-89419000D03*
X172462000Y-89419000D03*
X170962000Y-89419000D03*
X169462000Y-89419000D03*
X167962000Y-89419000D03*
X166462000Y-89419000D03*
X164962000Y-89419000D03*
X163462000Y-89419000D03*
X161962000Y-89419000D03*
X160462000Y-89419000D03*
X158962000Y-89419000D03*
X157462000Y-89419000D03*
X155065000Y-89430000D03*
X153565000Y-89430000D03*
X152065000Y-89430000D03*
X150565000Y-89430000D03*
X149065000Y-89430000D03*
X147565000Y-89430000D03*
X146065000Y-89430000D03*
X144565000Y-89430000D03*
X143065000Y-89430000D03*
X141565000Y-89430000D03*
X140065000Y-89430000D03*
X138565000Y-89430000D03*
X137065000Y-89430000D03*
X135565000Y-89430000D03*
X134065000Y-89430000D03*
X132565000Y-89430000D03*
X131065000Y-89430000D03*
X129565000Y-89430000D03*
X128065000Y-89430000D03*
X126565000Y-89430000D03*
X125065000Y-89430000D03*
X122632000Y-89385000D03*
X121132000Y-89385000D03*
X119632000Y-89385000D03*
X118132000Y-89385000D03*
X116632000Y-89385000D03*
X115132000Y-89385000D03*
X113632000Y-89385000D03*
X112132000Y-89385000D03*
X110632000Y-89385000D03*
X109132000Y-89385000D03*
X107632000Y-89385000D03*
X106132000Y-89385000D03*
X104632000Y-89385000D03*
X103132000Y-89385000D03*
X209859000Y-73486000D03*
X94029000Y-73452000D03*
X91029000Y-73452000D03*
X92529000Y-73452000D03*
X95529000Y-73452000D03*
X89529000Y-73452000D03*
X88029000Y-73452000D03*
X86529000Y-73452000D03*
X85029000Y-73452000D03*
X83529000Y-73452000D03*
X82029000Y-73452000D03*
X80529000Y-73452000D03*
X79029000Y-73452000D03*
X77529000Y-73452000D03*
X76029000Y-73452000D03*
X74529000Y-73452000D03*
X73029000Y-73452000D03*
X71529000Y-73452000D03*
X98529000Y-73452000D03*
X97029000Y-73452000D03*
X208396000Y-75240000D03*
X206896000Y-75240000D03*
X205396000Y-75240000D03*
X203896000Y-75240000D03*
X202396000Y-75240000D03*
X200896000Y-75240000D03*
X199396000Y-75240000D03*
X197896000Y-75240000D03*
X196396000Y-75240000D03*
X194896000Y-75240000D03*
X193396000Y-75240000D03*
X191896000Y-75240000D03*
X190396000Y-75240000D03*
X188896000Y-75240000D03*
X187396000Y-75240000D03*
X185896000Y-75240000D03*
X184396000Y-75240000D03*
X182896000Y-75240000D03*
X181396000Y-75240000D03*
X179896000Y-75240000D03*
X178396000Y-75240000D03*
X176896000Y-75240000D03*
X175396000Y-75240000D03*
X173896000Y-75240000D03*
X172396000Y-75240000D03*
X170896000Y-75240000D03*
X169396000Y-75240000D03*
X167896000Y-75240000D03*
X166396000Y-75240000D03*
X164896000Y-75240000D03*
X163396000Y-75240000D03*
X161896000Y-75240000D03*
X160396000Y-75240000D03*
X152896000Y-75240000D03*
X151396000Y-75240000D03*
X149896000Y-75240000D03*
X148396000Y-75240000D03*
X146896000Y-75240000D03*
X145396000Y-75240000D03*
X143896000Y-75240000D03*
X142396000Y-75240000D03*
X140896000Y-75240000D03*
X139396000Y-75240000D03*
X137896000Y-75240000D03*
X136396000Y-75240000D03*
X134896000Y-75240000D03*
X133396000Y-75240000D03*
X131896000Y-75240000D03*
X130396000Y-75240000D03*
X128896000Y-75240000D03*
X119896000Y-75240000D03*
X118396000Y-75240000D03*
X116896000Y-75240000D03*
X115396000Y-75240000D03*
X113896000Y-75240000D03*
X112396000Y-75240000D03*
X110896000Y-75240000D03*
X109396000Y-75240000D03*
X107896000Y-75240000D03*
X106396000Y-75240000D03*
X104896000Y-75240000D03*
X103396000Y-75240000D03*
X101896000Y-75240000D03*
X100396000Y-75240000D03*
X98896000Y-75240000D03*
X97396000Y-75240000D03*
X95896000Y-75240000D03*
X94396000Y-75240000D03*
X92896000Y-75240000D03*
X91396000Y-75240000D03*
X89896000Y-75240000D03*
X88396000Y-75240000D03*
X86896000Y-75240000D03*
X83896000Y-75240000D03*
X82396000Y-75240000D03*
X80896000Y-75240000D03*
X79396000Y-75240000D03*
X77896000Y-75240000D03*
X76396000Y-75240000D03*
X71896000Y-75240000D03*
X74896000Y-75240000D03*
X209896000Y-75240000D03*
X73396000Y-75240000D03*
X85396000Y-75240000D03*
X208359000Y-73486000D03*
X206859000Y-73486000D03*
X205359000Y-73486000D03*
X203859000Y-73486000D03*
X202359000Y-73486000D03*
X200859000Y-73486000D03*
X199359000Y-73486000D03*
X197859000Y-73486000D03*
X196359000Y-73486000D03*
X194859000Y-73486000D03*
X193359000Y-73486000D03*
X191859000Y-73486000D03*
X190359000Y-73486000D03*
X188859000Y-73486000D03*
X187359000Y-73486000D03*
X185859000Y-73486000D03*
X184359000Y-73486000D03*
X182859000Y-73486000D03*
X181359000Y-73486000D03*
X179859000Y-73486000D03*
X178359000Y-73486000D03*
X176859000Y-73486000D03*
X175359000Y-73486000D03*
X173859000Y-73486000D03*
X172359000Y-73486000D03*
X170859000Y-73486000D03*
X169359000Y-73486000D03*
X167859000Y-73486000D03*
X166359000Y-73486000D03*
X164859000Y-73486000D03*
X163359000Y-73486000D03*
X161859000Y-73486000D03*
X160359000Y-73486000D03*
X151962000Y-73497000D03*
X150462000Y-73497000D03*
X148962000Y-73497000D03*
X147462000Y-73497000D03*
X145962000Y-73497000D03*
X144462000Y-73497000D03*
X142962000Y-73497000D03*
X141462000Y-73497000D03*
X139962000Y-73497000D03*
X138462000Y-73497000D03*
X136962000Y-73497000D03*
X135462000Y-73497000D03*
X133962000Y-73497000D03*
X132462000Y-73497000D03*
X130962000Y-73497000D03*
X129462000Y-73497000D03*
X127962000Y-73497000D03*
X119529000Y-73452000D03*
X118029000Y-73452000D03*
X116529000Y-73452000D03*
X115029000Y-73452000D03*
X113529000Y-73452000D03*
X112029000Y-73452000D03*
X110529000Y-73452000D03*
X109029000Y-73452000D03*
X107529000Y-73452000D03*
X106029000Y-73452000D03*
X104529000Y-73452000D03*
X103029000Y-73452000D03*
X101529000Y-73452000D03*
X100029000Y-73452000D03*
X208469000Y-59303000D03*
X206969000Y-59303000D03*
X205469000Y-59303000D03*
X203969000Y-59303000D03*
X202469000Y-59303000D03*
X200969000Y-59303000D03*
X199469000Y-59303000D03*
X197969000Y-59303000D03*
X196469000Y-59303000D03*
X194969000Y-59303000D03*
X193469000Y-59303000D03*
X191969000Y-59303000D03*
X190469000Y-59303000D03*
X188969000Y-59303000D03*
X187469000Y-59303000D03*
X185969000Y-59303000D03*
X184469000Y-59303000D03*
X182969000Y-59303000D03*
X181469000Y-59303000D03*
X179969000Y-59303000D03*
X178469000Y-59303000D03*
X176969000Y-59303000D03*
X175469000Y-59303000D03*
X173969000Y-59303000D03*
X172469000Y-59303000D03*
X170969000Y-59303000D03*
X169469000Y-59303000D03*
X167969000Y-59303000D03*
X166469000Y-59303000D03*
X164969000Y-59303000D03*
X163469000Y-59303000D03*
X161969000Y-59303000D03*
X160469000Y-59303000D03*
X158969000Y-59303000D03*
X157469000Y-59303000D03*
X155969000Y-59303000D03*
X154469000Y-59303000D03*
X152969000Y-59303000D03*
X151469000Y-59303000D03*
X149969000Y-59303000D03*
X148469000Y-59303000D03*
X146969000Y-59303000D03*
X145469000Y-59303000D03*
X143969000Y-59303000D03*
X142469000Y-59303000D03*
X140969000Y-59303000D03*
X139469000Y-59303000D03*
X137969000Y-59303000D03*
X136469000Y-59303000D03*
X134969000Y-59303000D03*
X133469000Y-59303000D03*
X131969000Y-59303000D03*
X130469000Y-59303000D03*
X128969000Y-59303000D03*
X127469000Y-59303000D03*
X125969000Y-59303000D03*
X124469000Y-59303000D03*
X122969000Y-59303000D03*
X121469000Y-59303000D03*
X119969000Y-59303000D03*
X118469000Y-59303000D03*
X116969000Y-59303000D03*
X115469000Y-59303000D03*
X113969000Y-59303000D03*
X112469000Y-59303000D03*
X110969000Y-59303000D03*
X109469000Y-59303000D03*
X107969000Y-59303000D03*
X106469000Y-59303000D03*
X104969000Y-59303000D03*
X103469000Y-59303000D03*
X101969000Y-59303000D03*
X100469000Y-59303000D03*
X98969000Y-59303000D03*
X97469000Y-59303000D03*
X95969000Y-59303000D03*
X94469000Y-59303000D03*
X92969000Y-59303000D03*
X91469000Y-59303000D03*
X89969000Y-59303000D03*
X88469000Y-59303000D03*
X86969000Y-59303000D03*
X85469000Y-59303000D03*
X83969000Y-59303000D03*
X82469000Y-59303000D03*
X80969000Y-59303000D03*
X79469000Y-59303000D03*
X77969000Y-59303000D03*
X76469000Y-59303000D03*
X74969000Y-59303000D03*
X73469000Y-59303000D03*
X71969000Y-59303000D03*
X209969000Y-59303000D03*
X100102000Y-57515000D03*
X101602000Y-57515000D03*
X103102000Y-57515000D03*
X104602000Y-57515000D03*
X106102000Y-57515000D03*
X107602000Y-57515000D03*
X109102000Y-57515000D03*
X110602000Y-57515000D03*
X112102000Y-57515000D03*
X113602000Y-57515000D03*
X115102000Y-57515000D03*
X116602000Y-57515000D03*
X118102000Y-57515000D03*
X119602000Y-57515000D03*
X121102000Y-57515000D03*
X122602000Y-57515000D03*
X97102000Y-57515000D03*
X98602000Y-57515000D03*
X71602000Y-57515000D03*
X73102000Y-57515000D03*
X74602000Y-57515000D03*
X76102000Y-57515000D03*
X77602000Y-57515000D03*
X79102000Y-57515000D03*
X80602000Y-57515000D03*
X82102000Y-57515000D03*
X83602000Y-57515000D03*
X85102000Y-57515000D03*
X86602000Y-57515000D03*
X88102000Y-57515000D03*
X89602000Y-57515000D03*
X95602000Y-57515000D03*
X92602000Y-57515000D03*
X91102000Y-57515000D03*
X94102000Y-57515000D03*
X125035000Y-57560000D03*
X126535000Y-57560000D03*
X128035000Y-57560000D03*
X129535000Y-57560000D03*
X131035000Y-57560000D03*
X132535000Y-57560000D03*
X134035000Y-57560000D03*
X135535000Y-57560000D03*
X137035000Y-57560000D03*
X138535000Y-57560000D03*
X140035000Y-57560000D03*
X141535000Y-57560000D03*
X143035000Y-57560000D03*
X144535000Y-57560000D03*
X146035000Y-57560000D03*
X147535000Y-57560000D03*
X149035000Y-57560000D03*
X150535000Y-57560000D03*
X152035000Y-57560000D03*
X153535000Y-57560000D03*
X157432000Y-57549000D03*
X158932000Y-57549000D03*
X160432000Y-57549000D03*
X161932000Y-57549000D03*
X163432000Y-57549000D03*
X164932000Y-57549000D03*
X166432000Y-57549000D03*
X167932000Y-57549000D03*
X169432000Y-57549000D03*
X170932000Y-57549000D03*
X172432000Y-57549000D03*
X173932000Y-57549000D03*
X175432000Y-57549000D03*
X176932000Y-57549000D03*
X178432000Y-57549000D03*
X179932000Y-57549000D03*
X181432000Y-57549000D03*
X182932000Y-57549000D03*
X184432000Y-57549000D03*
X185932000Y-57549000D03*
X187432000Y-57549000D03*
X188932000Y-57549000D03*
X190432000Y-57549000D03*
X191932000Y-57549000D03*
X193432000Y-57549000D03*
X194932000Y-57549000D03*
X196432000Y-57549000D03*
X197932000Y-57549000D03*
X199432000Y-57549000D03*
X200932000Y-57549000D03*
X202432000Y-57549000D03*
X203932000Y-57549000D03*
X205432000Y-57549000D03*
X206932000Y-57549000D03*
X208432000Y-57549000D03*
X209932000Y-57549000D03*
X125218000Y-54613000D03*
X206160000Y-108849000D03*
X157492000Y-76861000D03*
X182899000Y-141049000D03*
X100578000Y-125579000D03*
X100818000Y-92895000D03*
X157482000Y-54608000D03*
X125266000Y-76870000D03*
X183066000Y-92975000D03*
X77372000Y-108844000D03*
X100800000Y-141072000D03*
X182756000Y-125603000D03*
D12*
%TO.N,Net-(J3-In)*%
X154959400Y-73880500D03*
X154959400Y-72387400D03*
X124718000Y-70509300D03*
X157416400Y-73880500D03*
X123569000Y-71069500D03*
X157416400Y-72387400D03*
X155676000Y-71090000D03*
X122852400Y-73860000D03*
X125309400Y-72366900D03*
X156825000Y-70529800D03*
X125309400Y-73860000D03*
X122852400Y-72366900D03*
%TO.N,Net-(J5-In)*%
X100640400Y-89859500D03*
X100049000Y-86508800D03*
X181131000Y-87038500D03*
X98183400Y-89859500D03*
X180414400Y-89829000D03*
X182280000Y-86478300D03*
X182871400Y-88335900D03*
X98900000Y-87069000D03*
X182871400Y-89829000D03*
X100640400Y-88366400D03*
X180414400Y-88335900D03*
X98183400Y-88366400D03*
%TO.N,Net-(J7-In)*%
X203651400Y-104323400D03*
X77311400Y-105792500D03*
X77311400Y-104299400D03*
X74854400Y-105792500D03*
X203651400Y-105816500D03*
X206108400Y-104323400D03*
X75571000Y-103002000D03*
X206108400Y-105816500D03*
X74854400Y-104299400D03*
X205517000Y-102465800D03*
X76720000Y-102441800D03*
X204368000Y-103026000D03*
D11*
%TO.N,Net-(J10-In)*%
X79936000Y-123915000D03*
X191930000Y-123965000D03*
X199821000Y-123965000D03*
X87827000Y-123915000D03*
D12*
%TO.N,Net-(J11-In)*%
X98090400Y-138070500D03*
X99956000Y-134719800D03*
D11*
X191736000Y-140127000D03*
X87831000Y-140197000D03*
D12*
X182699400Y-138035500D03*
X100547400Y-136577400D03*
X98090400Y-136577400D03*
D11*
X199627000Y-140127000D03*
D12*
X182108000Y-134684800D03*
D11*
X79940000Y-140197000D03*
D12*
X98807000Y-135280000D03*
X180242400Y-136542400D03*
X180959000Y-135245000D03*
X100547400Y-138070500D03*
X180242400Y-138035500D03*
X182699400Y-136542400D03*
D11*
%TO.N,GND*%
X155035000Y-57560000D03*
X88973000Y-123142000D03*
X86826000Y-123131000D03*
X80826000Y-123131000D03*
%TD*%
%TA.AperFunction,Conductor*%
%TO.N,GND*%
G36*
X215615221Y-50838591D02*
G01*
X215682196Y-50858493D01*
X215727779Y-50911445D01*
X215738799Y-50964760D01*
X214031127Y-148539416D01*
X214010272Y-148606101D01*
X213956676Y-148650924D01*
X213907397Y-148661246D01*
X66887432Y-148958752D01*
X66820353Y-148939203D01*
X66774491Y-148886492D01*
X66763194Y-148836584D01*
X66683999Y-143465758D01*
X70302954Y-143465758D01*
X70302954Y-143465759D01*
X70334591Y-143486898D01*
X70513841Y-143561145D01*
X70513853Y-143561148D01*
X70704141Y-143598999D01*
X70704144Y-143599000D01*
X70898176Y-143599000D01*
X70898178Y-143598999D01*
X71088466Y-143561148D01*
X71088478Y-143561145D01*
X71267725Y-143486899D01*
X71299364Y-143465758D01*
X209737760Y-143465758D01*
X209737760Y-143465759D01*
X209769397Y-143486898D01*
X209948647Y-143561145D01*
X209948659Y-143561148D01*
X210138947Y-143598999D01*
X210138950Y-143599000D01*
X210332982Y-143599000D01*
X210332984Y-143598999D01*
X210523272Y-143561148D01*
X210523284Y-143561145D01*
X210702531Y-143486899D01*
X210734170Y-143465758D01*
X210235967Y-142967554D01*
X210235966Y-142967554D01*
X209737760Y-143465758D01*
X71299364Y-143465758D01*
X70801161Y-142967554D01*
X70801160Y-142967554D01*
X70302954Y-143465758D01*
X66683999Y-143465758D01*
X66670009Y-142516981D01*
X69816160Y-142516981D01*
X69816160Y-142711018D01*
X69854011Y-142901306D01*
X69854013Y-142901314D01*
X69928262Y-143080568D01*
X69928266Y-143080575D01*
X69949400Y-143112204D01*
X69949401Y-143112205D01*
X70447606Y-142614000D01*
X70401856Y-142568250D01*
X70571160Y-142568250D01*
X70571160Y-142659750D01*
X70606175Y-142744285D01*
X70670875Y-142808985D01*
X70755410Y-142844000D01*
X70846910Y-142844000D01*
X70931445Y-142808985D01*
X70996145Y-142744285D01*
X71031160Y-142659750D01*
X71031160Y-142613999D01*
X71154714Y-142613999D01*
X71154714Y-142614000D01*
X71652918Y-143112204D01*
X71674059Y-143080565D01*
X71748305Y-142901318D01*
X71748308Y-142901306D01*
X71786159Y-142711018D01*
X71786160Y-142711016D01*
X71786160Y-142516983D01*
X71786159Y-142516981D01*
X209250966Y-142516981D01*
X209250966Y-142711018D01*
X209288817Y-142901306D01*
X209288819Y-142901314D01*
X209363068Y-143080568D01*
X209363072Y-143080575D01*
X209384206Y-143112204D01*
X209384207Y-143112205D01*
X209882412Y-142614000D01*
X209836662Y-142568250D01*
X210005966Y-142568250D01*
X210005966Y-142659750D01*
X210040981Y-142744285D01*
X210105681Y-142808985D01*
X210190216Y-142844000D01*
X210281716Y-142844000D01*
X210366251Y-142808985D01*
X210430951Y-142744285D01*
X210465966Y-142659750D01*
X210465966Y-142613999D01*
X210589520Y-142613999D01*
X210589520Y-142614000D01*
X211087724Y-143112204D01*
X211108865Y-143080565D01*
X211183111Y-142901318D01*
X211183114Y-142901306D01*
X211220965Y-142711018D01*
X211220966Y-142711016D01*
X211220966Y-142516983D01*
X211220965Y-142516981D01*
X211183114Y-142326693D01*
X211183111Y-142326681D01*
X211108864Y-142147431D01*
X211087724Y-142115794D01*
X210589520Y-142613999D01*
X210465966Y-142613999D01*
X210465966Y-142568250D01*
X210430951Y-142483715D01*
X210366251Y-142419015D01*
X210281716Y-142384000D01*
X210190216Y-142384000D01*
X210105681Y-142419015D01*
X210040981Y-142483715D01*
X210005966Y-142568250D01*
X209836662Y-142568250D01*
X209384206Y-142115794D01*
X209363070Y-142147426D01*
X209363069Y-142147428D01*
X209288819Y-142326685D01*
X209288817Y-142326693D01*
X209250966Y-142516981D01*
X71786159Y-142516981D01*
X71748308Y-142326693D01*
X71748305Y-142326681D01*
X71674058Y-142147431D01*
X71652918Y-142115794D01*
X71154714Y-142613999D01*
X71031160Y-142613999D01*
X71031160Y-142568250D01*
X70996145Y-142483715D01*
X70931445Y-142419015D01*
X70846910Y-142384000D01*
X70755410Y-142384000D01*
X70670875Y-142419015D01*
X70606175Y-142483715D01*
X70571160Y-142568250D01*
X70401856Y-142568250D01*
X69949400Y-142115794D01*
X69928264Y-142147426D01*
X69928263Y-142147428D01*
X69854013Y-142326685D01*
X69854011Y-142326693D01*
X69816160Y-142516981D01*
X66670009Y-142516981D01*
X66658880Y-141762240D01*
X70302954Y-141762240D01*
X70801160Y-142260446D01*
X70801161Y-142260446D01*
X71299365Y-141762240D01*
X209737760Y-141762240D01*
X210235966Y-142260446D01*
X210235967Y-142260446D01*
X210734171Y-141762241D01*
X210734170Y-141762240D01*
X210702541Y-141741106D01*
X210702534Y-141741102D01*
X210523280Y-141666853D01*
X210523272Y-141666851D01*
X210332983Y-141629000D01*
X210138949Y-141629000D01*
X209948659Y-141666851D01*
X209948651Y-141666853D01*
X209769394Y-141741103D01*
X209769392Y-141741104D01*
X209737760Y-141762240D01*
X71299365Y-141762240D01*
X71267735Y-141741106D01*
X71267728Y-141741102D01*
X71088474Y-141666853D01*
X71088466Y-141666851D01*
X70898177Y-141629000D01*
X70704143Y-141629000D01*
X70513853Y-141666851D01*
X70513845Y-141666853D01*
X70334588Y-141741103D01*
X70334586Y-141741104D01*
X70302954Y-141762240D01*
X66658880Y-141762240D01*
X66634637Y-140118153D01*
X79139500Y-140118153D01*
X79139500Y-140275846D01*
X79170261Y-140430489D01*
X79170264Y-140430501D01*
X79230602Y-140576172D01*
X79230609Y-140576185D01*
X79318210Y-140707288D01*
X79318213Y-140707292D01*
X79429707Y-140818786D01*
X79429711Y-140818789D01*
X79560814Y-140906390D01*
X79560827Y-140906397D01*
X79706498Y-140966735D01*
X79706503Y-140966737D01*
X79861153Y-140997499D01*
X79861156Y-140997500D01*
X79861158Y-140997500D01*
X80018844Y-140997500D01*
X80018845Y-140997499D01*
X80173497Y-140966737D01*
X80319179Y-140906394D01*
X80450289Y-140818789D01*
X80561789Y-140707289D01*
X80649394Y-140576179D01*
X80709737Y-140430497D01*
X80740500Y-140275842D01*
X80740500Y-140118158D01*
X80740500Y-140118155D01*
X80740499Y-140118153D01*
X87030500Y-140118153D01*
X87030500Y-140275846D01*
X87061261Y-140430489D01*
X87061264Y-140430501D01*
X87121602Y-140576172D01*
X87121609Y-140576185D01*
X87209210Y-140707288D01*
X87209213Y-140707292D01*
X87320707Y-140818786D01*
X87320711Y-140818789D01*
X87451814Y-140906390D01*
X87451827Y-140906397D01*
X87597498Y-140966735D01*
X87597503Y-140966737D01*
X87752153Y-140997499D01*
X87752156Y-140997500D01*
X87752158Y-140997500D01*
X87909844Y-140997500D01*
X87909845Y-140997499D01*
X88064497Y-140966737D01*
X88210179Y-140906394D01*
X88341289Y-140818789D01*
X88452789Y-140707289D01*
X88540394Y-140576179D01*
X88600737Y-140430497D01*
X88631500Y-140275842D01*
X88631500Y-140118158D01*
X88631500Y-140118155D01*
X88631499Y-140118153D01*
X88621177Y-140066257D01*
X88617576Y-140048153D01*
X190935500Y-140048153D01*
X190935500Y-140205846D01*
X190966261Y-140360489D01*
X190966264Y-140360501D01*
X191026602Y-140506172D01*
X191026609Y-140506185D01*
X191114210Y-140637288D01*
X191114213Y-140637292D01*
X191225707Y-140748786D01*
X191225711Y-140748789D01*
X191356814Y-140836390D01*
X191356827Y-140836397D01*
X191502498Y-140896735D01*
X191502503Y-140896737D01*
X191657153Y-140927499D01*
X191657156Y-140927500D01*
X191657158Y-140927500D01*
X191814844Y-140927500D01*
X191814845Y-140927499D01*
X191969497Y-140896737D01*
X192115179Y-140836394D01*
X192246289Y-140748789D01*
X192357789Y-140637289D01*
X192445394Y-140506179D01*
X192505737Y-140360497D01*
X192536500Y-140205842D01*
X192536500Y-140048158D01*
X192536500Y-140048155D01*
X192536499Y-140048153D01*
X198826500Y-140048153D01*
X198826500Y-140205846D01*
X198857261Y-140360489D01*
X198857264Y-140360501D01*
X198917602Y-140506172D01*
X198917609Y-140506185D01*
X199005210Y-140637288D01*
X199005213Y-140637292D01*
X199116707Y-140748786D01*
X199116711Y-140748789D01*
X199247814Y-140836390D01*
X199247827Y-140836397D01*
X199393498Y-140896735D01*
X199393503Y-140896737D01*
X199548153Y-140927499D01*
X199548156Y-140927500D01*
X199548158Y-140927500D01*
X199705844Y-140927500D01*
X199705845Y-140927499D01*
X199860497Y-140896737D01*
X200006179Y-140836394D01*
X200137289Y-140748789D01*
X200248789Y-140637289D01*
X200336394Y-140506179D01*
X200396737Y-140360497D01*
X200427500Y-140205842D01*
X200427500Y-140048158D01*
X200427500Y-140048155D01*
X200427499Y-140048153D01*
X200396738Y-139893510D01*
X200396737Y-139893503D01*
X200396735Y-139893498D01*
X200336397Y-139747827D01*
X200336390Y-139747814D01*
X200248789Y-139616711D01*
X200248786Y-139616707D01*
X200137292Y-139505213D01*
X200137288Y-139505210D01*
X200006185Y-139417609D01*
X200006172Y-139417602D01*
X199860501Y-139357264D01*
X199860489Y-139357261D01*
X199705845Y-139326500D01*
X199705842Y-139326500D01*
X199548158Y-139326500D01*
X199548155Y-139326500D01*
X199393510Y-139357261D01*
X199393498Y-139357264D01*
X199247827Y-139417602D01*
X199247814Y-139417609D01*
X199116711Y-139505210D01*
X199116707Y-139505213D01*
X199005213Y-139616707D01*
X199005210Y-139616711D01*
X198917609Y-139747814D01*
X198917602Y-139747827D01*
X198857264Y-139893498D01*
X198857261Y-139893510D01*
X198826500Y-140048153D01*
X192536499Y-140048153D01*
X192505738Y-139893510D01*
X192505737Y-139893503D01*
X192505735Y-139893498D01*
X192445397Y-139747827D01*
X192445390Y-139747814D01*
X192357789Y-139616711D01*
X192357786Y-139616707D01*
X192246292Y-139505213D01*
X192246288Y-139505210D01*
X192115185Y-139417609D01*
X192115172Y-139417602D01*
X191969501Y-139357264D01*
X191969489Y-139357261D01*
X191814845Y-139326500D01*
X191814842Y-139326500D01*
X191657158Y-139326500D01*
X191657155Y-139326500D01*
X191502510Y-139357261D01*
X191502498Y-139357264D01*
X191356827Y-139417602D01*
X191356814Y-139417609D01*
X191225711Y-139505210D01*
X191225707Y-139505213D01*
X191114213Y-139616707D01*
X191114210Y-139616711D01*
X191026609Y-139747814D01*
X191026602Y-139747827D01*
X190966264Y-139893498D01*
X190966261Y-139893510D01*
X190935500Y-140048153D01*
X88617576Y-140048153D01*
X88600738Y-139963508D01*
X88600737Y-139963507D01*
X88600737Y-139963503D01*
X88571745Y-139893510D01*
X88540397Y-139817827D01*
X88540390Y-139817814D01*
X88452789Y-139686711D01*
X88452786Y-139686707D01*
X88341292Y-139575213D01*
X88341288Y-139575210D01*
X88210185Y-139487609D01*
X88210172Y-139487602D01*
X88064501Y-139427264D01*
X88064489Y-139427261D01*
X87909845Y-139396500D01*
X87909842Y-139396500D01*
X87752158Y-139396500D01*
X87752155Y-139396500D01*
X87597510Y-139427261D01*
X87597498Y-139427264D01*
X87451827Y-139487602D01*
X87451814Y-139487609D01*
X87320711Y-139575210D01*
X87320707Y-139575213D01*
X87209213Y-139686707D01*
X87209210Y-139686711D01*
X87121609Y-139817814D01*
X87121602Y-139817827D01*
X87061264Y-139963498D01*
X87061261Y-139963510D01*
X87030500Y-140118153D01*
X80740499Y-140118153D01*
X80709738Y-139963510D01*
X80709738Y-139963508D01*
X80709737Y-139963503D01*
X80680745Y-139893510D01*
X80649397Y-139817827D01*
X80649390Y-139817814D01*
X80561789Y-139686711D01*
X80561786Y-139686707D01*
X80450292Y-139575213D01*
X80450288Y-139575210D01*
X80319185Y-139487609D01*
X80319172Y-139487602D01*
X80173501Y-139427264D01*
X80173489Y-139427261D01*
X80018845Y-139396500D01*
X80018842Y-139396500D01*
X79861158Y-139396500D01*
X79861155Y-139396500D01*
X79706510Y-139427261D01*
X79706498Y-139427264D01*
X79560827Y-139487602D01*
X79560814Y-139487609D01*
X79429711Y-139575210D01*
X79429707Y-139575213D01*
X79318213Y-139686707D01*
X79318210Y-139686711D01*
X79230609Y-139817814D01*
X79230602Y-139817827D01*
X79170264Y-139963498D01*
X79170261Y-139963510D01*
X79139500Y-140118153D01*
X66634637Y-140118153D01*
X66613232Y-138666500D01*
X96830000Y-138666500D01*
X97632417Y-138666500D01*
X97699456Y-138686185D01*
X97701262Y-138687367D01*
X97745042Y-138716620D01*
X97877729Y-138771581D01*
X98018585Y-138799599D01*
X98018588Y-138799600D01*
X98018590Y-138799600D01*
X98162212Y-138799600D01*
X98162213Y-138799599D01*
X98303071Y-138771581D01*
X98435758Y-138716620D01*
X98479492Y-138687397D01*
X98546169Y-138666520D01*
X98548383Y-138666500D01*
X100089417Y-138666500D01*
X100156456Y-138686185D01*
X100158262Y-138687367D01*
X100202042Y-138716620D01*
X100334729Y-138771581D01*
X100475585Y-138799599D01*
X100475588Y-138799600D01*
X100475590Y-138799600D01*
X100619212Y-138799600D01*
X100619213Y-138799599D01*
X100760071Y-138771581D01*
X100892758Y-138716620D01*
X100936492Y-138687397D01*
X101003169Y-138666520D01*
X101005383Y-138666500D01*
X101830000Y-138666500D01*
X101830000Y-138631500D01*
X178982000Y-138631500D01*
X179784417Y-138631500D01*
X179851456Y-138651185D01*
X179853262Y-138652367D01*
X179897042Y-138681620D01*
X180029729Y-138736581D01*
X180170585Y-138764599D01*
X180170588Y-138764600D01*
X180170590Y-138764600D01*
X180314212Y-138764600D01*
X180314213Y-138764599D01*
X180455071Y-138736581D01*
X180587758Y-138681620D01*
X180631492Y-138652397D01*
X180698169Y-138631520D01*
X180700383Y-138631500D01*
X182241417Y-138631500D01*
X182308456Y-138651185D01*
X182310262Y-138652367D01*
X182354042Y-138681620D01*
X182486729Y-138736581D01*
X182627585Y-138764599D01*
X182627588Y-138764600D01*
X182627590Y-138764600D01*
X182771212Y-138764600D01*
X182771213Y-138764599D01*
X182912071Y-138736581D01*
X183044758Y-138681620D01*
X183088492Y-138652397D01*
X183155169Y-138631520D01*
X183157383Y-138631500D01*
X183982000Y-138631500D01*
X183982000Y-134705758D01*
X209737760Y-134705758D01*
X209737760Y-134705759D01*
X209769397Y-134726898D01*
X209948647Y-134801145D01*
X209948659Y-134801148D01*
X210138947Y-134838999D01*
X210138950Y-134839000D01*
X210332982Y-134839000D01*
X210332984Y-134838999D01*
X210523272Y-134801148D01*
X210523284Y-134801145D01*
X210702531Y-134726899D01*
X210734170Y-134705758D01*
X210235967Y-134207554D01*
X210235966Y-134207554D01*
X209737760Y-134705758D01*
X183982000Y-134705758D01*
X183982000Y-133756981D01*
X209250966Y-133756981D01*
X209250966Y-133951018D01*
X209288817Y-134141306D01*
X209288819Y-134141314D01*
X209363068Y-134320568D01*
X209363072Y-134320575D01*
X209384206Y-134352204D01*
X209384207Y-134352205D01*
X209882412Y-133854000D01*
X209836662Y-133808250D01*
X210005966Y-133808250D01*
X210005966Y-133899750D01*
X210040981Y-133984285D01*
X210105681Y-134048985D01*
X210190216Y-134084000D01*
X210281716Y-134084000D01*
X210366251Y-134048985D01*
X210430951Y-133984285D01*
X210465966Y-133899750D01*
X210465966Y-133853999D01*
X210589520Y-133853999D01*
X210589520Y-133854000D01*
X211087724Y-134352204D01*
X211108865Y-134320565D01*
X211183111Y-134141318D01*
X211183114Y-134141306D01*
X211220965Y-133951018D01*
X211220966Y-133951016D01*
X211220966Y-133756983D01*
X211220965Y-133756981D01*
X211183114Y-133566693D01*
X211183111Y-133566681D01*
X211108864Y-133387431D01*
X211087724Y-133355794D01*
X210589520Y-133853999D01*
X210465966Y-133853999D01*
X210465966Y-133808250D01*
X210430951Y-133723715D01*
X210366251Y-133659015D01*
X210281716Y-133624000D01*
X210190216Y-133624000D01*
X210105681Y-133659015D01*
X210040981Y-133723715D01*
X210005966Y-133808250D01*
X209836662Y-133808250D01*
X209384206Y-133355794D01*
X209363070Y-133387426D01*
X209363069Y-133387428D01*
X209288819Y-133566685D01*
X209288817Y-133566693D01*
X209250966Y-133756981D01*
X183982000Y-133756981D01*
X183982000Y-133631500D01*
X178982000Y-133631500D01*
X178982000Y-138631500D01*
X101830000Y-138631500D01*
X101830000Y-133666500D01*
X96830000Y-133666500D01*
X96830000Y-138666500D01*
X66613232Y-138666500D01*
X66554830Y-134705758D01*
X70302954Y-134705758D01*
X70302954Y-134705759D01*
X70334591Y-134726898D01*
X70513841Y-134801145D01*
X70513853Y-134801148D01*
X70704141Y-134838999D01*
X70704144Y-134839000D01*
X70898176Y-134839000D01*
X70898178Y-134838999D01*
X71088466Y-134801148D01*
X71088478Y-134801145D01*
X71267725Y-134726899D01*
X71299364Y-134705758D01*
X70801161Y-134207554D01*
X70801160Y-134207554D01*
X70302954Y-134705758D01*
X66554830Y-134705758D01*
X66540840Y-133756981D01*
X69816160Y-133756981D01*
X69816160Y-133951018D01*
X69854011Y-134141306D01*
X69854013Y-134141314D01*
X69928262Y-134320568D01*
X69928266Y-134320575D01*
X69949400Y-134352204D01*
X69949401Y-134352205D01*
X70447606Y-133854000D01*
X70401856Y-133808250D01*
X70571160Y-133808250D01*
X70571160Y-133899750D01*
X70606175Y-133984285D01*
X70670875Y-134048985D01*
X70755410Y-134084000D01*
X70846910Y-134084000D01*
X70931445Y-134048985D01*
X70996145Y-133984285D01*
X71031160Y-133899750D01*
X71031160Y-133853999D01*
X71154714Y-133853999D01*
X71154714Y-133854000D01*
X71652918Y-134352204D01*
X71674059Y-134320565D01*
X71748305Y-134141318D01*
X71748308Y-134141306D01*
X71786159Y-133951018D01*
X71786160Y-133951016D01*
X71786160Y-133756983D01*
X71786159Y-133756981D01*
X71762757Y-133639329D01*
X71748308Y-133566693D01*
X71748305Y-133566681D01*
X71674058Y-133387431D01*
X71652918Y-133355794D01*
X71154714Y-133853999D01*
X71031160Y-133853999D01*
X71031160Y-133808250D01*
X70996145Y-133723715D01*
X70931445Y-133659015D01*
X70846910Y-133624000D01*
X70755410Y-133624000D01*
X70670875Y-133659015D01*
X70606175Y-133723715D01*
X70571160Y-133808250D01*
X70401856Y-133808250D01*
X69949400Y-133355794D01*
X69928264Y-133387426D01*
X69928263Y-133387428D01*
X69854013Y-133566685D01*
X69854011Y-133566693D01*
X69816160Y-133756981D01*
X66540840Y-133756981D01*
X66529711Y-133002240D01*
X70302954Y-133002240D01*
X70801160Y-133500446D01*
X70801161Y-133500446D01*
X71299365Y-133002240D01*
X209737760Y-133002240D01*
X210235966Y-133500446D01*
X210235967Y-133500446D01*
X210734171Y-133002241D01*
X210734170Y-133002240D01*
X210702541Y-132981106D01*
X210702534Y-132981102D01*
X210523280Y-132906853D01*
X210523272Y-132906851D01*
X210332983Y-132869000D01*
X210138949Y-132869000D01*
X209948659Y-132906851D01*
X209948651Y-132906853D01*
X209769394Y-132981103D01*
X209769392Y-132981104D01*
X209737760Y-133002240D01*
X71299365Y-133002240D01*
X71267735Y-132981106D01*
X71267728Y-132981102D01*
X71088474Y-132906853D01*
X71088466Y-132906851D01*
X70898177Y-132869000D01*
X70704143Y-132869000D01*
X70513853Y-132906851D01*
X70513845Y-132906853D01*
X70334588Y-132981103D01*
X70334586Y-132981104D01*
X70302954Y-133002240D01*
X66529711Y-133002240D01*
X66448324Y-127482758D01*
X70302954Y-127482758D01*
X70302954Y-127482759D01*
X70334591Y-127503898D01*
X70513841Y-127578145D01*
X70513853Y-127578148D01*
X70704141Y-127615999D01*
X70704144Y-127616000D01*
X70898176Y-127616000D01*
X70898178Y-127615999D01*
X71088466Y-127578148D01*
X71088478Y-127578145D01*
X71267725Y-127503899D01*
X71299364Y-127482758D01*
X209737760Y-127482758D01*
X209737760Y-127482759D01*
X209769397Y-127503898D01*
X209948647Y-127578145D01*
X209948659Y-127578148D01*
X210138947Y-127615999D01*
X210138950Y-127616000D01*
X210332982Y-127616000D01*
X210332984Y-127615999D01*
X210523272Y-127578148D01*
X210523284Y-127578145D01*
X210702531Y-127503899D01*
X210734170Y-127482758D01*
X210235967Y-126984554D01*
X210235966Y-126984554D01*
X209737760Y-127482758D01*
X71299364Y-127482758D01*
X70801161Y-126984554D01*
X70801160Y-126984554D01*
X70302954Y-127482758D01*
X66448324Y-127482758D01*
X66434334Y-126533981D01*
X69816160Y-126533981D01*
X69816160Y-126728018D01*
X69854011Y-126918306D01*
X69854013Y-126918314D01*
X69928262Y-127097568D01*
X69928266Y-127097575D01*
X69949400Y-127129204D01*
X69949401Y-127129205D01*
X70447606Y-126631000D01*
X70401856Y-126585250D01*
X70571160Y-126585250D01*
X70571160Y-126676750D01*
X70606175Y-126761285D01*
X70670875Y-126825985D01*
X70755410Y-126861000D01*
X70846910Y-126861000D01*
X70931445Y-126825985D01*
X70996145Y-126761285D01*
X71031160Y-126676750D01*
X71031160Y-126630999D01*
X71154714Y-126630999D01*
X71154714Y-126631000D01*
X71652918Y-127129204D01*
X71674059Y-127097565D01*
X71748305Y-126918318D01*
X71748308Y-126918306D01*
X71786159Y-126728018D01*
X71786160Y-126728016D01*
X71786160Y-126533983D01*
X71786159Y-126533981D01*
X209250966Y-126533981D01*
X209250966Y-126728018D01*
X209288817Y-126918306D01*
X209288819Y-126918314D01*
X209363068Y-127097568D01*
X209363072Y-127097575D01*
X209384206Y-127129204D01*
X209384207Y-127129205D01*
X209882412Y-126631000D01*
X209836662Y-126585250D01*
X210005966Y-126585250D01*
X210005966Y-126676750D01*
X210040981Y-126761285D01*
X210105681Y-126825985D01*
X210190216Y-126861000D01*
X210281716Y-126861000D01*
X210366251Y-126825985D01*
X210430951Y-126761285D01*
X210465966Y-126676750D01*
X210465966Y-126630999D01*
X210589520Y-126630999D01*
X210589520Y-126631000D01*
X211087724Y-127129204D01*
X211108865Y-127097565D01*
X211183111Y-126918318D01*
X211183114Y-126918306D01*
X211220965Y-126728018D01*
X211220966Y-126728016D01*
X211220966Y-126533983D01*
X211220965Y-126533981D01*
X211183114Y-126343693D01*
X211183111Y-126343681D01*
X211108864Y-126164431D01*
X211087724Y-126132794D01*
X210589520Y-126630999D01*
X210465966Y-126630999D01*
X210465966Y-126585250D01*
X210430951Y-126500715D01*
X210366251Y-126436015D01*
X210281716Y-126401000D01*
X210190216Y-126401000D01*
X210105681Y-126436015D01*
X210040981Y-126500715D01*
X210005966Y-126585250D01*
X209836662Y-126585250D01*
X209384206Y-126132794D01*
X209363070Y-126164426D01*
X209363069Y-126164428D01*
X209288819Y-126343685D01*
X209288817Y-126343693D01*
X209250966Y-126533981D01*
X71786159Y-126533981D01*
X71748308Y-126343693D01*
X71748305Y-126343681D01*
X71674058Y-126164431D01*
X71652918Y-126132794D01*
X71154714Y-126630999D01*
X71031160Y-126630999D01*
X71031160Y-126585250D01*
X70996145Y-126500715D01*
X70931445Y-126436015D01*
X70846910Y-126401000D01*
X70755410Y-126401000D01*
X70670875Y-126436015D01*
X70606175Y-126500715D01*
X70571160Y-126585250D01*
X70401856Y-126585250D01*
X69949400Y-126132794D01*
X69928264Y-126164426D01*
X69928263Y-126164428D01*
X69854013Y-126343685D01*
X69854011Y-126343693D01*
X69816160Y-126533981D01*
X66434334Y-126533981D01*
X66423205Y-125779240D01*
X70302954Y-125779240D01*
X70801160Y-126277446D01*
X70801161Y-126277446D01*
X71299365Y-125779240D01*
X209737760Y-125779240D01*
X210235966Y-126277446D01*
X210235967Y-126277446D01*
X210734171Y-125779241D01*
X210734170Y-125779240D01*
X210702541Y-125758106D01*
X210702534Y-125758102D01*
X210523280Y-125683853D01*
X210523272Y-125683851D01*
X210332983Y-125646000D01*
X210138949Y-125646000D01*
X209948659Y-125683851D01*
X209948651Y-125683853D01*
X209769394Y-125758103D01*
X209769392Y-125758104D01*
X209737760Y-125779240D01*
X71299365Y-125779240D01*
X71267735Y-125758106D01*
X71267728Y-125758102D01*
X71088474Y-125683853D01*
X71088466Y-125683851D01*
X70898177Y-125646000D01*
X70704143Y-125646000D01*
X70513853Y-125683851D01*
X70513845Y-125683853D01*
X70334588Y-125758103D01*
X70334586Y-125758104D01*
X70302954Y-125779240D01*
X66423205Y-125779240D01*
X66394553Y-123836153D01*
X79135500Y-123836153D01*
X79135500Y-123993846D01*
X79166261Y-124148489D01*
X79166264Y-124148501D01*
X79226602Y-124294172D01*
X79226609Y-124294185D01*
X79314210Y-124425288D01*
X79314213Y-124425292D01*
X79425707Y-124536786D01*
X79425711Y-124536789D01*
X79556814Y-124624390D01*
X79556827Y-124624397D01*
X79702498Y-124684735D01*
X79702503Y-124684737D01*
X79857153Y-124715499D01*
X79857156Y-124715500D01*
X79857158Y-124715500D01*
X80014844Y-124715500D01*
X80014845Y-124715499D01*
X80169497Y-124684737D01*
X80315179Y-124624394D01*
X80446289Y-124536789D01*
X80557789Y-124425289D01*
X80645394Y-124294179D01*
X80705737Y-124148497D01*
X80736500Y-123993842D01*
X80736500Y-123836158D01*
X80736500Y-123836155D01*
X80736499Y-123836153D01*
X87026500Y-123836153D01*
X87026500Y-123993846D01*
X87057261Y-124148489D01*
X87057264Y-124148501D01*
X87117602Y-124294172D01*
X87117609Y-124294185D01*
X87205210Y-124425288D01*
X87205213Y-124425292D01*
X87316707Y-124536786D01*
X87316711Y-124536789D01*
X87447814Y-124624390D01*
X87447827Y-124624397D01*
X87593498Y-124684735D01*
X87593503Y-124684737D01*
X87748153Y-124715499D01*
X87748156Y-124715500D01*
X87748158Y-124715500D01*
X87905844Y-124715500D01*
X87905845Y-124715499D01*
X88060497Y-124684737D01*
X88206179Y-124624394D01*
X88337289Y-124536789D01*
X88448789Y-124425289D01*
X88536394Y-124294179D01*
X88596737Y-124148497D01*
X88627500Y-123993842D01*
X88627500Y-123886153D01*
X191129500Y-123886153D01*
X191129500Y-124043846D01*
X191160261Y-124198489D01*
X191160264Y-124198501D01*
X191220602Y-124344172D01*
X191220609Y-124344185D01*
X191308210Y-124475288D01*
X191308213Y-124475292D01*
X191419707Y-124586786D01*
X191419711Y-124586789D01*
X191550814Y-124674390D01*
X191550827Y-124674397D01*
X191650060Y-124715500D01*
X191696503Y-124734737D01*
X191851153Y-124765499D01*
X191851156Y-124765500D01*
X191851158Y-124765500D01*
X192008844Y-124765500D01*
X192008845Y-124765499D01*
X192163497Y-124734737D01*
X192309179Y-124674394D01*
X192440289Y-124586789D01*
X192551789Y-124475289D01*
X192639394Y-124344179D01*
X192699737Y-124198497D01*
X192730500Y-124043842D01*
X192730500Y-123886158D01*
X192730500Y-123886155D01*
X192730499Y-123886153D01*
X199020500Y-123886153D01*
X199020500Y-124043846D01*
X199051261Y-124198489D01*
X199051264Y-124198501D01*
X199111602Y-124344172D01*
X199111609Y-124344185D01*
X199199210Y-124475288D01*
X199199213Y-124475292D01*
X199310707Y-124586786D01*
X199310711Y-124586789D01*
X199441814Y-124674390D01*
X199441827Y-124674397D01*
X199541060Y-124715500D01*
X199587503Y-124734737D01*
X199742153Y-124765499D01*
X199742156Y-124765500D01*
X199742158Y-124765500D01*
X199899844Y-124765500D01*
X199899845Y-124765499D01*
X200054497Y-124734737D01*
X200200179Y-124674394D01*
X200331289Y-124586789D01*
X200442789Y-124475289D01*
X200530394Y-124344179D01*
X200590737Y-124198497D01*
X200621500Y-124043842D01*
X200621500Y-123886158D01*
X200621500Y-123886155D01*
X200621499Y-123886153D01*
X200590738Y-123731510D01*
X200590737Y-123731503D01*
X200590735Y-123731498D01*
X200530397Y-123585827D01*
X200530390Y-123585814D01*
X200442789Y-123454711D01*
X200442786Y-123454707D01*
X200331292Y-123343213D01*
X200331288Y-123343210D01*
X200200185Y-123255609D01*
X200200172Y-123255602D01*
X200054501Y-123195264D01*
X200054489Y-123195261D01*
X199899845Y-123164500D01*
X199899842Y-123164500D01*
X199742158Y-123164500D01*
X199742155Y-123164500D01*
X199587510Y-123195261D01*
X199587498Y-123195264D01*
X199441827Y-123255602D01*
X199441814Y-123255609D01*
X199310711Y-123343210D01*
X199310707Y-123343213D01*
X199199213Y-123454707D01*
X199199210Y-123454711D01*
X199111609Y-123585814D01*
X199111602Y-123585827D01*
X199051264Y-123731498D01*
X199051261Y-123731510D01*
X199020500Y-123886153D01*
X192730499Y-123886153D01*
X192699738Y-123731510D01*
X192699737Y-123731503D01*
X192699735Y-123731498D01*
X192639397Y-123585827D01*
X192639390Y-123585814D01*
X192551789Y-123454711D01*
X192551786Y-123454707D01*
X192440292Y-123343213D01*
X192440288Y-123343210D01*
X192309185Y-123255609D01*
X192309172Y-123255602D01*
X192163501Y-123195264D01*
X192163489Y-123195261D01*
X192008845Y-123164500D01*
X192008842Y-123164500D01*
X191851158Y-123164500D01*
X191851155Y-123164500D01*
X191696510Y-123195261D01*
X191696498Y-123195264D01*
X191550827Y-123255602D01*
X191550814Y-123255609D01*
X191419711Y-123343210D01*
X191419707Y-123343213D01*
X191308213Y-123454707D01*
X191308210Y-123454711D01*
X191220609Y-123585814D01*
X191220602Y-123585827D01*
X191160264Y-123731498D01*
X191160261Y-123731510D01*
X191129500Y-123886153D01*
X88627500Y-123886153D01*
X88627500Y-123836158D01*
X88627500Y-123836155D01*
X88627499Y-123836153D01*
X88606684Y-123731510D01*
X88596737Y-123681503D01*
X88557102Y-123585814D01*
X88536397Y-123535827D01*
X88536390Y-123535814D01*
X88448789Y-123404711D01*
X88448786Y-123404707D01*
X88337292Y-123293213D01*
X88337288Y-123293210D01*
X88206185Y-123205609D01*
X88206172Y-123205602D01*
X88060501Y-123145264D01*
X88060489Y-123145261D01*
X87905845Y-123114500D01*
X87905842Y-123114500D01*
X87748158Y-123114500D01*
X87748155Y-123114500D01*
X87593510Y-123145261D01*
X87593498Y-123145264D01*
X87447827Y-123205602D01*
X87447814Y-123205609D01*
X87316711Y-123293210D01*
X87316707Y-123293213D01*
X87205213Y-123404707D01*
X87205210Y-123404711D01*
X87117609Y-123535814D01*
X87117602Y-123535827D01*
X87057264Y-123681498D01*
X87057261Y-123681510D01*
X87026500Y-123836153D01*
X80736499Y-123836153D01*
X80715684Y-123731510D01*
X80705737Y-123681503D01*
X80666102Y-123585814D01*
X80645397Y-123535827D01*
X80645390Y-123535814D01*
X80557789Y-123404711D01*
X80557786Y-123404707D01*
X80446292Y-123293213D01*
X80446288Y-123293210D01*
X80315185Y-123205609D01*
X80315172Y-123205602D01*
X80169501Y-123145264D01*
X80169489Y-123145261D01*
X80014845Y-123114500D01*
X80014842Y-123114500D01*
X79857158Y-123114500D01*
X79857155Y-123114500D01*
X79702510Y-123145261D01*
X79702498Y-123145264D01*
X79556827Y-123205602D01*
X79556814Y-123205609D01*
X79425711Y-123293210D01*
X79425707Y-123293213D01*
X79314213Y-123404707D01*
X79314210Y-123404711D01*
X79226609Y-123535814D01*
X79226602Y-123535827D01*
X79166264Y-123681498D01*
X79166261Y-123681510D01*
X79135500Y-123836153D01*
X66394553Y-123836153D01*
X66319154Y-118722758D01*
X70302954Y-118722758D01*
X70302954Y-118722759D01*
X70334591Y-118743898D01*
X70513841Y-118818145D01*
X70513853Y-118818148D01*
X70704141Y-118855999D01*
X70704144Y-118856000D01*
X70898176Y-118856000D01*
X70898178Y-118855999D01*
X71088466Y-118818148D01*
X71088478Y-118818145D01*
X71267725Y-118743899D01*
X71299364Y-118722758D01*
X209737760Y-118722758D01*
X209737760Y-118722759D01*
X209769397Y-118743898D01*
X209948647Y-118818145D01*
X209948659Y-118818148D01*
X210138947Y-118855999D01*
X210138950Y-118856000D01*
X210332982Y-118856000D01*
X210332984Y-118855999D01*
X210523272Y-118818148D01*
X210523284Y-118818145D01*
X210702531Y-118743899D01*
X210734170Y-118722758D01*
X210235967Y-118224554D01*
X210235966Y-118224554D01*
X209737760Y-118722758D01*
X71299364Y-118722758D01*
X70801161Y-118224554D01*
X70801160Y-118224554D01*
X70302954Y-118722758D01*
X66319154Y-118722758D01*
X66305164Y-117773981D01*
X69816160Y-117773981D01*
X69816160Y-117968018D01*
X69854011Y-118158306D01*
X69854013Y-118158314D01*
X69928262Y-118337568D01*
X69928266Y-118337575D01*
X69949400Y-118369204D01*
X69949401Y-118369205D01*
X70447606Y-117871000D01*
X70401856Y-117825250D01*
X70571160Y-117825250D01*
X70571160Y-117916750D01*
X70606175Y-118001285D01*
X70670875Y-118065985D01*
X70755410Y-118101000D01*
X70846910Y-118101000D01*
X70931445Y-118065985D01*
X70996145Y-118001285D01*
X71031160Y-117916750D01*
X71031160Y-117870999D01*
X71154714Y-117870999D01*
X71154714Y-117871000D01*
X71652918Y-118369204D01*
X71674059Y-118337565D01*
X71748305Y-118158318D01*
X71748308Y-118158306D01*
X71786159Y-117968018D01*
X71786160Y-117968016D01*
X71786160Y-117773983D01*
X71786159Y-117773981D01*
X209250966Y-117773981D01*
X209250966Y-117968018D01*
X209288817Y-118158306D01*
X209288819Y-118158314D01*
X209363068Y-118337568D01*
X209363072Y-118337575D01*
X209384206Y-118369204D01*
X209384207Y-118369205D01*
X209882412Y-117871000D01*
X209836662Y-117825250D01*
X210005966Y-117825250D01*
X210005966Y-117916750D01*
X210040981Y-118001285D01*
X210105681Y-118065985D01*
X210190216Y-118101000D01*
X210281716Y-118101000D01*
X210366251Y-118065985D01*
X210430951Y-118001285D01*
X210465966Y-117916750D01*
X210465966Y-117870999D01*
X210589520Y-117870999D01*
X210589520Y-117871000D01*
X211087724Y-118369204D01*
X211108865Y-118337565D01*
X211183111Y-118158318D01*
X211183114Y-118158306D01*
X211220965Y-117968018D01*
X211220966Y-117968016D01*
X211220966Y-117773983D01*
X211220965Y-117773981D01*
X211183114Y-117583693D01*
X211183111Y-117583681D01*
X211108864Y-117404431D01*
X211087724Y-117372794D01*
X210589520Y-117870999D01*
X210465966Y-117870999D01*
X210465966Y-117825250D01*
X210430951Y-117740715D01*
X210366251Y-117676015D01*
X210281716Y-117641000D01*
X210190216Y-117641000D01*
X210105681Y-117676015D01*
X210040981Y-117740715D01*
X210005966Y-117825250D01*
X209836662Y-117825250D01*
X209384206Y-117372794D01*
X209363070Y-117404426D01*
X209363069Y-117404428D01*
X209288819Y-117583685D01*
X209288817Y-117583693D01*
X209250966Y-117773981D01*
X71786159Y-117773981D01*
X71748308Y-117583693D01*
X71748305Y-117583681D01*
X71674058Y-117404431D01*
X71652918Y-117372794D01*
X71154714Y-117870999D01*
X71031160Y-117870999D01*
X71031160Y-117825250D01*
X70996145Y-117740715D01*
X70931445Y-117676015D01*
X70846910Y-117641000D01*
X70755410Y-117641000D01*
X70670875Y-117676015D01*
X70606175Y-117740715D01*
X70571160Y-117825250D01*
X70401856Y-117825250D01*
X69949400Y-117372794D01*
X69928264Y-117404426D01*
X69928263Y-117404428D01*
X69854013Y-117583685D01*
X69854011Y-117583693D01*
X69816160Y-117773981D01*
X66305164Y-117773981D01*
X66294035Y-117019240D01*
X70302954Y-117019240D01*
X70801160Y-117517446D01*
X70801161Y-117517446D01*
X71299365Y-117019240D01*
X209737760Y-117019240D01*
X210235966Y-117517446D01*
X210235967Y-117517446D01*
X210734171Y-117019241D01*
X210734170Y-117019240D01*
X210702541Y-116998106D01*
X210702534Y-116998102D01*
X210523280Y-116923853D01*
X210523272Y-116923851D01*
X210332983Y-116886000D01*
X210138949Y-116886000D01*
X209948659Y-116923851D01*
X209948651Y-116923853D01*
X209769394Y-116998103D01*
X209769392Y-116998104D01*
X209737760Y-117019240D01*
X71299365Y-117019240D01*
X71267735Y-116998106D01*
X71267728Y-116998102D01*
X71088474Y-116923853D01*
X71088466Y-116923851D01*
X70898177Y-116886000D01*
X70704143Y-116886000D01*
X70513853Y-116923851D01*
X70513845Y-116923853D01*
X70334588Y-116998103D01*
X70334586Y-116998104D01*
X70302954Y-117019240D01*
X66294035Y-117019240D01*
X66212648Y-111499758D01*
X70302954Y-111499758D01*
X70302954Y-111499759D01*
X70334591Y-111520898D01*
X70513841Y-111595145D01*
X70513853Y-111595148D01*
X70704141Y-111632999D01*
X70704144Y-111633000D01*
X70898176Y-111633000D01*
X70898178Y-111632999D01*
X71088466Y-111595148D01*
X71088478Y-111595145D01*
X71267725Y-111520899D01*
X71299364Y-111499758D01*
X209737760Y-111499758D01*
X209737760Y-111499759D01*
X209769397Y-111520898D01*
X209948647Y-111595145D01*
X209948659Y-111595148D01*
X210138947Y-111632999D01*
X210138950Y-111633000D01*
X210332982Y-111633000D01*
X210332984Y-111632999D01*
X210523272Y-111595148D01*
X210523284Y-111595145D01*
X210702531Y-111520899D01*
X210734170Y-111499758D01*
X210235967Y-111001554D01*
X210235966Y-111001554D01*
X209737760Y-111499758D01*
X71299364Y-111499758D01*
X70801161Y-111001554D01*
X70801160Y-111001554D01*
X70302954Y-111499758D01*
X66212648Y-111499758D01*
X66198658Y-110550981D01*
X69816160Y-110550981D01*
X69816160Y-110745018D01*
X69854011Y-110935306D01*
X69854013Y-110935314D01*
X69928262Y-111114568D01*
X69928266Y-111114575D01*
X69949400Y-111146204D01*
X69949401Y-111146205D01*
X70447606Y-110648000D01*
X70401856Y-110602250D01*
X70571160Y-110602250D01*
X70571160Y-110693750D01*
X70606175Y-110778285D01*
X70670875Y-110842985D01*
X70755410Y-110878000D01*
X70846910Y-110878000D01*
X70931445Y-110842985D01*
X70996145Y-110778285D01*
X71031160Y-110693750D01*
X71031160Y-110647999D01*
X71154714Y-110647999D01*
X71154714Y-110648000D01*
X71652918Y-111146204D01*
X71674059Y-111114565D01*
X71748305Y-110935318D01*
X71748308Y-110935306D01*
X71786159Y-110745018D01*
X71786160Y-110745016D01*
X71786160Y-110550983D01*
X71786159Y-110550981D01*
X209250966Y-110550981D01*
X209250966Y-110745018D01*
X209288817Y-110935306D01*
X209288819Y-110935314D01*
X209363068Y-111114568D01*
X209363072Y-111114575D01*
X209384206Y-111146204D01*
X209384207Y-111146205D01*
X209882412Y-110648000D01*
X209836662Y-110602250D01*
X210005966Y-110602250D01*
X210005966Y-110693750D01*
X210040981Y-110778285D01*
X210105681Y-110842985D01*
X210190216Y-110878000D01*
X210281716Y-110878000D01*
X210366251Y-110842985D01*
X210430951Y-110778285D01*
X210465966Y-110693750D01*
X210465966Y-110647999D01*
X210589520Y-110647999D01*
X210589520Y-110648000D01*
X211087724Y-111146204D01*
X211108865Y-111114565D01*
X211183111Y-110935318D01*
X211183114Y-110935306D01*
X211220965Y-110745018D01*
X211220966Y-110745016D01*
X211220966Y-110550983D01*
X211220965Y-110550981D01*
X211183114Y-110360693D01*
X211183111Y-110360681D01*
X211108864Y-110181431D01*
X211087724Y-110149794D01*
X210589520Y-110647999D01*
X210465966Y-110647999D01*
X210465966Y-110602250D01*
X210430951Y-110517715D01*
X210366251Y-110453015D01*
X210281716Y-110418000D01*
X210190216Y-110418000D01*
X210105681Y-110453015D01*
X210040981Y-110517715D01*
X210005966Y-110602250D01*
X209836662Y-110602250D01*
X209384206Y-110149794D01*
X209363070Y-110181426D01*
X209363069Y-110181428D01*
X209288819Y-110360685D01*
X209288817Y-110360693D01*
X209250966Y-110550981D01*
X71786159Y-110550981D01*
X71748308Y-110360693D01*
X71748305Y-110360681D01*
X71674058Y-110181431D01*
X71652918Y-110149794D01*
X71154714Y-110647999D01*
X71031160Y-110647999D01*
X71031160Y-110602250D01*
X70996145Y-110517715D01*
X70931445Y-110453015D01*
X70846910Y-110418000D01*
X70755410Y-110418000D01*
X70670875Y-110453015D01*
X70606175Y-110517715D01*
X70571160Y-110602250D01*
X70401856Y-110602250D01*
X69949400Y-110149794D01*
X69928264Y-110181426D01*
X69928263Y-110181428D01*
X69854013Y-110360685D01*
X69854011Y-110360693D01*
X69816160Y-110550981D01*
X66198658Y-110550981D01*
X66187529Y-109796240D01*
X70302954Y-109796240D01*
X70801160Y-110294446D01*
X70801161Y-110294446D01*
X71299365Y-109796240D01*
X209737760Y-109796240D01*
X210235966Y-110294446D01*
X210235967Y-110294446D01*
X210734171Y-109796241D01*
X210734170Y-109796240D01*
X210702541Y-109775106D01*
X210702534Y-109775102D01*
X210523280Y-109700853D01*
X210523272Y-109700851D01*
X210332983Y-109663000D01*
X210138949Y-109663000D01*
X209948659Y-109700851D01*
X209948651Y-109700853D01*
X209769394Y-109775103D01*
X209769392Y-109775104D01*
X209737760Y-109796240D01*
X71299365Y-109796240D01*
X71267735Y-109775106D01*
X71267728Y-109775102D01*
X71088474Y-109700853D01*
X71088466Y-109700851D01*
X70898177Y-109663000D01*
X70704143Y-109663000D01*
X70513853Y-109700851D01*
X70513845Y-109700853D01*
X70334588Y-109775103D01*
X70334586Y-109775104D01*
X70302954Y-109796240D01*
X66187529Y-109796240D01*
X66137280Y-106388500D01*
X73594000Y-106388500D01*
X74396417Y-106388500D01*
X74463456Y-106408185D01*
X74465262Y-106409367D01*
X74509042Y-106438620D01*
X74641729Y-106493581D01*
X74762380Y-106517580D01*
X74782585Y-106521599D01*
X74782588Y-106521600D01*
X74782590Y-106521600D01*
X74926212Y-106521600D01*
X74926213Y-106521599D01*
X75067071Y-106493581D01*
X75199758Y-106438620D01*
X75243492Y-106409397D01*
X75310169Y-106388520D01*
X75312383Y-106388500D01*
X76853417Y-106388500D01*
X76920456Y-106408185D01*
X76922262Y-106409367D01*
X76966042Y-106438620D01*
X77098729Y-106493581D01*
X77219380Y-106517580D01*
X77239585Y-106521599D01*
X77239588Y-106521600D01*
X77239590Y-106521600D01*
X77383212Y-106521600D01*
X77383213Y-106521599D01*
X77524071Y-106493581D01*
X77656758Y-106438620D01*
X77695848Y-106412500D01*
X202391000Y-106412500D01*
X203193417Y-106412500D01*
X203260456Y-106432185D01*
X203262262Y-106433367D01*
X203306042Y-106462620D01*
X203438729Y-106517581D01*
X203579585Y-106545599D01*
X203579588Y-106545600D01*
X203579590Y-106545600D01*
X203723212Y-106545600D01*
X203723213Y-106545599D01*
X203864071Y-106517581D01*
X203996758Y-106462620D01*
X204040492Y-106433397D01*
X204107169Y-106412520D01*
X204109383Y-106412500D01*
X205650417Y-106412500D01*
X205717456Y-106432185D01*
X205719262Y-106433367D01*
X205763042Y-106462620D01*
X205895729Y-106517581D01*
X206036585Y-106545599D01*
X206036588Y-106545600D01*
X206036590Y-106545600D01*
X206180212Y-106545600D01*
X206180213Y-106545599D01*
X206321071Y-106517581D01*
X206453758Y-106462620D01*
X206497492Y-106433397D01*
X206564169Y-106412520D01*
X206566383Y-106412500D01*
X207391000Y-106412500D01*
X207391000Y-102739758D01*
X209737760Y-102739758D01*
X209737760Y-102739759D01*
X209769397Y-102760898D01*
X209948647Y-102835145D01*
X209948659Y-102835148D01*
X210138947Y-102872999D01*
X210138950Y-102873000D01*
X210332982Y-102873000D01*
X210332984Y-102872999D01*
X210523272Y-102835148D01*
X210523284Y-102835145D01*
X210702531Y-102760899D01*
X210734170Y-102739758D01*
X210235967Y-102241554D01*
X210235966Y-102241554D01*
X209737760Y-102739758D01*
X207391000Y-102739758D01*
X207391000Y-101790981D01*
X209250966Y-101790981D01*
X209250966Y-101985018D01*
X209288817Y-102175306D01*
X209288819Y-102175314D01*
X209363068Y-102354568D01*
X209363072Y-102354575D01*
X209384206Y-102386204D01*
X209384207Y-102386205D01*
X209882412Y-101888000D01*
X209836662Y-101842250D01*
X210005966Y-101842250D01*
X210005966Y-101933750D01*
X210040981Y-102018285D01*
X210105681Y-102082985D01*
X210190216Y-102118000D01*
X210281716Y-102118000D01*
X210366251Y-102082985D01*
X210430951Y-102018285D01*
X210465966Y-101933750D01*
X210465966Y-101887999D01*
X210589520Y-101887999D01*
X210589520Y-101888000D01*
X211087724Y-102386204D01*
X211108865Y-102354565D01*
X211183111Y-102175318D01*
X211183114Y-102175306D01*
X211220965Y-101985018D01*
X211220966Y-101985016D01*
X211220966Y-101790983D01*
X211220965Y-101790981D01*
X211183114Y-101600693D01*
X211183111Y-101600681D01*
X211108864Y-101421431D01*
X211087724Y-101389794D01*
X210589520Y-101887999D01*
X210465966Y-101887999D01*
X210465966Y-101842250D01*
X210430951Y-101757715D01*
X210366251Y-101693015D01*
X210281716Y-101658000D01*
X210190216Y-101658000D01*
X210105681Y-101693015D01*
X210040981Y-101757715D01*
X210005966Y-101842250D01*
X209836662Y-101842250D01*
X209384206Y-101389794D01*
X209363070Y-101421426D01*
X209363069Y-101421428D01*
X209288819Y-101600685D01*
X209288817Y-101600693D01*
X209250966Y-101790981D01*
X207391000Y-101790981D01*
X207391000Y-101412500D01*
X202391000Y-101412500D01*
X202391000Y-106412500D01*
X77695848Y-106412500D01*
X77700492Y-106409397D01*
X77767169Y-106388520D01*
X77769383Y-106388500D01*
X78594000Y-106388500D01*
X78594000Y-101388500D01*
X73594000Y-101388500D01*
X73594000Y-106388500D01*
X66137280Y-106388500D01*
X66083478Y-102739758D01*
X70302954Y-102739758D01*
X70302954Y-102739759D01*
X70334591Y-102760898D01*
X70513841Y-102835145D01*
X70513853Y-102835148D01*
X70704141Y-102872999D01*
X70704144Y-102873000D01*
X70898176Y-102873000D01*
X70898178Y-102872999D01*
X71088466Y-102835148D01*
X71088478Y-102835145D01*
X71267725Y-102760899D01*
X71299364Y-102739758D01*
X70801161Y-102241554D01*
X70801160Y-102241554D01*
X70302954Y-102739758D01*
X66083478Y-102739758D01*
X66069488Y-101790981D01*
X69816160Y-101790981D01*
X69816160Y-101985018D01*
X69854011Y-102175306D01*
X69854013Y-102175314D01*
X69928262Y-102354568D01*
X69928266Y-102354575D01*
X69949400Y-102386204D01*
X69949401Y-102386205D01*
X70447606Y-101888000D01*
X70401856Y-101842250D01*
X70571160Y-101842250D01*
X70571160Y-101933750D01*
X70606175Y-102018285D01*
X70670875Y-102082985D01*
X70755410Y-102118000D01*
X70846910Y-102118000D01*
X70931445Y-102082985D01*
X70996145Y-102018285D01*
X71031160Y-101933750D01*
X71031160Y-101887999D01*
X71154714Y-101887999D01*
X71154714Y-101888000D01*
X71652918Y-102386204D01*
X71674059Y-102354565D01*
X71748305Y-102175318D01*
X71748308Y-102175306D01*
X71786159Y-101985018D01*
X71786160Y-101985016D01*
X71786160Y-101790983D01*
X71786159Y-101790981D01*
X71748308Y-101600693D01*
X71748305Y-101600681D01*
X71674057Y-101421431D01*
X71663766Y-101406028D01*
X71663765Y-101406025D01*
X71652920Y-101389794D01*
X71652918Y-101389794D01*
X71154714Y-101887999D01*
X71031160Y-101887999D01*
X71031160Y-101842250D01*
X70996145Y-101757715D01*
X70931445Y-101693015D01*
X70846910Y-101658000D01*
X70755410Y-101658000D01*
X70670875Y-101693015D01*
X70606175Y-101757715D01*
X70571160Y-101842250D01*
X70401856Y-101842250D01*
X69949400Y-101389794D01*
X69928264Y-101421426D01*
X69928263Y-101421428D01*
X69854013Y-101600685D01*
X69854011Y-101600693D01*
X69816160Y-101790981D01*
X66069488Y-101790981D01*
X66058359Y-101036240D01*
X70302954Y-101036240D01*
X70801160Y-101534446D01*
X70801161Y-101534446D01*
X71299365Y-101036240D01*
X209737760Y-101036240D01*
X210235966Y-101534446D01*
X210235967Y-101534446D01*
X210734171Y-101036241D01*
X210734170Y-101036240D01*
X210702541Y-101015106D01*
X210702534Y-101015102D01*
X210523280Y-100940853D01*
X210523272Y-100940851D01*
X210332983Y-100903000D01*
X210138949Y-100903000D01*
X209948659Y-100940851D01*
X209948651Y-100940853D01*
X209769394Y-101015103D01*
X209769392Y-101015104D01*
X209737760Y-101036240D01*
X71299365Y-101036240D01*
X71267735Y-101015106D01*
X71267728Y-101015102D01*
X71088474Y-100940853D01*
X71088466Y-100940851D01*
X70898177Y-100903000D01*
X70704143Y-100903000D01*
X70513853Y-100940851D01*
X70513845Y-100940853D01*
X70334588Y-101015103D01*
X70334586Y-101015104D01*
X70302954Y-101036240D01*
X66058359Y-101036240D01*
X65976972Y-95516758D01*
X70302954Y-95516758D01*
X70302954Y-95516759D01*
X70334591Y-95537898D01*
X70513841Y-95612145D01*
X70513853Y-95612148D01*
X70704141Y-95649999D01*
X70704144Y-95650000D01*
X70898176Y-95650000D01*
X70898178Y-95649999D01*
X71088466Y-95612148D01*
X71088478Y-95612145D01*
X71267725Y-95537899D01*
X71299364Y-95516758D01*
X209737760Y-95516758D01*
X209737760Y-95516759D01*
X209769397Y-95537898D01*
X209948647Y-95612145D01*
X209948659Y-95612148D01*
X210138947Y-95649999D01*
X210138950Y-95650000D01*
X210332982Y-95650000D01*
X210332984Y-95649999D01*
X210523272Y-95612148D01*
X210523284Y-95612145D01*
X210702531Y-95537899D01*
X210734170Y-95516758D01*
X210235967Y-95018554D01*
X210235966Y-95018554D01*
X209737760Y-95516758D01*
X71299364Y-95516758D01*
X70801161Y-95018554D01*
X70801160Y-95018554D01*
X70302954Y-95516758D01*
X65976972Y-95516758D01*
X65962982Y-94567981D01*
X69816160Y-94567981D01*
X69816160Y-94762018D01*
X69854011Y-94952306D01*
X69854013Y-94952314D01*
X69928262Y-95131568D01*
X69928266Y-95131575D01*
X69949400Y-95163204D01*
X69949401Y-95163205D01*
X70447606Y-94665000D01*
X70401856Y-94619250D01*
X70571160Y-94619250D01*
X70571160Y-94710750D01*
X70606175Y-94795285D01*
X70670875Y-94859985D01*
X70755410Y-94895000D01*
X70846910Y-94895000D01*
X70931445Y-94859985D01*
X70996145Y-94795285D01*
X71031160Y-94710750D01*
X71031160Y-94664999D01*
X71154714Y-94664999D01*
X71154714Y-94665000D01*
X71652918Y-95163204D01*
X71674059Y-95131565D01*
X71748305Y-94952318D01*
X71748308Y-94952306D01*
X71786159Y-94762018D01*
X71786160Y-94762016D01*
X71786160Y-94567983D01*
X71786159Y-94567981D01*
X209250966Y-94567981D01*
X209250966Y-94762018D01*
X209288817Y-94952306D01*
X209288819Y-94952314D01*
X209363068Y-95131568D01*
X209363072Y-95131575D01*
X209384206Y-95163204D01*
X209384207Y-95163205D01*
X209882412Y-94665000D01*
X209836662Y-94619250D01*
X210005966Y-94619250D01*
X210005966Y-94710750D01*
X210040981Y-94795285D01*
X210105681Y-94859985D01*
X210190216Y-94895000D01*
X210281716Y-94895000D01*
X210366251Y-94859985D01*
X210430951Y-94795285D01*
X210465966Y-94710750D01*
X210465966Y-94664999D01*
X210589520Y-94664999D01*
X210589520Y-94665000D01*
X211087724Y-95163204D01*
X211108865Y-95131565D01*
X211183111Y-94952318D01*
X211183114Y-94952306D01*
X211220965Y-94762018D01*
X211220966Y-94762016D01*
X211220966Y-94567983D01*
X211220965Y-94567981D01*
X211183114Y-94377693D01*
X211183111Y-94377681D01*
X211108864Y-94198431D01*
X211087724Y-94166794D01*
X210589520Y-94664999D01*
X210465966Y-94664999D01*
X210465966Y-94619250D01*
X210430951Y-94534715D01*
X210366251Y-94470015D01*
X210281716Y-94435000D01*
X210190216Y-94435000D01*
X210105681Y-94470015D01*
X210040981Y-94534715D01*
X210005966Y-94619250D01*
X209836662Y-94619250D01*
X209384206Y-94166794D01*
X209363070Y-94198426D01*
X209363069Y-94198428D01*
X209288819Y-94377685D01*
X209288817Y-94377693D01*
X209250966Y-94567981D01*
X71786159Y-94567981D01*
X71748308Y-94377693D01*
X71748305Y-94377681D01*
X71674058Y-94198431D01*
X71652918Y-94166794D01*
X71154714Y-94664999D01*
X71031160Y-94664999D01*
X71031160Y-94619250D01*
X70996145Y-94534715D01*
X70931445Y-94470015D01*
X70846910Y-94435000D01*
X70755410Y-94435000D01*
X70670875Y-94470015D01*
X70606175Y-94534715D01*
X70571160Y-94619250D01*
X70401856Y-94619250D01*
X69949400Y-94166794D01*
X69928264Y-94198426D01*
X69928263Y-94198428D01*
X69854013Y-94377685D01*
X69854011Y-94377693D01*
X69816160Y-94567981D01*
X65962982Y-94567981D01*
X65951853Y-93813240D01*
X70302954Y-93813240D01*
X70801160Y-94311446D01*
X70801161Y-94311446D01*
X71299365Y-93813240D01*
X209737760Y-93813240D01*
X210235966Y-94311446D01*
X210235967Y-94311446D01*
X210734171Y-93813241D01*
X210734170Y-93813240D01*
X210702541Y-93792106D01*
X210702534Y-93792102D01*
X210523280Y-93717853D01*
X210523272Y-93717851D01*
X210332983Y-93680000D01*
X210138949Y-93680000D01*
X209948659Y-93717851D01*
X209948651Y-93717853D01*
X209769394Y-93792103D01*
X209769392Y-93792104D01*
X209737760Y-93813240D01*
X71299365Y-93813240D01*
X71267735Y-93792106D01*
X71267728Y-93792102D01*
X71088474Y-93717853D01*
X71088466Y-93717851D01*
X70898177Y-93680000D01*
X70704143Y-93680000D01*
X70513853Y-93717851D01*
X70513845Y-93717853D01*
X70334588Y-93792103D01*
X70334586Y-93792104D01*
X70302954Y-93813240D01*
X65951853Y-93813240D01*
X65902342Y-90455500D01*
X96923000Y-90455500D01*
X97725417Y-90455500D01*
X97792456Y-90475185D01*
X97794262Y-90476367D01*
X97838042Y-90505620D01*
X97970729Y-90560581D01*
X98111585Y-90588599D01*
X98111588Y-90588600D01*
X98111590Y-90588600D01*
X98255212Y-90588600D01*
X98255213Y-90588599D01*
X98396071Y-90560581D01*
X98528758Y-90505620D01*
X98572492Y-90476397D01*
X98639169Y-90455520D01*
X98641383Y-90455500D01*
X100182417Y-90455500D01*
X100249456Y-90475185D01*
X100251262Y-90476367D01*
X100295042Y-90505620D01*
X100427729Y-90560581D01*
X100568585Y-90588599D01*
X100568588Y-90588600D01*
X100568590Y-90588600D01*
X100712212Y-90588600D01*
X100712213Y-90588599D01*
X100853071Y-90560581D01*
X100985758Y-90505620D01*
X101029492Y-90476397D01*
X101096169Y-90455520D01*
X101098383Y-90455500D01*
X101923000Y-90455500D01*
X101923000Y-90425000D01*
X179154000Y-90425000D01*
X179956417Y-90425000D01*
X180023456Y-90444685D01*
X180025262Y-90445867D01*
X180069042Y-90475120D01*
X180201729Y-90530081D01*
X180342585Y-90558099D01*
X180342588Y-90558100D01*
X180342590Y-90558100D01*
X180486212Y-90558100D01*
X180486213Y-90558099D01*
X180627071Y-90530081D01*
X180759758Y-90475120D01*
X180803492Y-90445897D01*
X180870169Y-90425020D01*
X180872383Y-90425000D01*
X182413417Y-90425000D01*
X182480456Y-90444685D01*
X182482262Y-90445867D01*
X182526042Y-90475120D01*
X182658729Y-90530081D01*
X182799585Y-90558099D01*
X182799588Y-90558100D01*
X182799590Y-90558100D01*
X182943212Y-90558100D01*
X182943213Y-90558099D01*
X183084071Y-90530081D01*
X183216758Y-90475120D01*
X183260492Y-90445897D01*
X183327169Y-90425020D01*
X183329383Y-90425000D01*
X184154000Y-90425000D01*
X184154000Y-86756758D01*
X209737760Y-86756758D01*
X209737760Y-86756759D01*
X209769397Y-86777898D01*
X209948647Y-86852145D01*
X209948659Y-86852148D01*
X210138947Y-86889999D01*
X210138950Y-86890000D01*
X210332982Y-86890000D01*
X210332984Y-86889999D01*
X210523272Y-86852148D01*
X210523284Y-86852145D01*
X210702531Y-86777899D01*
X210734170Y-86756758D01*
X210235967Y-86258554D01*
X210235966Y-86258554D01*
X209737760Y-86756758D01*
X184154000Y-86756758D01*
X184154000Y-85807981D01*
X209250966Y-85807981D01*
X209250966Y-86002018D01*
X209288817Y-86192306D01*
X209288819Y-86192314D01*
X209363068Y-86371568D01*
X209363072Y-86371575D01*
X209384206Y-86403204D01*
X209384207Y-86403205D01*
X209882412Y-85905000D01*
X209836662Y-85859250D01*
X210005966Y-85859250D01*
X210005966Y-85950750D01*
X210040981Y-86035285D01*
X210105681Y-86099985D01*
X210190216Y-86135000D01*
X210281716Y-86135000D01*
X210366251Y-86099985D01*
X210430951Y-86035285D01*
X210465966Y-85950750D01*
X210465966Y-85904999D01*
X210589520Y-85904999D01*
X210589520Y-85905000D01*
X211087724Y-86403204D01*
X211108865Y-86371565D01*
X211183111Y-86192318D01*
X211183114Y-86192306D01*
X211220965Y-86002018D01*
X211220966Y-86002016D01*
X211220966Y-85807983D01*
X211220965Y-85807981D01*
X211183114Y-85617693D01*
X211183111Y-85617681D01*
X211108864Y-85438431D01*
X211087724Y-85406794D01*
X210589520Y-85904999D01*
X210465966Y-85904999D01*
X210465966Y-85859250D01*
X210430951Y-85774715D01*
X210366251Y-85710015D01*
X210281716Y-85675000D01*
X210190216Y-85675000D01*
X210105681Y-85710015D01*
X210040981Y-85774715D01*
X210005966Y-85859250D01*
X209836662Y-85859250D01*
X209384206Y-85406794D01*
X209363070Y-85438426D01*
X209363069Y-85438428D01*
X209288819Y-85617685D01*
X209288817Y-85617693D01*
X209250966Y-85807981D01*
X184154000Y-85807981D01*
X184154000Y-85425000D01*
X179154000Y-85425000D01*
X179154000Y-90425000D01*
X101923000Y-90425000D01*
X101923000Y-85455500D01*
X96923000Y-85455500D01*
X96923000Y-90455500D01*
X65902342Y-90455500D01*
X65847802Y-86756758D01*
X70302954Y-86756758D01*
X70302954Y-86756759D01*
X70334591Y-86777898D01*
X70513841Y-86852145D01*
X70513853Y-86852148D01*
X70704141Y-86889999D01*
X70704144Y-86890000D01*
X70898176Y-86890000D01*
X70898178Y-86889999D01*
X71088466Y-86852148D01*
X71088478Y-86852145D01*
X71267725Y-86777899D01*
X71299364Y-86756758D01*
X70801161Y-86258554D01*
X70801160Y-86258554D01*
X70302954Y-86756758D01*
X65847802Y-86756758D01*
X65833812Y-85807981D01*
X69816160Y-85807981D01*
X69816160Y-86002018D01*
X69854011Y-86192306D01*
X69854013Y-86192314D01*
X69928262Y-86371568D01*
X69928266Y-86371575D01*
X69949400Y-86403204D01*
X69949401Y-86403205D01*
X70447606Y-85905000D01*
X70401856Y-85859250D01*
X70571160Y-85859250D01*
X70571160Y-85950750D01*
X70606175Y-86035285D01*
X70670875Y-86099985D01*
X70755410Y-86135000D01*
X70846910Y-86135000D01*
X70931445Y-86099985D01*
X70996145Y-86035285D01*
X71031160Y-85950750D01*
X71031160Y-85904999D01*
X71154714Y-85904999D01*
X71154714Y-85905000D01*
X71652918Y-86403204D01*
X71674059Y-86371565D01*
X71748305Y-86192318D01*
X71748308Y-86192306D01*
X71786159Y-86002018D01*
X71786160Y-86002016D01*
X71786160Y-85807983D01*
X71786159Y-85807981D01*
X71748308Y-85617693D01*
X71748306Y-85617685D01*
X71679508Y-85451591D01*
X71679507Y-85451590D01*
X71679507Y-85451588D01*
X71674057Y-85438430D01*
X71652918Y-85406794D01*
X71154714Y-85904999D01*
X71031160Y-85904999D01*
X71031160Y-85859250D01*
X70996145Y-85774715D01*
X70931445Y-85710015D01*
X70846910Y-85675000D01*
X70755410Y-85675000D01*
X70670875Y-85710015D01*
X70606175Y-85774715D01*
X70571160Y-85859250D01*
X70401856Y-85859250D01*
X69949400Y-85406794D01*
X69928264Y-85438426D01*
X69928263Y-85438428D01*
X69854013Y-85617685D01*
X69854011Y-85617693D01*
X69816160Y-85807981D01*
X65833812Y-85807981D01*
X65822683Y-85053240D01*
X70302954Y-85053240D01*
X70801160Y-85551446D01*
X70801161Y-85551446D01*
X71299365Y-85053240D01*
X209737760Y-85053240D01*
X210235966Y-85551446D01*
X210235967Y-85551446D01*
X210734171Y-85053241D01*
X210734170Y-85053240D01*
X210702541Y-85032106D01*
X210702534Y-85032102D01*
X210523280Y-84957853D01*
X210523272Y-84957851D01*
X210332983Y-84920000D01*
X210138949Y-84920000D01*
X209948659Y-84957851D01*
X209948651Y-84957853D01*
X209769394Y-85032103D01*
X209769392Y-85032104D01*
X209737760Y-85053240D01*
X71299365Y-85053240D01*
X71267735Y-85032106D01*
X71267728Y-85032102D01*
X71088474Y-84957853D01*
X71088466Y-84957851D01*
X70898177Y-84920000D01*
X70704143Y-84920000D01*
X70513853Y-84957851D01*
X70513845Y-84957853D01*
X70334588Y-85032103D01*
X70334586Y-85032104D01*
X70302954Y-85053240D01*
X65822683Y-85053240D01*
X65741296Y-79533758D01*
X70302954Y-79533758D01*
X70302954Y-79533759D01*
X70334591Y-79554898D01*
X70513841Y-79629145D01*
X70513853Y-79629148D01*
X70704141Y-79666999D01*
X70704144Y-79667000D01*
X70898176Y-79667000D01*
X70898178Y-79666999D01*
X71088466Y-79629148D01*
X71088478Y-79629145D01*
X71181153Y-79590758D01*
X209737760Y-79590758D01*
X209737760Y-79590759D01*
X209769397Y-79611898D01*
X209948647Y-79686145D01*
X209948659Y-79686148D01*
X210138947Y-79723999D01*
X210138950Y-79724000D01*
X210332982Y-79724000D01*
X210332984Y-79723999D01*
X210523272Y-79686148D01*
X210523284Y-79686145D01*
X210702531Y-79611899D01*
X210734170Y-79590758D01*
X210235967Y-79092554D01*
X210235966Y-79092554D01*
X209737760Y-79590758D01*
X71181153Y-79590758D01*
X71267725Y-79554899D01*
X71299364Y-79533758D01*
X70801161Y-79035554D01*
X70801160Y-79035554D01*
X70302954Y-79533758D01*
X65741296Y-79533758D01*
X65727306Y-78584981D01*
X69816160Y-78584981D01*
X69816160Y-78779018D01*
X69854011Y-78969306D01*
X69854013Y-78969314D01*
X69928262Y-79148568D01*
X69928266Y-79148575D01*
X69949400Y-79180204D01*
X69949401Y-79180205D01*
X70447606Y-78682000D01*
X70401856Y-78636250D01*
X70571160Y-78636250D01*
X70571160Y-78727750D01*
X70606175Y-78812285D01*
X70670875Y-78876985D01*
X70755410Y-78912000D01*
X70846910Y-78912000D01*
X70931445Y-78876985D01*
X70996145Y-78812285D01*
X71031160Y-78727750D01*
X71031160Y-78681999D01*
X71154714Y-78681999D01*
X71154714Y-78682000D01*
X71652918Y-79180204D01*
X71674059Y-79148565D01*
X71748305Y-78969318D01*
X71748308Y-78969306D01*
X71786159Y-78779018D01*
X71786160Y-78779016D01*
X71786160Y-78641981D01*
X209250966Y-78641981D01*
X209250966Y-78836018D01*
X209288817Y-79026306D01*
X209288819Y-79026314D01*
X209363068Y-79205568D01*
X209363072Y-79205575D01*
X209384206Y-79237204D01*
X209384207Y-79237205D01*
X209882412Y-78739000D01*
X209836662Y-78693250D01*
X210005966Y-78693250D01*
X210005966Y-78784750D01*
X210040981Y-78869285D01*
X210105681Y-78933985D01*
X210190216Y-78969000D01*
X210281716Y-78969000D01*
X210366251Y-78933985D01*
X210430951Y-78869285D01*
X210465966Y-78784750D01*
X210465966Y-78738999D01*
X210589520Y-78738999D01*
X210589520Y-78739000D01*
X211087724Y-79237204D01*
X211108865Y-79205565D01*
X211183111Y-79026318D01*
X211183114Y-79026306D01*
X211220965Y-78836018D01*
X211220966Y-78836016D01*
X211220966Y-78641983D01*
X211220965Y-78641981D01*
X211183114Y-78451693D01*
X211183111Y-78451681D01*
X211108864Y-78272431D01*
X211087724Y-78240794D01*
X210589520Y-78738999D01*
X210465966Y-78738999D01*
X210465966Y-78693250D01*
X210430951Y-78608715D01*
X210366251Y-78544015D01*
X210281716Y-78509000D01*
X210190216Y-78509000D01*
X210105681Y-78544015D01*
X210040981Y-78608715D01*
X210005966Y-78693250D01*
X209836662Y-78693250D01*
X209384206Y-78240794D01*
X209363070Y-78272426D01*
X209363069Y-78272428D01*
X209288819Y-78451685D01*
X209288817Y-78451693D01*
X209250966Y-78641981D01*
X71786160Y-78641981D01*
X71786160Y-78584983D01*
X71786159Y-78584981D01*
X71748308Y-78394693D01*
X71748305Y-78394681D01*
X71674058Y-78215431D01*
X71652918Y-78183794D01*
X71154714Y-78681999D01*
X71031160Y-78681999D01*
X71031160Y-78636250D01*
X70996145Y-78551715D01*
X70931445Y-78487015D01*
X70846910Y-78452000D01*
X70755410Y-78452000D01*
X70670875Y-78487015D01*
X70606175Y-78551715D01*
X70571160Y-78636250D01*
X70401856Y-78636250D01*
X69949400Y-78183794D01*
X69928264Y-78215426D01*
X69928263Y-78215428D01*
X69854013Y-78394685D01*
X69854011Y-78394693D01*
X69816160Y-78584981D01*
X65727306Y-78584981D01*
X65716177Y-77830240D01*
X70302954Y-77830240D01*
X70801160Y-78328446D01*
X70801161Y-78328446D01*
X71242366Y-77887240D01*
X209737760Y-77887240D01*
X210235966Y-78385446D01*
X210235967Y-78385446D01*
X210734171Y-77887241D01*
X210734170Y-77887240D01*
X210702541Y-77866106D01*
X210702534Y-77866102D01*
X210523280Y-77791853D01*
X210523272Y-77791851D01*
X210332983Y-77754000D01*
X210138949Y-77754000D01*
X209948659Y-77791851D01*
X209948651Y-77791853D01*
X209769394Y-77866103D01*
X209769392Y-77866104D01*
X209737760Y-77887240D01*
X71242366Y-77887240D01*
X71283837Y-77845769D01*
X71299365Y-77830240D01*
X71267735Y-77809106D01*
X71267728Y-77809102D01*
X71088474Y-77734853D01*
X71088466Y-77734851D01*
X70898177Y-77697000D01*
X70704143Y-77697000D01*
X70513853Y-77734851D01*
X70513845Y-77734853D01*
X70334588Y-77809103D01*
X70334586Y-77809104D01*
X70302954Y-77830240D01*
X65716177Y-77830240D01*
X65666422Y-74456000D01*
X121592000Y-74456000D01*
X122394417Y-74456000D01*
X122461456Y-74475685D01*
X122463262Y-74476867D01*
X122507042Y-74506120D01*
X122639729Y-74561081D01*
X122780585Y-74589099D01*
X122780588Y-74589100D01*
X122780590Y-74589100D01*
X122924212Y-74589100D01*
X122924213Y-74589099D01*
X123065071Y-74561081D01*
X123197758Y-74506120D01*
X123241492Y-74476897D01*
X123308169Y-74456020D01*
X123310383Y-74456000D01*
X124851417Y-74456000D01*
X124918456Y-74475685D01*
X124920262Y-74476867D01*
X124964042Y-74506120D01*
X125096729Y-74561081D01*
X125237585Y-74589099D01*
X125237588Y-74589100D01*
X125237590Y-74589100D01*
X125381212Y-74589100D01*
X125381213Y-74589099D01*
X125522071Y-74561081D01*
X125654758Y-74506120D01*
X125698492Y-74476897D01*
X125699760Y-74476500D01*
X153699000Y-74476500D01*
X154501417Y-74476500D01*
X154568456Y-74496185D01*
X154570262Y-74497367D01*
X154614042Y-74526620D01*
X154746729Y-74581581D01*
X154887585Y-74609599D01*
X154887588Y-74609600D01*
X154887590Y-74609600D01*
X155031212Y-74609600D01*
X155031213Y-74609599D01*
X155172071Y-74581581D01*
X155304758Y-74526620D01*
X155348492Y-74497397D01*
X155415169Y-74476520D01*
X155417383Y-74476500D01*
X156958417Y-74476500D01*
X157025456Y-74496185D01*
X157027262Y-74497367D01*
X157071042Y-74526620D01*
X157203729Y-74581581D01*
X157344585Y-74609599D01*
X157344588Y-74609600D01*
X157344590Y-74609600D01*
X157488212Y-74609600D01*
X157488213Y-74609599D01*
X157629071Y-74581581D01*
X157761758Y-74526620D01*
X157805492Y-74497397D01*
X157872169Y-74476520D01*
X157874383Y-74476500D01*
X158699000Y-74476500D01*
X158699000Y-70830758D01*
X209737760Y-70830758D01*
X209737760Y-70830759D01*
X209769397Y-70851898D01*
X209948647Y-70926145D01*
X209948659Y-70926148D01*
X210138947Y-70963999D01*
X210138950Y-70964000D01*
X210332982Y-70964000D01*
X210332984Y-70963999D01*
X210523272Y-70926148D01*
X210523284Y-70926145D01*
X210702531Y-70851899D01*
X210734170Y-70830758D01*
X210235967Y-70332554D01*
X210235966Y-70332554D01*
X209737760Y-70830758D01*
X158699000Y-70830758D01*
X158699000Y-69881981D01*
X209250966Y-69881981D01*
X209250966Y-70076018D01*
X209288817Y-70266306D01*
X209288819Y-70266314D01*
X209363068Y-70445568D01*
X209363072Y-70445575D01*
X209384206Y-70477204D01*
X209384207Y-70477205D01*
X209882412Y-69979000D01*
X209836662Y-69933250D01*
X210005966Y-69933250D01*
X210005966Y-70024750D01*
X210040981Y-70109285D01*
X210105681Y-70173985D01*
X210190216Y-70209000D01*
X210281716Y-70209000D01*
X210366251Y-70173985D01*
X210430951Y-70109285D01*
X210465966Y-70024750D01*
X210465966Y-69978999D01*
X210589520Y-69978999D01*
X210589520Y-69979000D01*
X211087724Y-70477204D01*
X211108865Y-70445565D01*
X211183111Y-70266318D01*
X211183114Y-70266306D01*
X211220965Y-70076018D01*
X211220966Y-70076016D01*
X211220966Y-69881983D01*
X211220965Y-69881981D01*
X211183114Y-69691693D01*
X211183111Y-69691681D01*
X211108864Y-69512431D01*
X211087724Y-69480794D01*
X210589520Y-69978999D01*
X210465966Y-69978999D01*
X210465966Y-69933250D01*
X210430951Y-69848715D01*
X210366251Y-69784015D01*
X210281716Y-69749000D01*
X210190216Y-69749000D01*
X210105681Y-69784015D01*
X210040981Y-69848715D01*
X210005966Y-69933250D01*
X209836662Y-69933250D01*
X209384206Y-69480794D01*
X209363070Y-69512426D01*
X209363069Y-69512428D01*
X209288819Y-69691685D01*
X209288817Y-69691693D01*
X209250966Y-69881981D01*
X158699000Y-69881981D01*
X158699000Y-69476500D01*
X153699000Y-69476500D01*
X153699000Y-74476500D01*
X125699760Y-74476500D01*
X125765169Y-74456020D01*
X125767383Y-74456000D01*
X126592000Y-74456000D01*
X126592000Y-69456000D01*
X121592000Y-69456000D01*
X121592000Y-74456000D01*
X65666422Y-74456000D01*
X65612126Y-70773758D01*
X70302954Y-70773758D01*
X70302954Y-70773759D01*
X70334591Y-70794898D01*
X70513841Y-70869145D01*
X70513853Y-70869148D01*
X70704141Y-70906999D01*
X70704144Y-70907000D01*
X70898176Y-70907000D01*
X70898178Y-70906999D01*
X71088466Y-70869148D01*
X71088478Y-70869145D01*
X71267725Y-70794899D01*
X71299364Y-70773758D01*
X70801161Y-70275554D01*
X70801160Y-70275554D01*
X70302954Y-70773758D01*
X65612126Y-70773758D01*
X65598136Y-69824981D01*
X69816160Y-69824981D01*
X69816160Y-70019018D01*
X69854011Y-70209306D01*
X69854013Y-70209314D01*
X69928262Y-70388568D01*
X69928266Y-70388575D01*
X69949400Y-70420204D01*
X69949401Y-70420205D01*
X70447606Y-69922000D01*
X70401856Y-69876250D01*
X70571160Y-69876250D01*
X70571160Y-69967750D01*
X70606175Y-70052285D01*
X70670875Y-70116985D01*
X70755410Y-70152000D01*
X70846910Y-70152000D01*
X70931445Y-70116985D01*
X70996145Y-70052285D01*
X71031160Y-69967750D01*
X71031160Y-69921999D01*
X71154714Y-69921999D01*
X71154714Y-69922000D01*
X71652918Y-70420204D01*
X71674059Y-70388565D01*
X71748305Y-70209318D01*
X71748308Y-70209306D01*
X71786159Y-70019018D01*
X71786160Y-70019016D01*
X71786160Y-69824983D01*
X71786159Y-69824981D01*
X71748308Y-69634693D01*
X71748305Y-69634681D01*
X71674058Y-69455431D01*
X71652918Y-69423794D01*
X71154714Y-69921999D01*
X71031160Y-69921999D01*
X71031160Y-69876250D01*
X70996145Y-69791715D01*
X70931445Y-69727015D01*
X70846910Y-69692000D01*
X70755410Y-69692000D01*
X70670875Y-69727015D01*
X70606175Y-69791715D01*
X70571160Y-69876250D01*
X70401856Y-69876250D01*
X69949400Y-69423794D01*
X69928264Y-69455426D01*
X69928263Y-69455428D01*
X69854013Y-69634685D01*
X69854011Y-69634693D01*
X69816160Y-69824981D01*
X65598136Y-69824981D01*
X65587007Y-69070240D01*
X70302954Y-69070240D01*
X70801160Y-69568446D01*
X70801161Y-69568446D01*
X71242366Y-69127240D01*
X209737760Y-69127240D01*
X210235966Y-69625446D01*
X210235967Y-69625446D01*
X210734171Y-69127241D01*
X210734170Y-69127240D01*
X210702541Y-69106106D01*
X210702534Y-69106102D01*
X210523280Y-69031853D01*
X210523272Y-69031851D01*
X210332983Y-68994000D01*
X210138949Y-68994000D01*
X209948659Y-69031851D01*
X209948651Y-69031853D01*
X209769394Y-69106103D01*
X209769392Y-69106104D01*
X209737760Y-69127240D01*
X71242366Y-69127240D01*
X71283837Y-69085769D01*
X71299365Y-69070240D01*
X71267735Y-69049106D01*
X71267728Y-69049102D01*
X71088474Y-68974853D01*
X71088466Y-68974851D01*
X70898177Y-68937000D01*
X70704143Y-68937000D01*
X70513853Y-68974851D01*
X70513845Y-68974853D01*
X70334588Y-69049103D01*
X70334586Y-69049104D01*
X70302954Y-69070240D01*
X65587007Y-69070240D01*
X65505620Y-63550758D01*
X70302954Y-63550758D01*
X70302954Y-63550759D01*
X70334591Y-63571898D01*
X70513841Y-63646145D01*
X70513853Y-63646148D01*
X70704141Y-63683999D01*
X70704144Y-63684000D01*
X70898176Y-63684000D01*
X70898178Y-63683999D01*
X71088466Y-63646148D01*
X71088478Y-63646145D01*
X71267725Y-63571899D01*
X71299364Y-63550758D01*
X209737760Y-63550758D01*
X209737760Y-63550759D01*
X209769397Y-63571898D01*
X209948647Y-63646145D01*
X209948659Y-63646148D01*
X210138947Y-63683999D01*
X210138950Y-63684000D01*
X210332982Y-63684000D01*
X210332984Y-63683999D01*
X210523272Y-63646148D01*
X210523284Y-63646145D01*
X210702531Y-63571899D01*
X210734170Y-63550758D01*
X210235967Y-63052554D01*
X210235966Y-63052554D01*
X209737760Y-63550758D01*
X71299364Y-63550758D01*
X70801161Y-63052554D01*
X70801160Y-63052554D01*
X70302954Y-63550758D01*
X65505620Y-63550758D01*
X65491630Y-62601981D01*
X69816160Y-62601981D01*
X69816160Y-62796018D01*
X69854011Y-62986306D01*
X69854013Y-62986314D01*
X69928262Y-63165568D01*
X69928266Y-63165575D01*
X69949400Y-63197204D01*
X69949401Y-63197205D01*
X70447606Y-62699000D01*
X70401856Y-62653250D01*
X70571160Y-62653250D01*
X70571160Y-62744750D01*
X70606175Y-62829285D01*
X70670875Y-62893985D01*
X70755410Y-62929000D01*
X70846910Y-62929000D01*
X70931445Y-62893985D01*
X70996145Y-62829285D01*
X71031160Y-62744750D01*
X71031160Y-62698999D01*
X71154714Y-62698999D01*
X71154714Y-62699000D01*
X71652918Y-63197204D01*
X71674059Y-63165565D01*
X71748305Y-62986318D01*
X71748308Y-62986306D01*
X71786159Y-62796018D01*
X71786160Y-62796016D01*
X71786160Y-62601983D01*
X71786159Y-62601981D01*
X209250966Y-62601981D01*
X209250966Y-62796018D01*
X209288817Y-62986306D01*
X209288819Y-62986314D01*
X209363068Y-63165568D01*
X209363072Y-63165575D01*
X209384206Y-63197204D01*
X209384207Y-63197205D01*
X209882412Y-62699000D01*
X209836662Y-62653250D01*
X210005966Y-62653250D01*
X210005966Y-62744750D01*
X210040981Y-62829285D01*
X210105681Y-62893985D01*
X210190216Y-62929000D01*
X210281716Y-62929000D01*
X210366251Y-62893985D01*
X210430951Y-62829285D01*
X210465966Y-62744750D01*
X210465966Y-62698999D01*
X210589520Y-62698999D01*
X210589520Y-62699000D01*
X211087724Y-63197204D01*
X211108865Y-63165565D01*
X211183111Y-62986318D01*
X211183114Y-62986306D01*
X211220965Y-62796018D01*
X211220966Y-62796016D01*
X211220966Y-62601983D01*
X211220965Y-62601981D01*
X211183114Y-62411693D01*
X211183111Y-62411681D01*
X211108864Y-62232431D01*
X211087724Y-62200794D01*
X210589520Y-62698999D01*
X210465966Y-62698999D01*
X210465966Y-62653250D01*
X210430951Y-62568715D01*
X210366251Y-62504015D01*
X210281716Y-62469000D01*
X210190216Y-62469000D01*
X210105681Y-62504015D01*
X210040981Y-62568715D01*
X210005966Y-62653250D01*
X209836662Y-62653250D01*
X209384206Y-62200794D01*
X209363070Y-62232426D01*
X209363069Y-62232428D01*
X209288819Y-62411685D01*
X209288817Y-62411693D01*
X209250966Y-62601981D01*
X71786159Y-62601981D01*
X71748308Y-62411693D01*
X71748305Y-62411681D01*
X71674058Y-62232431D01*
X71652918Y-62200794D01*
X71154714Y-62698999D01*
X71031160Y-62698999D01*
X71031160Y-62653250D01*
X70996145Y-62568715D01*
X70931445Y-62504015D01*
X70846910Y-62469000D01*
X70755410Y-62469000D01*
X70670875Y-62504015D01*
X70606175Y-62568715D01*
X70571160Y-62653250D01*
X70401856Y-62653250D01*
X69949400Y-62200794D01*
X69928264Y-62232426D01*
X69928263Y-62232428D01*
X69854013Y-62411685D01*
X69854011Y-62411693D01*
X69816160Y-62601981D01*
X65491630Y-62601981D01*
X65480501Y-61847240D01*
X70302954Y-61847240D01*
X70801160Y-62345446D01*
X70801161Y-62345446D01*
X71299365Y-61847240D01*
X209737760Y-61847240D01*
X210235966Y-62345446D01*
X210235967Y-62345446D01*
X210734171Y-61847241D01*
X210734170Y-61847240D01*
X210702541Y-61826106D01*
X210702534Y-61826102D01*
X210523280Y-61751853D01*
X210523272Y-61751851D01*
X210332983Y-61714000D01*
X210138949Y-61714000D01*
X209948659Y-61751851D01*
X209948651Y-61751853D01*
X209769394Y-61826103D01*
X209769392Y-61826104D01*
X209737760Y-61847240D01*
X71299365Y-61847240D01*
X71267735Y-61826106D01*
X71267728Y-61826102D01*
X71088474Y-61751853D01*
X71088466Y-61751851D01*
X70898177Y-61714000D01*
X70704143Y-61714000D01*
X70513853Y-61751851D01*
X70513845Y-61751853D01*
X70334588Y-61826103D01*
X70334586Y-61826104D01*
X70302954Y-61847240D01*
X65480501Y-61847240D01*
X65376450Y-54790758D01*
X70302954Y-54790758D01*
X70302954Y-54790759D01*
X70334591Y-54811898D01*
X70513841Y-54886145D01*
X70513853Y-54886148D01*
X70704141Y-54923999D01*
X70704144Y-54924000D01*
X70898176Y-54924000D01*
X70898178Y-54923999D01*
X71088466Y-54886148D01*
X71088478Y-54886145D01*
X71267725Y-54811899D01*
X71299364Y-54790758D01*
X209737760Y-54790758D01*
X209737760Y-54790759D01*
X209769397Y-54811898D01*
X209948647Y-54886145D01*
X209948659Y-54886148D01*
X210138947Y-54923999D01*
X210138950Y-54924000D01*
X210332982Y-54924000D01*
X210332984Y-54923999D01*
X210523272Y-54886148D01*
X210523284Y-54886145D01*
X210702531Y-54811899D01*
X210734170Y-54790758D01*
X210235967Y-54292554D01*
X210235966Y-54292554D01*
X209737760Y-54790758D01*
X71299364Y-54790758D01*
X70801161Y-54292554D01*
X70801160Y-54292554D01*
X70302954Y-54790758D01*
X65376450Y-54790758D01*
X65362460Y-53841981D01*
X69816160Y-53841981D01*
X69816160Y-54036018D01*
X69854011Y-54226306D01*
X69854013Y-54226314D01*
X69928262Y-54405568D01*
X69928266Y-54405575D01*
X69949400Y-54437204D01*
X69949401Y-54437205D01*
X70447606Y-53939000D01*
X70401856Y-53893250D01*
X70571160Y-53893250D01*
X70571160Y-53984750D01*
X70606175Y-54069285D01*
X70670875Y-54133985D01*
X70755410Y-54169000D01*
X70846910Y-54169000D01*
X70931445Y-54133985D01*
X70996145Y-54069285D01*
X71031160Y-53984750D01*
X71031160Y-53938999D01*
X71154714Y-53938999D01*
X71154714Y-53939000D01*
X71652918Y-54437204D01*
X71674059Y-54405565D01*
X71748305Y-54226318D01*
X71748308Y-54226306D01*
X71786159Y-54036018D01*
X71786160Y-54036016D01*
X71786160Y-53841983D01*
X71786159Y-53841981D01*
X209250966Y-53841981D01*
X209250966Y-54036018D01*
X209288817Y-54226306D01*
X209288819Y-54226314D01*
X209363068Y-54405568D01*
X209363072Y-54405575D01*
X209384206Y-54437204D01*
X209384207Y-54437205D01*
X209882412Y-53939000D01*
X209836662Y-53893250D01*
X210005966Y-53893250D01*
X210005966Y-53984750D01*
X210040981Y-54069285D01*
X210105681Y-54133985D01*
X210190216Y-54169000D01*
X210281716Y-54169000D01*
X210366251Y-54133985D01*
X210430951Y-54069285D01*
X210465966Y-53984750D01*
X210465966Y-53938999D01*
X210589520Y-53938999D01*
X210589520Y-53939000D01*
X211087724Y-54437204D01*
X211108865Y-54405565D01*
X211183111Y-54226318D01*
X211183114Y-54226306D01*
X211220965Y-54036018D01*
X211220966Y-54036016D01*
X211220966Y-53841983D01*
X211220965Y-53841981D01*
X211183114Y-53651693D01*
X211183111Y-53651681D01*
X211108864Y-53472431D01*
X211087724Y-53440794D01*
X210589520Y-53938999D01*
X210465966Y-53938999D01*
X210465966Y-53893250D01*
X210430951Y-53808715D01*
X210366251Y-53744015D01*
X210281716Y-53709000D01*
X210190216Y-53709000D01*
X210105681Y-53744015D01*
X210040981Y-53808715D01*
X210005966Y-53893250D01*
X209836662Y-53893250D01*
X209384206Y-53440794D01*
X209363070Y-53472426D01*
X209363069Y-53472428D01*
X209288819Y-53651685D01*
X209288817Y-53651693D01*
X209250966Y-53841981D01*
X71786159Y-53841981D01*
X71748308Y-53651693D01*
X71748305Y-53651681D01*
X71674058Y-53472431D01*
X71652918Y-53440794D01*
X71154714Y-53938999D01*
X71031160Y-53938999D01*
X71031160Y-53893250D01*
X70996145Y-53808715D01*
X70931445Y-53744015D01*
X70846910Y-53709000D01*
X70755410Y-53709000D01*
X70670875Y-53744015D01*
X70606175Y-53808715D01*
X70571160Y-53893250D01*
X70401856Y-53893250D01*
X69949400Y-53440794D01*
X69928264Y-53472426D01*
X69928263Y-53472428D01*
X69854013Y-53651685D01*
X69854011Y-53651693D01*
X69816160Y-53841981D01*
X65362460Y-53841981D01*
X65351331Y-53087240D01*
X70302954Y-53087240D01*
X70801160Y-53585446D01*
X70801161Y-53585446D01*
X71299365Y-53087240D01*
X209737760Y-53087240D01*
X210235966Y-53585446D01*
X210235967Y-53585446D01*
X210734171Y-53087241D01*
X210734170Y-53087240D01*
X210702541Y-53066106D01*
X210702534Y-53066102D01*
X210523280Y-52991853D01*
X210523272Y-52991851D01*
X210332983Y-52954000D01*
X210138949Y-52954000D01*
X209948659Y-52991851D01*
X209948651Y-52991853D01*
X209769394Y-53066103D01*
X209769392Y-53066104D01*
X209737760Y-53087240D01*
X71299365Y-53087240D01*
X71267735Y-53066106D01*
X71267728Y-53066102D01*
X71088474Y-52991853D01*
X71088466Y-52991851D01*
X70898177Y-52954000D01*
X70704143Y-52954000D01*
X70513853Y-52991851D01*
X70513845Y-52991853D01*
X70334588Y-53066103D01*
X70334586Y-53066104D01*
X70302954Y-53087240D01*
X65351331Y-53087240D01*
X65312831Y-50476233D01*
X65331525Y-50408915D01*
X65383649Y-50362386D01*
X65437219Y-50350410D01*
X215615221Y-50838591D01*
G37*
%TD.AperFunction*%
%TD*%
M02*
