M48
; DRILL file {KiCad 9.0.5} date 2026-04-03T10:29:49-0500
; FORMAT={-:-/ absolute / metric / decimal}
; #@! TF.CreationDate,2026-04-03T10:29:49-05:00
; #@! TF.GenerationSoftware,Kicad,Pcbnew,9.0.5
; #@! TF.FileFunction,Plated,1,4,PTH
FMAT,2
METRIC
; #@! TA.AperFunction,Plated,PTH,ViaDrill
T1C0.254
; #@! TA.AperFunction,Plated,PTH,ViaDrill
T2C0.300
; #@! TA.AperFunction,Plated,PTH,ComponentDrill
T3C0.460
%
G90
G05
T1
X74.854Y-104.299
X74.854Y-105.792
X75.571Y-103.002
X76.72Y-102.442
X77.311Y-104.299
X77.311Y-105.792
X98.09Y-136.577
X98.09Y-138.07
X98.183Y-88.366
X98.183Y-89.859
X98.807Y-135.28
X98.9Y-87.069
X99.956Y-134.72
X100.049Y-86.509
X100.547Y-136.577
X100.547Y-138.07
X100.64Y-88.366
X100.64Y-89.859
X122.852Y-72.367
X122.852Y-73.86
X123.569Y-71.069
X124.718Y-70.509
X125.309Y-72.367
X125.309Y-73.86
X154.959Y-72.387
X154.959Y-73.88
X155.676Y-71.09
X156.825Y-70.53
X157.416Y-72.387
X157.416Y-73.88
X180.242Y-136.542
X180.242Y-138.035
X180.414Y-88.336
X180.414Y-89.829
X180.959Y-135.245
X181.131Y-87.038
X182.108Y-134.685
X182.28Y-86.478
X182.699Y-136.542
X182.699Y-138.035
X182.871Y-88.336
X182.871Y-89.829
X203.651Y-104.323
X203.651Y-105.816
X204.368Y-103.026
X205.517Y-102.466
X206.108Y-104.323
X206.108Y-105.816
T2
X71.529Y-73.452
X71.564Y-137.514
X71.579Y-121.319
X71.602Y-57.515
X71.604Y-105.253
X71.632Y-89.385
X71.896Y-75.24
X71.931Y-139.302
X71.946Y-123.107
X71.969Y-59.303
X71.971Y-107.041
X71.999Y-91.173
X73.029Y-73.452
X73.064Y-137.514
X73.079Y-121.319
X73.102Y-57.515
X73.132Y-89.385
X73.396Y-75.24
X73.431Y-139.302
X73.446Y-123.107
X73.469Y-59.303
X73.499Y-91.173
X74.529Y-73.452
X74.564Y-137.514
X74.579Y-121.319
X74.602Y-57.515
X74.632Y-89.385
X74.896Y-75.24
X74.931Y-139.302
X74.946Y-123.107
X74.969Y-59.303
X74.999Y-91.173
X76.029Y-73.452
X76.064Y-137.514
X76.079Y-121.319
X76.102Y-57.515
X76.132Y-89.385
X76.396Y-75.24
X76.431Y-139.302
X76.446Y-123.107
X76.469Y-59.303
X76.499Y-91.173
X77.372Y-108.844
X77.529Y-73.452
X77.564Y-137.514
X77.579Y-121.319
X77.602Y-57.515
X77.632Y-89.385
X77.896Y-75.24
X77.931Y-139.302
X77.946Y-123.107
X77.969Y-59.303
X77.999Y-91.173
X79.029Y-73.452
X79.064Y-137.514
X79.079Y-121.319
X79.102Y-57.515
X79.132Y-89.385
X79.396Y-75.24
X79.469Y-59.303
X79.499Y-91.173
X79.936Y-123.915
X79.94Y-140.197
X80.529Y-73.452
X80.564Y-137.514
X80.579Y-121.319
X80.602Y-57.515
X80.604Y-105.253
X80.632Y-89.385
X80.826Y-123.131
X80.896Y-75.24
X80.931Y-139.302
X80.969Y-59.303
X80.971Y-107.041
X80.999Y-91.173
X82.029Y-73.452
X82.064Y-137.514
X82.079Y-121.319
X82.102Y-57.515
X82.104Y-105.253
X82.132Y-89.385
X82.326Y-123.131
X82.396Y-75.24
X82.431Y-139.302
X82.469Y-59.303
X82.471Y-107.041
X82.499Y-91.173
X83.529Y-73.452
X83.564Y-137.514
X83.579Y-121.319
X83.602Y-57.515
X83.604Y-105.253
X83.632Y-89.385
X83.826Y-123.131
X83.896Y-75.24
X83.931Y-139.302
X83.969Y-59.303
X83.971Y-107.041
X83.999Y-91.173
X85.029Y-73.452
X85.064Y-137.514
X85.079Y-121.319
X85.102Y-57.515
X85.104Y-105.253
X85.132Y-89.385
X85.326Y-123.131
X85.396Y-75.24
X85.431Y-139.302
X85.469Y-59.303
X85.471Y-107.041
X85.499Y-91.173
X86.529Y-73.452
X86.564Y-137.514
X86.579Y-121.319
X86.602Y-57.515
X86.604Y-105.253
X86.632Y-89.385
X86.826Y-123.131
X86.896Y-75.24
X86.931Y-139.302
X86.969Y-59.303
X86.971Y-107.041
X86.999Y-91.173
X87.827Y-123.915
X87.831Y-140.197
X88.029Y-73.452
X88.064Y-137.514
X88.079Y-121.319
X88.102Y-57.515
X88.104Y-105.253
X88.132Y-89.385
X88.396Y-75.24
X88.469Y-59.303
X88.471Y-107.041
X88.499Y-91.173
X88.973Y-123.142
X89.351Y-139.322
X89.529Y-73.452
X89.564Y-137.514
X89.579Y-121.319
X89.602Y-57.515
X89.604Y-105.253
X89.632Y-89.385
X89.896Y-75.24
X89.969Y-59.303
X89.971Y-107.041
X89.999Y-91.173
X90.473Y-123.142
X90.851Y-139.322
X91.029Y-73.452
X91.064Y-137.514
X91.079Y-121.319
X91.102Y-57.515
X91.104Y-105.253
X91.132Y-89.385
X91.396Y-75.24
X91.469Y-59.303
X91.471Y-107.041
X91.499Y-91.173
X91.973Y-123.142
X92.351Y-139.322
X92.529Y-73.452
X92.564Y-137.514
X92.579Y-121.319
X92.602Y-57.515
X92.604Y-105.253
X92.632Y-89.385
X92.896Y-75.24
X92.969Y-59.303
X92.971Y-107.041
X92.999Y-91.173
X93.473Y-123.142
X93.851Y-139.322
X94.029Y-73.452
X94.064Y-137.514
X94.079Y-121.319
X94.102Y-57.515
X94.104Y-105.253
X94.132Y-89.385
X94.396Y-75.24
X94.469Y-59.303
X94.471Y-107.041
X94.499Y-91.173
X94.973Y-123.142
X95.351Y-139.322
X95.529Y-73.452
X95.564Y-137.514
X95.579Y-121.319
X95.602Y-57.515
X95.604Y-105.253
X95.632Y-89.385
X95.896Y-75.24
X95.969Y-59.303
X95.971Y-107.041
X95.999Y-91.173
X96.473Y-123.142
X97.029Y-73.452
X97.079Y-121.319
X97.102Y-57.515
X97.104Y-105.253
X97.396Y-75.24
X97.469Y-59.303
X97.471Y-107.041
X97.973Y-123.142
X98.529Y-73.452
X98.579Y-121.319
X98.602Y-57.515
X98.604Y-105.253
X98.896Y-75.24
X98.969Y-59.303
X98.971Y-107.041
X100.029Y-73.452
X100.079Y-121.319
X100.102Y-57.515
X100.104Y-105.253
X100.396Y-75.24
X100.446Y-123.107
X100.469Y-59.303
X100.471Y-107.041
X100.578Y-125.579
X100.8Y-141.072
X100.818Y-92.895
X101.529Y-73.452
X101.579Y-121.319
X101.602Y-57.515
X101.604Y-105.253
X101.896Y-75.24
X101.946Y-123.107
X101.969Y-59.303
X101.971Y-107.041
X103.029Y-73.452
X103.064Y-137.514
X103.079Y-121.319
X103.102Y-57.515
X103.104Y-105.253
X103.132Y-89.385
X103.396Y-75.24
X103.431Y-139.302
X103.446Y-123.107
X103.469Y-59.303
X103.471Y-107.041
X103.499Y-91.173
X104.529Y-73.452
X104.564Y-137.514
X104.579Y-121.319
X104.602Y-57.515
X104.604Y-105.253
X104.632Y-89.385
X104.896Y-75.24
X104.931Y-139.302
X104.946Y-123.107
X104.969Y-59.303
X104.971Y-107.041
X104.999Y-91.173
X106.029Y-73.452
X106.064Y-137.514
X106.079Y-121.319
X106.102Y-57.515
X106.104Y-105.253
X106.132Y-89.385
X106.396Y-75.24
X106.431Y-139.302
X106.446Y-123.107
X106.469Y-59.303
X106.471Y-107.041
X106.499Y-91.173
X107.529Y-73.452
X107.564Y-137.514
X107.579Y-121.319
X107.602Y-57.515
X107.604Y-105.253
X107.632Y-89.385
X107.896Y-75.24
X107.931Y-139.302
X107.946Y-123.107
X107.969Y-59.303
X107.971Y-107.041
X107.999Y-91.173
X109.029Y-73.452
X109.064Y-137.514
X109.079Y-121.319
X109.102Y-57.515
X109.104Y-105.253
X109.132Y-89.385
X109.396Y-75.24
X109.431Y-139.302
X109.446Y-123.107
X109.469Y-59.303
X109.471Y-107.041
X109.499Y-91.173
X110.529Y-73.452
X110.564Y-137.514
X110.579Y-121.319
X110.602Y-57.515
X110.604Y-105.253
X110.632Y-89.385
X110.896Y-75.24
X110.931Y-139.302
X110.946Y-123.107
X110.969Y-59.303
X110.971Y-107.041
X110.999Y-91.173
X112.029Y-73.452
X112.064Y-137.514
X112.079Y-121.319
X112.102Y-57.515
X112.104Y-105.253
X112.132Y-89.385
X112.396Y-75.24
X112.431Y-139.302
X112.446Y-123.107
X112.469Y-59.303
X112.471Y-107.041
X112.499Y-91.173
X113.529Y-73.452
X113.564Y-137.514
X113.579Y-121.319
X113.602Y-57.515
X113.604Y-105.253
X113.632Y-89.385
X113.896Y-75.24
X113.931Y-139.302
X113.946Y-123.107
X113.969Y-59.303
X113.971Y-107.041
X113.999Y-91.173
X115.029Y-73.452
X115.064Y-137.514
X115.079Y-121.319
X115.102Y-57.515
X115.104Y-105.253
X115.132Y-89.385
X115.396Y-75.24
X115.431Y-139.302
X115.446Y-123.107
X115.469Y-59.303
X115.471Y-107.041
X115.499Y-91.173
X116.529Y-73.452
X116.564Y-137.514
X116.579Y-121.319
X116.602Y-57.515
X116.604Y-105.253
X116.632Y-89.385
X116.896Y-75.24
X116.931Y-139.302
X116.946Y-123.107
X116.969Y-59.303
X116.971Y-107.041
X116.999Y-91.173
X118.029Y-73.452
X118.064Y-137.514
X118.079Y-121.319
X118.102Y-57.515
X118.104Y-105.253
X118.132Y-89.385
X118.396Y-75.24
X118.431Y-139.302
X118.446Y-123.107
X118.469Y-59.303
X118.471Y-107.041
X118.499Y-91.173
X119.529Y-73.452
X119.564Y-137.514
X119.579Y-121.319
X119.602Y-57.515
X119.604Y-105.253
X119.632Y-89.385
X119.896Y-75.24
X119.931Y-139.302
X119.946Y-123.107
X119.969Y-59.303
X119.971Y-107.041
X119.999Y-91.173
X121.064Y-137.514
X121.079Y-121.319
X121.102Y-57.515
X121.104Y-105.253
X121.132Y-89.385
X121.431Y-139.302
X121.446Y-123.107
X121.469Y-59.303
X121.471Y-107.041
X121.499Y-91.173
X122.564Y-137.514
X122.579Y-121.319
X122.602Y-57.515
X122.604Y-105.253
X122.632Y-89.385
X122.931Y-139.302
X122.946Y-123.107
X122.969Y-59.303
X122.971Y-107.041
X122.999Y-91.173
X123.737Y-121.357
X123.754Y-137.538
X123.776Y-105.313
X123.822Y-89.409
X124.431Y-139.302
X124.446Y-123.107
X124.469Y-59.303
X124.471Y-107.041
X124.499Y-91.173
X124.997Y-137.559
X125.012Y-121.364
X125.035Y-57.56
X125.037Y-105.298
X125.065Y-89.43
X125.218Y-54.613
X125.266Y-76.87
X125.931Y-139.302
X125.946Y-123.107
X125.969Y-59.303
X125.971Y-107.041
X125.999Y-91.173
X126.497Y-137.559
X126.512Y-121.364
X126.535Y-57.56
X126.537Y-105.298
X126.565Y-89.43
X127.431Y-139.302
X127.446Y-123.107
X127.469Y-59.303
X127.471Y-107.041
X127.499Y-91.173
X127.962Y-73.497
X127.997Y-137.559
X128.012Y-121.364
X128.035Y-57.56
X128.037Y-105.298
X128.065Y-89.43
X128.896Y-75.24
X128.931Y-139.302
X128.946Y-123.107
X128.969Y-59.303
X128.971Y-107.041
X128.999Y-91.173
X129.462Y-73.497
X129.497Y-137.559
X129.512Y-121.364
X129.535Y-57.56
X129.537Y-105.298
X129.565Y-89.43
X130.396Y-75.24
X130.431Y-139.302
X130.446Y-123.107
X130.469Y-59.303
X130.471Y-107.041
X130.499Y-91.173
X130.962Y-73.497
X130.997Y-137.559
X131.012Y-121.364
X131.035Y-57.56
X131.037Y-105.298
X131.065Y-89.43
X131.896Y-75.24
X131.931Y-139.302
X131.946Y-123.107
X131.969Y-59.303
X131.971Y-107.041
X131.999Y-91.173
X132.462Y-73.497
X132.497Y-137.559
X132.512Y-121.364
X132.535Y-57.56
X132.537Y-105.298
X132.565Y-89.43
X133.396Y-75.24
X133.431Y-139.302
X133.446Y-123.107
X133.469Y-59.303
X133.471Y-107.041
X133.499Y-91.173
X133.962Y-73.497
X133.997Y-137.559
X134.012Y-121.364
X134.035Y-57.56
X134.037Y-105.298
X134.065Y-89.43
X134.896Y-75.24
X134.931Y-139.302
X134.946Y-123.107
X134.969Y-59.303
X134.971Y-107.041
X134.999Y-91.173
X135.462Y-73.497
X135.497Y-137.559
X135.512Y-121.364
X135.535Y-57.56
X135.537Y-105.298
X135.565Y-89.43
X136.396Y-75.24
X136.431Y-139.302
X136.446Y-123.107
X136.469Y-59.303
X136.471Y-107.041
X136.499Y-91.173
X136.962Y-73.497
X136.997Y-137.559
X137.012Y-121.364
X137.035Y-57.56
X137.037Y-105.298
X137.065Y-89.43
X137.896Y-75.24
X137.931Y-139.302
X137.946Y-123.107
X137.969Y-59.303
X137.971Y-107.041
X137.999Y-91.173
X138.462Y-73.497
X138.497Y-137.559
X138.512Y-121.364
X138.535Y-57.56
X138.537Y-105.298
X138.565Y-89.43
X139.396Y-75.24
X139.431Y-139.302
X139.446Y-123.107
X139.469Y-59.303
X139.471Y-107.041
X139.499Y-91.173
X139.962Y-73.497
X139.997Y-137.559
X140.012Y-121.364
X140.035Y-57.56
X140.037Y-105.298
X140.065Y-89.43
X140.896Y-75.24
X140.931Y-139.302
X140.946Y-123.107
X140.969Y-59.303
X140.971Y-107.041
X140.999Y-91.173
X141.462Y-73.497
X141.497Y-137.559
X141.512Y-121.364
X141.535Y-57.56
X141.537Y-105.298
X141.565Y-89.43
X142.396Y-75.24
X142.431Y-139.302
X142.446Y-123.107
X142.469Y-59.303
X142.471Y-107.041
X142.499Y-91.173
X142.962Y-73.497
X142.997Y-137.559
X143.012Y-121.364
X143.035Y-57.56
X143.037Y-105.298
X143.065Y-89.43
X143.896Y-75.24
X143.931Y-139.302
X143.946Y-123.107
X143.969Y-59.303
X143.971Y-107.041
X143.999Y-91.173
X144.462Y-73.497
X144.497Y-137.559
X144.512Y-121.364
X144.535Y-57.56
X144.537Y-105.298
X144.565Y-89.43
X145.396Y-75.24
X145.431Y-139.302
X145.446Y-123.107
X145.469Y-59.303
X145.471Y-107.041
X145.499Y-91.173
X145.962Y-73.497
X145.997Y-137.559
X146.012Y-121.364
X146.035Y-57.56
X146.037Y-105.298
X146.065Y-89.43
X146.896Y-75.24
X146.931Y-139.302
X146.946Y-123.107
X146.969Y-59.303
X146.971Y-107.041
X146.999Y-91.173
X147.462Y-73.497
X147.497Y-137.559
X147.512Y-121.364
X147.535Y-57.56
X147.537Y-105.298
X147.565Y-89.43
X148.396Y-75.24
X148.431Y-139.302
X148.446Y-123.107
X148.469Y-59.303
X148.471Y-107.041
X148.499Y-91.173
X148.962Y-73.497
X148.997Y-137.559
X149.012Y-121.364
X149.035Y-57.56
X149.037Y-105.298
X149.065Y-89.43
X149.896Y-75.24
X149.931Y-139.302
X149.946Y-123.107
X149.969Y-59.303
X149.971Y-107.041
X149.999Y-91.173
X150.462Y-73.497
X150.497Y-137.559
X150.512Y-121.364
X150.535Y-57.56
X150.537Y-105.298
X150.565Y-89.43
X151.396Y-75.24
X151.431Y-139.302
X151.446Y-123.107
X151.469Y-59.303
X151.471Y-107.041
X151.499Y-91.173
X151.962Y-73.497
X151.997Y-137.559
X152.012Y-121.364
X152.035Y-57.56
X152.037Y-105.298
X152.065Y-89.43
X152.896Y-75.24
X152.931Y-139.302
X152.946Y-123.107
X152.969Y-59.303
X152.971Y-107.041
X152.999Y-91.173
X153.497Y-137.559
X153.512Y-121.364
X153.535Y-57.56
X153.537Y-105.298
X153.565Y-89.43
X154.431Y-139.302
X154.446Y-123.107
X154.469Y-59.303
X154.471Y-107.041
X154.499Y-91.173
X154.997Y-137.559
X155.012Y-121.364
X155.035Y-57.56
X155.037Y-105.298
X155.065Y-89.43
X155.931Y-139.302
X155.946Y-123.107
X155.969Y-59.303
X155.971Y-107.041
X155.999Y-91.173
X156.149Y-105.286
X156.151Y-121.403
X156.166Y-137.574
X156.234Y-89.445
X157.394Y-137.548
X157.409Y-121.353
X157.431Y-139.302
X157.432Y-57.549
X157.434Y-105.287
X157.446Y-123.107
X157.462Y-89.419
X157.469Y-59.303
X157.471Y-107.041
X157.482Y-54.608
X157.492Y-76.861
X157.499Y-91.173
X158.894Y-137.548
X158.909Y-121.353
X158.931Y-139.302
X158.932Y-57.549
X158.934Y-105.287
X158.946Y-123.107
X158.962Y-89.419
X158.969Y-59.303
X158.971Y-107.041
X158.999Y-91.173
X160.359Y-73.486
X160.394Y-137.548
X160.396Y-75.24
X160.409Y-121.353
X160.431Y-139.302
X160.432Y-57.549
X160.434Y-105.287
X160.446Y-123.107
X160.462Y-89.419
X160.469Y-59.303
X160.471Y-107.041
X160.499Y-91.173
X161.859Y-73.486
X161.894Y-137.548
X161.896Y-75.24
X161.909Y-121.353
X161.931Y-139.302
X161.932Y-57.549
X161.934Y-105.287
X161.946Y-123.107
X161.962Y-89.419
X161.969Y-59.303
X161.971Y-107.041
X161.999Y-91.173
X163.359Y-73.486
X163.394Y-137.548
X163.396Y-75.24
X163.409Y-121.353
X163.431Y-139.302
X163.432Y-57.549
X163.434Y-105.287
X163.446Y-123.107
X163.462Y-89.419
X163.469Y-59.303
X163.471Y-107.041
X163.499Y-91.173
X164.859Y-73.486
X164.894Y-137.548
X164.896Y-75.24
X164.909Y-121.353
X164.931Y-139.302
X164.932Y-57.549
X164.934Y-105.287
X164.946Y-123.107
X164.962Y-89.419
X164.969Y-59.303
X164.971Y-107.041
X164.999Y-91.173
X166.359Y-73.486
X166.394Y-137.548
X166.396Y-75.24
X166.409Y-121.353
X166.431Y-139.302
X166.432Y-57.549
X166.434Y-105.287
X166.446Y-123.107
X166.462Y-89.419
X166.469Y-59.303
X166.471Y-107.041
X166.499Y-91.173
X167.859Y-73.486
X167.894Y-137.548
X167.896Y-75.24
X167.909Y-121.353
X167.931Y-139.302
X167.932Y-57.549
X167.934Y-105.287
X167.946Y-123.107
X167.962Y-89.419
X167.969Y-59.303
X167.971Y-107.041
X167.999Y-91.173
X169.359Y-73.486
X169.394Y-137.548
X169.396Y-75.24
X169.409Y-121.353
X169.431Y-139.302
X169.432Y-57.549
X169.434Y-105.287
X169.446Y-123.107
X169.462Y-89.419
X169.469Y-59.303
X169.471Y-107.041
X169.499Y-91.173
X170.859Y-73.486
X170.894Y-137.548
X170.896Y-75.24
X170.909Y-121.353
X170.931Y-139.302
X170.932Y-57.549
X170.934Y-105.287
X170.946Y-123.107
X170.962Y-89.419
X170.969Y-59.303
X170.971Y-107.041
X170.999Y-91.173
X172.359Y-73.486
X172.394Y-137.548
X172.396Y-75.24
X172.409Y-121.353
X172.431Y-139.302
X172.432Y-57.549
X172.434Y-105.287
X172.446Y-123.107
X172.462Y-89.419
X172.469Y-59.303
X172.471Y-107.041
X172.499Y-91.173
X173.859Y-73.486
X173.894Y-137.548
X173.896Y-75.24
X173.909Y-121.353
X173.931Y-139.302
X173.932Y-57.549
X173.934Y-105.287
X173.946Y-123.107
X173.962Y-89.419
X173.969Y-59.303
X173.971Y-107.041
X173.999Y-91.173
X175.359Y-73.486
X175.394Y-137.548
X175.396Y-75.24
X175.409Y-121.353
X175.431Y-139.302
X175.432Y-57.549
X175.434Y-105.287
X175.446Y-123.107
X175.462Y-89.419
X175.469Y-59.303
X175.471Y-107.041
X175.499Y-91.173
X176.859Y-73.486
X176.894Y-137.548
X176.896Y-75.24
X176.909Y-121.353
X176.931Y-139.302
X176.932Y-57.549
X176.934Y-105.287
X176.946Y-123.107
X176.962Y-89.419
X176.969Y-59.303
X176.971Y-107.041
X176.999Y-91.173
X178.359Y-73.486
X178.396Y-75.24
X178.409Y-121.353
X178.432Y-57.549
X178.434Y-105.287
X178.446Y-123.107
X178.469Y-59.303
X178.471Y-107.041
X178.499Y-91.173
X179.859Y-73.486
X179.896Y-75.24
X179.909Y-121.353
X179.932Y-57.549
X179.934Y-105.287
X179.946Y-123.107
X179.969Y-59.303
X179.971Y-107.041
X181.359Y-73.486
X181.396Y-75.24
X181.409Y-121.353
X181.432Y-57.549
X181.434Y-105.287
X181.469Y-59.303
X181.471Y-107.041
X182.756Y-125.603
X182.859Y-73.486
X182.896Y-75.24
X182.899Y-141.049
X182.909Y-121.353
X182.932Y-57.549
X182.934Y-105.287
X182.946Y-123.107
X182.969Y-59.303
X182.971Y-107.041
X183.066Y-92.975
X184.359Y-73.486
X184.396Y-75.24
X184.409Y-121.353
X184.432Y-57.549
X184.434Y-105.287
X184.446Y-123.107
X184.469Y-59.303
X184.471Y-107.041
X185.859Y-73.486
X185.894Y-137.548
X185.896Y-75.24
X185.909Y-121.353
X185.931Y-139.302
X185.932Y-57.549
X185.934Y-105.287
X185.946Y-123.107
X185.962Y-89.419
X185.969Y-59.303
X185.971Y-107.041
X185.999Y-91.173
X187.359Y-73.486
X187.394Y-137.548
X187.396Y-75.24
X187.409Y-121.353
X187.431Y-139.302
X187.432Y-57.549
X187.434Y-105.287
X187.446Y-123.107
X187.462Y-89.419
X187.469Y-59.303
X187.471Y-107.041
X187.499Y-91.173
X188.859Y-73.486
X188.894Y-137.548
X188.896Y-75.24
X188.909Y-121.353
X188.931Y-139.302
X188.932Y-57.549
X188.934Y-105.287
X188.946Y-123.107
X188.962Y-89.419
X188.969Y-59.303
X188.971Y-107.041
X188.999Y-91.173
X190.359Y-73.486
X190.394Y-137.548
X190.396Y-75.24
X190.409Y-121.353
X190.431Y-139.302
X190.432Y-57.549
X190.434Y-105.287
X190.446Y-123.107
X190.462Y-89.419
X190.469Y-59.303
X190.471Y-107.041
X190.499Y-91.173
X191.736Y-140.127
X191.859Y-73.486
X191.894Y-137.548
X191.896Y-75.24
X191.909Y-121.353
X191.93Y-123.965
X191.932Y-57.549
X191.934Y-105.287
X191.962Y-89.419
X191.969Y-59.303
X191.971Y-107.041
X191.999Y-91.173
X192.767Y-139.354
X193.004Y-123.167
X193.359Y-73.486
X193.394Y-137.548
X193.396Y-75.24
X193.409Y-121.353
X193.432Y-57.549
X193.434Y-105.287
X193.462Y-89.419
X193.469Y-59.303
X193.471Y-107.041
X193.499Y-91.173
X194.267Y-139.354
X194.504Y-123.167
X194.859Y-73.486
X194.894Y-137.548
X194.896Y-75.24
X194.909Y-121.353
X194.932Y-57.549
X194.934Y-105.287
X194.962Y-89.419
X194.969Y-59.303
X194.971Y-107.041
X194.999Y-91.173
X195.767Y-139.354
X196.004Y-123.167
X196.359Y-73.486
X196.394Y-137.548
X196.396Y-75.24
X196.409Y-121.353
X196.432Y-57.549
X196.434Y-105.287
X196.462Y-89.419
X196.469Y-59.303
X196.471Y-107.041
X196.499Y-91.173
X197.267Y-139.354
X197.504Y-123.167
X197.859Y-73.486
X197.894Y-137.548
X197.896Y-75.24
X197.909Y-121.353
X197.932Y-57.549
X197.934Y-105.287
X197.962Y-89.419
X197.969Y-59.303
X197.971Y-107.041
X197.999Y-91.173
X198.767Y-139.354
X199.004Y-123.167
X199.359Y-73.486
X199.394Y-137.548
X199.396Y-75.24
X199.409Y-121.353
X199.432Y-57.549
X199.434Y-105.287
X199.462Y-89.419
X199.469Y-59.303
X199.471Y-107.041
X199.499Y-91.173
X199.627Y-140.127
X199.821Y-123.965
X200.859Y-73.486
X200.894Y-137.548
X200.896Y-75.24
X200.909Y-121.353
X200.931Y-139.302
X200.932Y-57.549
X200.934Y-105.287
X200.946Y-123.107
X200.962Y-89.419
X200.969Y-59.303
X200.971Y-107.041
X200.999Y-91.173
X202.359Y-73.486
X202.394Y-137.548
X202.396Y-75.24
X202.409Y-121.353
X202.431Y-139.302
X202.432Y-57.549
X202.446Y-123.107
X202.462Y-89.419
X202.469Y-59.303
X202.499Y-91.173
X203.859Y-73.486
X203.894Y-137.548
X203.896Y-75.24
X203.909Y-121.353
X203.931Y-139.302
X203.932Y-57.549
X203.946Y-123.107
X203.962Y-89.419
X203.969Y-59.303
X203.999Y-91.173
X205.359Y-73.486
X205.394Y-137.548
X205.396Y-75.24
X205.409Y-121.353
X205.431Y-139.302
X205.432Y-57.549
X205.446Y-123.107
X205.462Y-89.419
X205.469Y-59.303
X205.499Y-91.173
X206.16Y-108.849
X206.859Y-73.486
X206.894Y-137.548
X206.896Y-75.24
X206.909Y-121.353
X206.931Y-139.302
X206.932Y-57.549
X206.946Y-123.107
X206.962Y-89.419
X206.969Y-59.303
X206.999Y-91.173
X208.359Y-73.486
X208.394Y-137.548
X208.396Y-75.24
X208.409Y-121.353
X208.431Y-139.302
X208.432Y-57.549
X208.446Y-123.107
X208.462Y-89.419
X208.469Y-59.303
X208.471Y-107.041
X208.499Y-91.173
X208.702Y-105.285
X209.859Y-73.486
X209.894Y-137.548
X209.896Y-75.24
X209.909Y-121.353
X209.931Y-139.302
X209.932Y-57.549
X209.946Y-123.107
X209.962Y-89.419
X209.969Y-59.303
X209.971Y-107.041
X209.999Y-91.173
X210.202Y-105.285
T3
X70.801Y-53.939
X70.801Y-62.699
X70.801Y-69.922
X70.801Y-78.682
X70.801Y-85.905
X70.801Y-94.665
X70.801Y-101.888
X70.801Y-110.648
X70.801Y-117.871
X70.801Y-126.631
X70.801Y-133.854
X70.801Y-142.614
X210.236Y-53.939
X210.236Y-62.699
X210.236Y-69.979
X210.236Y-78.739
X210.236Y-85.905
X210.236Y-94.665
X210.236Y-101.888
X210.236Y-110.648
X210.236Y-117.871
X210.236Y-126.631
X210.236Y-133.854
X210.236Y-142.614
M30
